<svg xmlns="http://www.w3.org/2000/svg" width="1200" height="1800" viewBox="0 0 1200 1800"><defs><mask id="safe"><rect width="1200" height="1800" fill="white"/><rect x="36" y="1564" width="1128" height="200" fill="black"/></mask></defs><g mask="url(#safe)"><rect x="0" y="0" width="1200" height="100" rx="0" fill="#eef0df" /><rect x="0" y="100" width="100" height="1700" rx="0" fill="#eef0df" /><rect x="1100" y="100" width="100" height="1700" rx="0" fill="#eef0df" /><rect x="0" y="1760" width="1200" height="40" rx="0" fill="#eef0df" /><rect x="40" y="40" width="1120" height="1720" rx="0" fill="none" stroke="#64816b" stroke-width="2"/><rect x="20" y="155" width="60" height="60" rx="0" fill="#64816b" opacity=".2"/><rect x="20" y="215" width="30" height="60" rx="0" fill="#64816b" opacity=".15"/><rect x="20" y="276" width="60" height="60" rx="0" fill="#64816b" opacity=".2"/><rect x="20" y="336" width="30" height="60" rx="0" fill="#64816b" opacity=".15"/><rect x="20" y="397" width="60" height="60" rx="0" fill="#64816b" opacity=".2"/><rect x="20" y="457" width="30" height="60" rx="0" fill="#64816b" opacity=".15"/><rect x="20" y="518" width="60" height="60" rx="0" fill="#64816b" opacity=".2"/><rect x="20" y="578" width="30" height="60" rx="0" fill="#64816b" opacity=".15"/><rect x="20" y="639" width="60" height="60" rx="0" fill="#64816b" opacity=".2"/><rect x="20" y="699" width="30" height="60" rx="0" fill="#64816b" opacity=".15"/><rect x="20" y="760" width="60" height="60" rx="0" fill="#64816b" opacity=".2"/><rect x="20" y="820" width="30" height="60" rx="0" fill="#64816b" opacity=".15"/><rect x="20" y="881" width="60" height="60" rx="0" fill="#64816b" opacity=".2"/><rect x="20" y="941" width="30" height="60" rx="0" fill="#64816b" opacity=".15"/><rect x="20" y="1002" width="60" height="60" rx="0" fill="#64816b" opacity=".2"/><rect x="20" y="1062" width="30" height="60" rx="0" fill="#64816b" opacity=".15"/><rect x="20" y="1123" width="60" height="60" rx="0" fill="#64816b" opacity=".2"/><rect x="20" y="1183" width="30" height="60" rx="0" fill="#64816b" opacity=".15"/><rect x="20" y="1244" width="60" height="60" rx="0" fill="#64816b" opacity=".2"/><rect x="20" y="1304" width="30" height="60" rx="0" fill="#64816b" opacity=".15"/><rect x="20" y="1365" width="60" height="60" rx="0" fill="#64816b" opacity=".2"/><rect x="20" y="1425" width="30" height="60" rx="0" fill="#64816b" opacity=".15"/><rect x="20" y="1486" width="60" height="60" rx="0" fill="#64816b" opacity=".2"/><rect x="20" y="1546" width="30" height="60" rx="0" fill="#64816b" opacity=".15"/><rect x="20" y="1607" width="60" height="60" rx="0" fill="#64816b" opacity=".2"/><rect x="20" y="1667" width="30" height="60" rx="0" fill="#64816b" opacity=".15"/><rect x="1120" y="155" width="60" height="60" rx="0" fill="#64816b" opacity=".2"/><rect x="1120" y="215" width="30" height="60" rx="0" fill="#64816b" opacity=".15"/><rect x="1120" y="276" width="60" height="60" rx="0" fill="#64816b" opacity=".2"/><rect x="1120" y="336" width="30" height="60" rx="0" fill="#64816b" opacity=".15"/><rect x="1120" y="397" width="60" height="60" rx="0" fill="#64816b" opacity=".2"/><rect x="1120" y="457" width="30" height="60" rx="0" fill="#64816b" opacity=".15"/><rect x="1120" y="518" width="60" height="60" rx="0" fill="#64816b" opacity=".2"/><rect x="1120" y="578" width="30" height="60" rx="0" fill="#64816b" opacity=".15"/><rect x="1120" y="639" width="60" height="60" rx="0" fill="#64816b" opacity=".2"/><rect x="1120" y="699" width="30" height="60" rx="0" fill="#64816b" opacity=".15"/><rect x="1120" y="760" width="60" height="60" rx="0" fill="#64816b" opacity=".2"/><rect x="1120" y="820" width="30" height="60" rx="0" fill="#64816b" opacity=".15"/><rect x="1120" y="881" width="60" height="60" rx="0" fill="#64816b" opacity=".2"/><rect x="1120" y="941" width="30" height="60" rx="0" fill="#64816b" opacity=".15"/><rect x="1120" y="1002" width="60" height="60" rx="0" fill="#64816b" opacity=".2"/><rect x="1120" y="1062" width="30" height="60" rx="0" fill="#64816b" opacity=".15"/><rect x="1120" y="1123" width="60" height="60" rx="0" fill="#64816b" opacity=".2"/><rect x="1120" y="1183" width="30" height="60" rx="0" fill="#64816b" opacity=".15"/><rect x="1120" y="1244" width="60" height="60" rx="0" fill="#64816b" opacity=".2"/><rect x="1120" y="1304" width="30" height="60" rx="0" fill="#64816b" opacity=".15"/><rect x="1120" y="1365" width="60" height="60" rx="0" fill="#64816b" opacity=".2"/><rect x="1120" y="1425" width="30" height="60" rx="0" fill="#64816b" opacity=".15"/><rect x="1120" y="1486" width="60" height="60" rx="0" fill="#64816b" opacity=".2"/><rect x="1120" y="1546" width="30" height="60" rx="0" fill="#64816b" opacity=".15"/><rect x="1120" y="1607" width="60" height="60" rx="0" fill="#64816b" opacity=".2"/><rect x="1120" y="1667" width="30" height="60" rx="0" fill="#64816b" opacity=".15"/><g transform="translate(75,180) scale(1.25) rotate(-10)"><rect x="-28" y="-19" width="46" height="44" rx="6" fill="#eef0df" stroke="#64816b" stroke-width="4"/><path d="M18-12Q48-12 39 9Q32 18 19 12M-35 31h70M-13-29q-8-9 0-18M4-29q-8-9 0-18" fill="none" stroke="#64816b" stroke-width="3" stroke-linecap="round" stroke-linejoin="round"/></g><g transform="translate(1125,420) scale(1.05) rotate(10)"><rect x="-28" y="-19" width="46" height="44" rx="6" fill="#eef0df" stroke="#64816b" stroke-width="4"/><path d="M18-12Q48-12 39 9Q32 18 19 12M-35 31h70M-13-29q-8-9 0-18M4-29q-8-9 0-18" fill="none" stroke="#64816b" stroke-width="3" stroke-linecap="round" stroke-linejoin="round"/></g><g transform="translate(70,1020) scale(0.95) rotate(-10)"><rect x="-28" y="-19" width="46" height="44" rx="6" fill="#eef0df" stroke="#64816b" stroke-width="4"/><path d="M18-12Q48-12 39 9Q32 18 19 12M-35 31h70M-13-29q-8-9 0-18M4-29q-8-9 0-18" fill="none" stroke="#64816b" stroke-width="3" stroke-linecap="round" stroke-linejoin="round"/></g><g transform="translate(1130,1440) scale(1.1) rotate(10)"><rect x="-28" y="-19" width="46" height="44" rx="6" fill="#eef0df" stroke="#64816b" stroke-width="4"/><path d="M18-12Q48-12 39 9Q32 18 19 12M-35 31h70M-13-29q-8-9 0-18M4-29q-8-9 0-18" fill="none" stroke="#64816b" stroke-width="3" stroke-linecap="round" stroke-linejoin="round"/></g><text x="600" y="65" fill="#64816b" font-family="Helvetica,Arial,sans-serif" font-size="32" letter-spacing="4" text-anchor="middle">MATCHA SOCIAL CLUB</text></g></svg>