<svg xmlns="http://www.w3.org/2000/svg" width="1200" height="1800" viewBox="0 0 1200 1800"><defs><mask id="safe"><rect width="1200" height="1800" fill="white"/><rect x="36" y="1564" width="1128" height="200" fill="black"/></mask></defs><g mask="url(#safe)"><rect x="0" y="0" width="1200" height="100" rx="0" fill="#fff1ec" /><rect x="0" y="100" width="100" height="1700" rx="0" fill="#fff1ec" /><rect x="1100" y="100" width="100" height="1700" rx="0" fill="#fff1ec" /><rect x="0" y="1760" width="1200" height="40" rx="0" fill="#fff1ec" /><rect x="40" y="40" width="1120" height="1720" rx="0" fill="none" stroke="#db7178" stroke-width="2"/><path d="M10 155l80-42v25l-80 42Z" fill="#db7178" opacity=".5"/><path d="M10 276l80-42v25l-80 42Z" fill="#db7178" opacity=".5"/><path d="M10 397l80-42v25l-80 42Z" fill="#db7178" opacity=".5"/><path d="M10 518l80-42v25l-80 42Z" fill="#db7178" opacity=".5"/><path d="M10 639l80-42v25l-80 42Z" fill="#db7178" opacity=".5"/><path d="M10 760l80-42v25l-80 42Z" fill="#db7178" opacity=".5"/><path d="M10 881l80-42v25l-80 42Z" fill="#db7178" opacity=".5"/><path d="M10 1002l80-42v25l-80 42Z" fill="#db7178" opacity=".5"/><path d="M10 1123l80-42v25l-80 42Z" fill="#db7178" opacity=".5"/><path d="M10 1244l80-42v25l-80 42Z" fill="#db7178" opacity=".5"/><path d="M10 1365l80-42v25l-80 42Z" fill="#db7178" opacity=".5"/><path d="M10 1486l80-42v25l-80 42Z" fill="#db7178" opacity=".5"/><path d="M10 1607l80-42v25l-80 42Z" fill="#db7178" opacity=".5"/><path d="M1110 155l80-42v25l-80 42Z" fill="#db7178" opacity=".5"/><path d="M1110 276l80-42v25l-80 42Z" fill="#db7178" opacity=".5"/><path d="M1110 397l80-42v25l-80 42Z" fill="#db7178" opacity=".5"/><path d="M1110 518l80-42v25l-80 42Z" fill="#db7178" opacity=".5"/><path d="M1110 639l80-42v25l-80 42Z" fill="#db7178" opacity=".5"/><path d="M1110 760l80-42v25l-80 42Z" fill="#db7178" opacity=".5"/><path d="M1110 881l80-42v25l-80 42Z" fill="#db7178" opacity=".5"/><path d="M1110 1002l80-42v25l-80 42Z" fill="#db7178" opacity=".5"/><path d="M1110 1123l80-42v25l-80 42Z" fill="#db7178" opacity=".5"/><path d="M1110 1244l80-42v25l-80 42Z" fill="#db7178" opacity=".5"/><path d="M1110 1365l80-42v25l-80 42Z" fill="#db7178" opacity=".5"/><path d="M1110 1486l80-42v25l-80 42Z" fill="#db7178" opacity=".5"/><path d="M1110 1607l80-42v25l-80 42Z" fill="#db7178" opacity=".5"/><g transform="translate(75,180) scale(1.25) rotate(-10)"><path d="M-27-9Q-34 8 0 40Q34 8 27-9Z" fill="#db7178" /><path d="M0-25-10-10-27-15-17 0 0-8 17 0 27-15 10-10Z" fill="#729264" /><path d="M-12 6v5" fill="none" stroke="#fff1ec" stroke-width="3" stroke-linecap="round" stroke-linejoin="round"/><path d="M0 6v5" fill="none" stroke="#fff1ec" stroke-width="3" stroke-linecap="round" stroke-linejoin="round"/><path d="M12 6v5" fill="none" stroke="#fff1ec" stroke-width="3" stroke-linecap="round" stroke-linejoin="round"/></g><g transform="translate(1125,420) scale(1.05) rotate(10)"><path d="M-27-9Q-34 8 0 40Q34 8 27-9Z" fill="#db7178" /><path d="M0-25-10-10-27-15-17 0 0-8 17 0 27-15 10-10Z" fill="#729264" /><path d="M-12 6v5" fill="none" stroke="#fff1ec" stroke-width="3" stroke-linecap="round" stroke-linejoin="round"/><path d="M0 6v5" fill="none" stroke="#fff1ec" stroke-width="3" stroke-linecap="round" stroke-linejoin="round"/><path d="M12 6v5" fill="none" stroke="#fff1ec" stroke-width="3" stroke-linecap="round" stroke-linejoin="round"/></g><g transform="translate(70,1020) scale(0.95) rotate(-10)"><path d="M-27-9Q-34 8 0 40Q34 8 27-9Z" fill="#db7178" /><path d="M0-25-10-10-27-15-17 0 0-8 17 0 27-15 10-10Z" fill="#729264" /><path d="M-12 6v5" fill="none" stroke="#fff1ec" stroke-width="3" stroke-linecap="round" stroke-linejoin="round"/><path d="M0 6v5" fill="none" stroke="#fff1ec" stroke-width="3" stroke-linecap="round" stroke-linejoin="round"/><path d="M12 6v5" fill="none" stroke="#fff1ec" stroke-width="3" stroke-linecap="round" stroke-linejoin="round"/></g><g transform="translate(1130,1440) scale(1.1) rotate(10)"><path d="M-27-9Q-34 8 0 40Q34 8 27-9Z" fill="#db7178" /><path d="M0-25-10-10-27-15-17 0 0-8 17 0 27-15 10-10Z" fill="#729264" /><path d="M-12 6v5" fill="none" stroke="#fff1ec" stroke-width="3" stroke-linecap="round" stroke-linejoin="round"/><path d="M0 6v5" fill="none" stroke="#fff1ec" stroke-width="3" stroke-linecap="round" stroke-linejoin="round"/><path d="M12 6v5" fill="none" stroke="#fff1ec" stroke-width="3" stroke-linecap="round" stroke-linejoin="round"/></g><text x="600" y="65" fill="#db7178" font-family="Helvetica,Arial,sans-serif" font-size="32" letter-spacing="4" text-anchor="middle">STRAWBERRY MILK</text></g></svg>