<svg width="800" height="800" viewBox="0 0 800 800" fill="none" xmlns="http://www.w3.org/2000/svg">
  <rect width="800" height="800" fill="#F4F4F1"/>
  <rect x="132" y="132" width="536" height="536" rx="40" fill="#FFFFFF" stroke="#111111" stroke-width="8"/>
  <path d="M342 236H458V300C458 326.51 436.51 348 410 348H390C363.49 348 342 326.51 342 300V236Z" fill="#111111"/>
  <rect x="314" y="344" width="172" height="260" rx="44" fill="#FAFAFA" stroke="#111111" stroke-width="8"/>
  <path d="M356 402H444C459.464 402 472 414.536 472 430V510C472 525.464 459.464 538 444 538H356C340.536 538 328 525.464 328 510V430C328 414.536 340.536 402 356 402Z" fill="#E7E7E1"/>
  <path d="M374 458C374 443.641 385.641 432 400 432C414.359 432 426 443.641 426 458C426 482 400 502 400 502C400 502 374 482 374 458Z" fill="#111111"/>
  <circle cx="392" cy="456" r="6" fill="#FFFFFF"/>
  <path d="M278 622H522" stroke="#111111" stroke-width="8" stroke-linecap="round"/>
</svg>
