solid CATIA STL
  facet normal -7.727640e-001 -1.239323e-001 -6.224762e-001
    outer loop
      vertex  1.396518e+000 -2.000000e+000  6.762295e-001
      vertex  1.512815e+000 -5.000000e-001  2.332108e-001
      vertex  1.948661e+000 -2.000000e+000 -9.219946e-003
    endloop
  endfacet
  facet normal  6.733910e-001 -6.294018e-002 -7.366024e-001
    outer loop
      vertex  3.596978e+000 -5.000000e-001  4.007181e-001
      vertex  3.509220e+000 -2.000000e+000  4.486606e-001
      vertex  2.998718e+000 -5.000000e-001 -1.462025e-001
    endloop
  endfacet
  facet normal  6.244805e-001 -9.491362e-002 -7.752520e-001
    outer loop
      vertex  2.998718e+000 -5.000000e-001 -1.462025e-001
      vertex  3.509220e+000 -2.000000e+000  4.486606e-001
      vertex  2.823771e+000 -2.000000e+000 -1.034821e-001
    endloop
  endfacet
  facet normal  8.005618e-002 -3.770567e-002 -9.960770e-001
    outer loop
      vertex  2.998718e+000 -5.000000e-001 -1.462025e-001
      vertex  2.823771e+000 -2.000000e+000 -1.034821e-001
      vertex  2.190745e+000 -5.000000e-001 -2.111405e-001
    endloop
  endfacet
  facet normal -1.063750e-001 -1.157717e-001 -9.875633e-001
    outer loop
      vertex  2.190745e+000 -5.000000e-001 -2.111405e-001
      vertex  2.823771e+000 -2.000000e+000 -1.034821e-001
      vertex  1.948661e+000 -2.000000e+000 -9.219946e-003
    endloop
  endfacet
  facet normal -5.480312e-001 -2.410538e-002 -8.361105e-001
    outer loop
      vertex  2.190745e+000 -5.000000e-001 -2.111405e-001
      vertex  1.948661e+000 -2.000000e+000 -9.219946e-003
      vertex  1.512815e+000 -5.000000e-001  2.332108e-001
    endloop
  endfacet
  facet normal -9.923683e-001 -6.147543e-002  1.068926e-001
    outer loop
      vertex  1.490780e+000 -2.000000e+000  1.551339e+000
      vertex  1.403022e+000 -5.000000e-001  1.599282e+000
      vertex  1.396518e+000 -2.000000e+000  6.762295e-001
    endloop
  endfacet
  facet normal -9.584661e-001 -1.464473e-001  2.447366e-001
    outer loop
      vertex  1.396518e+000 -2.000000e+000  6.762295e-001
      vertex  1.403022e+000 -5.000000e-001  1.599282e+000
      vertex  1.250000e+000 -5.000000e-001  1.000000e+000
    endloop
  endfacet
  facet normal -9.457402e-001 -2.241177e-002 -3.241500e-001
    outer loop
      vertex  1.396518e+000 -2.000000e+000  6.762295e-001
      vertex  1.250000e+000 -5.000000e-001  1.000000e+000
      vertex  1.512815e+000 -5.000000e-001  2.332108e-001
    endloop
  endfacet
  facet normal  7.727640e-001 -1.239323e-001  6.224762e-001
    outer loop
      vertex  3.603482e+000 -2.000000e+000  1.323770e+000
      vertex  3.487185e+000 -5.000000e-001  1.766789e+000
      vertex  3.051339e+000 -2.000000e+000  2.009220e+000
    endloop
  endfacet
  facet normal -6.733910e-001 -6.294010e-002  7.366024e-001
    outer loop
      vertex  1.403022e+000 -5.000000e-001  1.599282e+000
      vertex  1.490780e+000 -2.000000e+000  1.551339e+000
      vertex  2.001282e+000 -5.000000e-001  2.146203e+000
    endloop
  endfacet
  facet normal -6.244803e-001 -9.491365e-002  7.752520e-001
    outer loop
      vertex  2.001282e+000 -5.000000e-001  2.146203e+000
      vertex  1.490780e+000 -2.000000e+000  1.551339e+000
      vertex  2.176229e+000 -2.000000e+000  2.103482e+000
    endloop
  endfacet
  facet normal -8.005629e-002 -3.770574e-002  9.960769e-001
    outer loop
      vertex  2.001282e+000 -5.000000e-001  2.146203e+000
      vertex  2.176229e+000 -2.000000e+000  2.103482e+000
      vertex  2.809255e+000 -5.000000e-001  2.211141e+000
    endloop
  endfacet
  facet normal  1.063750e-001 -1.157718e-001  9.875633e-001
    outer loop
      vertex  2.809255e+000 -5.000000e-001  2.211141e+000
      vertex  2.176229e+000 -2.000000e+000  2.103482e+000
      vertex  3.051339e+000 -2.000000e+000  2.009220e+000
    endloop
  endfacet
  facet normal  5.480312e-001 -2.410545e-002  8.361104e-001
    outer loop
      vertex  2.809255e+000 -5.000000e-001  2.211141e+000
      vertex  3.051339e+000 -2.000000e+000  2.009220e+000
      vertex  3.487185e+000 -5.000000e-001  1.766789e+000
    endloop
  endfacet
  facet normal  9.923683e-001 -6.147550e-002 -1.068926e-001
    outer loop
      vertex  3.509220e+000 -2.000000e+000  4.486606e-001
      vertex  3.596978e+000 -5.000000e-001  4.007181e-001
      vertex  3.603482e+000 -2.000000e+000  1.323770e+000
    endloop
  endfacet
  facet normal  9.584661e-001 -1.464473e-001 -2.447366e-001
    outer loop
      vertex  3.603482e+000 -2.000000e+000  1.323770e+000
      vertex  3.596978e+000 -5.000000e-001  4.007181e-001
      vertex  3.750000e+000 -5.000000e-001  1.000000e+000
    endloop
  endfacet
  facet normal  9.457402e-001 -2.241185e-002  3.241500e-001
    outer loop
      vertex  3.603482e+000 -2.000000e+000  1.323770e+000
      vertex  3.750000e+000 -5.000000e-001  1.000000e+000
      vertex  3.487185e+000 -5.000000e-001  1.766789e+000
    endloop
  endfacet
  facet normal  -0.000000e+000 -1.000000e+000  0.000000e+000
    outer loop
      vertex  1.490780e+000 -2.000000e+000  1.551339e+000
      vertex  3.051339e+000 -2.000000e+000  2.009220e+000
      vertex  2.176229e+000 -2.000000e+000  2.103482e+000
    endloop
  endfacet
  facet normal  0.000000e+000 -1.000000e+000  0.000000e+000
    outer loop
      vertex  3.051339e+000 -2.000000e+000  2.009220e+000
      vertex  1.490780e+000 -2.000000e+000  1.551339e+000
      vertex  3.603482e+000 -2.000000e+000  1.323770e+000
    endloop
  endfacet
  facet normal  -0.000000e+000 -9.999999e-001  0.000000e+000
    outer loop
      vertex  3.603482e+000 -2.000000e+000  1.323770e+000
      vertex  1.490780e+000 -2.000000e+000  1.551339e+000
      vertex  1.396518e+000 -2.000000e+000  6.762295e-001
    endloop
  endfacet
  facet normal  0.000000e+000 -1.000000e+000  0.000000e+000
    outer loop
      vertex  3.603482e+000 -2.000000e+000  1.323770e+000
      vertex  1.396518e+000 -2.000000e+000  6.762295e-001
      vertex  3.509220e+000 -2.000000e+000  4.486606e-001
    endloop
  endfacet
  facet normal  -0.000000e+000 -1.000000e+000  0.000000e+000
    outer loop
      vertex  3.509220e+000 -2.000000e+000  4.486606e-001
      vertex  1.396518e+000 -2.000000e+000  6.762295e-001
      vertex  1.948661e+000 -2.000000e+000 -9.219946e-003
    endloop
  endfacet
  facet normal  0.000000e+000 -9.999999e-001  0.000000e+000
    outer loop
      vertex  3.509220e+000 -2.000000e+000  4.486606e-001
      vertex  1.948661e+000 -2.000000e+000 -9.219946e-003
      vertex  2.823771e+000 -2.000000e+000 -1.034821e-001
    endloop
  endfacet
  facet normal -9.459777e-001  -0.000000e+000 -3.242314e-001
    outer loop
      vertex  1.250000e+000 -5.000000e-001  1.000000e+000
      vertex  1.250000e+000 -4.670691e-002  1.000000e+000
      vertex  1.512815e+000 -5.000000e-001  2.332108e-001
    endloop
  endfacet
  facet normal -9.562179e-001 -7.661662e-002 -2.824487e-001
    outer loop
      vertex  1.512815e+000 -5.000000e-001  2.332108e-001
      vertex  1.250000e+000 -4.670691e-002  1.000000e+000
      vertex  1.453036e+000 -6.314328e-002  3.170903e-001
    endloop
  endfacet
  facet normal -5.461944e-001  8.525974e-002 -8.333082e-001
    outer loop
      vertex  1.512815e+000 -5.000000e-001  2.332108e-001
      vertex  1.453036e+000 -6.314328e-002  3.170903e-001
      vertex  2.190745e+000 -5.000000e-001 -2.111405e-001
    endloop
  endfacet
  facet normal -6.252462e-001 -1.242012e-001 -7.704812e-001
    outer loop
      vertex  2.190745e+000 -5.000000e-001 -2.111405e-001
      vertex  1.453036e+000 -6.314328e-002  3.170903e-001
      vertex  2.071537e+000 -1.285911e-001 -1.742740e-001
    endloop
  endfacet
  facet normal  7.949787e-002  1.236981e-001 -9.891303e-001
    outer loop
      vertex  2.190745e+000 -5.000000e-001 -2.111405e-001
      vertex  2.071537e+000 -1.285911e-001 -1.742740e-001
      vertex  2.998718e+000 -5.000000e-001 -1.462025e-001
    endloop
  endfacet
  facet normal -6.165649e-002 -2.273722e-001 -9.718540e-001
    outer loop
      vertex  2.998718e+000 -5.000000e-001 -1.462025e-001
      vertex  2.071537e+000 -1.285911e-001 -1.742740e-001
      vertex  2.860632e+000 -2.460827e-001 -1.968478e-001
    endloop
  endfacet
  facet normal  6.590086e-001  2.146030e-001 -7.208698e-001
    outer loop
      vertex  2.998718e+000 -5.000000e-001 -1.462025e-001
      vertex  2.860632e+000 -2.460827e-001 -1.968478e-001
      vertex  3.596978e+000 -5.000000e-001  4.007181e-001
    endloop
  endfacet
  facet normal  4.179618e-001 -5.278987e-001 -7.393450e-001
    outer loop
      vertex  3.596978e+000 -5.000000e-001  4.007181e-001
      vertex  2.860632e+000 -2.460827e-001 -1.968478e-001
      vertex  3.504643e+000 -3.707455e-001  2.562307e-001
    endloop
  endfacet
  facet normal  8.947191e-001  3.837762e-001 -2.284593e-001
    outer loop
      vertex  3.596978e+000 -5.000000e-001  4.007181e-001
      vertex  3.504643e+000 -3.707455e-001  2.562307e-001
      vertex  3.750000e+000 -5.000000e-001  1.000000e+000
    endloop
  endfacet
  facet normal  9.496616e-001  0.000000e+000 -3.132778e-001
    outer loop
      vertex  3.750000e+000 -5.000000e-001  1.000000e+000
      vertex  3.504643e+000 -3.707455e-001  2.562307e-001
      vertex  3.750000e+000 -4.251723e-001  1.000000e+000
    endloop
  endfacet
  facet normal  9.459778e-001  0.000000e+000  3.242314e-001
    outer loop
      vertex  3.750000e+000 -5.000000e-001  1.000000e+000
      vertex  3.750000e+000 -4.251723e-001  1.000000e+000
      vertex  3.487185e+000 -5.000000e-001  1.766789e+000
    endloop
  endfacet
  facet normal  9.456860e-001 -7.123994e-002  3.171794e-001
    outer loop
      vertex  3.487185e+000 -5.000000e-001  1.766789e+000
      vertex  3.750000e+000 -4.251723e-001  1.000000e+000
      vertex  3.504643e+000 -3.707455e-001  1.743769e+000
    endloop
  endfacet
  facet normal  5.466588e-001  7.470198e-002  8.340166e-001
    outer loop
      vertex  3.487185e+000 -5.000000e-001  1.766789e+000
      vertex  3.504643e+000 -3.707455e-001  1.743769e+000
      vertex  2.809255e+000 -5.000000e-001  2.211141e+000
    endloop
  endfacet
  facet normal  5.652114e-001 -6.808624e-002  8.221315e-001
    outer loop
      vertex  2.809255e+000 -5.000000e-001  2.211141e+000
      vertex  3.504643e+000 -3.707455e-001  1.743769e+000
      vertex  2.860632e+000 -2.460827e-001  2.196848e+000
    endloop
  endfacet
  facet normal -7.990459e-002  7.212944e-002  9.941894e-001
    outer loop
      vertex  2.809255e+000 -5.000000e-001  2.211141e+000
      vertex  2.860632e+000 -2.460827e-001  2.196848e+000
      vertex  2.001282e+000 -5.000000e-001  2.146203e+000
    endloop
  endfacet
  facet normal -3.865017e-002 -6.803811e-002  9.969338e-001
    outer loop
      vertex  2.001282e+000 -5.000000e-001  2.146203e+000
      vertex  2.860632e+000 -2.460827e-001  2.196848e+000
      vertex  2.071537e+000 -1.285911e-001  2.174274e+000
    endloop
  endfacet
  facet normal -6.729940e-001  7.166213e-002  7.361681e-001
    outer loop
      vertex  2.001282e+000 -5.000000e-001  2.146203e+000
      vertex  2.071537e+000 -1.285911e-001  2.174274e+000
      vertex  1.403022e+000 -5.000000e-001  1.599282e+000
    endloop
  endfacet
  facet normal -6.251759e-001 -7.710417e-002  7.766660e-001
    outer loop
      vertex  1.403022e+000 -5.000000e-001  1.599282e+000
      vertex  2.071537e+000 -1.285911e-001  2.174274e+000
      vertex  1.453036e+000 -6.314328e-002  1.682910e+000
    endloop
  endfacet
  facet normal -9.669608e-001  6.343770e-002  2.469057e-001
    outer loop
      vertex  1.403022e+000 -5.000000e-001  1.599282e+000
      vertex  1.453036e+000 -6.314328e-002  1.682910e+000
      vertex  1.250000e+000 -5.000000e-001  1.000000e+000
    endloop
  endfacet
  facet normal -9.585332e-001  0.000000e+000  2.849811e-001
    outer loop
      vertex  1.250000e+000 -5.000000e-001  1.000000e+000
      vertex  1.453036e+000 -6.314328e-002  1.682910e+000
      vertex  1.250000e+000 -4.670691e-002  1.000000e+000
    endloop
  endfacet
  facet normal  7.727640e-001 -1.239323e-001  6.224763e-001
    outer loop
      vertex -1.396518e+000 -2.000000e+000  1.323770e+000
      vertex -1.512815e+000 -5.000000e-001  1.766789e+000
      vertex -1.948661e+000 -2.000000e+000  2.009220e+000
    endloop
  endfacet
  facet normal -6.733910e-001 -6.294015e-002  7.366024e-001
    outer loop
      vertex -3.596978e+000 -5.000000e-001  1.599282e+000
      vertex -3.509220e+000 -2.000000e+000  1.551339e+000
      vertex -2.998718e+000 -5.000000e-001  2.146203e+000
    endloop
  endfacet
  facet normal -6.244804e-001 -9.491365e-002  7.752520e-001
    outer loop
      vertex -2.998718e+000 -5.000000e-001  2.146203e+000
      vertex -3.509220e+000 -2.000000e+000  1.551339e+000
      vertex -2.823771e+000 -2.000000e+000  2.103482e+000
    endloop
  endfacet
  facet normal -8.005629e-002 -3.770574e-002  9.960769e-001
    outer loop
      vertex -2.998718e+000 -5.000000e-001  2.146203e+000
      vertex -2.823771e+000 -2.000000e+000  2.103482e+000
      vertex -2.190745e+000 -5.000000e-001  2.211141e+000
    endloop
  endfacet
  facet normal  1.063750e-001 -1.157718e-001  9.875633e-001
    outer loop
      vertex -2.190745e+000 -5.000000e-001  2.211141e+000
      vertex -2.823771e+000 -2.000000e+000  2.103482e+000
      vertex -1.948661e+000 -2.000000e+000  2.009220e+000
    endloop
  endfacet
  facet normal  5.480312e-001 -2.410545e-002  8.361104e-001
    outer loop
      vertex -2.190745e+000 -5.000000e-001  2.211141e+000
      vertex -1.948661e+000 -2.000000e+000  2.009220e+000
      vertex -1.512815e+000 -5.000000e-001  1.766789e+000
    endloop
  endfacet
  facet normal  9.923683e-001 -6.147543e-002 -1.068926e-001
    outer loop
      vertex -1.490780e+000 -2.000000e+000  4.486606e-001
      vertex -1.403022e+000 -5.000000e-001  4.007181e-001
      vertex -1.396518e+000 -2.000000e+000  1.323770e+000
    endloop
  endfacet
  facet normal  9.584661e-001 -1.464473e-001 -2.447366e-001
    outer loop
      vertex -1.396518e+000 -2.000000e+000  1.323770e+000
      vertex -1.403022e+000 -5.000000e-001  4.007181e-001
      vertex -1.250000e+000 -5.000000e-001  1.000000e+000
    endloop
  endfacet
  facet normal  9.457402e-001 -2.241178e-002  3.241500e-001
    outer loop
      vertex -1.396518e+000 -2.000000e+000  1.323770e+000
      vertex -1.250000e+000 -5.000000e-001  1.000000e+000
      vertex -1.512815e+000 -5.000000e-001  1.766789e+000
    endloop
  endfacet
  facet normal -7.727640e-001 -1.239323e-001 -6.224762e-001
    outer loop
      vertex -3.603482e+000 -2.000000e+000  6.762295e-001
      vertex -3.487185e+000 -5.000000e-001  2.332108e-001
      vertex -3.051339e+000 -2.000000e+000 -9.219946e-003
    endloop
  endfacet
  facet normal  6.733910e-001 -6.294013e-002 -7.366024e-001
    outer loop
      vertex -1.403022e+000 -5.000000e-001  4.007181e-001
      vertex -1.490780e+000 -2.000000e+000  4.486606e-001
      vertex -2.001282e+000 -5.000000e-001 -1.462025e-001
    endloop
  endfacet
  facet normal  6.244804e-001 -9.491361e-002 -7.752520e-001
    outer loop
      vertex -2.001282e+000 -5.000000e-001 -1.462025e-001
      vertex -1.490780e+000 -2.000000e+000  4.486606e-001
      vertex -2.176229e+000 -2.000000e+000 -1.034821e-001
    endloop
  endfacet
  facet normal  8.005618e-002 -3.770567e-002 -9.960770e-001
    outer loop
      vertex -2.001282e+000 -5.000000e-001 -1.462025e-001
      vertex -2.176229e+000 -2.000000e+000 -1.034821e-001
      vertex -2.809255e+000 -5.000000e-001 -2.111405e-001
    endloop
  endfacet
  facet normal -1.063750e-001 -1.157717e-001 -9.875633e-001
    outer loop
      vertex -2.809255e+000 -5.000000e-001 -2.111405e-001
      vertex -2.176229e+000 -2.000000e+000 -1.034821e-001
      vertex -3.051339e+000 -2.000000e+000 -9.219946e-003
    endloop
  endfacet
  facet normal -5.480312e-001 -2.410538e-002 -8.361105e-001
    outer loop
      vertex -2.809255e+000 -5.000000e-001 -2.111405e-001
      vertex -3.051339e+000 -2.000000e+000 -9.219946e-003
      vertex -3.487185e+000 -5.000000e-001  2.332108e-001
    endloop
  endfacet
  facet normal -9.923683e-001 -6.147550e-002  1.068926e-001
    outer loop
      vertex -3.509220e+000 -2.000000e+000  1.551339e+000
      vertex -3.596978e+000 -5.000000e-001  1.599282e+000
      vertex -3.603482e+000 -2.000000e+000  6.762295e-001
    endloop
  endfacet
  facet normal -9.584661e-001 -1.464473e-001  2.447366e-001
    outer loop
      vertex -3.603482e+000 -2.000000e+000  6.762295e-001
      vertex -3.596978e+000 -5.000000e-001  1.599282e+000
      vertex -3.750000e+000 -5.000000e-001  1.000000e+000
    endloop
  endfacet
  facet normal -9.457402e-001 -2.241184e-002 -3.241500e-001
    outer loop
      vertex -3.603482e+000 -2.000000e+000  6.762295e-001
      vertex -3.750000e+000 -5.000000e-001  1.000000e+000
      vertex -3.487185e+000 -5.000000e-001  2.332108e-001
    endloop
  endfacet
  facet normal  -0.000000e+000 -1.000000e+000  0.000000e+000
    outer loop
      vertex -3.509220e+000 -2.000000e+000  1.551339e+000
      vertex -1.948661e+000 -2.000000e+000  2.009220e+000
      vertex -2.823771e+000 -2.000000e+000  2.103482e+000
    endloop
  endfacet
  facet normal  0.000000e+000 -1.000000e+000  0.000000e+000
    outer loop
      vertex -1.948661e+000 -2.000000e+000  2.009220e+000
      vertex -3.509220e+000 -2.000000e+000  1.551339e+000
      vertex -1.396518e+000 -2.000000e+000  1.323770e+000
    endloop
  endfacet
  facet normal  -0.000000e+000 -9.999999e-001  0.000000e+000
    outer loop
      vertex -1.396518e+000 -2.000000e+000  1.323770e+000
      vertex -3.509220e+000 -2.000000e+000  1.551339e+000
      vertex -3.603482e+000 -2.000000e+000  6.762295e-001
    endloop
  endfacet
  facet normal  0.000000e+000 -1.000000e+000  0.000000e+000
    outer loop
      vertex -1.396518e+000 -2.000000e+000  1.323770e+000
      vertex -3.603482e+000 -2.000000e+000  6.762295e-001
      vertex -1.490780e+000 -2.000000e+000  4.486606e-001
    endloop
  endfacet
  facet normal  -0.000000e+000 -1.000000e+000  0.000000e+000
    outer loop
      vertex -1.490780e+000 -2.000000e+000  4.486606e-001
      vertex -3.603482e+000 -2.000000e+000  6.762295e-001
      vertex -3.051339e+000 -2.000000e+000 -9.219946e-003
    endloop
  endfacet
  facet normal  0.000000e+000 -9.999999e-001  0.000000e+000
    outer loop
      vertex -1.490780e+000 -2.000000e+000  4.486606e-001
      vertex -3.051339e+000 -2.000000e+000 -9.219946e-003
      vertex -2.176229e+000 -2.000000e+000 -1.034821e-001
    endloop
  endfacet
  facet normal  9.459777e-001  0.000000e+000  3.242314e-001
    outer loop
      vertex -1.250000e+000 -5.000000e-001  1.000000e+000
      vertex -1.250000e+000 -4.670691e-002  1.000000e+000
      vertex -1.512815e+000 -5.000000e-001  1.766789e+000
    endloop
  endfacet
  facet normal  9.562179e-001 -7.661663e-002  2.824487e-001
    outer loop
      vertex -1.512815e+000 -5.000000e-001  1.766789e+000
      vertex -1.250000e+000 -4.670691e-002  1.000000e+000
      vertex -1.453036e+000 -6.314328e-002  1.682910e+000
    endloop
  endfacet
  facet normal  5.461944e-001  8.525968e-002  8.333081e-001
    outer loop
      vertex -1.512815e+000 -5.000000e-001  1.766789e+000
      vertex -1.453036e+000 -6.314328e-002  1.682910e+000
      vertex -2.190745e+000 -5.000000e-001  2.211141e+000
    endloop
  endfacet
  facet normal  6.252462e-001 -1.242009e-001  7.704813e-001
    outer loop
      vertex -2.190745e+000 -5.000000e-001  2.211141e+000
      vertex -1.453036e+000 -6.314328e-002  1.682910e+000
      vertex -2.071537e+000 -1.285911e-001  2.174274e+000
    endloop
  endfacet
  facet normal -7.949799e-002  1.236985e-001  9.891303e-001
    outer loop
      vertex -2.190745e+000 -5.000000e-001  2.211141e+000
      vertex -2.071537e+000 -1.285911e-001  2.174274e+000
      vertex -2.998718e+000 -5.000000e-001  2.146203e+000
    endloop
  endfacet
  facet normal  6.165669e-002 -2.273726e-001  9.718540e-001
    outer loop
      vertex -2.998718e+000 -5.000000e-001  2.146203e+000
      vertex -2.071537e+000 -1.285911e-001  2.174274e+000
      vertex -2.860632e+000 -2.460827e-001  2.196848e+000
    endloop
  endfacet
  facet normal -6.590086e-001  2.146028e-001  7.208698e-001
    outer loop
      vertex -2.998718e+000 -5.000000e-001  2.146203e+000
      vertex -2.860632e+000 -2.460827e-001  2.196848e+000
      vertex -3.596978e+000 -5.000000e-001  1.599282e+000
    endloop
  endfacet
  facet normal -4.179619e-001 -5.278988e-001  7.393449e-001
    outer loop
      vertex -3.596978e+000 -5.000000e-001  1.599282e+000
      vertex -2.860632e+000 -2.460827e-001  2.196848e+000
      vertex -3.504643e+000 -3.707455e-001  1.743769e+000
    endloop
  endfacet
  facet normal -8.947191e-001  3.837762e-001  2.284593e-001
    outer loop
      vertex -3.596978e+000 -5.000000e-001  1.599282e+000
      vertex -3.504643e+000 -3.707455e-001  1.743769e+000
      vertex -3.750000e+000 -5.000000e-001  1.000000e+000
    endloop
  endfacet
  facet normal -9.496616e-001  0.000000e+000  3.132778e-001
    outer loop
      vertex -3.750000e+000 -5.000000e-001  1.000000e+000
      vertex -3.504643e+000 -3.707455e-001  1.743769e+000
      vertex -3.750000e+000 -4.251723e-001  1.000000e+000
    endloop
  endfacet
  facet normal -9.459778e-001  -0.000000e+000 -3.242314e-001
    outer loop
      vertex -3.750000e+000 -5.000000e-001  1.000000e+000
      vertex -3.750000e+000 -4.251723e-001  1.000000e+000
      vertex -3.487185e+000 -5.000000e-001  2.332108e-001
    endloop
  endfacet
  facet normal -9.456860e-001 -7.123997e-002 -3.171794e-001
    outer loop
      vertex -3.487185e+000 -5.000000e-001  2.332108e-001
      vertex -3.750000e+000 -4.251723e-001  1.000000e+000
      vertex -3.504643e+000 -3.707455e-001  2.562307e-001
    endloop
  endfacet
  facet normal -5.466588e-001  7.470191e-002 -8.340167e-001
    outer loop
      vertex -3.487185e+000 -5.000000e-001  2.332108e-001
      vertex -3.504643e+000 -3.707455e-001  2.562307e-001
      vertex -2.809255e+000 -5.000000e-001 -2.111405e-001
    endloop
  endfacet
  facet normal -5.652114e-001 -6.808627e-002 -8.221316e-001
    outer loop
      vertex -2.809255e+000 -5.000000e-001 -2.111405e-001
      vertex -3.504643e+000 -3.707455e-001  2.562307e-001
      vertex -2.860632e+000 -2.460827e-001 -1.968478e-001
    endloop
  endfacet
  facet normal  7.990447e-002  7.212936e-002 -9.941894e-001
    outer loop
      vertex -2.809255e+000 -5.000000e-001 -2.111405e-001
      vertex -2.860632e+000 -2.460827e-001 -1.968478e-001
      vertex -2.001282e+000 -5.000000e-001 -1.462025e-001
    endloop
  endfacet
  facet normal  3.865004e-002 -6.803825e-002 -9.969338e-001
    outer loop
      vertex -2.001282e+000 -5.000000e-001 -1.462025e-001
      vertex -2.860632e+000 -2.460827e-001 -1.968478e-001
      vertex -2.071537e+000 -1.285911e-001 -1.742740e-001
    endloop
  endfacet
  facet normal  6.729940e-001  7.166203e-002 -7.361681e-001
    outer loop
      vertex -2.001282e+000 -5.000000e-001 -1.462025e-001
      vertex -2.071537e+000 -1.285911e-001 -1.742740e-001
      vertex -1.403022e+000 -5.000000e-001  4.007181e-001
    endloop
  endfacet
  facet normal  6.251760e-001 -7.710405e-002 -7.766660e-001
    outer loop
      vertex -1.403022e+000 -5.000000e-001  4.007181e-001
      vertex -2.071537e+000 -1.285911e-001 -1.742740e-001
      vertex -1.453036e+000 -6.314328e-002  3.170903e-001
    endloop
  endfacet
  facet normal  9.669608e-001  6.343774e-002 -2.469057e-001
    outer loop
      vertex -1.403022e+000 -5.000000e-001  4.007181e-001
      vertex -1.453036e+000 -6.314328e-002  3.170903e-001
      vertex -1.250000e+000 -5.000000e-001  1.000000e+000
    endloop
  endfacet
  facet normal  9.585332e-001  0.000000e+000 -2.849811e-001
    outer loop
      vertex -1.250000e+000 -5.000000e-001  1.000000e+000
      vertex -1.453036e+000 -6.314328e-002  3.170903e-001
      vertex -1.250000e+000 -4.670691e-002  1.000000e+000
    endloop
  endfacet
  facet normal -2.172930e-001 -9.761063e-001  2.528774e-004
    outer loop
      vertex  3.750000e+000 -4.251723e-001  1.000000e+000
      vertex  3.504643e+000 -3.707455e-001  2.562307e-001
      vertex  3.778300e+000 -4.316989e-001  1.247512e-001
    endloop
  endfacet
  facet normal -2.314200e-001 -9.728539e-001 -2.281539e-004
    outer loop
      vertex  3.750000e+000 -4.251723e-001  1.000000e+000
      vertex  3.778300e+000 -4.316989e-001  1.247512e-001
      vertex  4.010461e+000 -4.871989e-001  1.293021e+000
    endloop
  endfacet
  facet normal -2.296138e-001 -9.732799e-001 -1.923850e-003
    outer loop
      vertex  3.750000e+000 -4.251723e-001  1.000000e+000
      vertex  4.010461e+000 -4.871989e-001  1.293021e+000
      vertex  3.539289e+000 -3.781969e-001  2.383718e+000
    endloop
  endfacet
  facet normal -2.156764e-001 -9.764649e-001  3.066429e-004
    outer loop
      vertex  3.750000e+000 -4.251723e-001  1.000000e+000
      vertex  3.539289e+000 -3.781969e-001  2.383718e+000
      vertex  3.504643e+000 -3.707455e-001  1.743769e+000
    endloop
  endfacet
  facet normal  2.156764e-001 -9.764649e-001  3.066429e-004
    outer loop
      vertex -3.750000e+000 -4.251723e-001  1.000000e+000
      vertex -3.504643e+000 -3.707455e-001  1.743769e+000
      vertex -3.539289e+000 -3.781969e-001  2.383718e+000
    endloop
  endfacet
  facet normal  2.296138e-001 -9.732799e-001 -1.923850e-003
    outer loop
      vertex -3.750000e+000 -4.251723e-001  1.000000e+000
      vertex -3.539289e+000 -3.781969e-001  2.383718e+000
      vertex -4.010461e+000 -4.871989e-001  1.293021e+000
    endloop
  endfacet
  facet normal  2.314200e-001 -9.728539e-001 -2.281539e-004
    outer loop
      vertex -3.750000e+000 -4.251723e-001  1.000000e+000
      vertex -4.010461e+000 -4.871989e-001  1.293021e+000
      vertex -3.778300e+000 -4.316989e-001  1.247512e-001
    endloop
  endfacet
  facet normal  2.172930e-001 -9.761063e-001  2.528774e-004
    outer loop
      vertex -3.750000e+000 -4.251723e-001  1.000000e+000
      vertex -3.778300e+000 -4.316989e-001  1.247512e-001
      vertex -3.504643e+000 -3.707455e-001  2.562307e-001
    endloop
  endfacet
  facet normal -1.559584e-001 -9.877611e-001  2.230003e-003
    outer loop
      vertex  2.260635e+000 -1.532526e-001 -1.040145e+000
      vertex  2.925983e+000 -2.575435e-001 -7.028833e-001
      vertex  2.860632e+000 -2.460827e-001 -1.968478e-001
    endloop
  endfacet
  facet normal -1.473819e-001 -9.890715e-001 -4.016316e-003
    outer loop
      vertex  2.260635e+000 -1.532526e-001 -1.040145e+000
      vertex  2.860632e+000 -2.460827e-001 -1.968478e-001
      vertex  2.071537e+000 -1.285911e-001 -1.742740e-001
    endloop
  endfacet
  facet normal -1.001446e-001 -9.949519e-001  6.467340e-003
    outer loop
      vertex  2.260635e+000 -1.532526e-001 -1.040145e+000
      vertex  2.071537e+000 -1.285911e-001 -1.742740e-001
      vertex  1.453036e+000 -6.314328e-002  3.170903e-001
    endloop
  endfacet
  facet normal -7.319173e-002 -9.970607e-001  2.264520e-002
    outer loop
      vertex  2.260635e+000 -1.532526e-001 -1.040145e+000
      vertex  1.453036e+000 -6.314328e-002  3.170903e-001
      vertex  5.807534e-003 -1.006790e-006 -1.580374e+000
    endloop
  endfacet
  facet normal -5.401731e-002 -9.985082e-001  7.972370e-003
    outer loop
      vertex  5.807534e-003 -1.006790e-006 -1.580374e+000
      vertex  1.453036e+000 -6.314328e-002  3.170903e-001
      vertex  1.250000e+000 -4.670691e-002  1.000000e+000
    endloop
  endfacet
  facet normal -3.733947e-002 -9.993026e-001 -8.364856e-005
    outer loop
      vertex  5.807534e-003 -1.006790e-006 -1.580374e+000
      vertex  1.250000e+000 -4.670691e-002  1.000000e+000
      vertex  2.706034e-014  0.000000e+000  1.000000e+000
    endloop
  endfacet
  facet normal  3.733947e-002 -9.993026e-001  8.442822e-005
    outer loop
      vertex  5.807534e-003 -1.006790e-006 -1.580374e+000
      vertex  2.706034e-014  0.000000e+000  1.000000e+000
      vertex -1.250000e+000 -4.670691e-002  1.000000e+000
    endloop
  endfacet
  facet normal  5.370802e-002 -9.985241e-001  8.064708e-003
    outer loop
      vertex  5.807534e-003 -1.006790e-006 -1.580374e+000
      vertex -1.250000e+000 -4.670691e-002  1.000000e+000
      vertex -1.453036e+000 -6.314328e-002  3.170903e-001
    endloop
  endfacet
  facet normal  8.179282e-002 -9.962057e-001  2.973454e-002
    outer loop
      vertex  5.807534e-003 -1.006790e-006 -1.580374e+000
      vertex -1.453036e+000 -6.314328e-002  3.170903e-001
      vertex -2.071537e+000 -1.285911e-001 -1.742740e-001
    endloop
  endfacet
  facet normal  7.054276e-002 -9.974239e-001  1.300251e-002
    outer loop
      vertex  5.807534e-003 -1.006790e-006 -1.580374e+000
      vertex -2.071537e+000 -1.285911e-001 -1.742740e-001
      vertex -2.260635e+000 -1.532526e-001 -1.040145e+000
    endloop
  endfacet
  facet normal  0.000000e+000 -9.995667e-001  2.943681e-002
    outer loop
      vertex  1.795738e+000 -9.653714e-002  3.262709e+000
      vertex -1.795738e+000 -9.653714e-002  3.262709e+000
      vertex -2.071537e+000 -1.285911e-001  2.174274e+000
    endloop
  endfacet
  facet normal  3.364431e-002 -9.953527e-001 -9.022755e-002
    outer loop
      vertex  1.795738e+000 -9.653714e-002  3.262709e+000
      vertex -2.071537e+000 -1.285911e-001  2.174274e+000
      vertex -1.453036e+000 -6.314328e-002  1.682910e+000
    endloop
  endfacet
  facet normal  1.244509e-003 -9.997187e-001 -2.369136e-002
    outer loop
      vertex  1.795738e+000 -9.653714e-002  3.262709e+000
      vertex -1.453036e+000 -6.314328e-002  1.682910e+000
      vertex -1.250000e+000 -4.670691e-002  1.000000e+000
    endloop
  endfacet
  facet normal  3.724235e-002 -9.967034e-001 -7.208015e-002
    outer loop
      vertex  1.795738e+000 -9.653714e-002  3.262709e+000
      vertex -1.250000e+000 -4.670691e-002  1.000000e+000
      vertex  2.706034e-014  0.000000e+000  1.000000e+000
    endloop
  endfacet
  facet normal -3.733632e-002 -9.992182e-001 -1.300009e-002
    outer loop
      vertex  1.795738e+000 -9.653714e-002  3.262709e+000
      vertex  2.706034e-014  0.000000e+000  1.000000e+000
      vertex  1.250000e+000 -4.670691e-002  1.000000e+000
    endloop
  endfacet
  facet normal -3.642487e-002 -9.992490e-001 -1.322060e-002
    outer loop
      vertex  1.795738e+000 -9.653714e-002  3.262709e+000
      vertex  1.250000e+000 -4.670691e-002  1.000000e+000
      vertex  1.453036e+000 -6.314328e-002  1.682910e+000
    endloop
  endfacet
  facet normal -1.069433e-001 -9.942627e-001  2.182204e-003
    outer loop
      vertex  1.795738e+000 -9.653714e-002  3.262709e+000
      vertex  1.453036e+000 -6.314328e-002  1.682910e+000
      vertex  2.071537e+000 -1.285911e-001  2.174274e+000
    endloop
  endfacet
  facet normal -1.470383e-001 -9.890974e-001 -8.129614e-003
    outer loop
      vertex  1.795738e+000 -9.653714e-002  3.262709e+000
      vertex  2.071537e+000 -1.285911e-001  2.174274e+000
      vertex  2.860632e+000 -2.460827e-001  2.196848e+000
    endloop
  endfacet
  facet normal -1.477766e-001 -9.889808e-001 -8.883527e-003
    outer loop
      vertex  1.795738e+000 -9.653714e-002  3.262709e+000
      vertex  2.860632e+000 -2.460827e-001  2.196848e+000
      vertex  3.048877e+000 -2.798214e-001  2.821440e+000
    endloop
  endfacet
  facet normal  2.117163e-001 -9.772527e-001  1.239144e-002
    outer loop
      vertex -3.778300e+000 -4.316989e-001  1.247512e-001
      vertex -2.925983e+000 -2.575435e-001 -7.028833e-001
      vertex -3.504643e+000 -3.707455e-001  2.562307e-001
    endloop
  endfacet
  facet normal  1.886092e-001 -9.820500e-001 -2.115965e-003
    outer loop
      vertex -3.504643e+000 -3.707455e-001  2.562307e-001
      vertex -2.925983e+000 -2.575435e-001 -7.028833e-001
      vertex -2.860632e+000 -2.460827e-001 -1.968478e-001
    endloop
  endfacet
  facet normal  1.559584e-001 -9.877610e-001  2.230003e-003
    outer loop
      vertex -2.925983e+000 -2.575435e-001 -7.028833e-001
      vertex -2.260635e+000 -1.532526e-001 -1.040145e+000
      vertex -2.860632e+000 -2.460827e-001 -1.968478e-001
    endloop
  endfacet
  facet normal  1.473819e-001 -9.890715e-001 -4.016316e-003
    outer loop
      vertex -2.860632e+000 -2.460827e-001 -1.968478e-001
      vertex -2.260635e+000 -1.532526e-001 -1.040145e+000
      vertex -2.071537e+000 -1.285911e-001 -1.742740e-001
    endloop
  endfacet
  facet normal -2.063024e-001 -9.781916e-001  2.409505e-002
    outer loop
      vertex  3.504643e+000 -3.707455e-001  2.562307e-001
      vertex  2.860632e+000 -2.460827e-001 -1.968478e-001
      vertex  3.778300e+000 -4.316989e-001  1.247512e-001
    endloop
  endfacet
  facet normal -1.971564e-001 -9.803666e-001 -3.257914e-003
    outer loop
      vertex  3.778300e+000 -4.316989e-001  1.247512e-001
      vertex  2.860632e+000 -2.460827e-001 -1.968478e-001
      vertex  2.925983e+000 -2.575435e-001 -7.028833e-001
    endloop
  endfacet
  facet normal  1.863724e-001 -9.824743e-001  3.100332e-003
    outer loop
      vertex -3.048877e+000 -2.798214e-001  2.821440e+000
      vertex -3.274868e+000 -3.232644e-001  2.639755e+000
      vertex -2.860632e+000 -2.460827e-001  2.196848e+000
    endloop
  endfacet
  facet normal  1.938087e-001 -9.809852e-001  1.031481e-002
    outer loop
      vertex -2.860632e+000 -2.460827e-001  2.196848e+000
      vertex -3.274868e+000 -3.232644e-001  2.639755e+000
      vertex -3.539289e+000 -3.781969e-001  2.383718e+000
    endloop
  endfacet
  facet normal  1.907909e-001 -9.816301e-001 -1.100759e-003
    outer loop
      vertex -2.860632e+000 -2.460827e-001  2.196848e+000
      vertex -3.539289e+000 -3.781969e-001  2.383718e+000
      vertex -3.504643e+000 -3.707455e-001  1.743769e+000
    endloop
  endfacet
  facet normal  1.475642e-001 -9.890179e-001 -8.265226e-003
    outer loop
      vertex -1.795738e+000 -9.653714e-002  3.262709e+000
      vertex -3.048877e+000 -2.798214e-001  2.821440e+000
      vertex -2.071537e+000 -1.285911e-001  2.174274e+000
    endloop
  endfacet
  facet normal  1.470093e-001 -9.890929e-001 -9.120826e-003
    outer loop
      vertex -2.071537e+000 -1.285911e-001  2.174274e+000
      vertex -3.048877e+000 -2.798214e-001  2.821440e+000
      vertex -2.860632e+000 -2.460827e-001  2.196848e+000
    endloop
  endfacet
  facet normal -2.037463e-001 -9.790237e-001 -3.690285e-004
    outer loop
      vertex  3.539289e+000 -3.781969e-001  2.383718e+000
      vertex  3.274868e+000 -3.232644e-001  2.639755e+000
      vertex  3.504643e+000 -3.707455e-001  1.743769e+000
    endloop
  endfacet
  facet normal -1.852281e-001 -9.826849e-001  4.573960e-003
    outer loop
      vertex  3.504643e+000 -3.707455e-001  1.743769e+000
      vertex  3.274868e+000 -3.232644e-001  2.639755e+000
      vertex  3.048877e+000 -2.798214e-001  2.821440e+000
    endloop
  endfacet
  facet normal -1.876669e-001 -9.822265e-001  3.503881e-003
    outer loop
      vertex  3.504643e+000 -3.707455e-001  1.743769e+000
      vertex  3.048877e+000 -2.798214e-001  2.821440e+000
      vertex  2.860632e+000 -2.460827e-001  2.196848e+000
    endloop
  endfacet
  facet normal -2.318641e-001  -0.000000e+000 -9.727482e-001
    outer loop
      vertex -2.260635e+000 -1.532526e-001 -1.040145e+000
      vertex -2.260635e+000  9.076272e-001 -1.040145e+000
      vertex  5.807534e-003 -1.006790e-006 -1.580374e+000
    endloop
  endfacet
  facet normal -2.921596e-001 -1.693035e-001 -9.412647e-001
    outer loop
      vertex  5.807534e-003 -1.006790e-006 -1.580374e+000
      vertex -2.260635e+000  9.076272e-001 -1.040145e+000
      vertex -1.523072e+000  1.317252e+000 -1.342756e+000
    endloop
  endfacet
  facet normal -1.539760e-001 -4.756603e-004 -9.880745e-001
    outer loop
      vertex  5.807534e-003 -1.006790e-006 -1.580374e+000
      vertex -1.523072e+000  1.317252e+000 -1.342756e+000
      vertex -7.389132e-007  1.886869e+000 -1.580377e+000
    endloop
  endfacet
  facet normal  1.795447e-001 -7.470730e-001 -6.400357e-001
    outer loop
      vertex -7.389132e-007  1.886869e+000 -1.580377e+000
      vertex -1.523072e+000  1.317252e+000 -1.342756e+000
      vertex -8.189142e-001  1.632214e+000 -1.512859e+000
    endloop
  endfacet
  facet normal  2.330397e-001  7.156979e-004 -9.724669e-001
    outer loop
      vertex  5.807534e-003 -1.006790e-006 -1.580374e+000
      vertex -7.389132e-007  1.886869e+000 -1.580377e+000
      vertex  2.260635e+000 -1.532526e-001 -1.040145e+000
    endloop
  endfacet
  facet normal  1.518542e-004 -2.558239e-001 -9.667234e-001
    outer loop
      vertex  2.260635e+000 -1.532526e-001 -1.040145e+000
      vertex -7.389132e-007  1.886869e+000 -1.580377e+000
      vertex  8.189142e-001  1.632214e+000 -1.512859e+000
    endloop
  endfacet
  facet normal  3.115620e-001  0.000000e+000 -9.502258e-001
    outer loop
      vertex  2.260635e+000 -1.532526e-001 -1.040145e+000
      vertex  8.189142e-001  1.632214e+000 -1.512859e+000
      vertex  2.260635e+000  9.076272e-001 -1.040145e+000
    endloop
  endfacet
  facet normal -2.391686e-001 -8.175880e-001 -5.237826e-001
    outer loop
      vertex  2.260635e+000  9.076272e-001 -1.040145e+000
      vertex  8.189142e-001  1.632214e+000 -1.512859e+000
      vertex  1.523072e+000  1.317252e+000 -1.342756e+000
    endloop
  endfacet
  facet normal -2.348373e-001  9.039156e-001 -3.574744e-001
    outer loop
      vertex -2.613228e+000  1.817001e+000  1.890703e-001
      vertex -5.695740e-008  2.000000e+000 -1.064916e+000
      vertex -2.879523e+000  1.505896e+000 -4.226569e-001
    endloop
  endfacet
  facet normal -2.105869e-001  9.548483e-001 -2.095659e-001
    outer loop
      vertex -2.879523e+000  1.505896e+000 -4.226569e-001
      vertex -5.695740e-008  2.000000e+000 -1.064916e+000
      vertex -7.389132e-007  1.886869e+000 -1.580377e+000
    endloop
  endfacet
  facet normal -2.975481e-001  8.333393e-001 -4.658441e-001
    outer loop
      vertex -2.879523e+000  1.505896e+000 -4.226569e-001
      vertex -7.389132e-007  1.886869e+000 -1.580377e+000
      vertex -8.189142e-001  1.632214e+000 -1.512859e+000
    endloop
  endfacet
  facet normal -4.525771e-001  3.664101e-001 -8.129684e-001
    outer loop
      vertex -2.879523e+000  1.505896e+000 -4.226569e-001
      vertex -8.189142e-001  1.632214e+000 -1.512859e+000
      vertex -2.925983e+000  8.267613e-001 -7.028833e-001
    endloop
  endfacet
  facet normal -4.523292e-001  8.116959e-001 -3.695241e-001
    outer loop
      vertex -2.925983e+000  8.267613e-001 -7.028833e-001
      vertex -8.189142e-001  1.632214e+000 -1.512859e+000
      vertex -1.523072e+000  1.317252e+000 -1.342756e+000
    endloop
  endfacet
  facet normal -4.621859e-001  1.927543e-001 -8.655808e-001
    outer loop
      vertex -2.925983e+000  8.267613e-001 -7.028833e-001
      vertex -1.523072e+000  1.317252e+000 -1.342756e+000
      vertex -2.260635e+000  9.076272e-001 -1.040145e+000
    endloop
  endfacet
  facet normal  2.975478e-001  8.333401e-001 -4.658430e-001
    outer loop
      vertex  8.189142e-001  1.632214e+000 -1.512859e+000
      vertex -7.389132e-007  1.886869e+000 -1.580377e+000
      vertex  2.879525e+000  1.505894e+000 -4.226585e-001
    endloop
  endfacet
  facet normal  2.105874e-001  9.548481e-001 -2.095664e-001
    outer loop
      vertex  2.879525e+000  1.505894e+000 -4.226585e-001
      vertex -7.389132e-007  1.886869e+000 -1.580377e+000
      vertex -5.695740e-008  2.000000e+000 -1.064916e+000
    endloop
  endfacet
  facet normal  2.348377e-001  9.039153e-001 -3.574754e-001
    outer loop
      vertex  2.879525e+000  1.505894e+000 -4.226585e-001
      vertex -5.695740e-008  2.000000e+000 -1.064916e+000
      vertex  2.613228e+000  1.817001e+000  1.890703e-001
    endloop
  endfacet
  facet normal  4.621859e-001  1.927543e-001 -8.655808e-001
    outer loop
      vertex  2.260635e+000  9.076272e-001 -1.040145e+000
      vertex  1.523072e+000  1.317252e+000 -1.342756e+000
      vertex  2.925983e+000  8.267613e-001 -7.028833e-001
    endloop
  endfacet
  facet normal  4.523292e-001  8.116959e-001 -3.695241e-001
    outer loop
      vertex  2.925983e+000  8.267613e-001 -7.028833e-001
      vertex  1.523072e+000  1.317252e+000 -1.342756e+000
      vertex  8.189142e-001  1.632214e+000 -1.512859e+000
    endloop
  endfacet
  facet normal  4.525768e-001  3.664085e-001 -8.129693e-001
    outer loop
      vertex  2.925983e+000  8.267613e-001 -7.028833e-001
      vertex  8.189142e-001  1.632214e+000 -1.512859e+000
      vertex  2.879525e+000  1.505894e+000 -4.226585e-001
    endloop
  endfacet
  facet normal -4.521269e-001  -0.000000e+000 -8.919536e-001
    outer loop
      vertex -2.925983e+000 -2.575435e-001 -7.028833e-001
      vertex -2.925983e+000  8.267613e-001 -7.028833e-001
      vertex -2.260635e+000 -1.532526e-001 -1.040145e+000
    endloop
  endfacet
  facet normal -4.521269e-001  0.000000e+000 -8.919536e-001
    outer loop
      vertex -2.260635e+000 -1.532526e-001 -1.040145e+000
      vertex -2.925983e+000  8.267613e-001 -7.028833e-001
      vertex -2.260635e+000  9.076272e-001 -1.040145e+000
    endloop
  endfacet
  facet normal  4.521269e-001  0.000000e+000 -8.919536e-001
    outer loop
      vertex  2.925983e+000 -2.575435e-001 -7.028833e-001
      vertex  2.260635e+000 -1.532526e-001 -1.040145e+000
      vertex  2.925983e+000  8.267613e-001 -7.028833e-001
    endloop
  endfacet
  facet normal  4.521269e-001  0.000000e+000 -8.919536e-001
    outer loop
      vertex  2.925983e+000  8.267613e-001 -7.028833e-001
      vertex  2.260635e+000 -1.532526e-001 -1.040145e+000
      vertex  2.260635e+000  9.076272e-001 -1.040145e+000
    endloop
  endfacet
  facet normal -6.913585e-001  0.000000e+000 -7.225118e-001
    outer loop
      vertex -2.925983e+000  8.267613e-001 -7.028833e-001
      vertex -2.925983e+000 -2.575435e-001 -7.028833e-001
      vertex -3.764075e+000  7.626702e-001  9.907234e-002
    endloop
  endfacet
  facet normal -6.958719e-001 -7.152032e-003 -7.181302e-001
    outer loop
      vertex -3.764075e+000  7.626702e-001  9.907234e-002
      vertex -2.925983e+000 -2.575435e-001 -7.028833e-001
      vertex -3.778300e+000 -4.316989e-001  1.247512e-001
    endloop
  endfacet
  facet normal -9.732274e-001  6.651431e-003 -2.297479e-001
    outer loop
      vertex -3.764075e+000  7.626702e-001  9.907234e-002
      vertex -3.778300e+000 -4.316989e-001  1.247512e-001
      vertex -4.019299e+000  7.411120e-001  1.179591e+000
    endloop
  endfacet
  facet normal -9.802815e-001 -2.515257e-002 -1.959987e-001
    outer loop
      vertex -4.019299e+000  7.411120e-001  1.179591e+000
      vertex -3.778300e+000 -4.316989e-001  1.247512e-001
      vertex -4.010461e+000 -4.871989e-001  1.293021e+000
    endloop
  endfacet
  facet normal -9.456269e-001  2.315639e-002  3.244277e-001
    outer loop
      vertex -4.019299e+000  7.411120e-001  1.179591e+000
      vertex -4.010461e+000 -4.871989e-001  1.293021e+000
      vertex -3.657633e+000  7.713787e-001  2.231596e+000
    endloop
  endfacet
  facet normal -9.157060e-001 -4.137508e-002  3.997130e-001
    outer loop
      vertex -3.657633e+000  7.713787e-001  2.231596e+000
      vertex -4.010461e+000 -4.871989e-001  1.293021e+000
      vertex -3.539289e+000 -3.781969e-001  2.383718e+000
    endloop
  endfacet
  facet normal -7.299076e-001  1.528892e-002  6.833748e-001
    outer loop
      vertex -3.657633e+000  7.713787e-001  2.231596e+000
      vertex -3.539289e+000 -3.781969e-001  2.383718e+000
      vertex -3.274868e+000  8.013253e-001  2.639755e+000
    endloop
  endfacet
  facet normal -6.956258e-001  0.000000e+000  7.184043e-001
    outer loop
      vertex -3.274868e+000  8.013253e-001  2.639755e+000
      vertex -3.539289e+000 -3.781969e-001  2.383718e+000
      vertex -3.274868e+000 -3.232644e-001  2.639755e+000
    endloop
  endfacet
  facet normal  1.186475e-001  9.929363e-001 -5.765615e-004
    outer loop
      vertex  1.896906e+000  1.903800e+000  2.262709e+000
      vertex  2.558776e+000  1.824584e+000  2.042074e+000
      vertex  2.613228e+000  1.817001e+000  1.890703e-001
    endloop
  endfacet
  facet normal  7.706153e-002  9.969118e-001 -1.510848e-002
    outer loop
      vertex  1.896906e+000  1.903800e+000  2.262709e+000
      vertex  2.613228e+000  1.817001e+000  1.890703e-001
      vertex -5.695740e-008  2.000000e+000 -1.064916e+000
    endloop
  endfacet
  facet normal -4.398682e-002  9.975762e-001  5.391411e-002
    outer loop
      vertex  1.896906e+000  1.903800e+000  2.262709e+000
      vertex -5.695740e-008  2.000000e+000 -1.064916e+000
      vertex -2.613228e+000  1.817001e+000  1.890703e-001
    endloop
  endfacet
  facet normal  5.256454e-009  9.991251e-001 -4.182141e-002
    outer loop
      vertex  1.896906e+000  1.903800e+000  2.262709e+000
      vertex -2.613228e+000  1.817001e+000  1.890703e-001
      vertex -1.896906e+000  1.903800e+000  2.262709e+000
    endloop
  endfacet
  facet normal -9.982052e-002  9.933596e-001 -5.720624e-002
    outer loop
      vertex -2.558776e+000  1.824584e+000  2.042074e+000
      vertex -1.896906e+000  1.903800e+000  2.262709e+000
      vertex -2.797499e+000  1.790132e+000  1.860389e+000
    endloop
  endfacet
  facet normal -1.261189e-001  9.920131e-001  2.043023e-003
    outer loop
      vertex -2.797499e+000  1.790132e+000  1.860389e+000
      vertex -1.896906e+000  1.903800e+000  2.262709e+000
      vertex -2.613228e+000  1.817001e+000  1.890703e-001
    endloop
  endfacet
  facet normal -1.535632e-001  9.881384e-001 -1.045139e-003
    outer loop
      vertex -2.797499e+000  1.790132e+000  1.860389e+000
      vertex -2.613228e+000  1.817001e+000  1.890703e-001
      vertex -2.999663e+000  1.758499e+000  1.656310e+000
    endloop
  endfacet
  facet normal -1.516574e-001  9.884331e-001 -5.314433e-004
    outer loop
      vertex -2.999663e+000  1.758499e+000  1.656310e+000
      vertex -2.613228e+000  1.817001e+000  1.890703e-001
      vertex -3.055882e+000  1.749300e+000  5.900481e-001
    endloop
  endfacet
  facet normal -1.656882e-001  9.861782e-001  2.277936e-004
    outer loop
      vertex -2.999663e+000  1.758499e+000  1.656310e+000
      vertex -3.055882e+000  1.749300e+000  5.900481e-001
      vertex -3.190683e+000  1.726527e+000  1.130307e+000
    endloop
  endfacet
  facet normal  1.456838e-001  9.893312e-001  2.326776e-004
    outer loop
      vertex  2.613228e+000  1.817001e+000  1.890703e-001
      vertex  2.558776e+000  1.824584e+000  2.042074e+000
      vertex  2.855440e+000  1.781297e+000  3.491327e-001
    endloop
  endfacet
  facet normal  1.425986e-001  9.897805e-001 -3.194541e-004
    outer loop
      vertex  2.855440e+000  1.781297e+000  3.491327e-001
      vertex  2.558776e+000  1.824584e+000  2.042074e+000
      vertex  2.797501e+000  1.790132e+000  1.860387e+000
    endloop
  endfacet
  facet normal  1.597940e-001  9.871504e-001  3.551769e-004
    outer loop
      vertex  2.855440e+000  1.781297e+000  3.491327e-001
      vertex  2.797501e+000  1.790132e+000  1.860387e+000
      vertex  3.157177e+000  1.732282e+000  8.264980e-001
    endloop
  endfacet
  facet normal  1.528734e-001  9.882435e-001 -2.113589e-003
    outer loop
      vertex  3.157177e+000  1.732282e+000  8.264980e-001
      vertex  2.797501e+000  1.790132e+000  1.860387e+000
      vertex  3.015340e+000  1.755951e+000  1.634608e+000
    endloop
  endfacet
  facet normal  1.665462e-001  9.860335e-001  3.509553e-004
    outer loop
      vertex  3.157177e+000  1.732282e+000  8.264980e-001
      vertex  3.015340e+000  1.755951e+000  1.634608e+000
      vertex  3.191654e+000  1.726359e+000  1.105353e+000
    endloop
  endfacet
  facet normal -6.265697e-001  0.000000e+000  7.793654e-001
    outer loop
      vertex -3.048877e+000 -2.798214e-001  2.821440e+000
      vertex -3.048877e+000  8.339393e-001  2.821440e+000
      vertex -3.274868e+000 -3.232644e-001  2.639755e+000
    endloop
  endfacet
  facet normal -6.265697e-001  0.000000e+000  7.793655e-001
    outer loop
      vertex -3.274868e+000 -3.232644e-001  2.639755e+000
      vertex -3.048877e+000  8.339393e-001  2.821440e+000
      vertex -3.274868e+000  8.013253e-001  2.639755e+000
    endloop
  endfacet
  facet normal -3.321406e-001  0.000000e+000  9.432299e-001
    outer loop
      vertex -3.048877e+000  8.339393e-001  2.821440e+000
      vertex -3.048877e+000 -2.798214e-001  2.821440e+000
      vertex -1.795738e+000  9.089305e-001  3.262709e+000
    endloop
  endfacet
  facet normal -3.321406e-001  0.000000e+000  9.432299e-001
    outer loop
      vertex -1.795738e+000  9.089305e-001  3.262709e+000
      vertex -3.048877e+000 -2.798214e-001  2.821440e+000
      vertex -1.795738e+000 -9.653714e-002  3.262709e+000
    endloop
  endfacet
  facet normal  0.000000e+000  0.000000e+000  1.000000e+000
    outer loop
      vertex  1.795738e+000 -9.653714e-002  3.262709e+000
      vertex  1.795738e+000  9.089303e-001  3.262709e+000
      vertex -1.795738e+000 -9.653714e-002  3.262709e+000
    endloop
  endfacet
  facet normal  0.000000e+000  0.000000e+000  1.000000e+000
    outer loop
      vertex -1.795738e+000 -9.653714e-002  3.262709e+000
      vertex  1.795738e+000  9.089303e-001  3.262709e+000
      vertex -1.795738e+000  9.089305e-001  3.262709e+000
    endloop
  endfacet
  facet normal  3.321406e-001  -0.000000e+000  9.432299e-001
    outer loop
      vertex  1.795738e+000  9.089303e-001  3.262709e+000
      vertex  1.795738e+000 -9.653714e-002  3.262709e+000
      vertex  3.048877e+000  8.339394e-001  2.821440e+000
    endloop
  endfacet
  facet normal  3.321406e-001  0.000000e+000  9.432299e-001
    outer loop
      vertex  3.048877e+000  8.339394e-001  2.821440e+000
      vertex  1.795738e+000 -9.653714e-002  3.262709e+000
      vertex  3.048877e+000 -2.798214e-001  2.821440e+000
    endloop
  endfacet
  facet normal  6.265697e-001  0.000000e+000  7.793654e-001
    outer loop
      vertex  3.048877e+000 -2.798214e-001  2.821440e+000
      vertex  3.274868e+000 -3.232644e-001  2.639755e+000
      vertex  3.048877e+000  8.339394e-001  2.821440e+000
    endloop
  endfacet
  facet normal  6.265697e-001  0.000000e+000  7.793654e-001
    outer loop
      vertex  3.048877e+000  8.339394e-001  2.821440e+000
      vertex  3.274868e+000 -3.232644e-001  2.639755e+000
      vertex  3.274868e+000  8.013238e-001  2.639755e+000
    endloop
  endfacet
  facet normal  7.383625e-001  -0.000000e+000  6.744040e-001
    outer loop
      vertex  3.274868e+000  8.013238e-001  2.639755e+000
      vertex  3.274868e+000 -3.232644e-001  2.639755e+000
      vertex  3.687315e+000  7.689670e-001  2.188193e+000
    endloop
  endfacet
  facet normal  6.986647e-001  3.167000e-002  7.147479e-001
    outer loop
      vertex  3.687315e+000  7.689670e-001  2.188193e+000
      vertex  3.274868e+000 -3.232644e-001  2.639755e+000
      vertex  3.539289e+000 -3.781969e-001  2.383718e+000
    endloop
  endfacet
  facet normal  9.507309e-001 -7.125353e-002  3.017177e-001
    outer loop
      vertex  3.687315e+000  7.689670e-001  2.188193e+000
      vertex  3.539289e+000 -3.781969e-001  2.383718e+000
      vertex  4.021137e+000  7.409532e-001  1.129683e+000
    endloop
  endfacet
  facet normal  9.187075e-001  4.420917e-002  3.924565e-001
    outer loop
      vertex  4.021137e+000  7.409532e-001  1.129683e+000
      vertex  3.539289e+000 -3.781969e-001  2.383718e+000
      vertex  4.010461e+000 -4.871989e-001  1.293021e+000
    endloop
  endfacet
  facet normal  9.929031e-001 -2.411851e-002 -1.164548e-001
    outer loop
      vertex  4.021137e+000  7.409532e-001  1.129683e+000
      vertex  4.010461e+000 -4.871989e-001  1.293021e+000
      vertex  3.955861e+000  7.465599e-001  5.719721e-001
    endloop
  endfacet
  facet normal  9.775934e-001 -7.228037e-002 -1.977033e-001
    outer loop
      vertex  3.955861e+000  7.465599e-001  5.719721e-001
      vertex  4.010461e+000 -4.871989e-001  1.293021e+000
      vertex  3.778300e+000 -4.316989e-001  1.247512e-001
    endloop
  endfacet
  facet normal  8.577028e-001  6.436099e-002 -5.101016e-001
    outer loop
      vertex  3.955861e+000  7.465599e-001  5.719721e-001
      vertex  3.778300e+000 -4.316989e-001  1.247512e-001
      vertex  3.384572e+000  7.929609e-001 -3.827584e-001
    endloop
  endfacet
  facet normal  5.723968e-001  0.000000e+000 -8.199767e-001
    outer loop
      vertex  2.925983e+000  8.267613e-001 -7.028833e-001
      vertex  3.384572e+000  7.929609e-001 -3.827584e-001
      vertex  2.925983e+000 -2.575435e-001 -7.028833e-001
    endloop
  endfacet
  facet normal  6.860902e-001 -7.912274e-002 -7.232011e-001
    outer loop
      vertex  2.925983e+000 -2.575435e-001 -7.028833e-001
      vertex  3.384572e+000  7.929609e-001 -3.827584e-001
      vertex  3.778300e+000 -4.316989e-001  1.247512e-001
    endloop
  endfacet
  facet normal  3.344892e-001  8.908392e-001 -3.074451e-001
    outer loop
      vertex  2.855440e+000  1.781297e+000  3.491327e-001
      vertex  2.879525e+000  1.505894e+000 -4.226585e-001
      vertex  2.613228e+000  1.817001e+000  1.890703e-001
    endloop
  endfacet
  facet normal  8.131204e-001  3.436190e-001 -4.698523e-001
    outer loop
      vertex  3.955861e+000  7.465599e-001  5.719721e-001
      vertex  3.384572e+000  7.929609e-001 -3.827584e-001
      vertex  3.733343e+000  1.392928e+000  6.595976e-001
    endloop
  endfacet
  facet normal  4.977212e-001  8.662637e-001 -4.313818e-002
    outer loop
      vertex  3.733343e+000  1.392928e+000  6.595976e-001
      vertex  3.157177e+000  1.732282e+000  8.264980e-001
      vertex  3.191654e+000  1.726359e+000  1.105353e+000
    endloop
  endfacet
  facet normal  9.065609e-001  3.180400e-001  2.774850e-001
    outer loop
      vertex  3.687315e+000  7.689670e-001  2.188193e+000
      vertex  4.021137e+000  7.409532e-001  1.129683e+000
      vertex  3.514316e+000  1.424361e+000  2.002209e+000
    endloop
  endfacet
  facet normal  3.990156e-001  8.817818e-001  2.514903e-001
    outer loop
      vertex  2.797501e+000  1.790132e+000  1.860387e+000
      vertex  3.172878e+000  1.469962e+000  2.387400e+000
      vertex  3.015340e+000  1.755951e+000  1.634608e+000
    endloop
  endfacet
  facet normal  4.007349e-001  8.811706e-001  2.508983e-001
    outer loop
      vertex  3.015340e+000  1.755951e+000  1.634608e+000
      vertex  3.172878e+000  1.469962e+000  2.387400e+000
      vertex  3.514316e+000  1.424361e+000  2.002209e+000
    endloop
  endfacet
  facet normal  7.238962e-001  3.375143e-001  6.017128e-001
    outer loop
      vertex  3.172878e+000  1.469962e+000  2.387400e+000
      vertex  3.274868e+000  8.013238e-001  2.639755e+000
      vertex  3.514316e+000  1.424361e+000  2.002209e+000
    endloop
  endfacet
  facet normal  7.016230e-001  3.597422e-001  6.150695e-001
    outer loop
      vertex  3.514316e+000  1.424361e+000  2.002209e+000
      vertex  3.274868e+000  8.013238e-001  2.639755e+000
      vertex  3.687315e+000  7.689670e-001  2.188193e+000
    endloop
  endfacet
  facet normal  4.542558e-001  8.686025e-001 -1.979430e-001
    outer loop
      vertex  3.157177e+000  1.732282e+000  8.264980e-001
      vertex  3.733343e+000  1.392928e+000  6.595976e-001
      vertex  2.855440e+000  1.781297e+000  3.491327e-001
    endloop
  endfacet
  facet normal  4.700507e-001  8.358405e-001 -2.835893e-001
    outer loop
      vertex  2.855440e+000  1.781297e+000  3.491327e-001
      vertex  3.733343e+000  1.392928e+000  6.595976e-001
      vertex  2.879525e+000  1.505894e+000 -4.226585e-001
    endloop
  endfacet
  facet normal  7.136202e-001  4.768107e-001 -5.132229e-001
    outer loop
      vertex  3.733343e+000  1.392928e+000  6.595976e-001
      vertex  3.384572e+000  7.929609e-001 -3.827584e-001
      vertex  2.879525e+000  1.505894e+000 -4.226585e-001
    endloop
  endfacet
  facet normal  5.534407e-001  3.497571e-001 -7.558924e-001
    outer loop
      vertex  2.879525e+000  1.505894e+000 -4.226585e-001
      vertex  3.384572e+000  7.929609e-001 -3.827584e-001
      vertex  2.925983e+000  8.267613e-001 -7.028833e-001
    endloop
  endfacet
  facet normal  4.897469e-001  8.642697e-001  1.148292e-001
    outer loop
      vertex  3.015340e+000  1.755951e+000  1.634608e+000
      vertex  3.514316e+000  1.424361e+000  2.002209e+000
      vertex  3.191654e+000  1.726359e+000  1.105353e+000
    endloop
  endfacet
  facet normal  5.657020e-001  8.213671e-001  7.305624e-002
    outer loop
      vertex  3.191654e+000  1.726359e+000  1.105353e+000
      vertex  3.514316e+000  1.424361e+000  2.002209e+000
      vertex  3.733343e+000  1.392928e+000  6.595976e-001
    endloop
  endfacet
  facet normal  8.688045e-001  4.776351e-001  1.305503e-001
    outer loop
      vertex  3.514316e+000  1.424361e+000  2.002209e+000
      vertex  4.021137e+000  7.409532e-001  1.129683e+000
      vertex  3.733343e+000  1.392928e+000  6.595976e-001
    endloop
  endfacet
  facet normal  9.356822e-001  3.365038e-001 -1.061321e-001
    outer loop
      vertex  3.733343e+000  1.392928e+000  6.595976e-001
      vertex  4.021137e+000  7.409532e-001  1.129683e+000
      vertex  3.955861e+000  7.465599e-001  5.719721e-001
    endloop
  endfacet
  facet normal  3.472160e-001  8.928141e-001  2.869217e-001
    outer loop
      vertex  2.558776e+000  1.824584e+000  2.042074e+000
      vertex  2.940172e+000  1.506274e+000  2.571014e+000
      vertex  2.797501e+000  1.790132e+000  1.860387e+000
    endloop
  endfacet
  facet normal  3.614662e-001  8.885975e-001  2.823764e-001
    outer loop
      vertex  2.797501e+000  1.790132e+000  1.860387e+000
      vertex  2.940172e+000  1.506274e+000  2.571014e+000
      vertex  3.172878e+000  1.469962e+000  2.387400e+000
    endloop
  endfacet
  facet normal  6.117189e-001  3.610740e-001  7.038646e-001
    outer loop
      vertex  2.940172e+000  1.506274e+000  2.571014e+000
      vertex  3.048877e+000  8.339394e-001  2.821440e+000
      vertex  3.172878e+000  1.469962e+000  2.387400e+000
    endloop
  endfacet
  facet normal  6.157718e-001  3.586986e-001  7.015415e-001
    outer loop
      vertex  3.172878e+000  1.469962e+000  2.387400e+000
      vertex  3.048877e+000  8.339394e-001  2.821440e+000
      vertex  3.274868e+000  8.013238e-001  2.639755e+000
    endloop
  endfacet
  facet normal  2.334640e-001  8.955373e-001  3.788241e-001
    outer loop
      vertex  1.896906e+000  1.903800e+000  2.262709e+000
      vertex  1.867275e+000  1.612409e+000  2.969816e+000
      vertex  2.558776e+000  1.824584e+000  2.042074e+000
    endloop
  endfacet
  facet normal  2.285015e-001  8.981226e-001  3.757165e-001
    outer loop
      vertex  2.558776e+000  1.824584e+000  2.042074e+000
      vertex  1.867275e+000  1.612409e+000  2.969816e+000
      vertex  2.940172e+000  1.506274e+000  2.571014e+000
    endloop
  endfacet
  facet normal  3.574857e-001  3.277526e-001  8.745183e-001
    outer loop
      vertex  1.867275e+000  1.612409e+000  2.969816e+000
      vertex  1.795738e+000  9.089303e-001  3.262709e+000
      vertex  2.940172e+000  1.506274e+000  2.571014e+000
    endloop
  endfacet
  facet normal  3.277185e-001  3.758446e-001  8.667995e-001
    outer loop
      vertex  2.940172e+000  1.506274e+000  2.571014e+000
      vertex  1.795738e+000  9.089303e-001  3.262709e+000
      vertex  3.048877e+000  8.339394e-001  2.821440e+000
    endloop
  endfacet
  facet normal -4.788789e-008  9.245726e-001  3.810058e-001
    outer loop
      vertex  1.896906e+000  1.903800e+000  2.262709e+000
      vertex -1.896906e+000  1.903800e+000  2.262709e+000
      vertex  1.867275e+000  1.612409e+000  2.969816e+000
    endloop
  endfacet
  facet normal  2.654336e-002  9.660954e-001  2.568169e-001
    outer loop
      vertex  1.867275e+000  1.612409e+000  2.969816e+000
      vertex -1.896906e+000  1.903800e+000  2.262709e+000
      vertex -1.883352e+000  1.770512e+000  2.762709e+000
    endloop
  endfacet
  facet normal -9.106124e-003  7.084330e-001  7.057194e-001
    outer loop
      vertex  1.867275e+000  1.612409e+000  2.969816e+000
      vertex -1.883352e+000  1.770512e+000  2.762709e+000
      vertex -1.846322e+000  1.406365e+000  3.128735e+000
    endloop
  endfacet
  facet normal  2.671263e-002  2.625023e-001  9.645616e-001
    outer loop
      vertex -1.846322e+000  1.406365e+000  3.128735e+000
      vertex -1.795738e+000  9.089305e-001  3.262709e+000
      vertex  1.867275e+000  1.612409e+000  2.969816e+000
    endloop
  endfacet
  facet normal  1.913697e-008  3.843659e-001  9.231808e-001
    outer loop
      vertex  1.867275e+000  1.612409e+000  2.969816e+000
      vertex -1.795738e+000  9.089305e-001  3.262709e+000
      vertex  1.795738e+000  9.089303e-001  3.262709e+000
    endloop
  endfacet
  facet normal -2.909151e-001  6.633846e-001  6.894123e-001
    outer loop
      vertex -1.846322e+000  1.406365e+000  3.128735e+000
      vertex -1.883352e+000  1.770512e+000  2.762709e+000
      vertex -2.940171e+000  1.506276e+000  2.571018e+000
    endloop
  endfacet
  facet normal -2.777675e-001  9.263326e-001  2.544664e-001
    outer loop
      vertex -2.940171e+000  1.506276e+000  2.571018e+000
      vertex -1.883352e+000  1.770512e+000  2.762709e+000
      vertex -1.896906e+000  1.903800e+000  2.262709e+000
    endloop
  endfacet
  facet normal -2.319470e-001  8.982464e-001  3.733015e-001
    outer loop
      vertex -2.940171e+000  1.506276e+000  2.571018e+000
      vertex -1.896906e+000  1.903800e+000  2.262709e+000
      vertex -2.558776e+000  1.824584e+000  2.042074e+000
    endloop
  endfacet
  facet normal -4.315747e-001  1.934197e-001  8.810971e-001
    outer loop
      vertex -1.846322e+000  1.406365e+000  3.128735e+000
      vertex -2.940171e+000  1.506276e+000  2.571018e+000
      vertex -1.795738e+000  9.089305e-001  3.262709e+000
    endloop
  endfacet
  facet normal -3.277190e-001  3.758396e-001  8.668015e-001
    outer loop
      vertex -1.795738e+000  9.089305e-001  3.262709e+000
      vertex -2.940171e+000  1.506276e+000  2.571018e+000
      vertex -3.048877e+000  8.339393e-001  2.821440e+000
    endloop
  endfacet
  facet normal -3.472145e-001  8.928153e-001  2.869197e-001
    outer loop
      vertex -2.558776e+000  1.824584e+000  2.042074e+000
      vertex -2.797499e+000  1.790132e+000  1.860389e+000
      vertex -2.940171e+000  1.506276e+000  2.571018e+000
    endloop
  endfacet
  facet normal -3.614760e-001  8.885954e-001  2.823708e-001
    outer loop
      vertex -2.940171e+000  1.506276e+000  2.571018e+000
      vertex -2.797499e+000  1.790132e+000  1.860389e+000
      vertex -3.172880e+000  1.469960e+000  2.387398e+000
    endloop
  endfacet
  facet normal -6.117296e-001  3.610693e-001  7.038578e-001
    outer loop
      vertex -2.940171e+000  1.506276e+000  2.571018e+000
      vertex -3.172880e+000  1.469960e+000  2.387398e+000
      vertex -3.048877e+000  8.339393e-001  2.821440e+000
    endloop
  endfacet
  facet normal -6.157698e-001  3.587011e-001  7.015418e-001
    outer loop
      vertex -3.048877e+000  8.339393e-001  2.821440e+000
      vertex -3.172880e+000  1.469960e+000  2.387398e+000
      vertex -3.274868e+000  8.013253e-001  2.639755e+000
    endloop
  endfacet
  facet normal -3.952048e-001  8.825790e-001  2.546912e-001
    outer loop
      vertex -2.999663e+000  1.758499e+000  1.656310e+000
      vertex -3.172880e+000  1.469960e+000  2.387398e+000
      vertex -2.797499e+000  1.790132e+000  1.860389e+000
    endloop
  endfacet
  facet normal -8.944067e-001  3.336166e-001  2.978868e-001
    outer loop
      vertex -4.019299e+000  7.411120e-001  1.179591e+000
      vertex -3.657633e+000  7.713787e-001  2.231596e+000
      vertex -3.784695e+000  1.385308e+000  1.162526e+000
    endloop
  endfacet
  facet normal -3.868541e-001  8.790341e-001 -2.786450e-001
    outer loop
      vertex -2.613228e+000  1.817001e+000  1.890703e-001
      vertex -2.879523e+000  1.505896e+000 -4.226569e-001
      vertex -3.055882e+000  1.749300e+000  5.900481e-001
    endloop
  endfacet
  facet normal -3.885988e-001  8.782291e-001 -2.787553e-001
    outer loop
      vertex -3.055882e+000  1.749300e+000  5.900481e-001
      vertex -2.879523e+000  1.505896e+000 -4.226569e-001
      vertex -3.577192e+000  1.415514e+000  2.651741e-001
    endloop
  endfacet
  facet normal -6.863636e-001  3.170252e-001 -6.545226e-001
    outer loop
      vertex -2.879523e+000  1.505896e+000 -4.226569e-001
      vertex -2.925983e+000  8.267613e-001 -7.028833e-001
      vertex -3.577192e+000  1.415514e+000  2.651741e-001
    endloop
  endfacet
  facet normal -6.598865e-001  3.570980e-001 -6.610830e-001
    outer loop
      vertex -3.577192e+000  1.415514e+000  2.651741e-001
      vertex -2.925983e+000  8.267613e-001 -7.028833e-001
      vertex -3.764075e+000  7.626702e-001  9.907234e-002
    endloop
  endfacet
  facet normal -4.890727e-001  8.632194e-001  1.251403e-001
    outer loop
      vertex -3.190683e+000  1.726527e+000  1.130307e+000
      vertex -3.784695e+000  1.385308e+000  1.162526e+000
      vertex -2.999663e+000  1.758499e+000  1.656310e+000
    endloop
  endfacet
  facet normal -5.217657e-001  8.284957e-001  2.033600e-001
    outer loop
      vertex -2.999663e+000  1.758499e+000  1.656310e+000
      vertex -3.784695e+000  1.385308e+000  1.162526e+000
      vertex -3.172880e+000  1.469960e+000  2.387398e+000
    endloop
  endfacet
  facet normal -8.005522e-001  4.736309e-001  3.671372e-001
    outer loop
      vertex -3.784695e+000  1.385308e+000  1.162526e+000
      vertex -3.657633e+000  7.713787e-001  2.231596e+000
      vertex -3.172880e+000  1.469960e+000  2.387398e+000
    endloop
  endfacet
  facet normal -6.974432e-001  3.437172e-001  6.288334e-001
    outer loop
      vertex -3.172880e+000  1.469960e+000  2.387398e+000
      vertex -3.657633e+000  7.713787e-001  2.231596e+000
      vertex -3.274868e+000  8.013253e-001  2.639755e+000
    endloop
  endfacet
  facet normal -4.977477e-001  8.628640e-001 -8.782290e-002
    outer loop
      vertex -3.055882e+000  1.749300e+000  5.900481e-001
      vertex -3.577192e+000  1.415514e+000  2.651741e-001
      vertex -3.190683e+000  1.726527e+000  1.130307e+000
    endloop
  endfacet
  facet normal -4.997567e-001  8.618304e-001 -8.655379e-002
    outer loop
      vertex -3.190683e+000  1.726527e+000  1.130307e+000
      vertex -3.577192e+000  1.415514e+000  2.651741e-001
      vertex -3.784695e+000  1.385308e+000  1.162526e+000
    endloop
  endfacet
  facet normal -9.263412e-001  3.169613e-001 -2.035379e-001
    outer loop
      vertex -3.577192e+000  1.415514e+000  2.651741e-001
      vertex -3.764075e+000  7.626702e-001  9.907234e-002
      vertex -3.784695e+000  1.385308e+000  1.162526e+000
    endloop
  endfacet
  facet normal -9.202967e-001  3.295695e-001 -2.108027e-001
    outer loop
      vertex -3.784695e+000  1.385308e+000  1.162526e+000
      vertex -3.764075e+000  7.626702e-001  9.907234e-002
      vertex -4.019299e+000  7.411120e-001  1.179591e+000
    endloop
  endfacet
endsolid CATIA STL
