solid CATIA STL
  facet normal  3.574068e-001  8.628562e-001 -3.574068e-001
    outer loop
      vertex -1.200000e+000  2.400000e+000 -2.719439e-015
      vertex -3.514719e-001  2.048528e+000 -5.551115e-016
      vertex -1.200000e+000  1.697056e+000 -1.697056e+000
    endloop
  endfacet
  facet normal  3.574067e-001  8.628562e-001 -3.574067e-001
    outer loop
      vertex -1.200000e+000  1.697056e+000 -1.697056e+000
      vertex -3.514719e-001  2.048528e+000 -5.551115e-016
      vertex -3.514719e-001  1.448528e+000 -1.448528e+000
    endloop
  endfacet
  facet normal  9.124870e-001  3.779645e-001 -1.565580e-001
    outer loop
      vertex -3.514719e-001  2.048528e+000 -5.551115e-016
      vertex  0.000000e+000  1.200000e+000 -3.930212e-016
      vertex -3.514719e-001  1.448528e+000 -1.448528e+000
    endloop
  endfacet
  facet normal  9.124870e-001  3.779645e-001 -1.565580e-001
    outer loop
      vertex -3.514719e-001  1.448528e+000 -1.448528e+000
      vertex  0.000000e+000  1.200000e+000 -3.930212e-016
      vertex  0.000000e+000  8.485281e-001 -8.485281e-001
    endloop
  endfacet
  facet normal  3.574067e-001 -8.628562e-001 -3.574068e-001
    outer loop
      vertex -1.200000e+000 -1.697056e+000 -1.697056e+000
      vertex -3.514719e-001 -1.448528e+000 -1.448528e+000
      vertex -1.200000e+000 -2.400000e+000  2.939055e-016
    endloop
  endfacet
  facet normal  3.574068e-001 -8.628561e-001 -3.574067e-001
    outer loop
      vertex -1.200000e+000 -2.400000e+000  2.939055e-016
      vertex -3.514719e-001 -1.448528e+000 -1.448528e+000
      vertex -3.514719e-001 -2.048528e+000 -4.440892e-016
    endloop
  endfacet
  facet normal  9.124870e-001 -3.779645e-001 -1.565580e-001
    outer loop
      vertex -3.514719e-001 -1.448528e+000 -1.448528e+000
      vertex  0.000000e+000 -8.485281e-001 -8.485281e-001
      vertex -3.514719e-001 -2.048528e+000 -4.440892e-016
    endloop
  endfacet
  facet normal  9.124870e-001 -3.779645e-001 -1.565580e-001
    outer loop
      vertex -3.514719e-001 -2.048528e+000 -4.440892e-016
      vertex  0.000000e+000 -8.485281e-001 -8.485281e-001
      vertex  0.000000e+000 -1.200000e+000 -1.017977e-015
    endloop
  endfacet
  facet normal  3.574068e-001 -3.574068e-001 -8.628562e-001
    outer loop
      vertex -1.200000e+000 -2.572486e-015 -2.400000e+000
      vertex -3.514719e-001  4.440892e-016 -2.048528e+000
      vertex -1.200000e+000 -1.697056e+000 -1.697056e+000
    endloop
  endfacet
  facet normal  3.574067e-001 -3.574067e-001 -8.628562e-001
    outer loop
      vertex -1.200000e+000 -1.697056e+000 -1.697056e+000
      vertex -3.514719e-001  4.440892e-016 -2.048528e+000
      vertex -3.514719e-001 -1.448528e+000 -1.448528e+000
    endloop
  endfacet
  facet normal  9.124870e-001 -1.565580e-001 -3.779645e-001
    outer loop
      vertex -3.514719e-001  4.440892e-016 -2.048528e+000
      vertex  0.000000e+000 -2.204291e-016 -1.200000e+000
      vertex -3.514719e-001 -1.448528e+000 -1.448528e+000
    endloop
  endfacet
  facet normal  9.124870e-001 -1.565580e-001 -3.779645e-001
    outer loop
      vertex -3.514719e-001 -1.448528e+000 -1.448528e+000
      vertex  0.000000e+000 -2.204291e-016 -1.200000e+000
      vertex  0.000000e+000 -8.485281e-001 -8.485281e-001
    endloop
  endfacet
  facet normal  3.574067e-001  3.574068e-001 -8.628562e-001
    outer loop
      vertex -1.200000e+000  1.697056e+000 -1.697056e+000
      vertex -3.514719e-001  1.448528e+000 -1.448528e+000
      vertex -1.200000e+000 -2.572486e-015 -2.400000e+000
    endloop
  endfacet
  facet normal  3.574068e-001  3.574067e-001 -8.628561e-001
    outer loop
      vertex -1.200000e+000 -2.572486e-015 -2.400000e+000
      vertex -3.514719e-001  1.448528e+000 -1.448528e+000
      vertex -3.514719e-001  4.440892e-016 -2.048528e+000
    endloop
  endfacet
  facet normal  9.124870e-001  1.565580e-001 -3.779645e-001
    outer loop
      vertex -3.514719e-001  1.448528e+000 -1.448528e+000
      vertex  0.000000e+000  8.485281e-001 -8.485281e-001
      vertex -3.514719e-001  4.440892e-016 -2.048528e+000
    endloop
  endfacet
  facet normal  9.124870e-001  1.565580e-001 -3.779645e-001
    outer loop
      vertex -3.514719e-001  4.440892e-016 -2.048528e+000
      vertex  0.000000e+000  8.485281e-001 -8.485281e-001
      vertex  0.000000e+000 -2.204291e-016 -1.200000e+000
    endloop
  endfacet
  facet normal  3.574068e-001 -8.628562e-001  3.574068e-001
    outer loop
      vertex -1.200000e+000 -2.400000e+000  2.939055e-016
      vertex -3.514719e-001 -2.048528e+000 -4.440892e-016
      vertex -1.200000e+000 -1.697056e+000  1.697056e+000
    endloop
  endfacet
  facet normal  3.574067e-001 -8.628562e-001  3.574067e-001
    outer loop
      vertex -1.200000e+000 -1.697056e+000  1.697056e+000
      vertex -3.514719e-001 -2.048528e+000 -4.440892e-016
      vertex -3.514719e-001 -1.448528e+000  1.448528e+000
    endloop
  endfacet
  facet normal  9.124870e-001 -3.779645e-001  1.565580e-001
    outer loop
      vertex -3.514719e-001 -2.048528e+000 -4.440892e-016
      vertex  0.000000e+000 -1.200000e+000 -1.017977e-015
      vertex -3.514719e-001 -1.448528e+000  1.448528e+000
    endloop
  endfacet
  facet normal  9.124870e-001 -3.779645e-001  1.565580e-001
    outer loop
      vertex -3.514719e-001 -1.448528e+000  1.448528e+000
      vertex  0.000000e+000 -1.200000e+000 -1.017977e-015
      vertex  0.000000e+000 -8.485281e-001  8.485281e-001
    endloop
  endfacet
  facet normal  3.574067e-001  8.628562e-001  3.574068e-001
    outer loop
      vertex -1.200000e+000  1.697056e+000  1.697056e+000
      vertex -3.514719e-001  1.448528e+000  1.448528e+000
      vertex -1.200000e+000  2.400000e+000 -2.719439e-015
    endloop
  endfacet
  facet normal  3.574068e-001  8.628561e-001  3.574067e-001
    outer loop
      vertex -1.200000e+000  2.400000e+000 -2.719439e-015
      vertex -3.514719e-001  1.448528e+000  1.448528e+000
      vertex -3.514719e-001  2.048528e+000 -5.551115e-016
    endloop
  endfacet
  facet normal  9.124870e-001  3.779645e-001  1.565580e-001
    outer loop
      vertex -3.514719e-001  1.448528e+000  1.448528e+000
      vertex  0.000000e+000  8.485281e-001  8.485281e-001
      vertex -3.514719e-001  2.048528e+000 -5.551115e-016
    endloop
  endfacet
  facet normal  9.124870e-001  3.779645e-001  1.565580e-001
    outer loop
      vertex -3.514719e-001  2.048528e+000 -5.551115e-016
      vertex  0.000000e+000  8.485281e-001  8.485281e-001
      vertex  0.000000e+000  1.200000e+000 -3.930212e-016
    endloop
  endfacet
  facet normal  3.574068e-001  3.574068e-001  8.628562e-001
    outer loop
      vertex -1.200000e+000 -3.859543e-016  2.400000e+000
      vertex -3.514719e-001 -3.330669e-016  2.048528e+000
      vertex -1.200000e+000  1.697056e+000  1.697056e+000
    endloop
  endfacet
  facet normal  3.574067e-001  3.574067e-001  8.628562e-001
    outer loop
      vertex -1.200000e+000  1.697056e+000  1.697056e+000
      vertex -3.514719e-001 -3.330669e-016  2.048528e+000
      vertex -3.514719e-001  1.448528e+000  1.448528e+000
    endloop
  endfacet
  facet normal  9.124870e-001  1.565580e-001  3.779645e-001
    outer loop
      vertex -3.514719e-001 -3.330669e-016  2.048528e+000
      vertex  0.000000e+000 -4.594307e-016  1.200000e+000
      vertex -3.514719e-001  1.448528e+000  1.448528e+000
    endloop
  endfacet
  facet normal  9.124870e-001  1.565580e-001  3.779645e-001
    outer loop
      vertex -3.514719e-001  1.448528e+000  1.448528e+000
      vertex  0.000000e+000 -4.594307e-016  1.200000e+000
      vertex  0.000000e+000  8.485281e-001  8.485281e-001
    endloop
  endfacet
  facet normal  3.574067e-001 -3.574068e-001  8.628562e-001
    outer loop
      vertex -1.200000e+000 -1.697056e+000  1.697056e+000
      vertex -3.514719e-001 -1.448528e+000  1.448528e+000
      vertex -1.200000e+000 -3.859543e-016  2.400000e+000
    endloop
  endfacet
  facet normal  3.574068e-001 -3.574067e-001  8.628561e-001
    outer loop
      vertex -1.200000e+000 -3.859543e-016  2.400000e+000
      vertex -3.514719e-001 -1.448528e+000  1.448528e+000
      vertex -3.514719e-001 -3.330669e-016  2.048528e+000
    endloop
  endfacet
  facet normal  9.124870e-001 -1.565580e-001  3.779645e-001
    outer loop
      vertex -3.514719e-001 -1.448528e+000  1.448528e+000
      vertex  0.000000e+000 -8.485281e-001  8.485281e-001
      vertex -3.514719e-001 -3.330669e-016  2.048528e+000
    endloop
  endfacet
  facet normal  9.124870e-001 -1.565580e-001  3.779645e-001
    outer loop
      vertex -3.514719e-001 -3.330669e-016  2.048528e+000
      vertex  0.000000e+000 -8.485281e-001  8.485281e-001
      vertex  0.000000e+000 -4.594307e-016  1.200000e+000
    endloop
  endfacet
  facet normal -2.771164e-002 -2.609821e-006  9.996160e-001
    outer loop
      vertex -4.800000e+000 -6.849007e-001  2.300198e+000
      vertex -1.200000e+000 -3.859543e-016  2.400000e+000
      vertex -4.800000e+000  6.848887e-001  2.300202e+000
    endloop
  endfacet
  facet normal  4.714027e-002  3.822580e-001  9.228524e-001
    outer loop
      vertex -4.800000e+000  6.848887e-001  2.300202e+000
      vertex -1.200000e+000 -3.859543e-016  2.400000e+000
      vertex -1.200000e+000  1.697056e+000  1.697056e+000
    endloop
  endfacet
  facet normal  0.000000e+000  9.783591e-001  2.069138e-001
    outer loop
      vertex -5.168224e+000  2.400000e+000 -5.551115e-017
      vertex -4.896751e+000  2.194496e+000  9.716919e-001
      vertex -1.200000e+000  2.400000e+000 -2.719439e-015
    endloop
  endfacet
  facet normal  4.714062e-002 -3.822580e-001  9.228524e-001
    outer loop
      vertex -1.200000e+000 -1.697056e+000  1.697056e+000
      vertex -1.200000e+000 -3.859543e-016  2.400000e+000
      vertex -4.800000e+000 -6.849007e-001  2.300198e+000
    endloop
  endfacet
  facet normal -1.354305e-002 -5.469640e-001  8.370465e-001
    outer loop
      vertex -1.200000e+000 -1.697056e+000  1.697056e+000
      vertex -4.800000e+000 -6.849007e-001  2.300198e+000
      vertex -4.800000e+000 -1.831583e+000  1.550904e+000
    endloop
  endfacet
  facet normal  8.661897e-003 -8.329270e-001  5.533149e-001
    outer loop
      vertex -1.200000e+000 -1.697056e+000  1.697056e+000
      vertex -4.800000e+000 -1.831583e+000  1.550904e+000
      vertex -4.866102e+000 -2.137373e+000  1.091621e+000
    endloop
  endfacet
  facet normal  8.202577e-002 -9.739072e-001  2.116044e-001
    outer loop
      vertex -1.200000e+000 -1.697056e+000  1.697056e+000
      vertex -4.866102e+000 -2.137373e+000  1.091621e+000
      vertex -5.168234e+000 -2.400000e+000  2.939055e-016
    endloop
  endfacet
  facet normal  0.000000e+000 -9.238795e-001  3.826835e-001
    outer loop
      vertex -1.200000e+000 -1.697056e+000  1.697056e+000
      vertex -5.168234e+000 -2.400000e+000  2.939055e-016
      vertex -1.200000e+000 -2.400000e+000  2.939055e-016
    endloop
  endfacet
  facet normal  4.917010e-002  9.227620e-001  3.822205e-001
    outer loop
      vertex -1.200000e+000  2.400000e+000 -2.719439e-015
      vertex -4.896751e+000  2.194496e+000  9.716919e-001
      vertex -1.200000e+000  1.697056e+000  1.697056e+000
    endloop
  endfacet
  facet normal  1.018779e-002  8.481218e-001  5.297035e-001
    outer loop
      vertex -1.200000e+000  1.697056e+000  1.697056e+000
      vertex -4.896751e+000  2.194496e+000  9.716919e-001
      vertex -4.800000e+000  1.831575e+000  1.550913e+000
    endloop
  endfacet
  facet normal -1.354234e-002  5.469596e-001  8.370494e-001
    outer loop
      vertex -1.200000e+000  1.697056e+000  1.697056e+000
      vertex -4.800000e+000  1.831575e+000  1.550913e+000
      vertex -4.800000e+000  6.848887e-001  2.300202e+000
    endloop
  endfacet
  facet normal  0.000000e+000 -9.957970e-001 -9.158744e-002
    outer loop
      vertex -5.168234e+000 -2.400000e+000  2.939055e-016
      vertex -5.242269e+000 -2.359736e+000 -4.377721e-001
      vertex -1.200000e+000 -2.400000e+000  2.939055e-016
    endloop
  endfacet
  facet normal -1.202098e-016  9.838371e-001 -1.790662e-001
    outer loop
      vertex -5.168224e+000  2.400000e+000 -5.551115e-017
      vertex -1.200000e+000  2.400000e+000 -2.719439e-015
      vertex -5.254621e+000  2.246090e+000 -8.456243e-001
    endloop
  endfacet
  facet normal  4.469727e-002  9.229562e-001 -3.823010e-001
    outer loop
      vertex -5.254621e+000  2.246090e+000 -8.456243e-001
      vertex -1.200000e+000  2.400000e+000 -2.719439e-015
      vertex -1.200000e+000  1.697056e+000 -1.697056e+000
    endloop
  endfacet
  facet normal  7.030528e-003  8.553166e-001 -5.180581e-001
    outer loop
      vertex -5.254621e+000  2.246090e+000 -8.456243e-001
      vertex -1.200000e+000  1.697056e+000 -1.697056e+000
      vertex -5.105737e+000  1.786053e+000 -1.603126e+000
    endloop
  endfacet
  facet normal  2.942072e-002  3.825178e-001 -9.234796e-001
    outer loop
      vertex -1.200000e+000 -2.572486e-015 -2.400000e+000
      vertex -4.800000e+000  3.328973e-001 -2.376800e+000
      vertex -1.200000e+000  1.697056e+000 -1.697056e+000
    endloop
  endfacet
  facet normal  9.062336e-002  2.421862e-001 -9.659882e-001
    outer loop
      vertex -1.200000e+000  1.697056e+000 -1.697056e+000
      vertex -4.800000e+000  3.328973e-001 -2.376800e+000
      vertex -4.832187e+000  8.002981e-001 -2.262636e+000
    endloop
  endfacet
  facet normal -7.372389e-003  5.546361e-001 -8.320603e-001
    outer loop
      vertex -1.200000e+000  1.697056e+000 -1.697056e+000
      vertex -4.832187e+000  8.002981e-001 -2.262636e+000
      vertex -5.105737e+000  1.786053e+000 -1.603126e+000
    endloop
  endfacet
  facet normal  4.238662e-002 -3.823395e-001 -9.230492e-001
    outer loop
      vertex -1.200000e+000 -1.697056e+000 -1.697056e+000
      vertex -4.919961e+000 -1.227308e+000 -2.062454e+000
      vertex -1.200000e+000 -2.572486e-015 -2.400000e+000
    endloop
  endfacet
  facet normal  2.485476e-002 -3.344374e-001 -9.420902e-001
    outer loop
      vertex -1.200000e+000 -2.572486e-015 -2.400000e+000
      vertex -4.919961e+000 -1.227308e+000 -2.062454e+000
      vertex -4.800000e+000 -3.328983e-001 -2.376800e+000
    endloop
  endfacet
  facet normal -6.444287e-003 -3.580883e-007 -9.999792e-001
    outer loop
      vertex -1.200000e+000 -2.572486e-015 -2.400000e+000
      vertex -4.800000e+000 -3.328983e-001 -2.376800e+000
      vertex -4.800000e+000  3.328973e-001 -2.376800e+000
    endloop
  endfacet
  facet normal  3.222490e-002 -9.233997e-001 -3.824847e-001
    outer loop
      vertex -1.200000e+000 -2.400000e+000  2.939055e-016
      vertex -5.242269e+000 -2.359736e+000 -4.377721e-001
      vertex -1.200000e+000 -1.697056e+000 -1.697056e+000
    endloop
  endfacet
  facet normal  7.456278e-003 -8.945880e-001 -4.468296e-001
    outer loop
      vertex -1.200000e+000 -1.697056e+000 -1.697056e+000
      vertex -5.242269e+000 -2.359736e+000 -4.377721e-001
      vertex -5.097704e+000 -1.764774e+000 -1.626522e+000
    endloop
  endfacet
  facet normal -3.130339e-003 -6.293040e-001 -7.771530e-001
    outer loop
      vertex -1.200000e+000 -1.697056e+000 -1.697056e+000
      vertex -5.097704e+000 -1.764774e+000 -1.626522e+000
      vertex -4.919961e+000 -1.227308e+000 -2.062454e+000
    endloop
  endfacet
  facet normal  1.000000e+000  0.000000e+000  0.000000e+000
    outer loop
      vertex  0.000000e+000 -8.485281e-001  8.485281e-001
      vertex  0.000000e+000  8.485281e-001  8.485281e-001
      vertex  0.000000e+000 -4.594307e-016  1.200000e+000
    endloop
  endfacet
  facet normal  1.000000e+000  -0.000000e+000  0.000000e+000
    outer loop
      vertex  0.000000e+000  8.485281e-001  8.485281e-001
      vertex  0.000000e+000 -8.485281e-001  8.485281e-001
      vertex  0.000000e+000  1.200000e+000 -3.930212e-016
    endloop
  endfacet
  facet normal  1.000000e+000  0.000000e+000  0.000000e+000
    outer loop
      vertex  0.000000e+000  1.200000e+000 -3.930212e-016
      vertex  0.000000e+000 -8.485281e-001  8.485281e-001
      vertex  0.000000e+000 -1.200000e+000 -1.017977e-015
    endloop
  endfacet
  facet normal  1.000000e+000  -0.000000e+000  0.000000e+000
    outer loop
      vertex  0.000000e+000  1.200000e+000 -3.930212e-016
      vertex  0.000000e+000 -1.200000e+000 -1.017977e-015
      vertex  0.000000e+000  8.485281e-001 -8.485281e-001
    endloop
  endfacet
  facet normal  1.000000e+000  0.000000e+000  0.000000e+000
    outer loop
      vertex  0.000000e+000  8.485281e-001 -8.485281e-001
      vertex  0.000000e+000 -1.200000e+000 -1.017977e-015
      vertex  0.000000e+000 -8.485281e-001 -8.485281e-001
    endloop
  endfacet
  facet normal  1.000000e+000  -0.000000e+000  0.000000e+000
    outer loop
      vertex  0.000000e+000  8.485281e-001 -8.485281e-001
      vertex  0.000000e+000 -8.485281e-001 -8.485281e-001
      vertex  0.000000e+000 -2.204291e-016 -1.200000e+000
    endloop
  endfacet
  facet normal  2.564826e-001 -3.461170e-007 -9.665489e-001
    outer loop
      vertex -4.800000e+000  3.328973e-001 -2.376800e+000
      vertex -4.800000e+000 -3.328983e-001 -2.376800e+000
      vertex -5.400000e+000  3.551972e-001 -2.536016e+000
    endloop
  endfacet
  facet normal  2.564826e-001 -3.243872e-007 -9.665488e-001
    outer loop
      vertex -5.400000e+000  3.551972e-001 -2.536016e+000
      vertex -4.800000e+000 -3.328983e-001 -2.376800e+000
      vertex -5.400000e+000 -3.551983e-001 -2.536016e+000
    endloop
  endfacet
  facet normal  7.036641e-001 -2.384647e-007 -7.105328e-001
    outer loop
      vertex -5.400000e+000  3.551972e-001 -2.536016e+000
      vertex -5.400000e+000 -3.551983e-001 -2.536016e+000
      vertex -5.839231e+000  4.161216e-001 -2.971000e+000
    endloop
  endfacet
  facet normal  7.036643e-001  0.000000e+000 -7.105325e-001
    outer loop
      vertex -5.839231e+000  4.161216e-001 -2.971000e+000
      vertex -5.400000e+000 -3.551983e-001 -2.536016e+000
      vertex -5.839231e+000 -4.161229e-001 -2.971000e+000
    endloop
  endfacet
  facet normal  9.652917e-001  0.000000e+000 -2.611737e-001
    outer loop
      vertex -5.839231e+000  4.161216e-001 -2.971000e+000
      vertex -5.839231e+000 -4.161229e-001 -2.971000e+000
      vertex -6.000000e+000  4.993460e-001 -3.565200e+000
    endloop
  endfacet
  facet normal  9.652919e-001 -6.235015e-008 -2.611738e-001
    outer loop
      vertex -6.000000e+000  4.993460e-001 -3.565200e+000
      vertex -5.839231e+000 -4.161229e-001 -2.971000e+000
      vertex -6.000000e+000 -4.993475e-001 -3.565200e+000
    endloop
  endfacet
  facet normal  6.952411e-001  2.770983e-001 -6.632168e-001
    outer loop
      vertex -5.839231e+000  4.161216e-001 -2.971000e+000
      vertex -5.616984e+000  8.330895e-001 -2.563809e+000
      vertex -5.400000e+000  3.551972e-001 -2.536016e+000
    endloop
  endfacet
  facet normal  9.332646e-001 -2.206657e-001 -2.834149e-001
    outer loop
      vertex -5.839231e+000  4.161216e-001 -2.971000e+000
      vertex -6.000000e+000  4.993460e-001 -3.565200e+000
      vertex -5.616984e+000  8.330895e-001 -2.563809e+000
    endloop
  endfacet
  facet normal  8.902672e-001  2.024300e-001 -4.079785e-001
    outer loop
      vertex -5.616984e+000  8.330895e-001 -2.563809e+000
      vertex -6.000000e+000  4.993460e-001 -3.565200e+000
      vertex -6.003184e+000  7.544436e-001 -3.445574e+000
    endloop
  endfacet
  facet normal  8.321946e-001  3.851951e-001 -3.988447e-001
    outer loop
      vertex -5.616984e+000  8.330895e-001 -2.563809e+000
      vertex -6.003184e+000  7.544436e-001 -3.445574e+000
      vertex -5.717312e+000  1.845777e+000 -1.795114e+000
    endloop
  endfacet
  facet normal  7.327501e-001  5.023261e-001 -4.590706e-001
    outer loop
      vertex -5.717312e+000  1.845777e+000 -1.795114e+000
      vertex -6.003184e+000  7.544436e-001 -3.445574e+000
      vertex -6.152868e+000  2.145337e+000 -2.162546e+000
    endloop
  endfacet
  facet normal  6.818618e-001  6.885424e-001 -2.469288e-001
    outer loop
      vertex -5.717312e+000  1.845777e+000 -1.795114e+000
      vertex -6.152868e+000  2.145337e+000 -2.162546e+000
      vertex -5.751509e+000  2.555002e+000  8.807640e-002
    endloop
  endfacet
  facet normal  6.598684e-001  7.096741e-001 -2.468531e-001
    outer loop
      vertex -5.751509e+000  2.555002e+000  8.807640e-002
      vertex -6.152868e+000  2.145337e+000 -2.162546e+000
      vertex -6.184110e+000  2.979965e+000  1.533995e-001
    endloop
  endfacet
  facet normal  2.571328e-001  2.459732e-001 -9.345480e-001
    outer loop
      vertex -4.800000e+000  3.328973e-001 -2.376800e+000
      vertex -5.400000e+000  3.551972e-001 -2.536016e+000
      vertex -4.832187e+000  8.002981e-001 -2.262636e+000
    endloop
  endfacet
  facet normal  3.601124e-001  1.096260e-001 -9.264455e-001
    outer loop
      vertex -4.832187e+000  8.002981e-001 -2.262636e+000
      vertex -5.400000e+000  3.551972e-001 -2.536016e+000
      vertex -5.616984e+000  8.330895e-001 -2.563809e+000
    endloop
  endfacet
  facet normal  3.114127e-001  5.866001e-001 -7.476112e-001
    outer loop
      vertex -4.832187e+000  8.002981e-001 -2.262636e+000
      vertex -5.616984e+000  8.330895e-001 -2.563809e+000
      vertex -5.105737e+000  1.786053e+000 -1.603126e+000
    endloop
  endfacet
  facet normal  2.928631e-001  5.963404e-001 -7.474017e-001
    outer loop
      vertex -5.105737e+000  1.786053e+000 -1.603126e+000
      vertex -5.616984e+000  8.330895e-001 -2.563809e+000
      vertex -5.717312e+000  1.845777e+000 -1.795114e+000
    endloop
  endfacet
  facet normal  2.311091e-001  8.510767e-001 -4.714414e-001
    outer loop
      vertex -5.105737e+000  1.786053e+000 -1.603126e+000
      vertex -5.717312e+000  1.845777e+000 -1.795114e+000
      vertex -5.254621e+000  2.246090e+000 -8.456243e-001
    endloop
  endfacet
  facet normal  2.239731e-001  9.545557e-001 -1.966200e-001
    outer loop
      vertex -5.168224e+000  2.400000e+000 -5.551115e-017
      vertex -5.254621e+000  2.246090e+000 -8.456243e-001
      vertex -5.751509e+000  2.555002e+000  8.807640e-002
    endloop
  endfacet
  facet normal -8.298294e-002  9.321078e-001 -3.525460e-001
    outer loop
      vertex -5.751509e+000  2.555002e+000  8.807640e-002
      vertex -5.254621e+000  2.246090e+000 -8.456243e-001
      vertex -5.717312e+000  1.845777e+000 -1.795114e+000
    endloop
  endfacet
  facet normal  2.724658e-001  9.539291e-001  1.256251e-001
    outer loop
      vertex -5.168224e+000  2.400000e+000 -5.551115e-017
      vertex -5.751509e+000  2.555002e+000  8.807640e-002
      vertex -4.896751e+000  2.194496e+000  9.716919e-001
    endloop
  endfacet
  facet normal  3.571050e-001  9.333943e-001  3.537213e-002
    outer loop
      vertex -4.896751e+000  2.194496e+000  9.716919e-001
      vertex -5.751509e+000  2.555002e+000  8.807640e-002
      vertex -5.672262e+000  2.499589e+000  7.502367e-001
    endloop
  endfacet
  facet normal  1.905181e-001  8.458840e-001  4.981798e-001
    outer loop
      vertex -4.896751e+000  2.194496e+000  9.716919e-001
      vertex -5.672262e+000  2.499589e+000  7.502367e-001
      vertex -4.800000e+000  1.831575e+000  1.550913e+000
    endloop
  endfacet
  facet normal  3.637450e-001  8.709438e-001  3.303731e-001
    outer loop
      vertex -4.800000e+000  1.831575e+000  1.550913e+000
      vertex -5.672262e+000  2.499589e+000  7.502367e-001
      vertex -5.648528e+000  2.099803e+000  1.778039e+000
    endloop
  endfacet
  facet normal  6.987514e-001  7.149687e-001 -2.379469e-002
    outer loop
      vertex -5.751509e+000  2.555002e+000  8.807640e-002
      vertex -6.184110e+000  2.979965e+000  1.533995e-001
      vertex -5.672262e+000  2.499589e+000  7.502367e-001
    endloop
  endfacet
  facet normal  7.495048e-001  6.512938e-001 -1.185707e-001
    outer loop
      vertex -5.672262e+000  2.499589e+000  7.502367e-001
      vertex -6.184110e+000  2.979965e+000  1.533995e-001
      vertex -6.147778e+000  3.011429e+000  5.558907e-001
    endloop
  endfacet
  facet normal  6.560582e-001  7.083691e-001  2.603861e-001
    outer loop
      vertex -5.672262e+000  2.499589e+000  7.502367e-001
      vertex -6.147778e+000  3.011429e+000  5.558907e-001
      vertex -5.648528e+000  2.099803e+000  1.778039e+000
    endloop
  endfacet
  facet normal  8.781891e-001  4.783095e-001 -1.960759e-003
    outer loop
      vertex -5.648528e+000  2.099803e+000  1.778039e+000
      vertex -6.147778e+000  3.011429e+000  5.558907e-001
      vertex -6.000000e+000  2.747363e+000  2.326370e+000
    endloop
  endfacet
  facet normal  2.572837e-001 -6.624975e-001  7.034929e-001
    outer loop
      vertex -4.800000e+000 -1.831583e+000  1.550904e+000
      vertex -5.648528e+000 -1.157242e+000  2.496275e+000
      vertex -5.400000e+000 -1.954276e+000  1.654795e+000
    endloop
  endfacet
  facet normal  4.457393e-001 -4.896668e-001  7.493617e-001
    outer loop
      vertex -4.800000e+000 -1.831583e+000  1.550904e+000
      vertex -4.800000e+000 -6.849007e-001  2.300198e+000
      vertex -5.648528e+000 -1.157242e+000  2.496275e+000
    endloop
  endfacet
  facet normal  4.457393e-001  4.896629e-001  7.493642e-001
    outer loop
      vertex -4.800000e+000  1.831575e+000  1.550913e+000
      vertex -5.648528e+000  1.157229e+000  2.496281e+000
      vertex -4.800000e+000  6.848887e-001  2.300202e+000
    endloop
  endfacet
  facet normal  3.749803e-001  5.618662e-001  7.373574e-001
    outer loop
      vertex -4.800000e+000  1.831575e+000  1.550913e+000
      vertex -5.648528e+000  2.099803e+000  1.778039e+000
      vertex -5.648528e+000  1.157229e+000  2.496281e+000
    endloop
  endfacet
  facet normal  9.206071e-001  2.366724e-001  3.105937e-001
    outer loop
      vertex -6.000000e+000  2.747363e+000  2.326370e+000
      vertex -5.648528e+000  1.157229e+000  2.496281e+000
      vertex -5.648528e+000  2.099803e+000  1.778039e+000
    endloop
  endfacet
  facet normal  9.004424e-001  2.379357e-001  3.641292e-001
    outer loop
      vertex -6.000000e+000  2.747363e+000  2.326370e+000
      vertex -6.000000e+000  1.027333e+000  3.450302e+000
      vertex -5.648528e+000  1.157229e+000  2.496281e+000
    endloop
  endfacet
  facet normal  9.004424e-001 -2.379376e-001  3.641279e-001
    outer loop
      vertex -6.000000e+000 -2.747375e+000  2.326356e+000
      vertex -5.648528e+000 -1.157242e+000  2.496275e+000
      vertex -6.000000e+000 -1.027351e+000  3.450297e+000
    endloop
  endfacet
  facet normal  9.648826e-001 -2.273344e-001  1.316089e-001
    outer loop
      vertex -6.000000e+000 -2.747375e+000  2.326356e+000
      vertex -5.839231e+000 -2.289479e+000  1.938630e+000
      vertex -5.648528e+000 -1.157242e+000  2.496275e+000
    endloop
  endfacet
  facet normal  9.319886e-001  7.805947e-002  3.539830e-001
    outer loop
      vertex -6.000000e+000  1.027333e+000  3.450302e+000
      vertex -5.648528e+000 -7.172561e-006  2.751472e+000
      vertex -5.648528e+000  1.157229e+000  2.496281e+000
    endloop
  endfacet
  facet normal  9.319886e-001 -7.806129e-002  3.539826e-001
    outer loop
      vertex -6.000000e+000 -1.027351e+000  3.450297e+000
      vertex -5.648528e+000 -1.157242e+000  2.496275e+000
      vertex -5.648528e+000 -7.172561e-006  2.751472e+000
    endloop
  endfacet
  facet normal  8.933724e-001 -1.147019e-006  4.493170e-001
    outer loop
      vertex -6.000000e+000 -1.027351e+000  3.450297e+000
      vertex -5.648528e+000 -7.172561e-006  2.751472e+000
      vertex -6.000000e+000  1.027333e+000  3.450302e+000
    endloop
  endfacet
  facet normal  4.695539e-001 -2.305106e-006  8.829038e-001
    outer loop
      vertex -5.648528e+000 -7.172561e-006  2.751472e+000
      vertex -4.800000e+000 -6.849007e-001  2.300198e+000
      vertex -4.800000e+000  6.848887e-001  2.300202e+000
    endloop
  endfacet
  facet normal  3.265865e-001  2.035359e-001  9.229921e-001
    outer loop
      vertex -5.648528e+000 -7.172561e-006  2.751472e+000
      vertex -4.800000e+000  6.848887e-001  2.300202e+000
      vertex -5.648528e+000  1.157229e+000  2.496281e+000
    endloop
  endfacet
  facet normal  3.265866e-001 -2.035407e-001  9.229910e-001
    outer loop
      vertex -5.648528e+000 -1.157242e+000  2.496275e+000
      vertex -4.800000e+000 -6.849007e-001  2.300198e+000
      vertex -5.648528e+000 -7.172561e-006  2.751472e+000
    endloop
  endfacet
  facet normal  6.945174e-001 -4.086311e-001  5.921707e-001
    outer loop
      vertex -5.400000e+000 -1.954276e+000  1.654795e+000
      vertex -5.648528e+000 -1.157242e+000  2.496275e+000
      vertex -5.839231e+000 -2.289479e+000  1.938630e+000
    endloop
  endfacet
  facet normal  1.825277e-001 -8.709559e-001  4.562011e-001
    outer loop
      vertex -4.866102e+000 -2.137373e+000  1.091621e+000
      vertex -5.400000e+000 -1.954276e+000  1.654795e+000
      vertex -5.677018e+000 -2.507052e+000  7.102982e-001
    endloop
  endfacet
  facet normal  9.473302e-001 -2.696024e-001  1.728584e-001
    outer loop
      vertex -5.839231e+000 -2.289479e+000  1.938630e+000
      vertex -6.010621e+000 -2.858309e+000  1.990727e+000
      vertex -5.677018e+000 -2.507052e+000  7.102982e-001
    endloop
  endfacet
  facet normal  9.571549e-001 -2.826131e-001  6.312176e-002
    outer loop
      vertex -6.010621e+000 -2.858309e+000  1.990727e+000
      vertex -5.839231e+000 -2.289479e+000  1.938630e+000
      vertex -6.000000e+000 -2.747375e+000  2.326356e+000
    endloop
  endfacet
  facet normal  6.762832e-001 -7.048252e-001  2.141547e-001
    outer loop
      vertex -5.677018e+000 -2.507052e+000  7.102982e-001
      vertex -5.400000e+000 -1.954276e+000  1.654795e+000
      vertex -5.839231e+000 -2.289479e+000  1.938630e+000
    endloop
  endfacet
  facet normal  2.562131e-001 -8.212041e-001  5.098810e-001
    outer loop
      vertex -5.400000e+000 -1.954276e+000  1.654795e+000
      vertex -4.866102e+000 -2.137373e+000  1.091621e+000
      vertex -4.800000e+000 -1.831583e+000  1.550904e+000
    endloop
  endfacet
  facet normal  3.638832e-001 -9.234909e-001  1.214643e-001
    outer loop
      vertex -4.866102e+000 -2.137373e+000  1.091621e+000
      vertex -5.677018e+000 -2.507052e+000  7.102982e-001
      vertex -5.168234e+000 -2.400000e+000  2.939055e-016
    endloop
  endfacet
  facet normal  2.626252e-001 -9.639466e-001  4.283639e-002
    outer loop
      vertex -5.168234e+000 -2.400000e+000  2.939055e-016
      vertex -5.677018e+000 -2.507052e+000  7.102982e-001
      vertex -5.751516e+000 -2.555000e+000  8.807620e-002
    endloop
  endfacet
  facet normal  6.784569e-001 -7.342264e-001 -2.465309e-002
    outer loop
      vertex -5.677018e+000 -2.507052e+000  7.102982e-001
      vertex -6.010621e+000 -2.858309e+000  1.990727e+000
      vertex -5.751516e+000 -2.555000e+000  8.807620e-002
    endloop
  endfacet
  facet normal  6.992164e-001 -7.146654e-001 -1.870773e-002
    outer loop
      vertex -5.751516e+000 -2.555000e+000  8.807620e-002
      vertex -6.010621e+000 -2.858309e+000  1.990727e+000
      vertex -6.184117e+000 -2.979959e+000  1.533994e-001
    endloop
  endfacet
  facet normal  3.776929e-001 -8.715512e-001 -3.126445e-001
    outer loop
      vertex -6.148852e+000 -2.121083e+000 -2.198266e+000
      vertex -5.242269e+000 -2.359736e+000 -4.377721e-001
      vertex -6.184117e+000 -2.979959e+000  1.533994e-001
    endloop
  endfacet
  facet normal  6.679046e-001 -6.156279e-001  4.182174e-001
    outer loop
      vertex -5.242269e+000 -2.359736e+000 -4.377721e-001
      vertex -5.751516e+000 -2.555000e+000  8.807620e-002
      vertex -6.184117e+000 -2.979959e+000  1.533994e-001
    endloop
  endfacet
  facet normal  5.394895e-001 -4.286530e-001 -7.247122e-001
    outer loop
      vertex -6.148852e+000 -2.121083e+000 -2.198266e+000
      vertex -5.633554e+000 -1.256744e+000 -2.325908e+000
      vertex -5.097704e+000 -1.764774e+000 -1.626522e+000
    endloop
  endfacet
  facet normal  4.658793e-001 -8.126534e-001 -3.500727e-001
    outer loop
      vertex -5.242269e+000 -2.359736e+000 -4.377721e-001
      vertex -6.148852e+000 -2.121083e+000 -2.198266e+000
      vertex -5.097704e+000 -1.764774e+000 -1.626522e+000
    endloop
  endfacet
  facet normal  2.365123e-001 -9.630836e-001 -1.285769e-001
    outer loop
      vertex -5.751516e+000 -2.555000e+000  8.807620e-002
      vertex -5.242269e+000 -2.359736e+000 -4.377721e-001
      vertex -5.168234e+000 -2.400000e+000  2.939055e-016
    endloop
  endfacet
  facet normal  6.871427e-001 -3.289758e-001 -6.477729e-001
    outer loop
      vertex -5.400000e+000 -3.551983e-001 -2.536016e+000
      vertex -5.633554e+000 -1.256744e+000 -2.325908e+000
      vertex -5.839231e+000 -4.161229e-001 -2.971000e+000
    endloop
  endfacet
  facet normal  5.364094e-001 -4.272737e-001 -7.278063e-001
    outer loop
      vertex -5.839231e+000 -4.161229e-001 -2.971000e+000
      vertex -5.633554e+000 -1.256744e+000 -2.325908e+000
      vertex -6.148852e+000 -2.121083e+000 -2.198266e+000
    endloop
  endfacet
  facet normal  9.386614e-001 -2.685210e-001 -2.163591e-001
    outer loop
      vertex -5.839231e+000 -4.161229e-001 -2.971000e+000
      vertex -6.148852e+000 -2.121083e+000 -2.198266e+000
      vertex -6.000000e+000 -4.993475e-001 -3.565200e+000
    endloop
  endfacet
  facet normal  2.843016e-001 -6.588950e-001 -6.964409e-001
    outer loop
      vertex -5.097704e+000 -1.764774e+000 -1.626522e+000
      vertex -5.633554e+000 -1.256744e+000 -2.325908e+000
      vertex -4.919961e+000 -1.227308e+000 -2.062454e+000
    endloop
  endfacet
  facet normal  3.415207e-001 -2.963414e-001 -8.919335e-001
    outer loop
      vertex -4.919961e+000 -1.227308e+000 -2.062454e+000
      vertex -5.633554e+000 -1.256744e+000 -2.325908e+000
      vertex -5.400000e+000 -3.551983e-001 -2.536016e+000
    endloop
  endfacet
  facet normal  2.523422e-001 -3.507932e-001 -9.018135e-001
    outer loop
      vertex -4.919961e+000 -1.227308e+000 -2.062454e+000
      vertex -5.400000e+000 -3.551983e-001 -2.536016e+000
      vertex -4.800000e+000 -3.328983e-001 -2.376800e+000
    endloop
  endfacet
  facet normal  2.883409e-001  6.554262e-001 -6.980516e-001
    outer loop
      vertex -7.200000e+000  8.094407e-001 -4.793783e+000
      vertex -7.200000e+000  1.993367e+000 -3.682151e+000
      vertex -6.351472e+000  1.160882e+000 -4.113304e+000
    endloop
  endfacet
  facet normal  4.706070e-001  3.931885e-001 -7.898936e-001
    outer loop
      vertex -6.600000e+000 -3.620219e-008 -4.839231e+000
      vertex -7.200000e+000  8.094407e-001 -4.793783e+000
      vertex -6.351472e+000  1.160882e+000 -4.113304e+000
    endloop
  endfacet
  facet normal  8.455587e-001  4.083000e-001 -3.439790e-001
    outer loop
      vertex -6.351472e+000  2.282699e+000 -2.487699e+000
      vertex -6.152868e+000  2.145337e+000 -2.162546e+000
      vertex -6.003184e+000  7.544436e-001 -3.445574e+000
    endloop
  endfacet
  facet normal  2.852775e-001  8.652555e-001 -4.122495e-001
    outer loop
      vertex -7.200000e+000  1.993367e+000 -3.682151e+000
      vertex -7.200000e+000  3.173732e+000 -1.204727e+000
      vertex -6.351472e+000  2.282699e+000 -2.487699e+000
    endloop
  endfacet
  facet normal  4.605727e-001  7.305526e-001 -5.041485e-001
    outer loop
      vertex -6.351472e+000  1.160882e+000 -4.113304e+000
      vertex -7.200000e+000  1.993367e+000 -3.682151e+000
      vertex -6.351472e+000  2.282699e+000 -2.487699e+000
    endloop
  endfacet
  facet normal  8.469509e-001  5.037235e-001 -1.701082e-001
    outer loop
      vertex -6.152868e+000  2.145337e+000 -2.162546e+000
      vertex -6.351472e+000  2.842139e+000 -1.088004e+000
      vertex -6.184110e+000  2.979965e+000  1.533995e-001
    endloop
  endfacet
  facet normal  2.513212e-001  2.389548e-001 -9.379436e-001
    outer loop
      vertex -7.200000e+000  8.094407e-001 -4.793783e+000
      vertex -6.600000e+000 -3.620219e-008 -4.839231e+000
      vertex -7.200000e+000 -3.053082e-015 -5.000000e+000
    endloop
  endfacet
  facet normal  6.789812e-001  2.792239e-001 -6.789834e-001
    outer loop
      vertex -6.351472e+000  1.160882e+000 -4.113304e+000
      vertex -6.160769e+000 -1.336372e-007 -4.400002e+000
      vertex -6.600000e+000 -3.620219e-008 -4.839231e+000
    endloop
  endfacet
  facet normal  3.824580e-001  8.579798e-001 -3.429236e-001
    outer loop
      vertex -6.351472e+000  2.842139e+000 -1.088004e+000
      vertex -6.351472e+000  2.282699e+000 -2.487699e+000
      vertex -7.200000e+000  3.173732e+000 -1.204727e+000
    endloop
  endfacet
  facet normal  7.808376e-001  5.801135e-001 -2.318640e-001
    outer loop
      vertex -6.351472e+000  2.842139e+000 -1.088004e+000
      vertex -6.152868e+000  2.145337e+000 -2.162546e+000
      vertex -6.351472e+000  2.282699e+000 -2.487699e+000
    endloop
  endfacet
  facet normal  9.237552e-001  3.819812e-001 -2.768888e-002
    outer loop
      vertex -6.000000e+000  2.827417e+000  2.947515e+000
      vertex -6.147778e+000  3.011429e+000  5.558907e-001
      vertex -6.351472e+000  3.670321e+000  2.849977e+000
    endloop
  endfacet
  facet normal  9.571142e-001  2.873346e-001 -3.703222e-002
    outer loop
      vertex -6.147778e+000  3.011429e+000  5.558907e-001
      vertex -6.000000e+000  2.827417e+000  2.947515e+000
      vertex -6.000000e+000  2.747363e+000  2.326370e+000
    endloop
  endfacet
  facet normal  9.633700e-001  7.269473e-002 -2.581349e-001
    outer loop
      vertex -6.000000e+000  6.348739e-007 -3.800003e+000
      vertex -6.160769e+000 -1.336372e-007 -4.400002e+000
      vertex -6.000000e+000  2.607517e-001 -3.726572e+000
    endloop
  endfacet
  facet normal  9.234398e-001  2.279380e-001 -3.087124e-001
    outer loop
      vertex -6.000000e+000  2.607517e-001 -3.726572e+000
      vertex -6.160769e+000 -1.336372e-007 -4.400002e+000
      vertex -6.351472e+000  1.160882e+000 -4.113304e+000
    endloop
  endfacet
  facet normal  9.199271e-001  2.196628e-001 -3.247808e-001
    outer loop
      vertex -6.000000e+000  2.607517e-001 -3.726572e+000
      vertex -6.351472e+000  1.160882e+000 -4.113304e+000
      vertex -6.000000e+000  4.993460e-001 -3.565200e+000
    endloop
  endfacet
  facet normal  9.250240e-001  3.126819e-001 -2.157793e-001
    outer loop
      vertex -6.000000e+000  4.993460e-001 -3.565200e+000
      vertex -6.351472e+000  1.160882e+000 -4.113304e+000
      vertex -6.351472e+000  2.282699e+000 -2.487699e+000
    endloop
  endfacet
  facet normal -5.541359e-001  3.477499e-001 -7.563092e-001
    outer loop
      vertex -6.000000e+000  4.993460e-001 -3.565200e+000
      vertex -6.351472e+000  2.282699e+000 -2.487699e+000
      vertex -6.003184e+000  7.544436e-001 -3.445574e+000
    endloop
  endfacet
  facet normal  7.021124e-001  1.186399e-001  7.021131e-001
    outer loop
      vertex -6.160769e+000  2.869233e-015  1.640000e+001
      vertex -6.351472e+000  6.490881e-001  1.648102e+001
      vertex -6.600000e+000  3.958812e-015  1.683923e+001
    endloop
  endfacet
  facet normal  3.809243e-001  3.306596e-001  8.634587e-001
    outer loop
      vertex -6.600000e+000  3.958812e-015  1.683923e+001
      vertex -6.351472e+000  6.490881e-001  1.648102e+001
      vertex -7.200000e+000  8.081497e-001  1.679445e+001
    endloop
  endfacet
  facet normal  2.513459e-001  2.385882e-001  9.380304e-001
    outer loop
      vertex -6.600000e+000  3.958812e-015  1.683923e+001
      vertex -7.200000e+000  8.081497e-001  1.679445e+001
      vertex -7.200000e+000  5.432608e-015  1.700000e+001
    endloop
  endfacet
  facet normal  9.210878e-001  1.055395e-001  3.747781e-001
    outer loop
      vertex -6.000000e+000  2.607517e-001  1.572657e+001
      vertex -6.351472e+000  6.490881e-001  1.648102e+001
      vertex -6.000000e+000  1.464107e-015  1.580000e+001
    endloop
  endfacet
  facet normal  9.367580e-001  2.438885e-001  2.510037e-001
    outer loop
      vertex -6.000000e+000  1.464107e-015  1.580000e+001
      vertex -6.351472e+000  6.490881e-001  1.648102e+001
      vertex -6.160769e+000  2.869233e-015  1.640000e+001
    endloop
  endfacet
  facet normal  3.817380e-001  9.043942e-001 -1.906496e-001
    outer loop
      vertex -7.200000e+000  4.018855e+000  2.804329e+000
      vertex -6.351472e+000  3.670321e+000  2.849977e+000
      vertex -7.200000e+000  3.173732e+000 -1.204727e+000
    endloop
  endfacet
  facet normal  3.799312e-001  9.052132e-001 -1.903718e-001
    outer loop
      vertex -7.200000e+000  3.173732e+000 -1.204727e+000
      vertex -6.351472e+000  3.670321e+000  2.849977e+000
      vertex -6.351472e+000  2.842139e+000 -1.088004e+000
    endloop
  endfacet
  facet normal  6.465932e-001  7.465053e-001 -1.569946e-001
    outer loop
      vertex -6.351472e+000  3.670321e+000  2.849977e+000
      vertex -6.147778e+000  3.011429e+000  5.558907e-001
      vertex -6.351472e+000  2.842139e+000 -1.088004e+000
    endloop
  endfacet
  facet normal -5.934854e-001  8.047906e-001 -9.339207e-003
    outer loop
      vertex -6.351472e+000  2.842139e+000 -1.088004e+000
      vertex -6.147778e+000  3.011429e+000  5.558907e-001
      vertex -6.184110e+000  2.979965e+000  1.533995e-001
    endloop
  endfacet
  facet normal  3.800753e-001  9.249555e-001 -1.980893e-005
    outer loop
      vertex -7.200000e+000  4.018992e+000  9.194491e+000
      vertex -6.351472e+000  3.670321e+000  9.150023e+000
      vertex -7.200000e+000  4.018855e+000  2.804329e+000
    endloop
  endfacet
  facet normal  3.799485e-001  9.250075e-001  0.000000e+000
    outer loop
      vertex -7.200000e+000  4.018855e+000  2.804329e+000
      vertex -6.351472e+000  3.670321e+000  9.150023e+000
      vertex -6.351472e+000  3.670321e+000  2.849977e+000
    endloop
  endfacet
  facet normal  9.229751e-001  3.848599e-001  0.000000e+000
    outer loop
      vertex -6.351472e+000  3.670321e+000  9.150023e+000
      vertex -6.000000e+000  2.827417e+000  9.052485e+000
      vertex -6.351472e+000  3.670321e+000  2.849977e+000
    endloop
  endfacet
  facet normal  9.229751e-001  3.848599e-001  0.000000e+000
    outer loop
      vertex -6.351472e+000  3.670321e+000  2.849977e+000
      vertex -6.000000e+000  2.827417e+000  9.052485e+000
      vertex -6.000000e+000  2.827417e+000  2.947515e+000
    endloop
  endfacet
  facet normal  3.804858e-001  9.049314e-001  1.906037e-001
    outer loop
      vertex -7.200000e+000  3.175365e+000  1.319979e+001
      vertex -6.351472e+000  2.842139e+000  1.308800e+001
      vertex -7.200000e+000  4.018992e+000  9.194491e+000
    endloop
  endfacet
  facet normal  3.816487e-001  9.045210e-001  1.902262e-001
    outer loop
      vertex -7.200000e+000  4.018992e+000  9.194491e+000
      vertex -6.351472e+000  2.842139e+000  1.308800e+001
      vertex -6.351472e+000  3.670321e+000  9.150023e+000
    endloop
  endfacet
  facet normal  9.230273e-001  3.764986e-001  7.917994e-002
    outer loop
      vertex -6.351472e+000  2.842139e+000  1.308800e+001
      vertex -6.000000e+000  2.036456e+000  1.282178e+001
      vertex -6.351472e+000  3.670321e+000  9.150023e+000
    endloop
  endfacet
  facet normal  9.233087e-001  3.758720e-001  7.887416e-002
    outer loop
      vertex -6.351472e+000  3.670321e+000  9.150023e+000
      vertex -6.000000e+000  2.036456e+000  1.282178e+001
      vertex -6.000000e+000  2.827417e+000  9.052485e+000
    endloop
  endfacet
  facet normal  3.768872e-001  8.363590e-001  3.980699e-001
    outer loop
      vertex -7.200000e+000  1.994903e+000  1.567998e+001
      vertex -6.351472e+000  1.711564e+000  1.547191e+001
      vertex -7.200000e+000  3.175365e+000  1.319979e+001
    endloop
  endfacet
  facet normal  3.803664e-001  8.356251e-001  3.962978e-001
    outer loop
      vertex -7.200000e+000  3.175365e+000  1.319979e+001
      vertex -6.351472e+000  1.711564e+000  1.547191e+001
      vertex -6.351472e+000  2.842139e+000  1.308800e+001
    endloop
  endfacet
  facet normal  9.218527e-001  3.501578e-001  1.660635e-001
    outer loop
      vertex -6.351472e+000  1.711564e+000  1.547191e+001
      vertex -6.000000e+000  1.018267e+000  1.498269e+001
      vertex -6.351472e+000  2.842139e+000  1.308800e+001
    endloop
  endfacet
  facet normal  9.228776e-001  3.483593e-001  1.641421e-001
    outer loop
      vertex -6.351472e+000  2.842139e+000  1.308800e+001
      vertex -6.000000e+000  1.018267e+000  1.498269e+001
      vertex -6.000000e+000  2.036456e+000  1.282178e+001
    endloop
  endfacet
  facet normal  3.694542e-001  6.361239e-001  6.773847e-001
    outer loop
      vertex -7.200000e+000  8.081497e-001  1.679445e+001
      vertex -6.351472e+000  6.490881e-001  1.648102e+001
      vertex -7.200000e+000  1.994903e+000  1.567998e+001
    endloop
  endfacet
  facet normal  3.775738e-001  6.376876e-001  6.714109e-001
    outer loop
      vertex -7.200000e+000  1.994903e+000  1.567998e+001
      vertex -6.351472e+000  6.490881e-001  1.648102e+001
      vertex -6.351472e+000  1.711564e+000  1.547191e+001
    endloop
  endfacet
  facet normal  9.181573e-001  2.728592e-001  2.872890e-001
    outer loop
      vertex -6.351472e+000  6.490881e-001  1.648102e+001
      vertex -6.000000e+000  2.607517e-001  1.572657e+001
      vertex -6.351472e+000  1.711564e+000  1.547191e+001
    endloop
  endfacet
  facet normal  9.216483e-001  2.718736e-001  2.768560e-001
    outer loop
      vertex -6.351472e+000  1.711564e+000  1.547191e+001
      vertex -6.000000e+000  2.607517e-001  1.572657e+001
      vertex -6.000000e+000  1.018267e+000  1.498269e+001
    endloop
  endfacet
  facet normal  9.658079e-001 -1.561971e-002 -2.587880e-001
    outer loop
      vertex -6.000000e+000 -4.909157e-002 -3.797040e+000
      vertex -6.160769e+000 -1.336372e-007 -4.400002e+000
      vertex -6.000000e+000  6.348739e-007 -3.800003e+000
    endloop
  endfacet
  facet normal  8.504446e-001 -3.824873e-001 -3.611754e-001
    outer loop
      vertex -6.000000e+000 -4.993475e-001 -3.565200e+000
      vertex -6.148852e+000 -2.121083e+000 -2.198266e+000
      vertex -6.351472e+000 -2.266069e+000 -2.521826e+000
    endloop
  endfacet
  facet normal  9.243705e-001 -3.128384e-001 -2.183377e-001
    outer loop
      vertex -6.000000e+000 -4.993475e-001 -3.565200e+000
      vertex -6.351472e+000 -2.266069e+000 -2.521826e+000
      vertex -6.351472e+000 -1.145408e+000 -4.127529e+000
    endloop
  endfacet
  facet normal  9.216263e-001 -2.281269e-001 -3.139476e-001
    outer loop
      vertex -6.000000e+000 -4.993475e-001 -3.565200e+000
      vertex -6.351472e+000 -1.145408e+000 -4.127529e+000
      vertex -6.160769e+000 -1.336372e-007 -4.400002e+000
    endloop
  endfacet
  facet normal  9.543370e-001 -1.367552e-001 -2.655920e-001
    outer loop
      vertex -6.000000e+000 -4.993475e-001 -3.565200e+000
      vertex -6.160769e+000 -1.336372e-007 -4.400002e+000
      vertex -6.000000e+000 -4.909157e-002 -3.797040e+000
    endloop
  endfacet
  facet normal  9.232273e-001 -3.823352e-001 -3.835750e-002
    outer loop
      vertex -6.000000e+000 -2.999942e+000  5.943234e+000
      vertex -6.351472e+000 -3.848468e+000  5.941489e+000
      vertex -6.351472e+000 -3.323997e+000  7.137260e-001
    endloop
  endfacet
  facet normal  8.345096e-001 -5.505552e-001 -2.197081e-002
    outer loop
      vertex -6.000000e+000 -2.999942e+000  5.943234e+000
      vertex -6.351472e+000 -3.323997e+000  7.137260e-001
      vertex -6.010621e+000 -2.858309e+000  1.990727e+000
    endloop
  endfacet
  facet normal  9.968756e-001 -7.879580e-002 -5.502310e-003
    outer loop
      vertex -6.000000e+000 -2.999942e+000  5.943234e+000
      vertex -6.010621e+000 -2.858309e+000  1.990727e+000
      vertex -6.000000e+000 -2.747375e+000  2.326356e+000
    endloop
  endfacet
  facet normal  3.790559e-001 -7.588348e-001 -5.296097e-001
    outer loop
      vertex -6.351472e+000 -1.145408e+000 -4.127529e+000
      vertex -6.351472e+000 -2.266069e+000 -2.521826e+000
      vertex -7.200000e+000 -2.580968e+000 -2.677947e+000
    endloop
  endfacet
  facet normal  3.734701e-001 -7.591181e-001 -5.331601e-001
    outer loop
      vertex -6.351472e+000 -1.145408e+000 -4.127529e+000
      vertex -7.200000e+000 -2.580968e+000 -2.677947e+000
      vertex -7.200000e+000 -1.377324e+000 -4.391706e+000
    endloop
  endfacet
  facet normal  3.721503e-001 -4.170875e-001 -8.291817e-001
    outer loop
      vertex -6.351472e+000 -1.145408e+000 -4.127529e+000
      vertex -7.200000e+000 -1.377324e+000 -4.391706e+000
      vertex -7.200000e+000 -1.905320e-001 -4.988676e+000
    endloop
  endfacet
  facet normal  6.873417e-001 -4.309415e-002 -7.250546e-001
    outer loop
      vertex -6.351472e+000 -1.145408e+000 -4.127529e+000
      vertex -7.200000e+000 -1.905320e-001 -4.988676e+000
      vertex -7.200000e+000 -3.053082e-015 -5.000000e+000
    endloop
  endfacet
  facet normal  2.273528e-001 -4.778818e-001 -8.484926e-001
    outer loop
      vertex -6.351472e+000 -1.145408e+000 -4.127529e+000
      vertex -7.200000e+000 -3.053082e-015 -5.000000e+000
      vertex -6.600000e+000 -3.620219e-008 -4.839231e+000
    endloop
  endfacet
  facet normal  6.798590e-001 -2.749187e-001 -6.798613e-001
    outer loop
      vertex -6.351472e+000 -1.145408e+000 -4.127529e+000
      vertex -6.600000e+000 -3.620219e-008 -4.839231e+000
      vertex -6.160769e+000 -1.336372e-007 -4.400002e+000
    endloop
  endfacet
  facet normal  6.939774e-001 -1.918064e-001  6.939781e-001
    outer loop
      vertex -6.160769e+000  2.869233e-015  1.640000e+001
      vertex -6.600000e+000  3.958812e-015  1.683923e+001
      vertex -6.351472e+000 -8.645927e-001  1.635174e+001
    endloop
  endfacet
  facet normal  2.342182e-001 -4.255292e-001  8.741091e-001
    outer loop
      vertex -6.351472e+000 -8.645927e-001  1.635174e+001
      vertex -6.600000e+000  3.958812e-015  1.683923e+001
      vertex -7.200000e+000  5.432608e-015  1.700000e+001
    endloop
  endfacet
  facet normal  3.711293e-001 -2.957478e-001  8.802252e-001
    outer loop
      vertex -6.351472e+000 -8.645927e-001  1.635174e+001
      vertex -7.200000e+000  5.432608e-015  1.700000e+001
      vertex -7.200000e+000 -1.060168e+000  1.664379e+001
    endloop
  endfacet
  facet normal  9.418597e-001 -2.218320e-001  2.523707e-001
    outer loop
      vertex -6.160769e+000  2.869233e-015  1.640000e+001
      vertex -6.351472e+000 -8.645927e-001  1.635174e+001
      vertex -6.000000e+000  1.464107e-015  1.580000e+001
    endloop
  endfacet
  facet normal  9.200816e-001 -1.407402e-001  3.655707e-001
    outer loop
      vertex -6.000000e+000  1.464107e-015  1.580000e+001
      vertex -6.351472e+000 -8.645927e-001  1.635174e+001
      vertex -6.000000e+000 -3.848854e-001  1.565182e+001
    endloop
  endfacet
  facet normal  3.773813e-001 -7.113835e-001  5.928887e-001
    outer loop
      vertex -7.200000e+000 -2.385360e+000  1.505375e+001
      vertex -6.351472e+000 -2.079369e+000  1.488080e+001
      vertex -7.200000e+000 -1.060168e+000  1.664379e+001
    endloop
  endfacet
  facet normal  3.688953e-001 -7.166706e-001  5.918610e-001
    outer loop
      vertex -7.200000e+000 -1.060168e+000  1.664379e+001
      vertex -6.351472e+000 -2.079369e+000  1.488080e+001
      vertex -6.351472e+000 -8.645927e-001  1.635174e+001
    endloop
  endfacet
  facet normal  9.215109e-001 -2.994401e-001  2.472920e-001
    outer loop
      vertex -6.351472e+000 -2.079369e+000  1.488080e+001
      vertex -6.000000e+000 -1.336750e+000  1.447029e+001
      vertex -6.351472e+000 -8.645927e-001  1.635174e+001
    endloop
  endfacet
  facet normal  9.178361e-001 -3.091248e-001  2.490359e-001
    outer loop
      vertex -6.351472e+000 -8.645927e-001  1.635174e+001
      vertex -6.000000e+000 -1.336750e+000  1.447029e+001
      vertex -6.000000e+000 -3.848854e-001  1.565182e+001
    endloop
  endfacet
  facet normal  3.807692e-001 -8.706723e-001  3.113593e-001
    outer loop
      vertex -7.200000e+000 -3.605517e+000  1.164175e+001
      vertex -6.351472e+000 -3.263661e+000  1.156002e+001
      vertex -7.200000e+000 -2.385360e+000  1.505375e+001
    endloop
  endfacet
  facet normal  3.778685e-001 -8.720618e-001  3.110041e-001
    outer loop
      vertex -7.200000e+000 -2.385360e+000  1.505375e+001
      vertex -6.351472e+000 -3.263661e+000  1.156002e+001
      vertex -6.351472e+000 -2.079369e+000  1.488080e+001
    endloop
  endfacet
  facet normal  9.229225e-001 -3.626161e-001  1.293201e-001
    outer loop
      vertex -6.351472e+000 -3.263661e+000  1.156002e+001
      vertex -6.000000e+000 -2.436349e+000  1.137146e+001
      vertex -6.351472e+000 -2.079369e+000  1.488080e+001
    endloop
  endfacet
  facet normal  9.220325e-001 -3.648249e-001  1.294556e-001
    outer loop
      vertex -6.351472e+000 -2.079369e+000  1.488080e+001
      vertex -6.000000e+000 -2.436349e+000  1.137146e+001
      vertex -6.000000e+000 -1.336750e+000  1.447029e+001
    endloop
  endfacet
  facet normal  3.809020e-001 -9.196292e-001  9.589575e-002
    outer loop
      vertex -7.200000e+000 -4.199940e+000  5.941301e+000
      vertex -6.351472e+000 -3.848468e+000  5.941489e+000
      vertex -7.200000e+000 -3.605517e+000  1.164175e+001
    endloop
  endfacet
  facet normal  3.798982e-001 -9.200578e-001  9.576461e-002
    outer loop
      vertex -7.200000e+000 -3.605517e+000  1.164175e+001
      vertex -6.351472e+000 -3.848468e+000  5.941489e+000
      vertex -6.351472e+000 -3.263661e+000  1.156002e+001
    endloop
  endfacet
  facet normal  9.231180e-001 -3.824507e-001  3.980754e-002
    outer loop
      vertex -6.351472e+000 -3.848468e+000  5.941489e+000
      vertex -6.000000e+000 -2.999942e+000  5.943234e+000
      vertex -6.351472e+000 -3.263661e+000  1.156002e+001
    endloop
  endfacet
  facet normal  9.228870e-001 -3.830120e-001  3.976673e-002
    outer loop
      vertex -6.351472e+000 -3.263661e+000  1.156002e+001
      vertex -6.000000e+000 -2.999942e+000  5.943234e+000
      vertex -6.000000e+000 -2.436349e+000  1.137146e+001
    endloop
  endfacet
  facet normal  3.810633e-001 -9.199178e-001 -9.242318e-002
    outer loop
      vertex -7.200000e+000 -4.199940e+000  5.941301e+000
      vertex -7.200000e+000 -3.667034e+000  6.371121e-001
      vertex -6.351472e+000 -3.848468e+000  5.941489e+000
    endloop
  endfacet
  facet normal  3.803564e-001 -9.202206e-001 -9.232046e-002
    outer loop
      vertex -6.351472e+000 -3.848468e+000  5.941489e+000
      vertex -7.200000e+000 -3.667034e+000  6.371121e-001
      vertex -6.351472e+000 -3.323997e+000  7.137260e-001
    endloop
  endfacet
  facet normal  3.811665e-001 -8.785591e-001 -2.878300e-001
    outer loop
      vertex -7.200000e+000 -3.667034e+000  6.371121e-001
      vertex -7.200000e+000 -2.580968e+000 -2.677947e+000
      vertex -6.351472e+000 -3.323997e+000  7.137260e-001
    endloop
  endfacet
  facet normal  3.792866e-001 -8.794615e-001 -2.875573e-001
    outer loop
      vertex -6.351472e+000 -3.323997e+000  7.137260e-001
      vertex -7.200000e+000 -2.580968e+000 -2.677947e+000
      vertex -6.351472e+000 -2.266069e+000 -2.521826e+000
    endloop
  endfacet
  facet normal  8.647907e-001 -4.997779e-001 -4.857036e-002
    outer loop
      vertex -6.010621e+000 -2.858309e+000  1.990727e+000
      vertex -6.351472e+000 -3.323997e+000  7.137260e-001
      vertex -6.184117e+000 -2.979959e+000  1.533994e-001
    endloop
  endfacet
  facet normal  6.744170e-001 -7.017892e-001 -2.294639e-001
    outer loop
      vertex -6.184117e+000 -2.979959e+000  1.533994e-001
      vertex -6.351472e+000 -3.323997e+000  7.137260e-001
      vertex -6.351472e+000 -2.266069e+000 -2.521826e+000
    endloop
  endfacet
  facet normal  7.678533e-001 -6.053739e-001 -2.095803e-001
    outer loop
      vertex -6.184117e+000 -2.979959e+000  1.533994e-001
      vertex -6.351472e+000 -2.266069e+000 -2.521826e+000
      vertex -6.148852e+000 -2.121083e+000 -2.198266e+000
    endloop
  endfacet
  facet normal  1.000000e+000  0.000000e+000  0.000000e+000
    outer loop
      vertex -6.000000e+000  4.993460e-001 -3.565200e+000
      vertex -6.000000e+000 -4.993475e-001 -3.565200e+000
      vertex -6.000000e+000  2.607517e-001 -3.726572e+000
    endloop
  endfacet
  facet normal  1.000000e+000  0.000000e+000  0.000000e+000
    outer loop
      vertex -6.000000e+000  2.607517e-001 -3.726572e+000
      vertex -6.000000e+000 -4.993475e-001 -3.565200e+000
      vertex -6.000000e+000 -4.909157e-002 -3.797040e+000
    endloop
  endfacet
  facet normal  1.000000e+000  -0.000000e+000  0.000000e+000
    outer loop
      vertex -6.000000e+000  2.607517e-001 -3.726572e+000
      vertex -6.000000e+000 -4.909157e-002 -3.797040e+000
      vertex -6.000000e+000  6.348739e-007 -3.800003e+000
    endloop
  endfacet
  facet normal  1.000000e+000  0.000000e+000  0.000000e+000
    outer loop
      vertex -6.000000e+000 -1.027351e+000  3.450297e+000
      vertex -6.000000e+000  1.027333e+000  3.450302e+000
      vertex -6.000000e+000 -2.999942e+000  5.943234e+000
    endloop
  endfacet
  facet normal  1.000000e+000  0.000000e+000  0.000000e+000
    outer loop
      vertex -6.000000e+000 -2.747375e+000  2.326356e+000
      vertex -6.000000e+000 -1.027351e+000  3.450297e+000
      vertex -6.000000e+000 -2.999942e+000  5.943234e+000
    endloop
  endfacet
  facet normal  1.000000e+000  0.000000e+000  0.000000e+000
    outer loop
      vertex -6.000000e+000  2.607517e-001  1.572657e+001
      vertex -6.000000e+000  1.464107e-015  1.580000e+001
      vertex -6.000000e+000  1.018267e+000  1.498269e+001
    endloop
  endfacet
  facet normal  1.000000e+000  0.000000e+000  0.000000e+000
    outer loop
      vertex -6.000000e+000  1.018267e+000  1.498269e+001
      vertex -6.000000e+000  1.464107e-015  1.580000e+001
      vertex -6.000000e+000 -3.848854e-001  1.565182e+001
    endloop
  endfacet
  facet normal  1.000000e+000  0.000000e+000  0.000000e+000
    outer loop
      vertex -6.000000e+000  1.018267e+000  1.498269e+001
      vertex -6.000000e+000 -3.848854e-001  1.565182e+001
      vertex -6.000000e+000 -1.336750e+000  1.447029e+001
    endloop
  endfacet
  facet normal  1.000000e+000  -0.000000e+000  0.000000e+000
    outer loop
      vertex -6.000000e+000  1.018267e+000  1.498269e+001
      vertex -6.000000e+000 -1.336750e+000  1.447029e+001
      vertex -6.000000e+000  2.036456e+000  1.282178e+001
    endloop
  endfacet
  facet normal  1.000000e+000  0.000000e+000  0.000000e+000
    outer loop
      vertex -6.000000e+000  2.036456e+000  1.282178e+001
      vertex -6.000000e+000 -1.336750e+000  1.447029e+001
      vertex -6.000000e+000 -2.436349e+000  1.137146e+001
    endloop
  endfacet
  facet normal  1.000000e+000  -0.000000e+000  0.000000e+000
    outer loop
      vertex -6.000000e+000  2.036456e+000  1.282178e+001
      vertex -6.000000e+000 -2.436349e+000  1.137146e+001
      vertex -6.000000e+000  2.827417e+000  9.052485e+000
    endloop
  endfacet
  facet normal  1.000000e+000  0.000000e+000  0.000000e+000
    outer loop
      vertex -6.000000e+000  2.827417e+000  9.052485e+000
      vertex -6.000000e+000 -2.436349e+000  1.137146e+001
      vertex -6.000000e+000 -2.999942e+000  5.943234e+000
    endloop
  endfacet
  facet normal  1.000000e+000  -0.000000e+000  0.000000e+000
    outer loop
      vertex -6.000000e+000  2.827417e+000  9.052485e+000
      vertex -6.000000e+000 -2.999942e+000  5.943234e+000
      vertex -6.000000e+000  2.827417e+000  2.947515e+000
    endloop
  endfacet
  facet normal  1.000000e+000  0.000000e+000  0.000000e+000
    outer loop
      vertex -6.000000e+000  2.827417e+000  2.947515e+000
      vertex -6.000000e+000 -2.999942e+000  5.943234e+000
      vertex -6.000000e+000  1.027333e+000  3.450302e+000
    endloop
  endfacet
  facet normal  1.000000e+000  0.000000e+000  0.000000e+000
    outer loop
      vertex -6.000000e+000  2.827417e+000  2.947515e+000
      vertex -6.000000e+000  1.027333e+000  3.450302e+000
      vertex -6.000000e+000  2.747363e+000  2.326370e+000
    endloop
  endfacet
  facet normal  0.000000e+000 -9.503007e-001 -3.113337e-001
    outer loop
      vertex -7.200000e+000 -3.667034e+000  6.371121e-001
      vertex -7.800000e+000 -2.580968e+000 -2.677947e+000
      vertex -7.200000e+000 -2.580968e+000 -2.677947e+000
    endloop
  endfacet
  facet normal  -0.000000e+000 -8.183308e-001 -5.747476e-001
    outer loop
      vertex -7.200000e+000 -2.580968e+000 -2.677947e+000
      vertex -7.800000e+000 -2.580968e+000 -2.677947e+000
      vertex -7.800000e+000 -1.377324e+000 -4.391706e+000
    endloop
  endfacet
  facet normal  0.000000e+000 -8.183308e-001 -5.747476e-001
    outer loop
      vertex -7.200000e+000 -2.580968e+000 -2.677947e+000
      vertex -7.800000e+000 -1.377324e+000 -4.391706e+000
      vertex -7.200000e+000 -1.377324e+000 -4.391706e+000
    endloop
  endfacet
  facet normal  -0.000000e+000 -4.493642e-001 -8.933487e-001
    outer loop
      vertex -7.200000e+000 -1.377324e+000 -4.391706e+000
      vertex -7.800000e+000 -1.377324e+000 -4.391706e+000
      vertex -7.800000e+000 -1.905319e-001 -4.988676e+000
    endloop
  endfacet
  facet normal -3.348022e-008 -4.493642e-001 -8.933487e-001
    outer loop
      vertex -7.200000e+000 -1.377324e+000 -4.391706e+000
      vertex -7.800000e+000 -1.905319e-001 -4.988676e+000
      vertex -7.200000e+000 -1.905320e-001 -4.988676e+000
    endloop
  endfacet
  facet normal -4.420504e-009 -5.933104e-002 -9.982384e-001
    outer loop
      vertex -7.200000e+000 -1.905320e-001 -4.988676e+000
      vertex -7.800000e+000 -1.905319e-001 -4.988676e+000
      vertex -7.800000e+000 -3.053082e-015 -5.000000e+000
    endloop
  endfacet
  facet normal  0.000000e+000 -5.933101e-002 -9.982383e-001
    outer loop
      vertex -7.200000e+000 -1.905320e-001 -4.988676e+000
      vertex -7.800000e+000 -3.053082e-015 -5.000000e+000
      vertex -7.200000e+000 -3.053082e-015 -5.000000e+000
    endloop
  endfacet
  facet normal  -0.000000e+000 -9.503007e-001 -3.113337e-001
    outer loop
      vertex -7.800000e+000 -2.580968e+000 -2.677947e+000
      vertex -7.200000e+000 -3.667034e+000  6.371121e-001
      vertex -7.800000e+000 -3.667034e+000  6.371121e-001
    endloop
  endfacet
  facet normal  0.000000e+000 -9.949909e-001 -9.996571e-002
    outer loop
      vertex -7.800000e+000 -3.667034e+000  6.371121e-001
      vertex -7.200000e+000 -3.667034e+000  6.371121e-001
      vertex -7.200000e+000 -4.199940e+000  5.941301e+000
    endloop
  endfacet
  facet normal  -0.000000e+000 -9.949909e-001 -9.996571e-002
    outer loop
      vertex -7.800000e+000 -3.667034e+000  6.371121e-001
      vertex -7.200000e+000 -4.199940e+000  5.941301e+000
      vertex -7.800000e+000 -4.199940e+000  5.941301e+000
    endloop
  endfacet
  facet normal  0.000000e+000 -9.946072e-001  1.037142e-001
    outer loop
      vertex -7.800000e+000 -4.199940e+000  5.941301e+000
      vertex -7.200000e+000 -4.199940e+000  5.941301e+000
      vertex -7.200000e+000 -3.605517e+000  1.164175e+001
    endloop
  endfacet
  facet normal  0.000000e+000 -9.946072e-001  1.037142e-001
    outer loop
      vertex -7.800000e+000 -4.199940e+000  5.941301e+000
      vertex -7.200000e+000 -3.605517e+000  1.164175e+001
      vertex -7.800000e+000 -3.605517e+000  1.164175e+001
    endloop
  endfacet
  facet normal  0.000000e+000 -9.416031e-001  3.367247e-001
    outer loop
      vertex -7.800000e+000 -3.605517e+000  1.164175e+001
      vertex -7.200000e+000 -3.605517e+000  1.164175e+001
      vertex -7.200000e+000 -2.385360e+000  1.505375e+001
    endloop
  endfacet
  facet normal  0.000000e+000 -9.416031e-001  3.367247e-001
    outer loop
      vertex -7.800000e+000 -3.605517e+000  1.164175e+001
      vertex -7.200000e+000 -2.385360e+000  1.505375e+001
      vertex -7.800000e+000 -2.385360e+000  1.505375e+001
    endloop
  endfacet
  facet normal  0.000000e+000 -7.681845e-001  6.402285e-001
    outer loop
      vertex -7.800000e+000 -2.385360e+000  1.505375e+001
      vertex -7.200000e+000 -2.385360e+000  1.505375e+001
      vertex -7.200000e+000 -1.060168e+000  1.664379e+001
    endloop
  endfacet
  facet normal  0.000000e+000 -7.681845e-001  6.402285e-001
    outer loop
      vertex -7.800000e+000 -2.385360e+000  1.505375e+001
      vertex -7.200000e+000 -1.060168e+000  1.664379e+001
      vertex -7.800000e+000 -1.060168e+000  1.664379e+001
    endloop
  endfacet
  facet normal  0.000000e+000 -3.184942e-001  9.479247e-001
    outer loop
      vertex -7.800000e+000 -1.060168e+000  1.664379e+001
      vertex -7.200000e+000 -1.060168e+000  1.664379e+001
      vertex -7.200000e+000  5.432608e-015  1.700000e+001
    endloop
  endfacet
  facet normal  0.000000e+000 -3.184942e-001  9.479247e-001
    outer loop
      vertex -7.800000e+000 -1.060168e+000  1.664379e+001
      vertex -7.200000e+000  5.432608e-015  1.700000e+001
      vertex -7.800000e+000  5.432608e-015  1.700000e+001
    endloop
  endfacet
  facet normal -9.671505e-004  9.785293e-001  2.061054e-001
    outer loop
      vertex -7.200000e+000  4.018992e+000  9.194491e+000
      vertex -7.800000e+000  3.173732e+000  1.320473e+001
      vertex -7.200000e+000  3.175365e+000  1.319979e+001
    endloop
  endfacet
  facet normal  1.082387e-003  9.027696e-001  4.301230e-001
    outer loop
      vertex -7.200000e+000  3.175365e+000  1.319979e+001
      vertex -7.800000e+000  3.173732e+000  1.320473e+001
      vertex -7.800000e+000  1.993367e+000  1.568215e+001
    endloop
  endfacet
  facet normal -7.568453e-004  9.029424e-001  4.297607e-001
    outer loop
      vertex -7.200000e+000  3.175365e+000  1.319979e+001
      vertex -7.800000e+000  1.993367e+000  1.568215e+001
      vertex -7.200000e+000  1.994903e+000  1.567998e+001
    endloop
  endfacet
  facet normal  8.849556e-004  6.844981e-001  7.290141e-001
    outer loop
      vertex -7.200000e+000  1.994903e+000  1.567998e+001
      vertex -7.800000e+000  1.993367e+000  1.568215e+001
      vertex -7.800000e+000  8.094410e-001  1.679378e+001
    endloop
  endfacet
  facet normal  6.668996e-004  6.845569e-001  7.289591e-001
    outer loop
      vertex -7.200000e+000  1.994903e+000  1.567998e+001
      vertex -7.800000e+000  8.094410e-001  1.679378e+001
      vertex -7.200000e+000  8.081497e-001  1.679445e+001
    endloop
  endfacet
  facet normal -5.406809e-004  2.468786e-001  9.690463e-001
    outer loop
      vertex -7.200000e+000  8.081497e-001  1.679445e+001
      vertex -7.800000e+000  8.094410e-001  1.679378e+001
      vertex -7.800000e+000  5.432608e-015  1.700000e+001
    endloop
  endfacet
  facet normal  -0.000000e+000  2.465016e-001  9.691424e-001
    outer loop
      vertex -7.200000e+000  8.081497e-001  1.679445e+001
      vertex -7.800000e+000  5.432608e-015  1.700000e+001
      vertex -7.200000e+000  5.432608e-015  1.700000e+001
    endloop
  endfacet
  facet normal  1.823777e-004  9.784951e-001  2.062702e-001
    outer loop
      vertex -7.800000e+000  3.173732e+000  1.320473e+001
      vertex -7.200000e+000  4.018992e+000  9.194491e+000
      vertex -7.800000e+000  4.018855e+000  9.195671e+000
    endloop
  endfacet
  facet normal -2.281290e-004  9.999999e-001 -2.141608e-005
    outer loop
      vertex -7.800000e+000  4.018855e+000  9.195671e+000
      vertex -7.200000e+000  4.018992e+000  9.194491e+000
      vertex -7.200000e+000  4.018855e+000  2.804329e+000
    endloop
  endfacet
  facet normal  2.273341e-004  9.999999e-001  2.134145e-005
    outer loop
      vertex -7.800000e+000  4.018855e+000  9.195671e+000
      vertex -7.200000e+000  4.018855e+000  2.804329e+000
      vertex -7.800000e+000  4.018991e+000  2.805505e+000
    endloop
  endfacet
  facet normal -1.820081e-004  9.784950e-001 -2.062703e-001
    outer loop
      vertex -7.800000e+000  4.018991e+000  2.805505e+000
      vertex -7.200000e+000  4.018855e+000  2.804329e+000
      vertex -7.200000e+000  3.173732e+000 -1.204727e+000
    endloop
  endfacet
  facet normal  9.651635e-004  9.785292e-001 -2.061059e-001
    outer loop
      vertex -7.800000e+000  4.018991e+000  2.805505e+000
      vertex -7.200000e+000  3.173732e+000 -1.204727e+000
      vertex -7.800000e+000  3.175361e+000 -1.199801e+000
    endloop
  endfacet
  facet normal -1.079736e-003  9.027696e-001 -4.301231e-001
    outer loop
      vertex -7.800000e+000  3.175361e+000 -1.199801e+000
      vertex -7.200000e+000  3.173732e+000 -1.204727e+000
      vertex -7.200000e+000  1.993367e+000 -3.682151e+000
    endloop
  endfacet
  facet normal  7.540091e-004  9.029419e-001 -4.297619e-001
    outer loop
      vertex -7.800000e+000  3.175361e+000 -1.199801e+000
      vertex -7.200000e+000  1.993367e+000 -3.682151e+000
      vertex -7.800000e+000  1.994897e+000 -3.679990e+000
    endloop
  endfacet
  facet normal -8.811733e-004  6.844981e-001 -7.290141e-001
    outer loop
      vertex -7.800000e+000  1.994897e+000 -3.679990e+000
      vertex -7.200000e+000  1.993367e+000 -3.682151e+000
      vertex -7.200000e+000  8.094407e-001 -4.793783e+000
    endloop
  endfacet
  facet normal -6.654066e-004  6.845562e-001 -7.289598e-001
    outer loop
      vertex -7.800000e+000  1.994897e+000 -3.679990e+000
      vertex -7.200000e+000  8.094407e-001 -4.793783e+000
      vertex -7.800000e+000  8.081527e-001 -4.794445e+000
    endloop
  endfacet
  facet normal  5.389735e-004  2.468787e-001 -9.690462e-001
    outer loop
      vertex -7.800000e+000  8.081527e-001 -4.794445e+000
      vertex -7.200000e+000  8.094407e-001 -4.793783e+000
      vertex -7.200000e+000 -3.053082e-015 -5.000000e+000
    endloop
  endfacet
  facet normal  0.000000e+000  2.465029e-001 -9.691420e-001
    outer loop
      vertex -7.800000e+000  8.081527e-001 -4.794445e+000
      vertex -7.200000e+000 -3.053082e-015 -5.000000e+000
      vertex -7.800000e+000 -3.053082e-015 -5.000000e+000
    endloop
  endfacet
  facet normal -2.583937e-001 -5.731614e-002 -9.643378e-001
    outer loop
      vertex -7.800000e+000 -1.905319e-001 -4.988676e+000
      vertex -8.400000e+000 -5.428961e-008 -4.839231e+000
      vertex -7.800000e+000 -3.053082e-015 -5.000000e+000
    endloop
  endfacet
  facet normal -9.203362e-001 -1.923980e-001 -3.405352e-001
    outer loop
      vertex -8.648528e+000 -1.145408e+000 -4.127529e+000
      vertex -9.000000e+000 -5.733250e-001 -3.500855e+000
      vertex -9.000000e+000 -4.909157e-002 -3.797040e+000
    endloop
  endfacet
  facet normal -7.478538e-001 -3.999614e-002 -6.626576e-001
    outer loop
      vertex -8.648528e+000 -1.145408e+000 -4.127529e+000
      vertex -9.000000e+000 -4.909157e-002 -3.797040e+000
      vertex -9.000000e+000  6.348738e-007 -3.800003e+000
    endloop
  endfacet
  facet normal -9.428911e-001 -2.170851e-001 -2.526472e-001
    outer loop
      vertex -8.648528e+000 -1.145408e+000 -4.127529e+000
      vertex -9.000000e+000  6.348738e-007 -3.800003e+000
      vertex -8.839231e+000 -2.079785e-007 -4.400002e+000
    endloop
  endfacet
  facet normal -6.798586e-001 -2.749188e-001 -6.798617e-001
    outer loop
      vertex -8.648528e+000 -1.145408e+000 -4.127529e+000
      vertex -8.839231e+000 -2.079785e-007 -4.400002e+000
      vertex -8.400000e+000 -5.428961e-008 -4.839231e+000
    endloop
  endfacet
  facet normal -3.460836e-001 -4.398327e-001 -8.287179e-001
    outer loop
      vertex -8.648528e+000 -1.145408e+000 -4.127529e+000
      vertex -8.400000e+000 -5.428961e-008 -4.839231e+000
      vertex -7.800000e+000 -1.905319e-001 -4.988676e+000
    endloop
  endfacet
  facet normal -3.721502e-001 -4.170875e-001 -8.291817e-001
    outer loop
      vertex -8.648528e+000 -1.145408e+000 -4.127529e+000
      vertex -7.800000e+000 -1.905319e-001 -4.988676e+000
      vertex -7.800000e+000 -1.377324e+000 -4.391706e+000
    endloop
  endfacet
  facet normal -6.939771e-001 -1.918063e-001  6.939785e-001
    outer loop
      vertex -8.400000e+000  4.539289e-015  1.683923e+001
      vertex -8.839231e+000  3.235962e-015  1.640000e+001
      vertex -8.648528e+000 -8.645927e-001  1.635174e+001
    endloop
  endfacet
  facet normal -9.418597e-001 -2.218320e-001  2.523707e-001
    outer loop
      vertex -8.648528e+000 -8.645927e-001  1.635174e+001
      vertex -8.839231e+000  3.235962e-015  1.640000e+001
      vertex -9.000000e+000  1.460637e-015  1.580000e+001
    endloop
  endfacet
  facet normal -9.200816e-001 -1.407402e-001  3.655707e-001
    outer loop
      vertex -8.648528e+000 -8.645927e-001  1.635174e+001
      vertex -9.000000e+000  1.460637e-015  1.580000e+001
      vertex -9.000000e+000 -3.848854e-001  1.565182e+001
    endloop
  endfacet
  facet normal -2.461804e-001 -3.086922e-001  9.187515e-001
    outer loop
      vertex -7.800000e+000  5.432608e-015  1.700000e+001
      vertex -8.400000e+000  4.539289e-015  1.683923e+001
      vertex -7.800000e+000 -1.060168e+000  1.664379e+001
    endloop
  endfacet
  facet normal -3.774677e-001 -3.701072e-001  8.488455e-001
    outer loop
      vertex -7.800000e+000 -1.060168e+000  1.664379e+001
      vertex -8.400000e+000  4.539289e-015  1.683923e+001
      vertex -8.648528e+000 -8.645927e-001  1.635174e+001
    endloop
  endfacet
  facet normal -9.218163e-001 -3.018571e-001  2.431809e-001
    outer loop
      vertex -9.000000e+000 -1.336750e+000  1.447029e+001
      vertex -8.648528e+000 -2.079369e+000  1.488080e+001
      vertex -9.000000e+000 -3.848854e-001  1.565182e+001
    endloop
  endfacet
  facet normal -9.183508e-001 -3.051573e-001  2.520136e-001
    outer loop
      vertex -9.000000e+000 -3.848854e-001  1.565182e+001
      vertex -8.648528e+000 -2.079369e+000  1.488080e+001
      vertex -8.648528e+000 -8.645927e-001  1.635174e+001
    endloop
  endfacet
  facet normal -3.776430e-001 -7.139568e-001  5.896198e-001
    outer loop
      vertex -8.648528e+000 -2.079369e+000  1.488080e+001
      vertex -7.800000e+000 -2.385360e+000  1.505375e+001
      vertex -8.648528e+000 -8.645927e-001  1.635174e+001
    endloop
  endfacet
  facet normal -3.693197e-001 -7.138757e-001  5.949658e-001
    outer loop
      vertex -8.648528e+000 -8.645927e-001  1.635174e+001
      vertex -7.800000e+000 -2.385360e+000  1.505375e+001
      vertex -7.800000e+000 -1.060168e+000  1.664379e+001
    endloop
  endfacet
  facet normal -9.229481e-001 -3.627629e-001  1.287239e-001
    outer loop
      vertex -9.000000e+000 -2.436349e+000  1.137146e+001
      vertex -8.648528e+000 -3.263661e+000  1.156002e+001
      vertex -9.000000e+000 -1.336750e+000  1.447029e+001
    endloop
  endfacet
  facet normal -9.220687e-001 -3.645380e-001  1.300055e-001
    outer loop
      vertex -9.000000e+000 -1.336750e+000  1.447029e+001
      vertex -8.648528e+000 -3.263661e+000  1.156002e+001
      vertex -8.648528e+000 -2.079369e+000  1.488080e+001
    endloop
  endfacet
  facet normal -3.807999e-001 -8.709299e-001  3.106004e-001
    outer loop
      vertex -8.648528e+000 -3.263661e+000  1.156002e+001
      vertex -7.800000e+000 -3.605517e+000  1.164175e+001
      vertex -8.648528e+000 -2.079369e+000  1.488080e+001
    endloop
  endfacet
  facet normal -3.779171e-001 -8.717733e-001  3.117530e-001
    outer loop
      vertex -8.648528e+000 -2.079369e+000  1.488080e+001
      vertex -7.800000e+000 -3.605517e+000  1.164175e+001
      vertex -7.800000e+000 -2.385360e+000  1.505375e+001
    endloop
  endfacet
  facet normal -9.231217e-001 -3.824520e-001  3.970857e-002
    outer loop
      vertex -9.000000e+000 -2.999942e+000  5.943234e+000
      vertex -8.648528e+000 -3.848468e+000  5.941489e+000
      vertex -9.000000e+000 -2.436349e+000  1.137146e+001
    endloop
  endfacet
  facet normal -9.228913e-001 -3.829917e-001  3.986385e-002
    outer loop
      vertex -9.000000e+000 -2.436349e+000  1.137146e+001
      vertex -8.648528e+000 -3.848468e+000  5.941489e+000
      vertex -8.648528e+000 -3.263661e+000  1.156002e+001
    endloop
  endfacet
  facet normal -3.809084e-001 -9.196446e-001  9.572159e-002
    outer loop
      vertex -8.648528e+000 -3.848468e+000  5.941489e+000
      vertex -7.800000e+000 -4.199940e+000  5.941301e+000
      vertex -8.648528e+000 -3.263661e+000  1.156002e+001
    endloop
  endfacet
  facet normal -3.799063e-001 -9.200365e-001  9.593823e-002
    outer loop
      vertex -8.648528e+000 -3.263661e+000  1.156002e+001
      vertex -7.800000e+000 -4.199940e+000  5.941301e+000
      vertex -7.800000e+000 -3.605517e+000  1.164175e+001
    endloop
  endfacet
  facet normal -9.230537e-001 -3.827575e-001 -3.831966e-002
    outer loop
      vertex -9.000000e+000 -2.494091e+000  8.905196e-001
      vertex -8.648528e+000 -3.323997e+000  7.137260e-001
      vertex -9.000000e+000 -2.999942e+000  5.943234e+000
    endloop
  endfacet
  facet normal -9.232273e-001 -3.823352e-001 -3.835750e-002
    outer loop
      vertex -9.000000e+000 -2.999942e+000  5.943234e+000
      vertex -8.648528e+000 -3.323997e+000  7.137260e-001
      vertex -8.648528e+000 -3.848468e+000  5.941489e+000
    endloop
  endfacet
  facet normal -3.803564e-001 -9.202206e-001 -9.232046e-002
    outer loop
      vertex -8.648528e+000 -3.323997e+000  7.137260e-001
      vertex -7.800000e+000 -3.667034e+000  6.371121e-001
      vertex -8.648528e+000 -3.848468e+000  5.941489e+000
    endloop
  endfacet
  facet normal -3.810633e-001 -9.199178e-001 -9.242318e-002
    outer loop
      vertex -8.648528e+000 -3.848468e+000  5.941489e+000
      vertex -7.800000e+000 -3.667034e+000  6.371121e-001
      vertex -7.800000e+000 -4.199940e+000  5.941301e+000
    endloop
  endfacet
  facet normal -9.225264e-001 -3.669537e-001 -1.195411e-001
    outer loop
      vertex -9.000000e+000 -1.504084e+000 -2.148492e+000
      vertex -8.648528e+000 -2.266069e+000 -2.521826e+000
      vertex -9.000000e+000 -2.494091e+000  8.905196e-001
    endloop
  endfacet
  facet normal -9.231129e-001 -3.654881e-001 -1.195036e-001
    outer loop
      vertex -9.000000e+000 -2.494091e+000  8.905196e-001
      vertex -8.648528e+000 -2.266069e+000 -2.521826e+000
      vertex -8.648528e+000 -3.323997e+000  7.137260e-001
    endloop
  endfacet
  facet normal -3.792866e-001 -8.794615e-001 -2.875573e-001
    outer loop
      vertex -8.648528e+000 -2.266069e+000 -2.521826e+000
      vertex -7.800000e+000 -2.580968e+000 -2.677947e+000
      vertex -8.648528e+000 -3.323997e+000  7.137260e-001
    endloop
  endfacet
  facet normal -3.811665e-001 -8.785591e-001 -2.878300e-001
    outer loop
      vertex -8.648528e+000 -3.323997e+000  7.137260e-001
      vertex -7.800000e+000 -2.580968e+000 -2.677947e+000
      vertex -7.800000e+000 -3.667034e+000  6.371121e-001
    endloop
  endfacet
  facet normal -9.202550e-001 -3.223512e-001 -2.218569e-001
    outer loop
      vertex -9.000000e+000 -5.733250e-001 -3.500855e+000
      vertex -8.648528e+000 -1.145408e+000 -4.127529e+000
      vertex -9.000000e+000 -1.504084e+000 -2.148492e+000
    endloop
  endfacet
  facet normal -9.222590e-001 -3.170015e-001 -2.212432e-001
    outer loop
      vertex -9.000000e+000 -1.504084e+000 -2.148492e+000
      vertex -8.648528e+000 -1.145408e+000 -4.127529e+000
      vertex -8.648528e+000 -2.266069e+000 -2.521826e+000
    endloop
  endfacet
  facet normal -3.732375e-001 -7.607716e-001 -5.309615e-001
    outer loop
      vertex -8.648528e+000 -1.145408e+000 -4.127529e+000
      vertex -7.800000e+000 -1.377324e+000 -4.391706e+000
      vertex -8.648528e+000 -2.266069e+000 -2.521826e+000
    endloop
  endfacet
  facet normal -3.789099e-001 -7.573107e-001 -5.318906e-001
    outer loop
      vertex -8.648528e+000 -2.266069e+000 -2.521826e+000
      vertex -7.800000e+000 -1.377324e+000 -4.391706e+000
      vertex -7.800000e+000 -2.580968e+000 -2.677947e+000
    endloop
  endfacet
  facet normal -4.605728e-001  7.305527e-001  5.041483e-001
    outer loop
      vertex -7.800000e+000  1.993367e+000  1.568215e+001
      vertex -8.648528e+000  2.282699e+000  1.448770e+001
      vertex -8.648528e+000  1.160882e+000  1.611330e+001
    endloop
  endfacet
  facet normal -2.883412e-001  6.554261e-001  6.980515e-001
    outer loop
      vertex -7.800000e+000  1.993367e+000  1.568215e+001
      vertex -8.648528e+000  1.160882e+000  1.611330e+001
      vertex -7.800000e+000  8.094410e-001  1.679378e+001
    endloop
  endfacet
  facet normal -4.706076e-001  3.931876e-001  7.898936e-001
    outer loop
      vertex -8.648528e+000  1.160882e+000  1.611330e+001
      vertex -8.400000e+000  4.539289e-015  1.683923e+001
      vertex -7.800000e+000  8.094410e-001  1.679378e+001
    endloop
  endfacet
  facet normal -9.323866e-001  2.532613e-001  2.579026e-001
    outer loop
      vertex -8.648528e+000  1.160882e+000  1.611330e+001
      vertex -9.000000e+000  1.018267e+000  1.498269e+001
      vertex -9.000000e+000  2.607517e-001  1.572657e+001
    endloop
  endfacet
  facet normal -9.234397e-001  2.279376e-001  3.087128e-001
    outer loop
      vertex -8.648528e+000  1.160882e+000  1.611330e+001
      vertex -9.000000e+000  2.607517e-001  1.572657e+001
      vertex -8.839231e+000  3.235962e-015  1.640000e+001
    endloop
  endfacet
  facet normal -9.357809e-001  3.189495e-001  1.502846e-001
    outer loop
      vertex -8.648528e+000  2.282699e+000  1.448770e+001
      vertex -9.000000e+000  2.036456e+000  1.282178e+001
      vertex -9.000000e+000  1.018267e+000  1.498269e+001
    endloop
  endfacet
  facet normal -9.075434e-001  3.456446e-001  2.385265e-001
    outer loop
      vertex -8.648528e+000  2.282699e+000  1.448770e+001
      vertex -9.000000e+000  1.018267e+000  1.498269e+001
      vertex -8.648528e+000  1.160882e+000  1.611330e+001
    endloop
  endfacet
  facet normal -9.633704e-001  7.269207e-002  2.581345e-001
    outer loop
      vertex -9.000000e+000  1.460637e-015  1.580000e+001
      vertex -8.839231e+000  3.235962e-015  1.640000e+001
      vertex -9.000000e+000  2.607517e-001  1.572657e+001
    endloop
  endfacet
  facet normal -6.789818e-001  2.792229e-001  6.789833e-001
    outer loop
      vertex -8.839231e+000  3.235962e-015  1.640000e+001
      vertex -8.400000e+000  4.539289e-015  1.683923e+001
      vertex -8.648528e+000  1.160882e+000  1.611330e+001
    endloop
  endfacet
  facet normal -2.513228e-001  2.389546e-001  9.379433e-001
    outer loop
      vertex -7.800000e+000  5.432608e-015  1.700000e+001
      vertex -7.800000e+000  8.094410e-001  1.679378e+001
      vertex -8.400000e+000  4.539289e-015  1.683923e+001
    endloop
  endfacet
  facet normal -2.852777e-001  8.652555e-001  4.122495e-001
    outer loop
      vertex -7.800000e+000  1.993367e+000  1.568215e+001
      vertex -7.800000e+000  3.173732e+000  1.320473e+001
      vertex -8.648528e+000  2.282699e+000  1.448770e+001
    endloop
  endfacet
  facet normal -3.824581e-001  8.579797e-001  3.429236e-001
    outer loop
      vertex -8.648528e+000  2.282699e+000  1.448770e+001
      vertex -7.800000e+000  3.173732e+000  1.320473e+001
      vertex -8.648528e+000  2.842139e+000  1.308800e+001
    endloop
  endfacet
  facet normal -9.236264e-001  3.559178e-001  1.422558e-001
    outer loop
      vertex -8.648528e+000  2.282699e+000  1.448770e+001
      vertex -8.648528e+000  2.842139e+000  1.308800e+001
      vertex -9.000000e+000  2.036456e+000  1.282178e+001
    endloop
  endfacet
  facet normal -9.633700e-001  7.269473e-002 -2.581349e-001
    outer loop
      vertex -9.000000e+000  6.348738e-007 -3.800003e+000
      vertex -9.000000e+000  2.607517e-001 -3.726572e+000
      vertex -8.839231e+000 -2.079785e-007 -4.400002e+000
    endloop
  endfacet
  facet normal -9.219521e-001  2.321757e-001 -3.099981e-001
    outer loop
      vertex -8.839231e+000 -2.079785e-007 -4.400002e+000
      vertex -9.000000e+000  2.607517e-001 -3.726572e+000
      vertex -8.648528e+000  6.490881e-001 -4.481021e+000
    endloop
  endfacet
  facet normal -7.021111e-001  1.186420e-001 -7.021142e-001
    outer loop
      vertex -8.839231e+000 -2.079785e-007 -4.400002e+000
      vertex -8.648528e+000  6.490881e-001 -4.481021e+000
      vertex -8.400000e+000 -5.428961e-008 -4.839231e+000
    endloop
  endfacet
  facet normal -3.747328e-001  2.285409e-001 -8.985234e-001
    outer loop
      vertex -7.800000e+000  8.081527e-001 -4.794445e+000
      vertex -7.800000e+000 -3.053082e-015 -5.000000e+000
      vertex -8.648528e+000  6.490881e-001 -4.481021e+000
    endloop
  endfacet
  facet normal -2.374266e-001  3.980928e-001 -8.860874e-001
    outer loop
      vertex -8.648528e+000  6.490881e-001 -4.481021e+000
      vertex -7.800000e+000 -3.053082e-015 -5.000000e+000
      vertex -8.400000e+000 -5.428961e-008 -4.839231e+000
    endloop
  endfacet
  facet normal -9.233087e-001  3.758720e-001  7.887416e-002
    outer loop
      vertex -9.000000e+000  2.827417e+000  9.052485e+000
      vertex -9.000000e+000  2.036456e+000  1.282178e+001
      vertex -8.648528e+000  3.670321e+000  9.150023e+000
    endloop
  endfacet
  facet normal -9.230273e-001  3.764986e-001  7.917994e-002
    outer loop
      vertex -8.648528e+000  3.670321e+000  9.150023e+000
      vertex -9.000000e+000  2.036456e+000  1.282178e+001
      vertex -8.648528e+000  2.842139e+000  1.308800e+001
    endloop
  endfacet
  facet normal -3.817500e-001  9.044801e-001  1.902176e-001
    outer loop
      vertex -8.648528e+000  3.670321e+000  9.150023e+000
      vertex -8.648528e+000  2.842139e+000  1.308800e+001
      vertex -7.800000e+000  4.018855e+000  9.195671e+000
    endloop
  endfacet
  facet normal -3.799520e-001  9.051141e-001  1.908012e-001
    outer loop
      vertex -7.800000e+000  4.018855e+000  9.195671e+000
      vertex -8.648528e+000  2.842139e+000  1.308800e+001
      vertex -7.800000e+000  3.173732e+000  1.320473e+001
    endloop
  endfacet
  facet normal -9.229751e-001  3.848599e-001  0.000000e+000
    outer loop
      vertex -9.000000e+000  2.827417e+000  2.947515e+000
      vertex -9.000000e+000  2.827417e+000  9.052485e+000
      vertex -8.648528e+000  3.670321e+000  2.849977e+000
    endloop
  endfacet
  facet normal -9.229751e-001  3.848599e-001  0.000000e+000
    outer loop
      vertex -8.648528e+000  3.670321e+000  2.849977e+000
      vertex -9.000000e+000  2.827417e+000  9.052485e+000
      vertex -8.648528e+000  3.670321e+000  9.150023e+000
    endloop
  endfacet
  facet normal -3.800757e-001  9.249554e-001  0.000000e+000
    outer loop
      vertex -8.648528e+000  3.670321e+000  2.849977e+000
      vertex -8.648528e+000  3.670321e+000  9.150023e+000
      vertex -7.800000e+000  4.018991e+000  2.805505e+000
    endloop
  endfacet
  facet normal -3.799494e-001  9.250073e-001  1.974100e-005
    outer loop
      vertex -7.800000e+000  4.018991e+000  2.805505e+000
      vertex -8.648528e+000  3.670321e+000  9.150023e+000
      vertex -7.800000e+000  4.018855e+000  9.195671e+000
    endloop
  endfacet
  facet normal -9.230204e-001  3.765497e-001 -7.901636e-002
    outer loop
      vertex -9.000000e+000  2.036456e+000 -8.217822e-001
      vertex -9.000000e+000  2.827417e+000  2.947515e+000
      vertex -8.648528e+000  2.842139e+000 -1.088004e+000
    endloop
  endfacet
  facet normal -9.233032e-001  3.758501e-001 -7.904354e-002
    outer loop
      vertex -8.648528e+000  2.842139e+000 -1.088004e+000
      vertex -9.000000e+000  2.827417e+000  2.947515e+000
      vertex -8.648528e+000  3.670321e+000  2.849977e+000
    endloop
  endfacet
  facet normal -3.804727e-001  9.049954e-001 -1.903260e-001
    outer loop
      vertex -8.648528e+000  2.842139e+000 -1.088004e+000
      vertex -8.648528e+000  3.670321e+000  2.849977e+000
      vertex -7.800000e+000  3.175361e+000 -1.199801e+000
    endloop
  endfacet
  facet normal -3.816408e-001  9.044655e-001 -1.905060e-001
    outer loop
      vertex -7.800000e+000  3.175361e+000 -1.199801e+000
      vertex -8.648528e+000  3.670321e+000  2.849977e+000
      vertex -7.800000e+000  4.018991e+000  2.805505e+000
    endloop
  endfacet
  facet normal -9.217921e-001  3.507034e-001 -1.652466e-001
    outer loop
      vertex -9.000000e+000  1.018267e+000 -2.982688e+000
      vertex -9.000000e+000  2.036456e+000 -8.217822e-001
      vertex -8.648528e+000  1.711564e+000 -3.471911e+000
    endloop
  endfacet
  facet normal -9.228354e-001  3.480381e-001 -1.650582e-001
    outer loop
      vertex -8.648528e+000  1.711564e+000 -3.471911e+000
      vertex -9.000000e+000  2.036456e+000 -8.217822e-001
      vertex -8.648528e+000  2.842139e+000 -1.088004e+000
    endloop
  endfacet
  facet normal -3.767993e-001  8.369435e-001 -3.969231e-001
    outer loop
      vertex -8.648528e+000  1.711564e+000 -3.471911e+000
      vertex -8.648528e+000  2.842139e+000 -1.088004e+000
      vertex -7.800000e+000  1.994897e+000 -3.679990e+000
    endloop
  endfacet
  facet normal -3.803135e-001  8.350930e-001 -3.974687e-001
    outer loop
      vertex -7.800000e+000  1.994897e+000 -3.679990e+000
      vertex -8.648528e+000  2.842139e+000 -1.088004e+000
      vertex -7.800000e+000  3.175361e+000 -1.199801e+000
    endloop
  endfacet
  facet normal -9.174303e-001  2.787893e-001 -2.838982e-001
    outer loop
      vertex -9.000000e+000  2.607517e-001 -3.726572e+000
      vertex -9.000000e+000  1.018267e+000 -2.982688e+000
      vertex -8.648528e+000  6.490881e-001 -4.481021e+000
    endloop
  endfacet
  facet normal -9.212062e-001  2.679411e-001 -2.821110e-001
    outer loop
      vertex -8.648528e+000  6.490881e-001 -4.481021e+000
      vertex -9.000000e+000  1.018267e+000 -2.982688e+000
      vertex -8.648528e+000  1.711564e+000 -3.471911e+000
    endloop
  endfacet
  facet normal -3.689234e-001  6.400842e-001 -6.739345e-001
    outer loop
      vertex -8.648528e+000  6.490881e-001 -4.481021e+000
      vertex -8.648528e+000  1.711564e+000 -3.471911e+000
      vertex -7.800000e+000  8.081527e-001 -4.794445e+000
    endloop
  endfacet
  facet normal -3.772421e-001  6.339778e-001 -6.751005e-001
    outer loop
      vertex -7.800000e+000  8.081527e-001 -4.794445e+000
      vertex -8.648528e+000  1.711564e+000 -3.471911e+000
      vertex -7.800000e+000  1.994897e+000 -3.679990e+000
    endloop
  endfacet
  facet normal -1.000000e+000  0.000000e+000  -0.000000e+000
    outer loop
      vertex -9.000000e+000 -1.336750e+000  1.447029e+001
      vertex -9.000000e+000 -3.848854e-001  1.565182e+001
      vertex -9.000000e+000  1.018267e+000  1.498269e+001
    endloop
  endfacet
  facet normal -1.000000e+000  0.000000e+000  0.000000e+000
    outer loop
      vertex -9.000000e+000  1.018267e+000  1.498269e+001
      vertex -9.000000e+000 -3.848854e-001  1.565182e+001
      vertex -9.000000e+000  1.460637e-015  1.580000e+001
    endloop
  endfacet
  facet normal -1.000000e+000  0.000000e+000  0.000000e+000
    outer loop
      vertex -9.000000e+000  1.018267e+000  1.498269e+001
      vertex -9.000000e+000  1.460637e-015  1.580000e+001
      vertex -9.000000e+000  2.607517e-001  1.572657e+001
    endloop
  endfacet
  facet normal -1.000000e+000  0.000000e+000  0.000000e+000
    outer loop
      vertex -9.000000e+000  2.827417e+000  2.947515e+000
      vertex -9.000000e+000 -2.999942e+000  5.943234e+000
      vertex -9.000000e+000  2.827417e+000  9.052485e+000
    endloop
  endfacet
  facet normal -1.000000e+000  -0.000000e+000  0.000000e+000
    outer loop
      vertex -9.000000e+000  2.827417e+000  9.052485e+000
      vertex -9.000000e+000 -2.999942e+000  5.943234e+000
      vertex -9.000000e+000 -2.436349e+000  1.137146e+001
    endloop
  endfacet
  facet normal -1.000000e+000  0.000000e+000  0.000000e+000
    outer loop
      vertex -9.000000e+000  2.827417e+000  9.052485e+000
      vertex -9.000000e+000 -2.436349e+000  1.137146e+001
      vertex -9.000000e+000  2.036456e+000  1.282178e+001
    endloop
  endfacet
  facet normal -1.000000e+000  -0.000000e+000  0.000000e+000
    outer loop
      vertex -9.000000e+000  2.036456e+000  1.282178e+001
      vertex -9.000000e+000 -2.436349e+000  1.137146e+001
      vertex -9.000000e+000 -1.336750e+000  1.447029e+001
    endloop
  endfacet
  facet normal -1.000000e+000  0.000000e+000  0.000000e+000
    outer loop
      vertex -9.000000e+000  2.036456e+000  1.282178e+001
      vertex -9.000000e+000 -1.336750e+000  1.447029e+001
      vertex -9.000000e+000  1.018267e+000  1.498269e+001
    endloop
  endfacet
  facet normal -1.000000e+000  0.000000e+000  0.000000e+000
    outer loop
      vertex -9.000000e+000  1.018267e+000 -2.982688e+000
      vertex -9.000000e+000 -2.494091e+000  8.905196e-001
      vertex -9.000000e+000  2.036456e+000 -8.217822e-001
    endloop
  endfacet
  facet normal -1.000000e+000  0.000000e+000  0.000000e+000
    outer loop
      vertex -9.000000e+000  2.036456e+000 -8.217822e-001
      vertex -9.000000e+000 -2.494091e+000  8.905196e-001
      vertex -9.000000e+000 -2.999942e+000  5.943234e+000
    endloop
  endfacet
  facet normal -9.999999e-001  0.000000e+000  0.000000e+000
    outer loop
      vertex -9.000000e+000  2.036456e+000 -8.217822e-001
      vertex -9.000000e+000 -2.999942e+000  5.943234e+000
      vertex -9.000000e+000  2.827417e+000  2.947515e+000
    endloop
  endfacet
  facet normal -1.000000e+000  0.000000e+000  0.000000e+000
    outer loop
      vertex -9.000000e+000 -2.494091e+000  8.905196e-001
      vertex -9.000000e+000  1.018267e+000 -2.982688e+000
      vertex -9.000000e+000 -1.504084e+000 -2.148492e+000
    endloop
  endfacet
  facet normal -1.000000e+000  0.000000e+000  0.000000e+000
    outer loop
      vertex -9.000000e+000 -1.504084e+000 -2.148492e+000
      vertex -9.000000e+000  1.018267e+000 -2.982688e+000
      vertex -9.000000e+000  2.607517e-001 -3.726572e+000
    endloop
  endfacet
  facet normal -1.000000e+000  0.000000e+000  0.000000e+000
    outer loop
      vertex -9.000000e+000 -1.504084e+000 -2.148492e+000
      vertex -9.000000e+000  2.607517e-001 -3.726572e+000
      vertex -9.000000e+000 -5.733250e-001 -3.500855e+000
    endloop
  endfacet
  facet normal -1.000000e+000  0.000000e+000  0.000000e+000
    outer loop
      vertex -9.000000e+000 -5.733250e-001 -3.500855e+000
      vertex -9.000000e+000  2.607517e-001 -3.726572e+000
      vertex -9.000000e+000  6.348738e-007 -3.800003e+000
    endloop
  endfacet
  facet normal -1.000000e+000  0.000000e+000  0.000000e+000
    outer loop
      vertex -9.000000e+000 -5.733250e-001 -3.500855e+000
      vertex -9.000000e+000  6.348738e-007 -3.800003e+000
      vertex -9.000000e+000 -4.909157e-002 -3.797040e+000
    endloop
  endfacet
endsolid CATIA STL
