solid CATIA STL
  facet normal  0.000000e+000  0.000000e+000  1.000000e+000
    outer loop
      vertex -2.000000e-001 -4.440892e-016  4.527264e+000
      vertex  0.000000e+000  2.051216e-015  4.527264e+000
      vertex -9.978456e-001  2.765442e-001  4.527264e+000
    endloop
  endfacet
  facet normal  -0.000000e+000  0.000000e+000  9.999999e-001
    outer loop
      vertex -9.978456e-001  2.765442e-001  4.527264e+000
      vertex  0.000000e+000  2.051216e-015  4.527264e+000
      vertex  4.251723e-001  3.750000e+000  4.527264e+000
    endloop
  endfacet
  facet normal  0.000000e+000  0.000000e+000  1.000000e+000
    outer loop
      vertex -9.978456e-001  2.765442e-001  4.527264e+000
      vertex  4.251723e-001  3.750000e+000  4.527264e+000
      vertex -5.993516e-001  3.750000e+000  4.527264e+000
    endloop
  endfacet
  facet normal  0.000000e+000  0.000000e+000  1.000000e+000
    outer loop
      vertex -5.993516e-001 -3.750000e+000  4.527264e+000
      vertex  4.251723e-001 -3.750000e+000  4.527264e+000
      vertex -9.978456e-001 -2.765442e-001  4.527264e+000
    endloop
  endfacet
  facet normal  -0.000000e+000  0.000000e+000  9.999999e-001
    outer loop
      vertex -9.978456e-001 -2.765442e-001  4.527264e+000
      vertex  4.251723e-001 -3.750000e+000  4.527264e+000
      vertex  0.000000e+000  2.051216e-015  4.527264e+000
    endloop
  endfacet
  facet normal  0.000000e+000  0.000000e+000  1.000000e+000
    outer loop
      vertex -9.978456e-001 -2.765442e-001  4.527264e+000
      vertex  0.000000e+000  2.051216e-015  4.527264e+000
      vertex -2.000000e-001 -4.440892e-016  4.527264e+000
    endloop
  endfacet
  facet normal  0.000000e+000  0.000000e+000 -1.000000e+000
    outer loop
      vertex -2.000000e-001  0.000000e+000 -3.472736e+000
      vertex  0.000000e+000  2.051216e-015 -3.472736e+000
      vertex -9.978456e-001 -2.765442e-001 -3.472736e+000
    endloop
  endfacet
  facet normal  0.000000e+000  0.000000e+000 -9.999999e-001
    outer loop
      vertex -9.978456e-001 -2.765442e-001 -3.472736e+000
      vertex  0.000000e+000  2.051216e-015 -3.472736e+000
      vertex  4.251723e-001 -3.750000e+000 -3.472736e+000
    endloop
  endfacet
  facet normal  0.000000e+000  0.000000e+000 -1.000000e+000
    outer loop
      vertex -9.978456e-001 -2.765442e-001 -3.472736e+000
      vertex  4.251723e-001 -3.750000e+000 -3.472736e+000
      vertex -5.993516e-001 -3.750000e+000 -3.472736e+000
    endloop
  endfacet
  facet normal  -0.000000e+000  0.000000e+000 -1.000000e+000
    outer loop
      vertex -5.993516e-001  3.750000e+000 -3.472736e+000
      vertex  4.251723e-001  3.750000e+000 -3.472736e+000
      vertex -9.978456e-001  2.765442e-001 -3.472736e+000
    endloop
  endfacet
  facet normal  0.000000e+000  0.000000e+000 -9.999999e-001
    outer loop
      vertex -9.978456e-001  2.765442e-001 -3.472736e+000
      vertex  4.251723e-001  3.750000e+000 -3.472736e+000
      vertex  0.000000e+000  2.051216e-015 -3.472736e+000
    endloop
  endfacet
  facet normal  -0.000000e+000  0.000000e+000 -1.000000e+000
    outer loop
      vertex -9.978456e-001  2.765442e-001 -3.472736e+000
      vertex  0.000000e+000  2.051216e-015 -3.472736e+000
      vertex -2.000000e-001  0.000000e+000 -3.472736e+000
    endloop
  endfacet
  facet normal -3.274985e-001  9.448516e-001 -1.192334e-006
    outer loop
      vertex -9.978456e-001 -2.765442e-001  4.527264e+000
      vertex -2.000000e-001 -4.440892e-016  4.527264e+000
      vertex -1.145702e+000 -3.277933e-001  4.504640e+000
    endloop
  endfacet
  facet normal -3.274986e-001  9.448517e-001  1.192321e-006
    outer loop
      vertex -9.978456e-001 -2.765442e-001 -3.472736e+000
      vertex -1.145702e+000 -3.277933e-001 -3.450111e+000
      vertex -2.000000e-001  0.000000e+000 -3.472736e+000
    endloop
  endfacet
  facet normal -3.274986e-001  9.448517e-001  0.000000e+000
    outer loop
      vertex -2.000000e-001  0.000000e+000 -3.472736e+000
      vertex -1.145702e+000 -3.277933e-001 -3.450111e+000
      vertex -1.145702e+000 -3.277933e-001  4.504640e+000
    endloop
  endfacet
  facet normal -3.274986e-001  9.448516e-001  0.000000e+000
    outer loop
      vertex -2.000000e-001  0.000000e+000 -3.472736e+000
      vertex -1.145702e+000 -3.277933e-001  4.504640e+000
      vertex -2.000000e-001 -4.440892e-016  4.527264e+000
    endloop
  endfacet
  facet normal -9.934386e-001 -1.143669e-001  0.000000e+000
    outer loop
      vertex -1.481444e+000 -8.227605e-001  4.027264e+000
      vertex -1.481444e+000 -8.227605e-001 -2.972736e+000
      vertex -1.191476e+000 -3.341549e+000  4.027264e+000
    endloop
  endfacet
  facet normal -9.934386e-001 -1.143669e-001  -0.000000e+000
    outer loop
      vertex -1.191476e+000 -3.341549e+000  4.027264e+000
      vertex -1.481444e+000 -8.227605e-001 -2.972736e+000
      vertex -1.191476e+000 -3.341549e+000 -2.972736e+000
    endloop
  endfacet
  facet normal  -0.000000e+000 -1.000000e+000  0.000000e+000
    outer loop
      vertex -6.999283e-001 -3.750000e+000  4.517502e+000
      vertex  4.251723e-001 -3.750000e+000  4.527264e+000
      vertex -5.993516e-001 -3.750000e+000  4.527264e+000
    endloop
  endfacet
  facet normal  0.000000e+000 -1.000000e+000  0.000000e+000
    outer loop
      vertex  4.251723e-001 -3.750000e+000  4.527264e+000
      vertex -6.999283e-001 -3.750000e+000  4.517502e+000
      vertex  4.251723e-001 -3.750000e+000 -3.472736e+000
    endloop
  endfacet
  facet normal  0.000000e+000 -1.000000e+000  0.000000e+000
    outer loop
      vertex  4.251723e-001 -3.750000e+000 -3.472736e+000
      vertex -6.999283e-001 -3.750000e+000  4.517502e+000
      vertex -6.999283e-001 -3.750000e+000 -3.462974e+000
    endloop
  endfacet
  facet normal  0.000000e+000 -9.999999e-001  0.000000e+000
    outer loop
      vertex  4.251723e-001 -3.750000e+000 -3.472736e+000
      vertex -6.999283e-001 -3.750000e+000 -3.462974e+000
      vertex -5.993516e-001 -3.750000e+000 -3.472736e+000
    endloop
  endfacet
  facet normal -9.998177e-001  1.909404e-002  0.000000e+000
    outer loop
      vertex -1.481444e+000 -8.227605e-001 -2.972736e+000
      vertex -1.481444e+000 -8.227605e-001  4.027264e+000
      vertex -1.480219e+000 -7.586226e-001 -3.035877e+000
    endloop
  endfacet
  facet normal -9.998177e-001  1.909404e-002  0.000000e+000
    outer loop
      vertex -1.480219e+000 -7.586226e-001 -3.035877e+000
      vertex -1.481444e+000 -8.227605e-001  4.027264e+000
      vertex -1.480219e+000 -7.586226e-001  4.090405e+000
    endloop
  endfacet
  facet normal -9.153415e-001  4.026784e-001  0.000000e+000
    outer loop
      vertex -1.480219e+000 -7.586226e-001 -3.035877e+000
      vertex -1.480219e+000 -7.586226e-001  4.090405e+000
      vertex -1.349296e+000 -4.610153e-001 -3.324667e+000
    endloop
  endfacet
  facet normal -9.153415e-001  4.026784e-001  0.000000e+000
    outer loop
      vertex -1.349296e+000 -4.610153e-001 -3.324667e+000
      vertex -1.480219e+000 -7.586226e-001  4.090405e+000
      vertex -1.349296e+000 -4.610153e-001  4.379196e+000
    endloop
  endfacet
  facet normal -5.475461e-001  8.367755e-001  0.000000e+000
    outer loop
      vertex -1.349296e+000 -4.610153e-001 -3.324667e+000
      vertex -1.349296e+000 -4.610153e-001  4.379196e+000
      vertex -1.145702e+000 -3.277933e-001 -3.450111e+000
    endloop
  endfacet
  facet normal -5.475461e-001  8.367755e-001  0.000000e+000
    outer loop
      vertex -1.145702e+000 -3.277933e-001 -3.450111e+000
      vertex -1.349296e+000 -4.610153e-001  4.379196e+000
      vertex -1.145702e+000 -3.277933e-001  4.504640e+000
    endloop
  endfacet
  facet normal -9.837396e-001 -1.132504e-001 -1.393937e-001
    outer loop
      vertex -1.191476e+000 -3.341549e+000 -2.972736e+000
      vertex -1.481444e+000 -8.227605e-001 -2.972736e+000
      vertex -1.174070e+000 -3.408711e+000 -3.041003e+000
    endloop
  endfacet
  facet normal -9.844164e-001 -1.134639e-001 -1.343514e-001
    outer loop
      vertex -1.174070e+000 -3.408711e+000 -3.041003e+000
      vertex -1.481444e+000 -8.227605e-001 -2.972736e+000
      vertex -1.480219e+000 -7.586226e-001 -3.035877e+000
    endloop
  endfacet
  facet normal -8.663163e-001 -9.913344e-002 -4.895597e-001
    outer loop
      vertex -1.174070e+000 -3.408711e+000 -3.041003e+000
      vertex -1.480219e+000 -7.586226e-001 -3.035877e+000
      vertex -9.898478e-001 -3.657366e+000 -3.316649e+000
    endloop
  endfacet
  facet normal -8.642913e-001 -9.843184e-002 -4.932664e-001
    outer loop
      vertex -9.898478e-001 -3.657366e+000 -3.316649e+000
      vertex -1.480219e+000 -7.586226e-001 -3.035877e+000
      vertex -1.349296e+000 -4.610153e-001 -3.324667e+000
    endloop
  endfacet
  facet normal -5.649550e-001 -6.559567e-002 -8.225102e-001
    outer loop
      vertex -9.898478e-001 -3.657366e+000 -3.316649e+000
      vertex -1.349296e+000 -4.610153e-001 -3.324667e+000
      vertex -8.283003e-001 -3.733240e+000 -3.421560e+000
    endloop
  endfacet
  facet normal -4.981166e-001 -5.368246e-002 -8.654467e-001
    outer loop
      vertex -8.283003e-001 -3.733240e+000 -3.421560e+000
      vertex -1.349296e+000 -4.610153e-001 -3.324667e+000
      vertex -1.145702e+000 -3.277933e-001 -3.450111e+000
    endloop
  endfacet
  facet normal -3.111859e-001 -3.696554e-002 -9.496298e-001
    outer loop
      vertex -8.283003e-001 -3.733240e+000 -3.421560e+000
      vertex -1.145702e+000 -3.277933e-001 -3.450111e+000
      vertex -6.999283e-001 -3.750000e+000 -3.462974e+000
    endloop
  endfacet
  facet normal -1.455776e-001 -1.670146e-002 -9.892058e-001
    outer loop
      vertex -9.978456e-001 -2.765442e-001 -3.472736e+000
      vertex -5.993516e-001 -3.750000e+000 -3.472736e+000
      vertex -1.145702e+000 -3.277933e-001 -3.450111e+000
    endloop
  endfacet
  facet normal -9.660292e-002 -8.842546e-003 -9.952837e-001
    outer loop
      vertex -1.145702e+000 -3.277933e-001 -3.450111e+000
      vertex -5.993516e-001 -3.750000e+000 -3.472736e+000
      vertex -6.999283e-001 -3.750000e+000 -3.462974e+000
    endloop
  endfacet
  facet normal -1.294621e-001 -9.915843e-001  -0.000000e+000
    outer loop
      vertex -6.999283e-001 -3.750000e+000 -3.462974e+000
      vertex -6.999283e-001 -3.750000e+000  4.517502e+000
      vertex -8.283003e-001 -3.733240e+000 -3.421560e+000
    endloop
  endfacet
  facet normal -1.294621e-001 -9.915844e-001  0.000000e+000
    outer loop
      vertex -8.283003e-001 -3.733240e+000 -3.421560e+000
      vertex -6.999283e-001 -3.750000e+000  4.517502e+000
      vertex -8.283003e-001 -3.733240e+000  4.476088e+000
    endloop
  endfacet
  facet normal -4.251168e-001 -9.051385e-001  -0.000000e+000
    outer loop
      vertex -8.283003e-001 -3.733240e+000 -3.421560e+000
      vertex -8.283003e-001 -3.733240e+000  4.476088e+000
      vertex -9.898478e-001 -3.657366e+000 -3.316649e+000
    endloop
  endfacet
  facet normal -4.251169e-001 -9.051386e-001  0.000000e+000
    outer loop
      vertex -9.898478e-001 -3.657366e+000 -3.316649e+000
      vertex -8.283003e-001 -3.733240e+000  4.476088e+000
      vertex -9.898478e-001 -3.657366e+000  4.371177e+000
    endloop
  endfacet
  facet normal -8.035042e-001 -5.952991e-001  -0.000000e+000
    outer loop
      vertex -9.898478e-001 -3.657366e+000 -3.316649e+000
      vertex -9.898478e-001 -3.657366e+000  4.371177e+000
      vertex -1.174070e+000 -3.408711e+000 -3.041003e+000
    endloop
  endfacet
  facet normal -8.035042e-001 -5.952991e-001  0.000000e+000
    outer loop
      vertex -1.174070e+000 -3.408711e+000 -3.041003e+000
      vertex -9.898478e-001 -3.657366e+000  4.371177e+000
      vertex -1.174070e+000 -3.408711e+000  4.095531e+000
    endloop
  endfacet
  facet normal -9.680220e-001 -2.508654e-001  -0.000000e+000
    outer loop
      vertex -1.174070e+000 -3.408711e+000 -3.041003e+000
      vertex -1.174070e+000 -3.408711e+000  4.095531e+000
      vertex -1.191476e+000 -3.341549e+000 -2.972736e+000
    endloop
  endfacet
  facet normal -9.680219e-001 -2.508654e-001  0.000000e+000
    outer loop
      vertex -1.191476e+000 -3.341549e+000 -2.972736e+000
      vertex -1.174070e+000 -3.408711e+000  4.095531e+000
      vertex -1.191476e+000 -3.341549e+000  4.027264e+000
    endloop
  endfacet
  facet normal -9.844497e-001 -1.133321e-001  1.342182e-001
    outer loop
      vertex -1.481444e+000 -8.227605e-001  4.027264e+000
      vertex -1.191476e+000 -3.341549e+000  4.027264e+000
      vertex -1.480219e+000 -7.586226e-001  4.090405e+000
    endloop
  endfacet
  facet normal -9.837425e-001 -1.133765e-001  1.392703e-001
    outer loop
      vertex -1.480219e+000 -7.586226e-001  4.090405e+000
      vertex -1.191476e+000 -3.341549e+000  4.027264e+000
      vertex -1.174070e+000 -3.408711e+000  4.095531e+000
    endloop
  endfacet
  facet normal -8.640503e-001 -9.886385e-002  4.936020e-001
    outer loop
      vertex -1.480219e+000 -7.586226e-001  4.090405e+000
      vertex -1.174070e+000 -3.408711e+000  4.095531e+000
      vertex -1.349296e+000 -4.610153e-001  4.379196e+000
    endloop
  endfacet
  facet normal -8.661730e-001 -9.863511e-002  4.899139e-001
    outer loop
      vertex -1.349296e+000 -4.610153e-001  4.379196e+000
      vertex -1.174070e+000 -3.408711e+000  4.095531e+000
      vertex -9.898478e-001 -3.657366e+000  4.371177e+000
    endloop
  endfacet
  facet normal -4.959316e-001 -5.794389e-002  8.664262e-001
    outer loop
      vertex -1.349296e+000 -4.610153e-001  4.379196e+000
      vertex -9.898478e-001 -3.657366e+000  4.371177e+000
      vertex -1.145702e+000 -3.277933e-001  4.504640e+000
    endloop
  endfacet
  facet normal -5.631528e-001 -5.939847e-002  8.242152e-001
    outer loop
      vertex -1.145702e+000 -3.277933e-001  4.504640e+000
      vertex -9.898478e-001 -3.657366e+000  4.371177e+000
      vertex -8.283003e-001 -3.733240e+000  4.476088e+000
    endloop
  endfacet
  facet normal -3.111875e-001 -3.696575e-002  9.496293e-001
    outer loop
      vertex -1.145702e+000 -3.277933e-001  4.504640e+000
      vertex -8.283003e-001 -3.733240e+000  4.476088e+000
      vertex -6.999283e-001 -3.750000e+000  4.517502e+000
    endloop
  endfacet
  facet normal -9.660058e-002 -8.842240e-003  9.952840e-001
    outer loop
      vertex -6.999283e-001 -3.750000e+000  4.517502e+000
      vertex -5.993516e-001 -3.750000e+000  4.527264e+000
      vertex -1.145702e+000 -3.277933e-001  4.504640e+000
    endloop
  endfacet
  facet normal -1.455761e-001 -1.670129e-002  9.892061e-001
    outer loop
      vertex -1.145702e+000 -3.277933e-001  4.504640e+000
      vertex -5.993516e-001 -3.750000e+000  4.527264e+000
      vertex -9.978456e-001 -2.765442e-001  4.527264e+000
    endloop
  endfacet
  facet normal -3.274986e-001 -9.448517e-001  1.192321e-006
    outer loop
      vertex -9.978456e-001  2.765442e-001 -3.472736e+000
      vertex -2.000000e-001  0.000000e+000 -3.472736e+000
      vertex -1.145702e+000  3.277933e-001 -3.450111e+000
    endloop
  endfacet
  facet normal -3.274985e-001 -9.448516e-001 -1.192334e-006
    outer loop
      vertex -9.978456e-001  2.765442e-001  4.527264e+000
      vertex -1.145702e+000  3.277933e-001  4.504640e+000
      vertex -2.000000e-001 -4.440892e-016  4.527264e+000
    endloop
  endfacet
  facet normal -3.274986e-001 -9.448517e-001  0.000000e+000
    outer loop
      vertex -2.000000e-001 -4.440892e-016  4.527264e+000
      vertex -1.145702e+000  3.277933e-001  4.504640e+000
      vertex -1.145702e+000  3.277933e-001 -3.450111e+000
    endloop
  endfacet
  facet normal -3.274986e-001 -9.448516e-001  0.000000e+000
    outer loop
      vertex -2.000000e-001 -4.440892e-016  4.527264e+000
      vertex -1.145702e+000  3.277933e-001 -3.450111e+000
      vertex -2.000000e-001  0.000000e+000 -3.472736e+000
    endloop
  endfacet
  facet normal -9.934386e-001  1.143669e-001  0.000000e+000
    outer loop
      vertex -1.191476e+000  3.341549e+000  4.027264e+000
      vertex -1.191476e+000  3.341549e+000 -2.972736e+000
      vertex -1.481444e+000  8.227605e-001  4.027264e+000
    endloop
  endfacet
  facet normal -9.934386e-001  1.143669e-001  0.000000e+000
    outer loop
      vertex -1.481444e+000  8.227605e-001  4.027264e+000
      vertex -1.191476e+000  3.341549e+000 -2.972736e+000
      vertex -1.481444e+000  8.227605e-001 -2.972736e+000
    endloop
  endfacet
  facet normal  0.000000e+000  9.999999e-001  0.000000e+000
    outer loop
      vertex -6.999283e-001  3.750000e+000 -3.462974e+000
      vertex  4.251723e-001  3.750000e+000 -3.472736e+000
      vertex -5.993516e-001  3.750000e+000 -3.472736e+000
    endloop
  endfacet
  facet normal  -0.000000e+000  1.000000e+000  0.000000e+000
    outer loop
      vertex  4.251723e-001  3.750000e+000 -3.472736e+000
      vertex -6.999283e-001  3.750000e+000 -3.462974e+000
      vertex  4.251723e-001  3.750000e+000  4.527264e+000
    endloop
  endfacet
  facet normal  0.000000e+000  1.000000e+000  0.000000e+000
    outer loop
      vertex  4.251723e-001  3.750000e+000  4.527264e+000
      vertex -6.999283e-001  3.750000e+000 -3.462974e+000
      vertex -6.999283e-001  3.750000e+000  4.517502e+000
    endloop
  endfacet
  facet normal  0.000000e+000  1.000000e+000  0.000000e+000
    outer loop
      vertex  4.251723e-001  3.750000e+000  4.527264e+000
      vertex -6.999283e-001  3.750000e+000  4.517502e+000
      vertex -5.993516e-001  3.750000e+000  4.527264e+000
    endloop
  endfacet
  facet normal -9.998177e-001 -1.909404e-002  0.000000e+000
    outer loop
      vertex -1.481444e+000  8.227605e-001  4.027264e+000
      vertex -1.481444e+000  8.227605e-001 -2.972736e+000
      vertex -1.480219e+000  7.586226e-001  4.090405e+000
    endloop
  endfacet
  facet normal -9.998177e-001 -1.909404e-002  -0.000000e+000
    outer loop
      vertex -1.480219e+000  7.586226e-001  4.090405e+000
      vertex -1.481444e+000  8.227605e-001 -2.972736e+000
      vertex -1.480219e+000  7.586226e-001 -3.035877e+000
    endloop
  endfacet
  facet normal -9.153415e-001 -4.026784e-001  0.000000e+000
    outer loop
      vertex -1.480219e+000  7.586226e-001  4.090405e+000
      vertex -1.480219e+000  7.586226e-001 -3.035877e+000
      vertex -1.349296e+000  4.610153e-001  4.379196e+000
    endloop
  endfacet
  facet normal -9.153415e-001 -4.026784e-001  -0.000000e+000
    outer loop
      vertex -1.349296e+000  4.610153e-001  4.379196e+000
      vertex -1.480219e+000  7.586226e-001 -3.035877e+000
      vertex -1.349296e+000  4.610153e-001 -3.324667e+000
    endloop
  endfacet
  facet normal -5.475461e-001 -8.367755e-001  0.000000e+000
    outer loop
      vertex -1.349296e+000  4.610153e-001  4.379196e+000
      vertex -1.349296e+000  4.610153e-001 -3.324667e+000
      vertex -1.145702e+000  3.277933e-001  4.504640e+000
    endloop
  endfacet
  facet normal -5.475461e-001 -8.367755e-001  -0.000000e+000
    outer loop
      vertex -1.145702e+000  3.277933e-001  4.504640e+000
      vertex -1.349296e+000  4.610153e-001 -3.324667e+000
      vertex -1.145702e+000  3.277933e-001 -3.450111e+000
    endloop
  endfacet
  facet normal -9.837396e-001  1.132504e-001  1.393937e-001
    outer loop
      vertex -1.191476e+000  3.341549e+000  4.027264e+000
      vertex -1.481444e+000  8.227605e-001  4.027264e+000
      vertex -1.174070e+000  3.408711e+000  4.095531e+000
    endloop
  endfacet
  facet normal -9.844164e-001  1.134639e-001  1.343514e-001
    outer loop
      vertex -1.174070e+000  3.408711e+000  4.095531e+000
      vertex -1.481444e+000  8.227605e-001  4.027264e+000
      vertex -1.480219e+000  7.586226e-001  4.090405e+000
    endloop
  endfacet
  facet normal -8.663161e-001  9.913342e-002  4.895600e-001
    outer loop
      vertex -1.174070e+000  3.408711e+000  4.095531e+000
      vertex -1.480219e+000  7.586226e-001  4.090405e+000
      vertex -9.898478e-001  3.657366e+000  4.371177e+000
    endloop
  endfacet
  facet normal -8.642914e-001  9.843192e-002  4.932661e-001
    outer loop
      vertex -9.898478e-001  3.657366e+000  4.371177e+000
      vertex -1.480219e+000  7.586226e-001  4.090405e+000
      vertex -1.349296e+000  4.610153e-001  4.379196e+000
    endloop
  endfacet
  facet normal -5.649559e-001  6.559590e-002  8.225095e-001
    outer loop
      vertex -9.898478e-001  3.657366e+000  4.371177e+000
      vertex -1.349296e+000  4.610153e-001  4.379196e+000
      vertex -8.283003e-001  3.733240e+000  4.476088e+000
    endloop
  endfacet
  facet normal -4.981166e-001  5.368251e-002  8.654467e-001
    outer loop
      vertex -8.283003e-001  3.733240e+000  4.476088e+000
      vertex -1.349296e+000  4.610153e-001  4.379196e+000
      vertex -1.145702e+000  3.277933e-001  4.504640e+000
    endloop
  endfacet
  facet normal -3.111875e-001  3.696575e-002  9.496293e-001
    outer loop
      vertex -8.283003e-001  3.733240e+000  4.476088e+000
      vertex -1.145702e+000  3.277933e-001  4.504640e+000
      vertex -6.999283e-001  3.750000e+000  4.517502e+000
    endloop
  endfacet
  facet normal -1.455761e-001  1.670129e-002  9.892061e-001
    outer loop
      vertex -9.978456e-001  2.765442e-001  4.527264e+000
      vertex -5.993516e-001  3.750000e+000  4.527264e+000
      vertex -1.145702e+000  3.277933e-001  4.504640e+000
    endloop
  endfacet
  facet normal -9.660058e-002  8.842240e-003  9.952840e-001
    outer loop
      vertex -1.145702e+000  3.277933e-001  4.504640e+000
      vertex -5.993516e-001  3.750000e+000  4.527264e+000
      vertex -6.999283e-001  3.750000e+000  4.517502e+000
    endloop
  endfacet
  facet normal -1.294621e-001  9.915843e-001  0.000000e+000
    outer loop
      vertex -6.999283e-001  3.750000e+000  4.517502e+000
      vertex -6.999283e-001  3.750000e+000 -3.462974e+000
      vertex -8.283003e-001  3.733240e+000  4.476088e+000
    endloop
  endfacet
  facet normal -1.294621e-001  9.915844e-001  0.000000e+000
    outer loop
      vertex -8.283003e-001  3.733240e+000  4.476088e+000
      vertex -6.999283e-001  3.750000e+000 -3.462974e+000
      vertex -8.283003e-001  3.733240e+000 -3.421560e+000
    endloop
  endfacet
  facet normal -4.251168e-001  9.051385e-001  0.000000e+000
    outer loop
      vertex -8.283003e-001  3.733240e+000  4.476088e+000
      vertex -8.283003e-001  3.733240e+000 -3.421560e+000
      vertex -9.898478e-001  3.657366e+000  4.371177e+000
    endloop
  endfacet
  facet normal -4.251169e-001  9.051386e-001  0.000000e+000
    outer loop
      vertex -9.898478e-001  3.657366e+000  4.371177e+000
      vertex -8.283003e-001  3.733240e+000 -3.421560e+000
      vertex -9.898478e-001  3.657366e+000 -3.316649e+000
    endloop
  endfacet
  facet normal -8.035042e-001  5.952991e-001  0.000000e+000
    outer loop
      vertex -9.898478e-001  3.657366e+000  4.371177e+000
      vertex -9.898478e-001  3.657366e+000 -3.316649e+000
      vertex -1.174070e+000  3.408711e+000  4.095531e+000
    endloop
  endfacet
  facet normal -8.035042e-001  5.952991e-001  0.000000e+000
    outer loop
      vertex -1.174070e+000  3.408711e+000  4.095531e+000
      vertex -9.898478e-001  3.657366e+000 -3.316649e+000
      vertex -1.174070e+000  3.408711e+000 -3.041003e+000
    endloop
  endfacet
  facet normal -9.680220e-001  2.508654e-001  0.000000e+000
    outer loop
      vertex -1.174070e+000  3.408711e+000  4.095531e+000
      vertex -1.174070e+000  3.408711e+000 -3.041003e+000
      vertex -1.191476e+000  3.341549e+000  4.027264e+000
    endloop
  endfacet
  facet normal -9.680219e-001  2.508654e-001  0.000000e+000
    outer loop
      vertex -1.191476e+000  3.341549e+000  4.027264e+000
      vertex -1.174070e+000  3.408711e+000 -3.041003e+000
      vertex -1.191476e+000  3.341549e+000 -2.972736e+000
    endloop
  endfacet
  facet normal -9.844497e-001  1.133321e-001 -1.342182e-001
    outer loop
      vertex -1.481444e+000  8.227605e-001 -2.972736e+000
      vertex -1.191476e+000  3.341549e+000 -2.972736e+000
      vertex -1.480219e+000  7.586226e-001 -3.035877e+000
    endloop
  endfacet
  facet normal -9.837425e-001  1.133765e-001 -1.392703e-001
    outer loop
      vertex -1.480219e+000  7.586226e-001 -3.035877e+000
      vertex -1.191476e+000  3.341549e+000 -2.972736e+000
      vertex -1.174070e+000  3.408711e+000 -3.041003e+000
    endloop
  endfacet
  facet normal -8.640501e-001  9.886383e-002 -4.936023e-001
    outer loop
      vertex -1.480219e+000  7.586226e-001 -3.035877e+000
      vertex -1.174070e+000  3.408711e+000 -3.041003e+000
      vertex -1.349296e+000  4.610153e-001 -3.324667e+000
    endloop
  endfacet
  facet normal -8.661731e-001  9.863505e-002 -4.899136e-001
    outer loop
      vertex -1.349296e+000  4.610153e-001 -3.324667e+000
      vertex -1.174070e+000  3.408711e+000 -3.041003e+000
      vertex -9.898478e-001  3.657366e+000 -3.316649e+000
    endloop
  endfacet
  facet normal -4.959317e-001  5.794377e-002 -8.664262e-001
    outer loop
      vertex -1.349296e+000  4.610153e-001 -3.324667e+000
      vertex -9.898478e-001  3.657366e+000 -3.316649e+000
      vertex -1.145702e+000  3.277933e-001 -3.450111e+000
    endloop
  endfacet
  facet normal -5.631520e-001  5.939834e-002 -8.242158e-001
    outer loop
      vertex -1.145702e+000  3.277933e-001 -3.450111e+000
      vertex -9.898478e-001  3.657366e+000 -3.316649e+000
      vertex -8.283003e-001  3.733240e+000 -3.421560e+000
    endloop
  endfacet
  facet normal -3.111859e-001  3.696554e-002 -9.496298e-001
    outer loop
      vertex -1.145702e+000  3.277933e-001 -3.450111e+000
      vertex -8.283003e-001  3.733240e+000 -3.421560e+000
      vertex -6.999283e-001  3.750000e+000 -3.462974e+000
    endloop
  endfacet
  facet normal -9.660292e-002  8.842546e-003 -9.952837e-001
    outer loop
      vertex -6.999283e-001  3.750000e+000 -3.462974e+000
      vertex -5.993516e-001  3.750000e+000 -3.472736e+000
      vertex -1.145702e+000  3.277933e-001 -3.450111e+000
    endloop
  endfacet
  facet normal -1.455776e-001  1.670147e-002 -9.892059e-001
    outer loop
      vertex -1.145702e+000  3.277933e-001 -3.450111e+000
      vertex -5.993516e-001  3.750000e+000 -3.472736e+000
      vertex -9.978456e-001  2.765442e-001 -3.472736e+000
    endloop
  endfacet
  facet normal  9.935991e-001  1.126535e-001  8.370899e-003
    outer loop
      vertex  4.251723e-001 -3.750000e+000 -3.472736e+000
      vertex  0.000000e+000  2.051216e-015 -3.472736e+000
      vertex  3.290346e-001 -3.303694e+000  1.932222e+000
    endloop
  endfacet
  facet normal  9.788458e-001  2.045989e-001  5.162432e-004
    outer loop
      vertex  4.251723e-001 -3.750000e+000 -3.472736e+000
      vertex  3.290346e-001 -3.303694e+000  1.932222e+000
      vertex  3.697527e-001 -3.500000e+000  2.527264e+000
    endloop
  endfacet
  facet normal  9.762995e-001  2.164242e-001  0.000000e+000
    outer loop
      vertex  4.251723e-001 -3.750000e+000 -3.472736e+000
      vertex  3.697527e-001 -3.500000e+000  2.527264e+000
      vertex  4.251723e-001 -3.750000e+000  4.527264e+000
    endloop
  endfacet
  facet normal  9.989950e-001  4.482116e-002  0.000000e+000
    outer loop
      vertex  0.000000e+000  2.051216e-015 -3.472736e+000
      vertex  0.000000e+000  2.051216e-015  4.527264e+000
      vertex  6.729938e-002 -1.500000e+000  2.527264e+000
    endloop
  endfacet
  facet normal  9.973944e-001  7.182374e-002  6.768596e-003
    outer loop
      vertex  0.000000e+000  2.051216e-015 -3.472736e+000
      vertex  6.729938e-002 -1.500000e+000  2.527264e+000
      vertex  8.271253e-002 -1.662537e+000  1.980771e+000
    endloop
  endfacet
  facet normal  9.947016e-001  1.015714e-001  1.587822e-002
    outer loop
      vertex  0.000000e+000  2.051216e-015 -3.472736e+000
      vertex  8.271253e-002 -1.662537e+000  1.980771e+000
      vertex  1.395166e-001 -2.157392e+000  1.587786e+000
    endloop
  endfacet
  facet normal  9.885696e-001  1.465888e-001  3.523897e-002
    outer loop
      vertex  0.000000e+000  2.051216e-015 -3.472736e+000
      vertex  1.395166e-001 -2.157392e+000  1.587786e+000
      vertex  2.337366e-001 -2.788466e+000  1.569774e+000
    endloop
  endfacet
  facet normal  9.664840e-001  2.410009e-001  8.847187e-002
    outer loop
      vertex  0.000000e+000  2.051216e-015 -3.472736e+000
      vertex  2.337366e-001 -2.788466e+000  1.569774e+000
      vertex  3.290346e-001 -3.303694e+000  1.932222e+000
    endloop
  endfacet
  facet normal  9.771094e-001  1.413457e-001 -1.589927e-001
    outer loop
      vertex  0.000000e+000  2.051216e-015  4.527264e+000
      vertex  2.337366e-001 -2.788466e+000  3.484754e+000
      vertex  1.395166e-001 -2.157392e+000  3.466743e+000
    endloop
  endfacet
  facet normal  9.957535e-001  8.347581e-002 -3.881668e-002
    outer loop
      vertex  0.000000e+000  2.051216e-015  4.527264e+000
      vertex  1.395166e-001 -2.157392e+000  3.466743e+000
      vertex  8.271253e-002 -1.662537e+000  3.073758e+000
    endloop
  endfacet
  facet normal  9.982046e-001  5.894722e-002 -1.062114e-002
    outer loop
      vertex  0.000000e+000  2.051216e-015  4.527264e+000
      vertex  8.271253e-002 -1.662537e+000  3.073758e+000
      vertex  6.729938e-002 -1.500000e+000  2.527264e+000
    endloop
  endfacet
  facet normal  9.783884e-001  2.067719e-001 -1.264427e-003
    outer loop
      vertex  4.251723e-001 -3.750000e+000  4.527264e+000
      vertex  3.697527e-001 -3.500000e+000  2.527264e+000
      vertex  3.290346e-001 -3.303694e+000  3.122307e+000
    endloop
  endfacet
  facet normal  9.823004e-001  1.871514e-001 -7.764864e-003
    outer loop
      vertex  4.251723e-001 -3.750000e+000  4.527264e+000
      vertex  3.290346e-001 -3.303694e+000  3.122307e+000
      vertex  2.337366e-001 -2.788466e+000  3.484754e+000
    endloop
  endfacet
  facet normal  9.905822e-001  1.123115e-001 -7.831240e-002
    outer loop
      vertex  4.251723e-001 -3.750000e+000  4.527264e+000
      vertex  2.337366e-001 -2.788466e+000  3.484754e+000
      vertex  0.000000e+000  2.051216e-015  4.527264e+000
    endloop
  endfacet
  facet normal  9.973944e-001 -7.182374e-002  6.768596e-003
    outer loop
      vertex  8.271253e-002  1.662537e+000  1.980771e+000
      vertex  6.729938e-002  1.500000e+000  2.527264e+000
      vertex  0.000000e+000  2.051216e-015 -3.472736e+000
    endloop
  endfacet
  facet normal  9.989950e-001 -4.482116e-002  0.000000e+000
    outer loop
      vertex  0.000000e+000  2.051216e-015  4.527264e+000
      vertex  0.000000e+000  2.051216e-015 -3.472736e+000
      vertex  6.729938e-002  1.500000e+000  2.527264e+000
    endloop
  endfacet
  facet normal  9.982046e-001 -5.894722e-002 -1.062114e-002
    outer loop
      vertex  0.000000e+000  2.051216e-015  4.527264e+000
      vertex  6.729938e-002  1.500000e+000  2.527264e+000
      vertex  8.271253e-002  1.662537e+000  3.073758e+000
    endloop
  endfacet
  facet normal  9.957535e-001 -8.347581e-002 -3.881668e-002
    outer loop
      vertex  0.000000e+000  2.051216e-015  4.527264e+000
      vertex  8.271253e-002  1.662537e+000  3.073758e+000
      vertex  1.395166e-001  2.157392e+000  3.466743e+000
    endloop
  endfacet
  facet normal  9.888524e-001 -1.121154e-001 -9.798529e-002
    outer loop
      vertex  0.000000e+000  2.051216e-015  4.527264e+000
      vertex  1.395166e-001  2.157392e+000  3.466743e+000
      vertex  4.251723e-001  3.750000e+000  4.527264e+000
    endloop
  endfacet
  facet normal  9.762995e-001 -2.164242e-001  0.000000e+000
    outer loop
      vertex  4.251723e-001  3.750000e+000 -3.472736e+000
      vertex  4.251723e-001  3.750000e+000  4.527264e+000
      vertex  3.697527e-001  3.500000e+000  2.527264e+000
    endloop
  endfacet
  facet normal  9.788457e-001 -2.045989e-001  5.162432e-004
    outer loop
      vertex  4.251723e-001  3.750000e+000 -3.472736e+000
      vertex  3.697527e-001  3.500000e+000  2.527264e+000
      vertex  3.290346e-001  3.303694e+000  1.932222e+000
    endloop
  endfacet
  facet normal  9.830234e-001 -1.834658e-001  2.335582e-003
    outer loop
      vertex  4.251723e-001  3.750000e+000 -3.472736e+000
      vertex  3.290346e-001  3.303694e+000  1.932222e+000
      vertex  2.337366e-001  2.788466e+000  1.569774e+000
    endloop
  endfacet
  facet normal  9.890327e-001 -1.473942e-001  9.442055e-003
    outer loop
      vertex  4.251723e-001  3.750000e+000 -3.472736e+000
      vertex  2.337366e-001  2.788466e+000  1.569774e+000
      vertex  1.395166e-001  2.157392e+000  1.587786e+000
    endloop
  endfacet
  facet normal  9.953162e-001 -9.283607e-002  2.696684e-002
    outer loop
      vertex  4.251723e-001  3.750000e+000 -3.472736e+000
      vertex  1.395166e-001  2.157392e+000  1.587786e+000
      vertex  8.271253e-002  1.662537e+000  1.980771e+000
    endloop
  endfacet
  facet normal  9.934494e-001 -1.126366e-001  1.927049e-002
    outer loop
      vertex  4.251723e-001  3.750000e+000 -3.472736e+000
      vertex  8.271253e-002  1.662537e+000  1.980771e+000
      vertex  0.000000e+000  2.051216e-015 -3.472736e+000
    endloop
  endfacet
  facet normal  9.881561e-001 -1.462025e-001 -4.660831e-002
    outer loop
      vertex  4.251723e-001  3.750000e+000  4.527264e+000
      vertex  1.395166e-001  2.157392e+000  3.466743e+000
      vertex  2.337366e-001  2.788466e+000  3.484754e+000
    endloop
  endfacet
  facet normal  9.823004e-001 -1.871514e-001 -7.764864e-003
    outer loop
      vertex  4.251723e-001  3.750000e+000  4.527264e+000
      vertex  2.337366e-001  2.788466e+000  3.484754e+000
      vertex  3.290346e-001  3.303694e+000  3.122307e+000
    endloop
  endfacet
  facet normal  9.783884e-001 -2.067719e-001 -1.264427e-003
    outer loop
      vertex  4.251723e-001  3.750000e+000  4.527264e+000
      vertex  3.290346e-001  3.303694e+000  3.122307e+000
      vertex  3.697527e-001  3.500000e+000  2.527264e+000
    endloop
  endfacet
  facet normal  4.523907e-002  3.822916e-001 -9.229336e-001
    outer loop
      vertex  1.800000e+000 -1.792893e+000  1.820157e+000
      vertex  1.800000e+000 -2.500000e+000  1.527264e+000
      vertex  1.395166e-001 -2.157392e+000  1.587786e+000
    endloop
  endfacet
  facet normal -3.150596e-002  2.381480e-002 -9.992198e-001
    outer loop
      vertex  1.395166e-001 -2.157392e+000  1.587786e+000
      vertex  1.800000e+000 -2.500000e+000  1.527264e+000
      vertex  2.337366e-001 -2.788466e+000  1.569774e+000
    endloop
  endfacet
  facet normal  4.535889e-002 -3.822895e-001 -9.229287e-001
    outer loop
      vertex  2.337366e-001 -2.788466e+000  1.569774e+000
      vertex  1.800000e+000 -2.500000e+000  1.527264e+000
      vertex  1.800000e+000 -3.207107e+000  1.820157e+000
    endloop
  endfacet
  facet normal  0.000000e+000  9.585049e-001 -2.850761e-001
    outer loop
      vertex  6.729938e-002 -1.500000e+000  2.527264e+000
      vertex  1.800000e+000 -1.500000e+000  2.527264e+000
      vertex  8.271253e-002 -1.662537e+000  1.980771e+000
    endloop
  endfacet
  facet normal  3.431858e-002  9.233354e-001 -3.824580e-001
    outer loop
      vertex  8.271253e-002 -1.662537e+000  1.980771e+000
      vertex  1.800000e+000 -1.500000e+000  2.527264e+000
      vertex  1.800000e+000 -1.792893e+000  1.820157e+000
    endloop
  endfacet
  facet normal -2.630355e-002  6.198248e-001 -7.842993e-001
    outer loop
      vertex  8.271253e-002 -1.662537e+000  1.980771e+000
      vertex  1.800000e+000 -1.792893e+000  1.820157e+000
      vertex  1.395166e-001 -2.157392e+000  1.587786e+000
    endloop
  endfacet
  facet normal  0.000000e+000 -9.238795e-001 -3.826833e-001
    outer loop
      vertex  1.800000e+000 -3.500000e+000  2.527264e+000
      vertex  3.697527e-001 -3.500000e+000  2.527264e+000
      vertex  1.800000e+000 -3.207107e+000  1.820157e+000
    endloop
  endfacet
  facet normal  3.822977e-002 -9.481808e-001 -3.154229e-001
    outer loop
      vertex  1.800000e+000 -3.207107e+000  1.820157e+000
      vertex  3.697527e-001 -3.500000e+000  2.527264e+000
      vertex  3.290346e-001 -3.303694e+000  1.932222e+000
    endloop
  endfacet
  facet normal -2.416685e-002 -5.781841e-001 -8.155484e-001
    outer loop
      vertex  1.800000e+000 -3.207107e+000  1.820157e+000
      vertex  3.290346e-001 -3.303694e+000  1.932222e+000
      vertex  2.337366e-001 -2.788466e+000  1.569774e+000
    endloop
  endfacet
  facet normal  4.535889e-002 -3.822895e-001  9.229287e-001
    outer loop
      vertex  1.800000e+000 -3.207107e+000  3.234371e+000
      vertex  1.800000e+000 -2.500000e+000  3.527264e+000
      vertex  2.337366e-001 -2.788466e+000  3.484754e+000
    endloop
  endfacet
  facet normal -3.150593e-002  2.381461e-002  9.992198e-001
    outer loop
      vertex  1.395166e-001 -2.157392e+000  3.466743e+000
      vertex  2.337366e-001 -2.788466e+000  3.484754e+000
      vertex  1.800000e+000 -2.500000e+000  3.527264e+000
    endloop
  endfacet
  facet normal  4.523914e-002  3.822916e-001  9.229336e-001
    outer loop
      vertex  1.800000e+000 -2.500000e+000  3.527264e+000
      vertex  1.800000e+000 -1.792893e+000  3.234371e+000
      vertex  1.395166e-001 -2.157392e+000  3.466743e+000
    endloop
  endfacet
  facet normal  0.000000e+000 -9.496563e-001  3.132936e-001
    outer loop
      vertex  3.697527e-001 -3.500000e+000  2.527264e+000
      vertex  1.800000e+000 -3.500000e+000  2.527264e+000
      vertex  3.290346e-001 -3.303694e+000  3.122307e+000
    endloop
  endfacet
  facet normal  3.149427e-002 -9.234212e-001  3.824935e-001
    outer loop
      vertex  3.290346e-001 -3.303694e+000  3.122307e+000
      vertex  1.800000e+000 -3.500000e+000  2.527264e+000
      vertex  1.800000e+000 -3.207107e+000  3.234371e+000
    endloop
  endfacet
  facet normal -2.416685e-002 -5.781841e-001  8.155484e-001
    outer loop
      vertex  3.290346e-001 -3.303694e+000  3.122307e+000
      vertex  1.800000e+000 -3.207107e+000  3.234371e+000
      vertex  2.337366e-001 -2.788466e+000  3.484754e+000
    endloop
  endfacet
  facet normal  -0.000000e+000  9.238796e-001  3.826833e-001
    outer loop
      vertex  1.800000e+000 -1.500000e+000  2.527264e+000
      vertex  6.729938e-002 -1.500000e+000  2.527264e+000
      vertex  1.800000e+000 -1.792893e+000  3.234371e+000
    endloop
  endfacet
  facet normal  4.618583e-002  9.578372e-001  2.835749e-001
    outer loop
      vertex  1.800000e+000 -1.792893e+000  3.234371e+000
      vertex  6.729938e-002 -1.500000e+000  2.527264e+000
      vertex  8.271253e-002 -1.662537e+000  3.073758e+000
    endloop
  endfacet
  facet normal -2.630353e-002  6.198249e-001  7.842992e-001
    outer loop
      vertex  1.800000e+000 -1.792893e+000  3.234371e+000
      vertex  8.271253e-002 -1.662537e+000  3.073758e+000
      vertex  1.395166e-001 -2.157392e+000  3.466743e+000
    endloop
  endfacet
  facet normal  4.523914e-002 -3.822916e-001  9.229336e-001
    outer loop
      vertex  1.800000e+000  1.792893e+000  3.234371e+000
      vertex  1.800000e+000  2.500000e+000  3.527264e+000
      vertex  1.395166e-001  2.157392e+000  3.466743e+000
    endloop
  endfacet
  facet normal -3.150593e-002 -2.381461e-002  9.992198e-001
    outer loop
      vertex  1.395166e-001  2.157392e+000  3.466743e+000
      vertex  1.800000e+000  2.500000e+000  3.527264e+000
      vertex  2.337366e-001  2.788466e+000  3.484754e+000
    endloop
  endfacet
  facet normal  4.535889e-002  3.822895e-001  9.229287e-001
    outer loop
      vertex  2.337366e-001  2.788466e+000  3.484754e+000
      vertex  1.800000e+000  2.500000e+000  3.527264e+000
      vertex  1.800000e+000  3.207107e+000  3.234371e+000
    endloop
  endfacet
  facet normal  0.000000e+000 -9.585049e-001  2.850761e-001
    outer loop
      vertex  6.729938e-002  1.500000e+000  2.527264e+000
      vertex  1.800000e+000  1.500000e+000  2.527264e+000
      vertex  8.271253e-002  1.662537e+000  3.073758e+000
    endloop
  endfacet
  facet normal  3.431858e-002 -9.233354e-001  3.824580e-001
    outer loop
      vertex  8.271253e-002  1.662537e+000  3.073758e+000
      vertex  1.800000e+000  1.500000e+000  2.527264e+000
      vertex  1.800000e+000  1.792893e+000  3.234371e+000
    endloop
  endfacet
  facet normal -2.630353e-002 -6.198249e-001  7.842992e-001
    outer loop
      vertex  8.271253e-002  1.662537e+000  3.073758e+000
      vertex  1.800000e+000  1.792893e+000  3.234371e+000
      vertex  1.395166e-001  2.157392e+000  3.466743e+000
    endloop
  endfacet
  facet normal  -0.000000e+000  9.238795e-001  3.826833e-001
    outer loop
      vertex  1.800000e+000  3.500000e+000  2.527264e+000
      vertex  3.697527e-001  3.500000e+000  2.527264e+000
      vertex  1.800000e+000  3.207107e+000  3.234371e+000
    endloop
  endfacet
  facet normal  3.822977e-002  9.481808e-001  3.154229e-001
    outer loop
      vertex  1.800000e+000  3.207107e+000  3.234371e+000
      vertex  3.697527e-001  3.500000e+000  2.527264e+000
      vertex  3.290346e-001  3.303694e+000  3.122307e+000
    endloop
  endfacet
  facet normal -2.416685e-002  5.781841e-001  8.155484e-001
    outer loop
      vertex  1.800000e+000  3.207107e+000  3.234371e+000
      vertex  3.290346e-001  3.303694e+000  3.122307e+000
      vertex  2.337366e-001  2.788466e+000  3.484754e+000
    endloop
  endfacet
  facet normal  4.535889e-002  3.822895e-001 -9.229287e-001
    outer loop
      vertex  1.800000e+000  3.207107e+000  1.820157e+000
      vertex  1.800000e+000  2.500000e+000  1.527264e+000
      vertex  2.337366e-001  2.788466e+000  1.569774e+000
    endloop
  endfacet
  facet normal -3.150596e-002 -2.381480e-002 -9.992198e-001
    outer loop
      vertex  1.395166e-001  2.157392e+000  1.587786e+000
      vertex  2.337366e-001  2.788466e+000  1.569774e+000
      vertex  1.800000e+000  2.500000e+000  1.527264e+000
    endloop
  endfacet
  facet normal  4.523907e-002 -3.822916e-001 -9.229336e-001
    outer loop
      vertex  1.800000e+000  2.500000e+000  1.527264e+000
      vertex  1.800000e+000  1.792893e+000  1.820157e+000
      vertex  1.395166e-001  2.157392e+000  1.587786e+000
    endloop
  endfacet
  facet normal  0.000000e+000  9.496563e-001 -3.132936e-001
    outer loop
      vertex  3.697527e-001  3.500000e+000  2.527264e+000
      vertex  1.800000e+000  3.500000e+000  2.527264e+000
      vertex  3.290346e-001  3.303694e+000  1.932222e+000
    endloop
  endfacet
  facet normal  3.149427e-002  9.234212e-001 -3.824935e-001
    outer loop
      vertex  3.290346e-001  3.303694e+000  1.932222e+000
      vertex  1.800000e+000  3.500000e+000  2.527264e+000
      vertex  1.800000e+000  3.207107e+000  1.820157e+000
    endloop
  endfacet
  facet normal -2.416685e-002  5.781841e-001 -8.155484e-001
    outer loop
      vertex  3.290346e-001  3.303694e+000  1.932222e+000
      vertex  1.800000e+000  3.207107e+000  1.820157e+000
      vertex  2.337366e-001  2.788466e+000  1.569774e+000
    endloop
  endfacet
  facet normal  0.000000e+000 -9.238796e-001 -3.826833e-001
    outer loop
      vertex  1.800000e+000  1.500000e+000  2.527264e+000
      vertex  6.729938e-002  1.500000e+000  2.527264e+000
      vertex  1.800000e+000  1.792893e+000  1.820157e+000
    endloop
  endfacet
  facet normal  4.618583e-002 -9.578372e-001 -2.835749e-001
    outer loop
      vertex  1.800000e+000  1.792893e+000  1.820157e+000
      vertex  6.729938e-002  1.500000e+000  2.527264e+000
      vertex  8.271253e-002  1.662537e+000  1.980771e+000
    endloop
  endfacet
  facet normal -2.630355e-002 -6.198248e-001 -7.842993e-001
    outer loop
      vertex  1.800000e+000  1.792893e+000  1.820157e+000
      vertex  8.271253e-002  1.662537e+000  1.980771e+000
      vertex  1.395166e-001  2.157392e+000  1.587786e+000
    endloop
  endfacet
  facet normal  1.000000e+000  0.000000e+000  0.000000e+000
    outer loop
      vertex  1.800000e+000 -3.207107e+000  3.234371e+000
      vertex  1.800000e+000 -1.792893e+000  3.234371e+000
      vertex  1.800000e+000 -2.500000e+000  3.527264e+000
    endloop
  endfacet
  facet normal  1.000000e+000  -0.000000e+000  0.000000e+000
    outer loop
      vertex  1.800000e+000 -1.792893e+000  3.234371e+000
      vertex  1.800000e+000 -3.207107e+000  3.234371e+000
      vertex  1.800000e+000 -1.500000e+000  2.527264e+000
    endloop
  endfacet
  facet normal  9.999999e-001  0.000000e+000  0.000000e+000
    outer loop
      vertex  1.800000e+000 -1.500000e+000  2.527264e+000
      vertex  1.800000e+000 -3.207107e+000  3.234371e+000
      vertex  1.800000e+000 -3.500000e+000  2.527264e+000
    endloop
  endfacet
  facet normal  9.999999e-001  -0.000000e+000  0.000000e+000
    outer loop
      vertex  1.800000e+000 -1.500000e+000  2.527264e+000
      vertex  1.800000e+000 -3.500000e+000  2.527264e+000
      vertex  1.800000e+000 -1.792893e+000  1.820157e+000
    endloop
  endfacet
  facet normal  1.000000e+000  0.000000e+000  0.000000e+000
    outer loop
      vertex  1.800000e+000 -1.792893e+000  1.820157e+000
      vertex  1.800000e+000 -3.500000e+000  2.527264e+000
      vertex  1.800000e+000 -3.207107e+000  1.820157e+000
    endloop
  endfacet
  facet normal  1.000000e+000  -0.000000e+000  0.000000e+000
    outer loop
      vertex  1.800000e+000 -1.792893e+000  1.820157e+000
      vertex  1.800000e+000 -3.207107e+000  1.820157e+000
      vertex  1.800000e+000 -2.500000e+000  1.527264e+000
    endloop
  endfacet
  facet normal  1.000000e+000  0.000000e+000  0.000000e+000
    outer loop
      vertex  1.800000e+000  1.792893e+000  3.234371e+000
      vertex  1.800000e+000  3.207107e+000  3.234371e+000
      vertex  1.800000e+000  2.500000e+000  3.527264e+000
    endloop
  endfacet
  facet normal  1.000000e+000  -0.000000e+000  0.000000e+000
    outer loop
      vertex  1.800000e+000  3.207107e+000  3.234371e+000
      vertex  1.800000e+000  1.792893e+000  3.234371e+000
      vertex  1.800000e+000  3.500000e+000  2.527264e+000
    endloop
  endfacet
  facet normal  9.999999e-001  0.000000e+000  0.000000e+000
    outer loop
      vertex  1.800000e+000  3.500000e+000  2.527264e+000
      vertex  1.800000e+000  1.792893e+000  3.234371e+000
      vertex  1.800000e+000  1.500000e+000  2.527264e+000
    endloop
  endfacet
  facet normal  9.999999e-001  -0.000000e+000  0.000000e+000
    outer loop
      vertex  1.800000e+000  3.500000e+000  2.527264e+000
      vertex  1.800000e+000  1.500000e+000  2.527264e+000
      vertex  1.800000e+000  3.207107e+000  1.820157e+000
    endloop
  endfacet
  facet normal  1.000000e+000  0.000000e+000  0.000000e+000
    outer loop
      vertex  1.800000e+000  3.207107e+000  1.820157e+000
      vertex  1.800000e+000  1.500000e+000  2.527264e+000
      vertex  1.800000e+000  1.792893e+000  1.820157e+000
    endloop
  endfacet
  facet normal  1.000000e+000  -0.000000e+000  0.000000e+000
    outer loop
      vertex  1.800000e+000  3.207107e+000  1.820157e+000
      vertex  1.800000e+000  1.792893e+000  1.820157e+000
      vertex  1.800000e+000  2.500000e+000  1.527264e+000
    endloop
  endfacet
endsolid CATIA STL
