solid CATIA STL
  facet normal  2.743978e-017  9.238796e-001 -3.826835e-001
    outer loop
      vertex  5.000000e-001  1.099017e+001 -5.878111e-016
      vertex  1.102032e+001  1.099017e+001  1.665335e-016
      vertex  5.000000e-001  1.028722e+001 -1.697056e+000
    endloop
  endfacet
  facet normal -1.987712e-002  9.612548e-001 -2.749435e-001
    outer loop
      vertex  5.000000e-001  1.028722e+001 -1.697056e+000
      vertex  1.102032e+001  1.099017e+001  1.665335e-016
      vertex  1.105240e+001  1.062840e+001 -1.267125e+000
    endloop
  endfacet
  facet normal  7.897068e-003  6.798366e-001 -7.333211e-001
    outer loop
      vertex  5.000000e-001  1.028722e+001 -1.697056e+000
      vertex  1.105240e+001  1.062840e+001 -1.267125e+000
      vertex  1.066051e+001  9.710086e+000 -2.122683e+000
    endloop
  endfacet
  facet normal -1.696195e-002  3.826285e-001 -9.237466e-001
    outer loop
      vertex  5.000000e-001  1.028722e+001 -1.697056e+000
      vertex  1.066051e+001  9.710086e+000 -2.122683e+000
      vertex  5.000000e-001  8.590168e+000 -2.400000e+000
    endloop
  endfacet
  facet normal -4.250987e-003  2.765313e-001 -9.609955e-001
    outer loop
      vertex  5.000000e-001  8.590168e+000 -2.400000e+000
      vertex  1.066051e+001  9.710086e+000 -2.122683e+000
      vertex  1.050232e+001  8.766460e+000 -2.393517e+000
    endloop
  endfacet
  facet normal  1.192105e-003 -3.087682e-002 -9.995224e-001
    outer loop
      vertex  5.000000e-001  8.590168e+000 -2.400000e+000
      vertex  1.050232e+001  8.766460e+000 -2.393517e+000
      vertex  1.051057e+001  8.266380e+000 -2.378058e+000
    endloop
  endfacet
  facet normal -1.035218e-002 -3.826630e-001 -9.238300e-001
    outer loop
      vertex  5.000000e-001  8.590168e+000 -2.400000e+000
      vertex  1.051057e+001  8.266380e+000 -2.378058e+000
      vertex  5.000000e-001  6.893112e+000 -1.697056e+000
    endloop
  endfacet
  facet normal -1.274477e-002 -3.681270e-001 -9.296882e-001
    outer loop
      vertex  5.000000e-001  6.893112e+000 -1.697056e+000
      vertex  1.051057e+001  8.266380e+000 -2.378058e+000
      vertex  1.076892e+001  7.209535e+000 -1.963123e+000
    endloop
  endfacet
  facet normal  5.941043e-003 -7.494662e-001 -6.620160e-001
    outer loop
      vertex  5.000000e-001  6.893112e+000 -1.697056e+000
      vertex  1.076892e+001  7.209535e+000 -1.963123e+000
      vertex  1.111408e+001  6.467530e+000 -1.120004e+000
    endloop
  endfacet
  facet normal  0.000000e+000 -9.706782e-001 -2.403826e-001
    outer loop
      vertex  1.104587e+001  6.190168e+000  2.939055e-016
      vertex  5.000000e-001  6.190168e+000  2.939055e-016
      vertex  1.111408e+001  6.467530e+000 -1.120004e+000
    endloop
  endfacet
  facet normal -1.623645e-002 -9.237578e-001 -3.826330e-001
    outer loop
      vertex  1.111408e+001  6.467530e+000 -1.120004e+000
      vertex  5.000000e-001  6.190168e+000  2.939055e-016
      vertex  5.000000e-001  6.893112e+000 -1.697056e+000
    endloop
  endfacet
  facet normal -1.642127e-002  3.826320e-001  9.237550e-001
    outer loop
      vertex  5.000000e-001  8.590168e+000  2.400000e+000
      vertex  1.050000e+001  9.227106e+000  2.313938e+000
      vertex  5.000000e-001  1.028722e+001  1.697056e+000
    endloop
  endfacet
  facet normal  5.549222e-004  5.068512e-001  8.620334e-001
    outer loop
      vertex  1.050000e+001  1.030251e+001  1.681630e+000
      vertex  5.000000e-001  1.028722e+001  1.697056e+000
      vertex  1.050000e+001  9.227106e+000  2.313938e+000
    endloop
  endfacet
  facet normal  0.000000e+000 -9.238795e-001  3.826835e-001
    outer loop
      vertex  5.000000e-001  6.190168e+000  2.939055e-016
      vertex  1.104587e+001  6.190168e+000  2.939055e-016
      vertex  5.000000e-001  6.893112e+000  1.697056e+000
    endloop
  endfacet
  facet normal -2.899661e-002 -9.743006e-001  2.233774e-001
    outer loop
      vertex  5.000000e-001  6.893112e+000  1.697056e+000
      vertex  1.104587e+001  6.190168e+000  2.939055e-016
      vertex  1.064042e+001  6.452278e+000  1.090609e+000
    endloop
  endfacet
  facet normal  8.737444e-005 -8.081796e-001  5.889360e-001
    outer loop
      vertex  5.000000e-001  6.893112e+000  1.697056e+000
      vertex  1.064042e+001  6.452278e+000  1.090609e+000
      vertex  1.050000e+001  6.897072e+000  1.701008e+000
    endloop
  endfacet
  facet normal -2.134986e-004 -3.826835e-001  9.238795e-001
    outer loop
      vertex  5.000000e-001  6.893112e+000  1.697056e+000
      vertex  1.050000e+001  6.897072e+000  1.701008e+000
      vertex  5.000000e-001  8.590168e+000  2.400000e+000
    endloop
  endfacet
  facet normal -2.348705e-002 -4.968714e-001  8.675063e-001
    outer loop
      vertex  5.000000e-001  8.590168e+000  2.400000e+000
      vertex  1.050000e+001  6.897072e+000  1.701008e+000
      vertex  1.050000e+001  7.979605e+000  2.321037e+000
    endloop
  endfacet
  facet normal  8.243333e-003  5.690220e-003  9.999499e-001
    outer loop
      vertex  5.000000e-001  8.590168e+000  2.400000e+000
      vertex  1.050000e+001  7.979605e+000  2.321037e+000
      vertex  1.050000e+001  9.227106e+000  2.313938e+000
    endloop
  endfacet
  facet normal -8.220468e-004  9.238792e-001  3.826834e-001
    outer loop
      vertex  5.000000e-001  1.028722e+001  1.697056e+000
      vertex  1.050000e+001  1.030251e+001  1.681630e+000
      vertex  5.000000e-001  1.099017e+001 -5.878111e-016
    endloop
  endfacet
  facet normal -4.348514e-002  8.072015e-001  5.886720e-001
    outer loop
      vertex  5.000000e-001  1.099017e+001 -5.878111e-016
      vertex  1.050000e+001  1.030251e+001  1.681630e+000
      vertex  1.060981e+001  1.069840e+001  1.146887e+000
    endloop
  endfacet
  facet normal  0.000000e+000  9.691313e-001  2.465453e-001
    outer loop
      vertex  5.000000e-001  1.099017e+001 -5.878111e-016
      vertex  1.060981e+001  1.069840e+001  1.146887e+000
      vertex  1.102032e+001  1.099017e+001  1.665335e-016
    endloop
  endfacet
  facet normal -1.000000e+000  0.000000e+000  0.000000e+000
    outer loop
      vertex  0.000000e+000  8.590168e+000  1.900000e+000
      vertex  0.000000e+000  9.933671e+000  1.343503e+000
      vertex  0.000000e+000  7.246665e+000  1.343503e+000
    endloop
  endfacet
  facet normal -1.000000e+000  0.000000e+000  0.000000e+000
    outer loop
      vertex  0.000000e+000  8.590168e+000 -1.900000e+000
      vertex  0.000000e+000  7.246665e+000 -1.343503e+000
      vertex  0.000000e+000  9.933671e+000 -1.343503e+000
    endloop
  endfacet
  facet normal -1.000000e+000  0.000000e+000  0.000000e+000
    outer loop
      vertex  0.000000e+000  9.933671e+000 -1.343503e+000
      vertex  0.000000e+000  7.246665e+000 -1.343503e+000
      vertex  0.000000e+000  6.690168e+000 -7.647419e-016
    endloop
  endfacet
  facet normal -9.999999e-001  0.000000e+000  0.000000e+000
    outer loop
      vertex  0.000000e+000  9.933671e+000 -1.343503e+000
      vertex  0.000000e+000  6.690168e+000 -7.647419e-016
      vertex  0.000000e+000  1.049017e+001  1.068541e-015
    endloop
  endfacet
  facet normal -9.999999e-001  -0.000000e+000  0.000000e+000
    outer loop
      vertex  0.000000e+000  1.049017e+001  1.068541e-015
      vertex  0.000000e+000  6.690168e+000 -7.647419e-016
      vertex  0.000000e+000  7.246665e+000  1.343503e+000
    endloop
  endfacet
  facet normal -1.000000e+000  0.000000e+000  0.000000e+000
    outer loop
      vertex  0.000000e+000  1.049017e+001  1.068541e-015
      vertex  0.000000e+000  7.246665e+000  1.343503e+000
      vertex  0.000000e+000  9.933671e+000  1.343503e+000
    endloop
  endfacet
  facet normal -6.785983e-001 -6.785983e-001 -2.810847e-001
    outer loop
      vertex  5.000000e-001  6.190168e+000  2.939055e-016
      vertex  0.000000e+000  6.690168e+000 -7.647419e-016
      vertex  5.000000e-001  6.893112e+000 -1.697056e+000
    endloop
  endfacet
  facet normal -6.785983e-001 -6.785985e-001 -2.810847e-001
    outer loop
      vertex  5.000000e-001  6.893112e+000 -1.697056e+000
      vertex  0.000000e+000  6.690168e+000 -7.647419e-016
      vertex  0.000000e+000  7.246665e+000 -1.343503e+000
    endloop
  endfacet
  facet normal -6.785983e-001 -2.810847e-001 -6.785983e-001
    outer loop
      vertex  5.000000e-001  6.893112e+000 -1.697056e+000
      vertex  0.000000e+000  7.246665e+000 -1.343503e+000
      vertex  5.000000e-001  8.590168e+000 -2.400000e+000
    endloop
  endfacet
  facet normal -6.785985e-001 -2.810846e-001 -6.785983e-001
    outer loop
      vertex  5.000000e-001  8.590168e+000 -2.400000e+000
      vertex  0.000000e+000  7.246665e+000 -1.343503e+000
      vertex  0.000000e+000  8.590168e+000 -1.900000e+000
    endloop
  endfacet
  facet normal -6.785984e-001  2.810847e-001 -6.785983e-001
    outer loop
      vertex  5.000000e-001  8.590168e+000 -2.400000e+000
      vertex  0.000000e+000  8.590168e+000 -1.900000e+000
      vertex  5.000000e-001  1.028722e+001 -1.697056e+000
    endloop
  endfacet
  facet normal -6.785982e-001  2.810847e-001 -6.785985e-001
    outer loop
      vertex  5.000000e-001  1.028722e+001 -1.697056e+000
      vertex  0.000000e+000  8.590168e+000 -1.900000e+000
      vertex  0.000000e+000  9.933671e+000 -1.343503e+000
    endloop
  endfacet
  facet normal -6.785979e-001  6.785987e-001 -2.810848e-001
    outer loop
      vertex  5.000000e-001  1.028722e+001 -1.697056e+000
      vertex  0.000000e+000  9.933671e+000 -1.343503e+000
      vertex  5.000000e-001  1.099017e+001 -5.878111e-016
    endloop
  endfacet
  facet normal -6.785985e-001  6.785985e-001 -2.810844e-001
    outer loop
      vertex  5.000000e-001  1.099017e+001 -5.878111e-016
      vertex  0.000000e+000  9.933671e+000 -1.343503e+000
      vertex  0.000000e+000  1.049017e+001  1.068541e-015
    endloop
  endfacet
  facet normal -6.785983e-001  6.785983e-001  2.810847e-001
    outer loop
      vertex  5.000000e-001  1.099017e+001 -5.878111e-016
      vertex  0.000000e+000  1.049017e+001  1.068541e-015
      vertex  5.000000e-001  1.028722e+001  1.697056e+000
    endloop
  endfacet
  facet normal -6.785979e-001  6.785988e-001  2.810846e-001
    outer loop
      vertex  5.000000e-001  1.028722e+001  1.697056e+000
      vertex  0.000000e+000  1.049017e+001  1.068541e-015
      vertex  0.000000e+000  9.933671e+000  1.343503e+000
    endloop
  endfacet
  facet normal -6.785982e-001  2.810848e-001  6.785984e-001
    outer loop
      vertex  5.000000e-001  1.028722e+001  1.697056e+000
      vertex  0.000000e+000  9.933671e+000  1.343503e+000
      vertex  5.000000e-001  8.590168e+000  2.400000e+000
    endloop
  endfacet
  facet normal -6.785985e-001  2.810846e-001  6.785983e-001
    outer loop
      vertex  5.000000e-001  8.590168e+000  2.400000e+000
      vertex  0.000000e+000  9.933671e+000  1.343503e+000
      vertex  0.000000e+000  8.590168e+000  1.900000e+000
    endloop
  endfacet
  facet normal -6.785984e-001 -2.810846e-001  6.785983e-001
    outer loop
      vertex  5.000000e-001  8.590168e+000  2.400000e+000
      vertex  0.000000e+000  8.590168e+000  1.900000e+000
      vertex  5.000000e-001  6.893112e+000  1.697056e+000
    endloop
  endfacet
  facet normal -6.785983e-001 -2.810846e-001  6.785983e-001
    outer loop
      vertex  5.000000e-001  6.893112e+000  1.697056e+000
      vertex  0.000000e+000  8.590168e+000  1.900000e+000
      vertex  0.000000e+000  7.246665e+000  1.343503e+000
    endloop
  endfacet
  facet normal -6.785983e-001 -6.785984e-001  2.810847e-001
    outer loop
      vertex  5.000000e-001  6.893112e+000  1.697056e+000
      vertex  0.000000e+000  7.246665e+000  1.343503e+000
      vertex  5.000000e-001  6.190168e+000  2.939055e-016
    endloop
  endfacet
  facet normal -6.785983e-001 -6.785983e-001  2.810846e-001
    outer loop
      vertex  5.000000e-001  6.190168e+000  2.939055e-016
      vertex  0.000000e+000  7.246665e+000  1.343503e+000
      vertex  0.000000e+000  6.690168e+000 -7.647419e-016
    endloop
  endfacet
  facet normal -8.961679e-001 -2.401203e-001 -3.731292e-001
    outer loop
      vertex  1.200000e+001  5.607853e+000  6.449658e+000
      vertex  1.235147e+001  4.760761e+000  6.150636e+000
      vertex  1.216077e+001  5.007835e+000  6.449658e+000
    endloop
  endfacet
  facet normal -8.194428e-001 -4.499258e-001 -3.550779e-001
    outer loop
      vertex  1.203839e+001  7.550319e+000 -3.431052e+000
      vertex  1.235147e+001  7.720170e+000 -4.368800e+000
      vertex  1.235147e+001  6.555282e+000 -2.892749e+000
    endloop
  endfacet
  facet normal -9.004213e-001 -3.888364e-001 -1.950580e-001
    outer loop
      vertex  1.203839e+001  7.550319e+000 -3.431052e+000
      vertex  1.235147e+001  6.555282e+000 -2.892749e+000
      vertex  1.227293e+001  6.036445e+000 -1.495896e+000
    endloop
  endfacet
  facet normal -8.826967e-001 -1.004301e-001 -4.590865e-001
    outer loop
      vertex  1.200037e+001  8.493820e+000 -3.862963e+000
      vertex  1.235147e+001  8.972561e+000 -4.642774e+000
      vertex  1.235147e+001  7.720170e+000 -4.368800e+000
    endloop
  endfacet
  facet normal -9.195061e-001 -1.936465e-001 -3.420667e-001
    outer loop
      vertex  1.200037e+001  8.493820e+000 -3.862963e+000
      vertex  1.235147e+001  7.720170e+000 -4.368800e+000
      vertex  1.203839e+001  7.550319e+000 -3.431052e+000
    endloop
  endfacet
  facet normal -8.852192e-001  2.716926e-001 -3.775847e-001
    outer loop
      vertex  1.200472e+001  9.079506e+000 -3.752880e+000
      vertex  1.235147e+001  9.961349e+000 -3.931288e+000
      vertex  1.235147e+001  8.972561e+000 -4.642774e+000
    endloop
  endfacet
  facet normal -9.258966e-001  7.641692e-002 -3.699673e-001
    outer loop
      vertex  1.200472e+001  9.079506e+000 -3.752880e+000
      vertex  1.235147e+001  8.972561e+000 -4.642774e+000
      vertex  1.200037e+001  8.493820e+000 -3.862963e+000
    endloop
  endfacet
  facet normal -9.192992e-001  3.132943e-001 -2.381922e-001
    outer loop
      vertex  1.200472e+001  9.079506e+000 -3.752880e+000
      vertex  1.219014e+001  1.073311e+001 -2.293536e+000
      vertex  1.235147e+001  9.961349e+000 -3.931288e+000
    endloop
  endfacet
  facet normal -4.559230e-001  5.198302e-001 -7.224339e-001
    outer loop
      vertex  1.235147e+001  9.961349e+000 -3.931288e+000
      vertex  1.320000e+001  9.657871e+000 -4.685156e+000
      vertex  1.235147e+001  8.972561e+000 -4.642774e+000
    endloop
  endfacet
  facet normal -9.263343e-001  3.758959e-001 -2.463828e-002
    outer loop
      vertex  1.200000e+001  1.137273e+001  2.732649e+000
      vertex  1.235147e+001  1.245316e+001  6.002003e+000
      vertex  1.217461e+001  1.167605e+001  7.956027e-001
    endloop
  endfacet
  facet normal -7.008979e-001 -7.009132e-001  1.321473e-001
    outer loop
      vertex  1.260000e+001  4.568614e+000  6.449657e+000
      vertex  1.216077e+001  5.007835e+000  6.449658e+000
      vertex  1.235147e+001  4.760761e+000  6.150636e+000
    endloop
  endfacet
  facet normal  9.274659e-001 -3.645237e-001 -8.324352e-002
    outer loop
      vertex  1.224261e+001  5.569157e+000  2.125795e-001
      vertex  1.227293e+001  6.036445e+000 -1.495896e+000
      vertex  1.235147e+001  6.555282e+000 -2.892749e+000
    endloop
  endfacet
  facet normal -6.563478e-001 -7.121308e-001 -2.491532e-001
    outer loop
      vertex  1.224261e+001  5.569157e+000  2.125795e-001
      vertex  1.235147e+001  6.555282e+000 -2.892749e+000
      vertex  1.235147e+001  5.383660e+000  4.559857e-001
    endloop
  endfacet
  facet normal -8.213514e-001 -5.667565e-001 -6.456722e-002
    outer loop
      vertex  1.224261e+001  5.569157e+000  2.125795e-001
      vertex  1.235147e+001  5.383660e+000  4.559857e-001
      vertex  1.202945e+001  5.653364e+000  2.185004e+000
    endloop
  endfacet
  facet normal -9.263114e-001 -3.760204e-001 -2.357180e-002
    outer loop
      vertex  1.200000e+001  5.607853e+000  6.449658e+000
      vertex  1.200000e+001  5.838889e+000  2.764138e+000
      vertex  1.235147e+001  4.760761e+000  6.150636e+000
    endloop
  endfacet
  facet normal -9.715936e-001 -2.352283e-001  2.595058e-002
    outer loop
      vertex  1.235147e+001  4.760761e+000  6.150636e+000
      vertex  1.200000e+001  5.838889e+000  2.764138e+000
      vertex  1.202945e+001  5.653364e+000  2.185004e+000
    endloop
  endfacet
  facet normal -8.169138e-001 -5.733401e-001 -6.271377e-002
    outer loop
      vertex  1.235147e+001  4.760761e+000  6.150636e+000
      vertex  1.202945e+001  5.653364e+000  2.185004e+000
      vertex  1.235147e+001  5.383660e+000  4.559857e-001
    endloop
  endfacet
  facet normal -4.725311e-001  8.738601e-001 -1.143807e-001
    outer loop
      vertex  1.217461e+001  1.167605e+001  7.956027e-001
      vertex  1.235147e+001  1.245316e+001  6.002003e+000
      vertex  1.223125e+001  1.162983e+001  2.084365e-001
    endloop
  endfacet
  facet normal -8.033621e-001  5.916630e-001 -6.741205e-002
    outer loop
      vertex  1.223125e+001  1.162983e+001  2.084365e-001
      vertex  1.235147e+001  1.245316e+001  6.002003e+000
      vertex  1.235147e+001  1.181064e+001  3.627328e-001
    endloop
  endfacet
  facet normal -7.104403e-001  6.661195e-001 -2.270669e-001
    outer loop
      vertex  1.223125e+001  1.162983e+001  2.084365e-001
      vertex  1.235147e+001  1.181064e+001  3.627328e-001
      vertex  1.219014e+001  1.073311e+001 -2.293536e+000
    endloop
  endfacet
  facet normal -8.739519e-001  4.665448e-001 -1.361769e-001
    outer loop
      vertex  1.219014e+001  1.073311e+001 -2.293536e+000
      vertex  1.235147e+001  1.181064e+001  3.627328e-001
      vertex  1.235147e+001  1.125477e+001 -1.541706e+000
    endloop
  endfacet
  facet normal -5.301911e-001  7.456549e-001 -4.036039e-001
    outer loop
      vertex  1.219014e+001  1.073311e+001 -2.293536e+000
      vertex  1.235147e+001  1.125477e+001 -1.541706e+000
      vertex  1.235147e+001  9.961349e+000 -3.931288e+000
    endloop
  endfacet
  facet normal -4.859777e-001  7.686021e-001 -4.160246e-001
    outer loop
      vertex  1.235147e+001  9.961349e+000 -3.931288e+000
      vertex  1.235147e+001  1.125477e+001 -1.541706e+000
      vertex  1.320000e+001  1.093621e+001 -3.121443e+000
    endloop
  endfacet
  facet normal -2.744562e-001  7.444848e-001 -6.086183e-001
    outer loop
      vertex  1.235147e+001  9.961349e+000 -3.931288e+000
      vertex  1.320000e+001  1.093621e+001 -3.121443e+000
      vertex  1.320000e+001  9.657871e+000 -4.685156e+000
    endloop
  endfacet
  facet normal -9.274762e-001  3.731363e-001 -2.360355e-002
    outer loop
      vertex  1.200000e+001  1.137273e+001  2.732649e+000
      vertex  1.200000e+001  1.160785e+001  6.449658e+000
      vertex  1.235147e+001  1.245316e+001  6.002003e+000
    endloop
  endfacet
  facet normal -9.326132e-001  2.498927e-001 -2.603582e-001
    outer loop
      vertex  1.235147e+001  1.245316e+001  6.002003e+000
      vertex  1.200000e+001  1.160785e+001  6.449658e+000
      vertex  1.216077e+001  1.220785e+001  6.449658e+000
    endloop
  endfacet
  facet normal -7.044901e-001  7.044917e-001  8.593684e-002
    outer loop
      vertex  1.235147e+001  1.245316e+001  6.002003e+000
      vertex  1.216077e+001  1.220785e+001  6.449658e+000
      vertex  1.260000e+001  1.264708e+001  6.449658e+000
    endloop
  endfacet
  facet normal -2.638713e-001  9.082007e-001 -3.248745e-001
    outer loop
      vertex  1.320000e+001  1.093621e+001 -3.121443e+000
      vertex  1.235147e+001  1.125477e+001 -1.541706e+000
      vertex  1.320000e+001  1.215097e+001  2.744729e-001
    endloop
  endfacet
  facet normal -3.826406e-001  8.868895e-001 -2.588687e-001
    outer loop
      vertex  1.320000e+001  1.215097e+001  2.744729e-001
      vertex  1.235147e+001  1.125477e+001 -1.541706e+000
      vertex  1.235147e+001  1.181064e+001  3.627328e-001
    endloop
  endfacet
  facet normal -3.795864e-001  9.191787e-001 -1.049986e-001
    outer loop
      vertex  1.320000e+001  1.215097e+001  2.744729e-001
      vertex  1.235147e+001  1.181064e+001  3.627328e-001
      vertex  1.320000e+001  1.280459e+001  5.996377e+000
    endloop
  endfacet
  facet normal -3.811327e-001  9.185773e-001 -1.046595e-001
    outer loop
      vertex  1.320000e+001  1.280459e+001  5.996377e+000
      vertex  1.235147e+001  1.181064e+001  3.627328e-001
      vertex  1.235147e+001  1.245316e+001  6.002003e+000
    endloop
  endfacet
  facet normal -3.826711e-001  9.238607e-001 -6.651494e-003
    outer loop
      vertex  1.320000e+001  1.280459e+001  5.996377e+000
      vertex  1.235147e+001  1.245316e+001  6.002003e+000
      vertex  1.320000e+001  1.280785e+001  6.449658e+000
    endloop
  endfacet
  facet normal -2.495713e-001  9.314123e-001 -2.649247e-001
    outer loop
      vertex  1.320000e+001  1.280785e+001  6.449658e+000
      vertex  1.235147e+001  1.245316e+001  6.002003e+000
      vertex  1.260000e+001  1.264708e+001  6.449658e+000
    endloop
  endfacet
  facet normal -2.588035e-001 -9.659188e-001 -4.649750e-003
    outer loop
      vertex  1.320000e+001  4.407853e+000  6.449658e+000
      vertex  1.260000e+001  4.568614e+000  6.449657e+000
      vertex  1.320000e+001  4.409312e+000  6.146546e+000
    endloop
  endfacet
  facet normal -3.701102e-001 -8.905048e-001 -2.646123e-001
    outer loop
      vertex  1.320000e+001  4.409312e+000  6.146546e+000
      vertex  1.260000e+001  4.568614e+000  6.449657e+000
      vertex  1.235147e+001  4.760761e+000  6.150636e+000
    endloop
  endfacet
  facet normal -3.811330e-001 -9.190262e-001 -1.006403e-001
    outer loop
      vertex  1.320000e+001  4.409312e+000  6.146546e+000
      vertex  1.235147e+001  4.760761e+000  6.150636e+000
      vertex  1.320000e+001  5.041070e+000  3.774673e-001
    endloop
  endfacet
  facet normal -3.804725e-001 -9.193090e-001 -1.005569e-001
    outer loop
      vertex  1.320000e+001  5.041070e+000  3.774673e-001
      vertex  1.235147e+001  4.760761e+000  6.150636e+000
      vertex  1.235147e+001  5.383660e+000  4.559857e-001
    endloop
  endfacet
  facet normal -3.806351e-001 -8.726217e-001 -3.060201e-001
    outer loop
      vertex  1.320000e+001  5.041070e+000  3.774673e-001
      vertex  1.235147e+001  5.383660e+000  4.559857e-001
      vertex  1.320000e+001  6.247318e+000 -3.062169e+000
    endloop
  endfacet
  facet normal -3.781752e-001 -8.737972e-001 -3.057154e-001
    outer loop
      vertex  1.320000e+001  6.247318e+000 -3.062169e+000
      vertex  1.235147e+001  5.383660e+000  4.559857e-001
      vertex  1.235147e+001  6.555282e+000 -2.892749e+000
    endloop
  endfacet
  facet normal -3.780004e-001 -7.242234e-001 -5.767288e-001
    outer loop
      vertex  1.320000e+001  6.247318e+000 -3.062169e+000
      vertex  1.235147e+001  6.555282e+000 -2.892749e+000
      vertex  1.320000e+001  7.515308e+000 -4.654439e+000
    endloop
  endfacet
  facet normal -3.698409e-001 -7.293306e-001 -5.755820e-001
    outer loop
      vertex  1.320000e+001  7.515308e+000 -4.654439e+000
      vertex  1.235147e+001  6.555282e+000 -2.892749e+000
      vertex  1.235147e+001  7.720170e+000 -4.368800e+000
    endloop
  endfacet
  facet normal -3.703771e-001 -3.163881e-001 -8.733381e-001
    outer loop
      vertex  1.320000e+001  7.515308e+000 -4.654439e+000
      vertex  1.235147e+001  7.720170e+000 -4.368800e+000
      vertex  1.320000e+001  8.608133e+000 -5.050342e+000
    endloop
  endfacet
  facet normal -4.892740e-001 -1.863801e-001 -8.519820e-001
    outer loop
      vertex  1.320000e+001  8.608133e+000 -5.050342e+000
      vertex  1.235147e+001  7.720170e+000 -4.368800e+000
      vertex  1.235147e+001  8.972561e+000 -4.642774e+000
    endloop
  endfacet
  facet normal -2.983114e-001  3.136082e-001 -9.014766e-001
    outer loop
      vertex  1.320000e+001  8.608133e+000 -5.050342e+000
      vertex  1.235147e+001  8.972561e+000 -4.642774e+000
      vertex  1.320000e+001  9.657871e+000 -4.685156e+000
    endloop
  endfacet
  facet normal -1.000000e+000  -0.000000e+000  0.000000e+000
    outer loop
      vertex  1.200000e+001  5.607853e+000  6.449658e+000
      vertex  1.200000e+001  7.598003e+000  3.771685e+000
      vertex  1.200000e+001  5.838889e+000  2.764138e+000
    endloop
  endfacet
  facet normal -1.000000e+000  0.000000e+000  0.000000e+000
    outer loop
      vertex  1.200000e+001  9.625193e+000  3.760149e+000
      vertex  1.200000e+001  1.160785e+001  6.449658e+000
      vertex  1.200000e+001  1.137273e+001  2.732649e+000
    endloop
  endfacet
  facet normal -1.000000e+000  0.000000e+000  -0.000000e+000
    outer loop
      vertex  1.200000e+001  5.779832e+000  9.641554e+000
      vertex  1.200000e+001  6.566049e+000  1.358125e+001
      vertex  1.200000e+001  1.127590e+001  1.083734e+001
    endloop
  endfacet
  facet normal -9.999999e-001  0.000000e+000  0.000000e+000
    outer loop
      vertex  1.200000e+001  1.127590e+001  1.083734e+001
      vertex  1.200000e+001  6.566049e+000  1.358125e+001
      vertex  1.200000e+001  7.078554e+000  1.493741e+001
    endloop
  endfacet
  facet normal -1.000000e+000  0.000000e+000  0.000000e+000
    outer loop
      vertex  1.200000e+001  1.127590e+001  1.083734e+001
      vertex  1.200000e+001  7.078554e+000  1.493741e+001
      vertex  1.200000e+001  1.026450e+001  1.464606e+001
    endloop
  endfacet
  facet normal -1.000000e+000  0.000000e+000  0.000000e+000
    outer loop
      vertex  1.200000e+001  1.026450e+001  1.464606e+001
      vertex  1.200000e+001  7.078554e+000  1.493741e+001
      vertex  1.200000e+001  8.011008e+000  1.639870e+001
    endloop
  endfacet
  facet normal -1.000000e+000  0.000000e+000  0.000000e+000
    outer loop
      vertex  1.200000e+001  1.026450e+001  1.464606e+001
      vertex  1.200000e+001  8.011008e+000  1.639870e+001
      vertex  1.200000e+001  9.125162e+000  1.647491e+001
    endloop
  endfacet
  facet normal -1.000000e+000  -0.000000e+000  0.000000e+000
    outer loop
      vertex  1.200000e+001  9.125162e+000  1.647491e+001
      vertex  1.200000e+001  8.011008e+000  1.639870e+001
      vertex  1.200000e+001  8.538836e+000  1.674272e+001
    endloop
  endfacet
  facet normal -1.000000e+000  0.000000e+000  0.000000e+000
    outer loop
      vertex  1.200000e+001  9.125162e+000  1.647491e+001
      vertex  1.200000e+001  8.538836e+000  1.674272e+001
      vertex  1.200000e+001  8.759945e+000  1.671836e+001
    endloop
  endfacet
  facet normal -1.000000e+000  0.000000e+000  0.000000e+000
    outer loop
      vertex  1.200000e+001  1.127590e+001  1.083734e+001
      vertex  1.200000e+001  1.160785e+001  6.449658e+000
      vertex  1.200000e+001  5.779832e+000  9.641554e+000
    endloop
  endfacet
  facet normal -1.000000e+000  0.000000e+000  -0.000000e+000
    outer loop
      vertex  1.200000e+001  5.779832e+000  9.641554e+000
      vertex  1.200000e+001  1.160785e+001  6.449658e+000
      vertex  1.200000e+001  5.607853e+000  6.449658e+000
    endloop
  endfacet
  facet normal -1.000000e+000  0.000000e+000  0.000000e+000
    outer loop
      vertex  1.200000e+001  1.160785e+001  6.449658e+000
      vertex  1.200000e+001  9.625193e+000  3.760149e+000
      vertex  1.200000e+001  5.607853e+000  6.449658e+000
    endloop
  endfacet
  facet normal -1.000000e+000  0.000000e+000  0.000000e+000
    outer loop
      vertex  1.200000e+001  5.607853e+000  6.449658e+000
      vertex  1.200000e+001  9.625193e+000  3.760149e+000
      vertex  1.200000e+001  7.598003e+000  3.771685e+000
    endloop
  endfacet
  facet normal -6.896854e-001 -3.301866e-001  6.444461e-001
    outer loop
      vertex  1.179904e+001  6.367981e+000  2.232573e+000
      vertex  1.156066e+001  7.867836e+000  2.745922e+000
      vertex  1.125000e+001  6.755303e+000  1.843440e+000
    endloop
  endfacet
  facet normal -3.638064e-001 -5.234337e-001  7.704946e-001
    outer loop
      vertex  1.125000e+001  6.755303e+000  1.843440e+000
      vertex  1.156066e+001  7.867836e+000  2.745922e+000
      vertex  1.050000e+001  7.979605e+000  2.321037e+000
    endloop
  endfacet
  facet normal -2.504921e-001 -4.811634e-001  8.400807e-001
    outer loop
      vertex  1.125000e+001  6.755303e+000  1.843440e+000
      vertex  1.050000e+001  7.979605e+000  2.321037e+000
      vertex  1.050000e+001  6.897072e+000  1.701008e+000
    endloop
  endfacet
  facet normal -9.190176e-001 -1.959290e-001  3.420796e-001
    outer loop
      vertex  1.200000e+001  7.598003e+000  3.771685e+000
      vertex  1.156066e+001  7.867836e+000  2.745922e+000
      vertex  1.200000e+001  5.838889e+000  2.764138e+000
    endloop
  endfacet
  facet normal -9.653184e-001 -2.076047e-001  1.583052e-001
    outer loop
      vertex  1.200000e+001  5.838889e+000  2.764138e+000
      vertex  1.156066e+001  7.867836e+000  2.745922e+000
      vertex  1.179904e+001  6.367981e+000  2.232573e+000
    endloop
  endfacet
  facet normal -6.896858e-001  3.374984e-001  6.406468e-001
    outer loop
      vertex  1.179904e+001  1.083762e+001  2.207140e+000
      vertex  1.125000e+001  1.044589e+001  1.822440e+000
      vertex  1.156066e+001  9.343702e+000  2.737524e+000
    endloop
  endfacet
  facet normal -2.557710e-001  5.738395e-001  7.780034e-001
    outer loop
      vertex  1.156066e+001  9.343702e+000  2.737524e+000
      vertex  1.125000e+001  1.044589e+001  1.822440e+000
      vertex  1.050000e+001  1.030251e+001  1.681630e+000
    endloop
  endfacet
  facet normal -3.713740e-001  4.706030e-001  8.003838e-001
    outer loop
      vertex  1.156066e+001  9.343702e+000  2.737524e+000
      vertex  1.050000e+001  1.030251e+001  1.681630e+000
      vertex  1.050000e+001  9.227106e+000  2.313938e+000
    endloop
  endfacet
  facet normal -9.653182e-001  2.093927e-001  1.559342e-001
    outer loop
      vertex  1.179904e+001  1.083762e+001  2.207140e+000
      vertex  1.156066e+001  9.343702e+000  2.737524e+000
      vertex  1.200000e+001  1.137273e+001  2.732649e+000
    endloop
  endfacet
  facet normal -9.190176e-001  1.998091e-001  3.398277e-001
    outer loop
      vertex  1.200000e+001  1.137273e+001  2.732649e+000
      vertex  1.156066e+001  9.343702e+000  2.737524e+000
      vertex  1.200000e+001  9.625193e+000  3.760149e+000
    endloop
  endfacet
  facet normal -3.713739e-001  5.283454e-003  9.284683e-001
    outer loop
      vertex  1.050000e+001  7.979605e+000  2.321037e+000
      vertex  1.156066e+001  7.867836e+000  2.745922e+000
      vertex  1.050000e+001  9.227106e+000  2.313938e+000
    endloop
  endfacet
  facet normal -3.713742e-001  5.283222e-003  9.284683e-001
    outer loop
      vertex  1.050000e+001  9.227106e+000  2.313938e+000
      vertex  1.156066e+001  7.867836e+000  2.745922e+000
      vertex  1.156066e+001  9.343702e+000  2.737524e+000
    endloop
  endfacet
  facet normal -9.190176e-001  2.243156e-003  3.942100e-001
    outer loop
      vertex  1.156066e+001  7.867836e+000  2.745922e+000
      vertex  1.200000e+001  7.598003e+000  3.771685e+000
      vertex  1.156066e+001  9.343702e+000  2.737524e+000
    endloop
  endfacet
  facet normal -9.190177e-001  2.243238e-003  3.942102e-001
    outer loop
      vertex  1.156066e+001  9.343702e+000  2.737524e+000
      vertex  1.200000e+001  7.598003e+000  3.771685e+000
      vertex  1.200000e+001  9.625193e+000  3.760149e+000
    endloop
  endfacet
  facet normal -8.954579e-001 -3.099829e-001  3.194772e-001
    outer loop
      vertex  1.153754e+001  6.256274e+000  1.391225e+000
      vertex  1.202945e+001  5.653364e+000  2.185004e+000
      vertex  1.179904e+001  6.367981e+000  2.232573e+000
    endloop
  endfacet
  facet normal -9.495255e-001 -3.095363e-001  5.087730e-002
    outer loop
      vertex  1.200000e+001  5.838889e+000  2.764138e+000
      vertex  1.179904e+001  6.367981e+000  2.232573e+000
      vertex  1.202945e+001  5.653364e+000  2.185004e+000
    endloop
  endfacet
  facet normal -2.545939e-001 -9.575119e-001  1.354728e-001
    outer loop
      vertex  1.064042e+001  6.452278e+000  1.090609e+000
      vertex  1.104587e+001  6.190168e+000  2.939055e-016
      vertex  1.153754e+001  6.256274e+000  1.391225e+000
    endloop
  endfacet
  facet normal -2.580533e-001 -9.564188e-001  1.366435e-001
    outer loop
      vertex  1.153754e+001  6.256274e+000  1.391225e+000
      vertex  1.104587e+001  6.190168e+000  2.939055e-016
      vertex  1.171781e+001  6.025921e+000  1.193512e-001
    endloop
  endfacet
  facet normal -7.772533e-001 -6.291763e-001  3.783432e-003
    outer loop
      vertex  1.153754e+001  6.256274e+000  1.391225e+000
      vertex  1.171781e+001  6.025921e+000  1.193512e-001
      vertex  1.202945e+001  5.653364e+000  2.185004e+000
    endloop
  endfacet
  facet normal -6.521796e-001 -7.571034e-001 -3.815854e-002
    outer loop
      vertex  1.202945e+001  5.653364e+000  2.185004e+000
      vertex  1.171781e+001  6.025921e+000  1.193512e-001
      vertex  1.224261e+001  5.569157e+000  2.125795e-001
    endloop
  endfacet
  facet normal -2.536636e-001 -8.085992e-001  5.308692e-001
    outer loop
      vertex  1.050000e+001  6.897072e+000  1.701008e+000
      vertex  1.064042e+001  6.452278e+000  1.090609e+000
      vertex  1.125000e+001  6.755303e+000  1.843440e+000
    endloop
  endfacet
  facet normal -3.548613e-001 -7.317669e-001  5.818853e-001
    outer loop
      vertex  1.125000e+001  6.755303e+000  1.843440e+000
      vertex  1.064042e+001  6.452278e+000  1.090609e+000
      vertex  1.153754e+001  6.256274e+000  1.391225e+000
    endloop
  endfacet
  facet normal -6.828169e-001 -6.658669e-001  3.006367e-001
    outer loop
      vertex  1.125000e+001  6.755303e+000  1.843440e+000
      vertex  1.153754e+001  6.256274e+000  1.391225e+000
      vertex  1.179904e+001  6.367981e+000  2.232573e+000
    endloop
  endfacet
  facet normal -3.601986e-001  8.800407e-001 -3.094920e-001
    outer loop
      vertex  1.219014e+001  1.073311e+001 -2.293536e+000
      vertex  1.105240e+001  1.062840e+001 -1.267125e+000
      vertex  1.223125e+001  1.162983e+001  2.084365e-001
    endloop
  endfacet
  facet normal -6.671994e-001  7.443579e-001  2.786071e-002
    outer loop
      vertex  1.105240e+001  1.062840e+001 -1.267125e+000
      vertex  1.170291e+001  1.115966e+001  1.174944e-001
      vertex  1.223125e+001  1.162983e+001  2.084365e-001
    endloop
  endfacet
  facet normal -6.913170e-001  5.201370e-001 -5.015358e-001
    outer loop
      vertex  1.219014e+001  1.073311e+001 -2.293536e+000
      vertex  1.200472e+001  9.079506e+000 -3.752880e+000
      vertex  1.153631e+001  9.711313e+000 -2.451982e+000
    endloop
  endfacet
  facet normal -6.093454e-001  4.869477e-001 -6.257635e-001
    outer loop
      vertex  1.105240e+001  1.062840e+001 -1.267125e+000
      vertex  1.219014e+001  1.073311e+001 -2.293536e+000
      vertex  1.153631e+001  9.711313e+000 -2.451982e+000
    endloop
  endfacet
  facet normal -9.091012e-001  8.346468e-002 -4.081281e-001
    outer loop
      vertex  1.200472e+001  9.079506e+000 -3.752880e+000
      vertex  1.200037e+001  8.493820e+000 -3.862963e+000
      vertex  1.155038e+001  8.653943e+000 -2.827890e+000
    endloop
  endfacet
  facet normal -9.121547e-001  1.264512e-001 -3.898510e-001
    outer loop
      vertex  1.153631e+001  9.711313e+000 -2.451982e+000
      vertex  1.200472e+001  9.079506e+000 -3.752880e+000
      vertex  1.155038e+001  8.653943e+000 -2.827890e+000
    endloop
  endfacet
  facet normal -8.721281e-001 -2.322777e-001 -4.306269e-001
    outer loop
      vertex  1.200037e+001  8.493820e+000 -3.862963e+000
      vertex  1.203839e+001  7.550319e+000 -3.431052e+000
      vertex  1.152867e+001  8.256689e+000 -2.779745e+000
    endloop
  endfacet
  facet normal -9.169841e-001  1.787592e-003 -3.989199e-001
    outer loop
      vertex  1.155038e+001  8.653943e+000 -2.827890e+000
      vertex  1.200037e+001  8.493820e+000 -3.862963e+000
      vertex  1.152867e+001  8.256689e+000 -2.779745e+000
    endloop
  endfacet
  facet normal -6.172357e-001 -6.542485e-001 -4.370114e-001
    outer loop
      vertex  1.203839e+001  7.550319e+000 -3.431052e+000
      vertex  1.227293e+001  6.036445e+000 -1.495896e+000
      vertex  1.157814e+001  7.204244e+000 -2.262890e+000
    endloop
  endfacet
  facet normal -8.746731e-001 -2.461756e-001 -4.175458e-001
    outer loop
      vertex  1.152867e+001  8.256689e+000 -2.779745e+000
      vertex  1.203839e+001  7.550319e+000 -3.431052e+000
      vertex  1.157814e+001  7.204244e+000 -2.262890e+000
    endloop
  endfacet
  facet normal -1.884950e-001 -9.505379e-001 -2.468750e-001
    outer loop
      vertex  1.111408e+001  6.467530e+000 -1.120004e+000
      vertex  1.171781e+001  6.025921e+000  1.193512e-001
      vertex  1.104587e+001  6.190168e+000  2.939055e-016
    endloop
  endfacet
  facet normal -1.870609e-001  9.433439e-001 -2.740630e-001
    outer loop
      vertex  1.170291e+001  1.115966e+001  1.174944e-001
      vertex  1.105240e+001  1.062840e+001 -1.267125e+000
      vertex  1.102032e+001  1.099017e+001  1.665335e-016
    endloop
  endfacet
  facet normal -2.238640e-001 -7.752619e-001 -5.906384e-001
    outer loop
      vertex  1.076892e+001  7.209535e+000 -1.963123e+000
      vertex  1.157814e+001  7.204244e+000 -2.262890e+000
      vertex  1.111408e+001  6.467530e+000 -1.120004e+000
    endloop
  endfacet
  facet normal -2.469738e-001  7.148749e-001 -6.541848e-001
    outer loop
      vertex  1.105240e+001  1.062840e+001 -1.267125e+000
      vertex  1.153631e+001  9.711313e+000 -2.451982e+000
      vertex  1.066051e+001  9.710086e+000 -2.122683e+000
    endloop
  endfacet
  facet normal -3.347933e-001  3.116818e-001 -8.892514e-001
    outer loop
      vertex  1.066051e+001  9.710086e+000 -2.122683e+000
      vertex  1.153631e+001  9.711313e+000 -2.451982e+000
      vertex  1.155038e+001  8.653943e+000 -2.827890e+000
    endloop
  endfacet
  facet normal -3.351114e-001  3.113997e-001 -8.892304e-001
    outer loop
      vertex  1.066051e+001  9.710086e+000 -2.122683e+000
      vertex  1.155038e+001  8.653943e+000 -2.827890e+000
      vertex  1.050232e+001  8.766460e+000 -2.393517e+000
    endloop
  endfacet
  facet normal -3.895354e-001 -8.979183e-002 -9.166240e-001
    outer loop
      vertex  1.050232e+001  8.766460e+000 -2.393517e+000
      vertex  1.155038e+001  8.653943e+000 -2.827890e+000
      vertex  1.152867e+001  8.256689e+000 -2.779745e+000
    endloop
  endfacet
  facet normal -3.670781e-001 -3.479202e-002 -9.295393e-001
    outer loop
      vertex  1.050232e+001  8.766460e+000 -2.393517e+000
      vertex  1.152867e+001  8.256689e+000 -2.779745e+000
      vertex  1.051057e+001  8.266380e+000 -2.378058e+000
    endloop
  endfacet
  facet normal -3.352292e-001 -4.279540e-001 -8.393311e-001
    outer loop
      vertex  1.051057e+001  8.266380e+000 -2.378058e+000
      vertex  1.152867e+001  8.256689e+000 -2.779745e+000
      vertex  1.157814e+001  7.204244e+000 -2.262890e+000
    endloop
  endfacet
  facet normal -3.187505e-001 -4.128928e-001 -8.531809e-001
    outer loop
      vertex  1.051057e+001  8.266380e+000 -2.378058e+000
      vertex  1.157814e+001  7.204244e+000 -2.262890e+000
      vertex  1.076892e+001  7.209535e+000 -1.963123e+000
    endloop
  endfacet
  facet normal -4.424748e-001 -6.611723e-001 -6.058607e-001
    outer loop
      vertex  1.157814e+001  7.204244e+000 -2.262890e+000
      vertex  1.227293e+001  6.036445e+000 -1.495896e+000
      vertex  1.111408e+001  6.467530e+000 -1.120004e+000
    endloop
  endfacet
  facet normal -4.073383e-001 -8.790561e-001 -2.476607e-001
    outer loop
      vertex  1.111408e+001  6.467530e+000 -1.120004e+000
      vertex  1.227293e+001  6.036445e+000 -1.495896e+000
      vertex  1.224261e+001  5.569157e+000  2.125795e-001
    endloop
  endfacet
  facet normal -6.610983e-001 -7.482494e-001  5.542583e-002
    outer loop
      vertex  1.111408e+001  6.467530e+000 -1.120004e+000
      vertex  1.224261e+001  5.569157e+000  2.125795e-001
      vertex  1.171781e+001  6.025921e+000  1.193512e-001
    endloop
  endfacet
  facet normal -2.393872e-001  8.130188e-001  5.307488e-001
    outer loop
      vertex  1.060981e+001  1.069840e+001  1.146887e+000
      vertex  1.125000e+001  1.044589e+001  1.822440e+000
      vertex  1.156996e+001  1.104533e+001  1.048509e+000
    endloop
  endfacet
  facet normal -2.547989e-001  8.014711e-001  5.410376e-001
    outer loop
      vertex  1.125000e+001  1.044589e+001  1.822440e+000
      vertex  1.060981e+001  1.069840e+001  1.146887e+000
      vertex  1.050000e+001  1.030251e+001  1.681630e+000
    endloop
  endfacet
  facet normal -6.480709e-001  7.517926e-001 -1.217049e-001
    outer loop
      vertex  1.223125e+001  1.162983e+001  2.084365e-001
      vertex  1.170291e+001  1.115966e+001  1.174944e-001
      vertex  1.217461e+001  1.167605e+001  7.956027e-001
    endloop
  endfacet
  facet normal -7.255592e-001  6.878934e-001 -1.914323e-002
    outer loop
      vertex  1.217461e+001  1.167605e+001  7.956027e-001
      vertex  1.170291e+001  1.115966e+001  1.174944e-001
      vertex  1.156996e+001  1.104533e+001  1.048509e+000
    endloop
  endfacet
  facet normal -2.534683e-001  9.638483e-001  8.215986e-002
    outer loop
      vertex  1.170291e+001  1.115966e+001  1.174944e-001
      vertex  1.102032e+001  1.099017e+001  1.665335e-016
      vertex  1.156996e+001  1.104533e+001  1.048509e+000
    endloop
  endfacet
  facet normal -3.262476e-001  9.374173e-001  1.217025e-001
    outer loop
      vertex  1.156996e+001  1.104533e+001  1.048509e+000
      vertex  1.102032e+001  1.099017e+001  1.665335e-016
      vertex  1.060981e+001  1.069840e+001  1.146887e+000
    endloop
  endfacet
  facet normal -6.742330e-001  6.922092e-001  2.574030e-001
    outer loop
      vertex  1.125000e+001  1.044589e+001  1.822440e+000
      vertex  1.179904e+001  1.083762e+001  2.207140e+000
      vertex  1.156996e+001  1.104533e+001  1.048509e+000
    endloop
  endfacet
  facet normal -9.646755e-001  1.487834e-001  2.174046e-001
    outer loop
      vertex  1.156996e+001  1.104533e+001  1.048509e+000
      vertex  1.179904e+001  1.083762e+001  2.207140e+000
      vertex  1.200000e+001  1.137273e+001  2.732649e+000
    endloop
  endfacet
  facet normal -7.119290e-001  7.007719e-001  4.556152e-002
    outer loop
      vertex  1.156996e+001  1.104533e+001  1.048509e+000
      vertex  1.200000e+001  1.137273e+001  2.732649e+000
      vertex  1.217461e+001  1.167605e+001  7.956027e-001
    endloop
  endfacet
  facet normal  0.000000e+000 -9.985467e-001  5.389339e-002
    outer loop
      vertex  1.320000e+001  4.407853e+000  6.449658e+000
      vertex  1.380000e+001  4.407853e+000  6.449658e+000
      vertex  1.320000e+001  4.587379e+000  9.775955e+000
    endloop
  endfacet
  facet normal -1.539310e-001 -9.877514e-001  2.554454e-002
    outer loop
      vertex  1.320000e+001  4.587379e+000  9.775955e+000
      vertex  1.380000e+001  4.407853e+000  6.449658e+000
      vertex  1.380000e+001  4.449762e+000  8.070177e+000
    endloop
  endfacet
  facet normal  1.945444e-001 -9.698652e-001  1.466763e-001
    outer loop
      vertex  1.320000e+001  4.587379e+000  9.775955e+000
      vertex  1.380000e+001  4.449762e+000  8.070177e+000
      vertex  1.380000e+001  5.248621e+000  1.335246e+001
    endloop
  endfacet
  facet normal  -0.000000e+000  9.956579e-001  9.308836e-002
    outer loop
      vertex  1.380000e+001  1.280785e+001  6.449658e+000
      vertex  1.320000e+001  1.280785e+001  6.449658e+000
      vertex  1.380000e+001  1.229122e+001  1.197545e+001
    endloop
  endfacet
  facet normal  1.596086e-001  9.843500e-001  7.470055e-002
    outer loop
      vertex  1.380000e+001  1.229122e+001  1.197545e+001
      vertex  1.320000e+001  1.280785e+001  6.449658e+000
      vertex  1.320000e+001  1.246018e+001  1.103101e+001
    endloop
  endfacet
  facet normal -1.899142e-001  9.384444e-001  2.885390e-001
    outer loop
      vertex  1.380000e+001  1.229122e+001  1.197545e+001
      vertex  1.320000e+001  1.246018e+001  1.103101e+001
      vertex  1.380000e+001  1.122427e+001  1.544561e+001
    endloop
  endfacet
  facet normal  8.925954e-002  9.622136e-001  2.572502e-001
    outer loop
      vertex  1.380000e+001  1.122427e+001  1.544561e+001
      vertex  1.320000e+001  1.246018e+001  1.103101e+001
      vertex  1.320000e+001  1.136694e+001  1.512014e+001
    endloop
  endfacet
  facet normal -9.593783e-002  8.344603e-001  5.426525e-001
    outer loop
      vertex  1.380000e+001  1.122427e+001  1.544561e+001
      vertex  1.320000e+001  1.136694e+001  1.512014e+001
      vertex  1.380000e+001  1.005162e+001  1.724884e+001
    endloop
  endfacet
  facet normal -6.721608e-002  8.401961e-001  5.381011e-001
    outer loop
      vertex  1.380000e+001  1.005162e+001  1.724884e+001
      vertex  1.320000e+001  1.136694e+001  1.512014e+001
      vertex  1.320000e+001  9.928178e+000  1.736664e+001
    endloop
  endfacet
  facet normal  6.511030e-002  5.048892e-001  8.607250e-001
    outer loop
      vertex  1.380000e+001  1.005162e+001  1.724884e+001
      vertex  1.320000e+001  9.928178e+000  1.736664e+001
      vertex  1.380000e+001  8.906515e+000  1.792055e+001
    endloop
  endfacet
  facet normal  1.368808e-001  5.330558e-001  8.349343e-001
    outer loop
      vertex  1.380000e+001  8.906515e+000  1.792055e+001
      vertex  1.320000e+001  9.928178e+000  1.736664e+001
      vertex  1.320000e+001  9.187143e+000  1.783975e+001
    endloop
  endfacet
  facet normal -1.741196e-001 -8.993940e-002  9.806086e-001
    outer loop
      vertex  1.380000e+001  8.906515e+000  1.792055e+001
      vertex  1.320000e+001  9.187143e+000  1.783975e+001
      vertex  1.380000e+001  8.029514e+000  1.784011e+001
    endloop
  endfacet
  facet normal  1.735649e-001  9.026588e-002  9.806769e-001
    outer loop
      vertex  1.380000e+001  8.029514e+000  1.784011e+001
      vertex  1.320000e+001  9.187143e+000  1.783975e+001
      vertex  1.320000e+001  8.309234e+000  1.792055e+001
    endloop
  endfacet
  facet normal -1.364301e-001 -5.328255e-001  8.351550e-001
    outer loop
      vertex  1.380000e+001  8.029514e+000  1.784011e+001
      vertex  1.320000e+001  8.309234e+000  1.792055e+001
      vertex  1.380000e+001  7.287838e+000  1.736692e+001
    endloop
  endfacet
  facet normal -6.436858e-002 -5.045061e-001  8.610054e-001
    outer loop
      vertex  1.380000e+001  7.287838e+000  1.736692e+001
      vertex  1.320000e+001  8.309234e+000  1.792055e+001
      vertex  1.320000e+001  7.165794e+000  1.725056e+001
    endloop
  endfacet
  facet normal  6.657695e-002 -8.403022e-001  5.380146e-001
    outer loop
      vertex  1.380000e+001  7.287838e+000  1.736692e+001
      vertex  1.320000e+001  7.165794e+000  1.725056e+001
      vertex  1.380000e+001  5.847735e+000  1.511769e+001
    endloop
  endfacet
  facet normal  9.482912e-002 -8.346902e-001  5.424941e-001
    outer loop
      vertex  1.380000e+001  5.847735e+000  1.511769e+001
      vertex  1.320000e+001  7.165794e+000  1.725056e+001
      vertex  1.320000e+001  5.988422e+000  1.543903e+001
    endloop
  endfacet
  facet normal -4.984749e-002 -9.457691e-001  3.209922e-001
    outer loop
      vertex  1.380000e+001  5.847735e+000  1.511769e+001
      vertex  1.320000e+001  5.988422e+000  1.543903e+001
      vertex  1.380000e+001  5.248621e+000  1.335246e+001
    endloop
  endfacet
  facet normal  7.793698e-002 -9.323760e-001  3.529885e-001
    outer loop
      vertex  1.380000e+001  5.248621e+000  1.335246e+001
      vertex  1.320000e+001  5.988422e+000  1.543903e+001
      vertex  1.320000e+001  5.421060e+000  1.394041e+001
    endloop
  endfacet
  facet normal -8.909781e-002 -9.766452e-001  1.955141e-001
    outer loop
      vertex  1.380000e+001  5.248621e+000  1.335246e+001
      vertex  1.320000e+001  5.421060e+000  1.394041e+001
      vertex  1.320000e+001  4.587379e+000  9.775955e+000
    endloop
  endfacet
  facet normal  0.000000e+000  9.999741e-001 -7.199485e-003
    outer loop
      vertex  1.320000e+001  1.280785e+001  6.449658e+000
      vertex  1.380000e+001  1.280785e+001  6.449658e+000
      vertex  1.320000e+001  1.280459e+001  5.996377e+000
    endloop
  endfacet
  facet normal  3.777684e-002  9.976485e-001 -5.718732e-002
    outer loop
      vertex  1.320000e+001  1.280459e+001  5.996377e+000
      vertex  1.380000e+001  1.280785e+001  6.449658e+000
      vertex  1.380000e+001  1.260590e+001  2.926517e+000
    endloop
  endfacet
  facet normal -2.440569e-001  9.634951e-001 -1.100608e-001
    outer loop
      vertex  1.320000e+001  1.280459e+001  5.996377e+000
      vertex  1.380000e+001  1.260590e+001  2.926517e+000
      vertex  1.320000e+001  1.215097e+001  2.744729e-001
    endloop
  endfacet
  facet normal -1.025266e-002  9.859364e-001 -1.668064e-001
    outer loop
      vertex  1.320000e+001  1.215097e+001  2.744729e-001
      vertex  1.380000e+001  1.260590e+001  2.926517e+000
      vertex  1.380000e+001  1.217464e+001  3.774669e-001
    endloop
  endfacet
  facet normal  2.067523e-002  9.413707e-001 -3.367398e-001
    outer loop
      vertex  1.320000e+001  1.215097e+001  2.744729e-001
      vertex  1.380000e+001  1.217464e+001  3.774669e-001
      vertex  1.320000e+001  1.093621e+001 -3.121443e+000
    endloop
  endfacet
  facet normal -1.791519e-002  9.435037e-001 -3.308772e-001
    outer loop
      vertex  1.320000e+001  1.093621e+001 -3.121443e+000
      vertex  1.380000e+001  1.217464e+001  3.774669e-001
      vertex  1.380000e+001  1.096839e+001 -3.062158e+000
    endloop
  endfacet
  facet normal  2.100563e-002  7.740442e-001 -6.327831e-001
    outer loop
      vertex  1.320000e+001  1.093621e+001 -3.121443e+000
      vertex  1.380000e+001  1.096839e+001 -3.062158e+000
      vertex  1.320000e+001  9.657871e+000 -4.685156e+000
    endloop
  endfacet
  facet normal -2.354633e-002  7.820469e-001 -6.227747e-001
    outer loop
      vertex  1.320000e+001  9.657871e+000 -4.685156e+000
      vertex  1.380000e+001  1.096839e+001 -3.062158e+000
      vertex  1.380000e+001  9.700397e+000 -4.654439e+000
    endloop
  endfacet
  facet normal  2.505665e-002  3.284652e-001 -9.441837e-001
    outer loop
      vertex  1.320000e+001  9.657871e+000 -4.685156e+000
      vertex  1.380000e+001  9.700397e+000 -4.654439e+000
      vertex  1.320000e+001  8.608133e+000 -5.050342e+000
    endloop
  endfacet
  facet normal  3.183360e-004  3.406119e-001 -9.402038e-001
    outer loop
      vertex  1.320000e+001  8.608133e+000 -5.050342e+000
      vertex  1.380000e+001  9.700397e+000 -4.654439e+000
      vertex  1.380000e+001  8.607573e+000 -5.050342e+000
    endloop
  endfacet
  facet normal -3.183360e-004 -3.406119e-001 -9.402038e-001
    outer loop
      vertex  1.320000e+001  8.608133e+000 -5.050342e+000
      vertex  1.380000e+001  8.607573e+000 -5.050342e+000
      vertex  1.320000e+001  7.515308e+000 -4.654439e+000
    endloop
  endfacet
  facet normal -2.505613e-002 -3.284655e-001 -9.441835e-001
    outer loop
      vertex  1.320000e+001  7.515308e+000 -4.654439e+000
      vertex  1.380000e+001  8.607573e+000 -5.050342e+000
      vertex  1.380000e+001  7.557834e+000 -4.685156e+000
    endloop
  endfacet
  facet normal  2.354612e-002 -7.820462e-001 -6.227756e-001
    outer loop
      vertex  1.320000e+001  7.515308e+000 -4.654439e+000
      vertex  1.380000e+001  7.557834e+000 -4.685156e+000
      vertex  1.320000e+001  6.247318e+000 -3.062169e+000
    endloop
  endfacet
  facet normal -2.100149e-002 -7.740443e-001 -6.327830e-001
    outer loop
      vertex  1.320000e+001  6.247318e+000 -3.062169e+000
      vertex  1.380000e+001  7.557834e+000 -4.685156e+000
      vertex  1.380000e+001  6.279493e+000 -3.121441e+000
    endloop
  endfacet
  facet normal  1.791001e-002 -9.435036e-001 -3.308778e-001
    outer loop
      vertex  1.320000e+001  6.247318e+000 -3.062169e+000
      vertex  1.380000e+001  6.279493e+000 -3.121441e+000
      vertex  1.320000e+001  5.041070e+000  3.774673e-001
    endloop
  endfacet
  facet normal -2.067427e-002 -9.413708e-001 -3.367394e-001
    outer loop
      vertex  1.320000e+001  5.041070e+000  3.774673e-001
      vertex  1.380000e+001  6.279493e+000 -3.121441e+000
      vertex  1.380000e+001  5.064733e+000  2.744789e-001
    endloop
  endfacet
  facet normal  2.051472e-002 -9.938481e-001 -1.088339e-001
    outer loop
      vertex  1.320000e+001  5.041070e+000  3.774673e-001
      vertex  1.380000e+001  5.064733e+000  2.744789e-001
      vertex  1.320000e+001  4.409312e+000  6.146546e+000
    endloop
  endfacet
  facet normal -2.540971e-002 -9.932180e-001 -1.134560e-001
    outer loop
      vertex  1.320000e+001  4.409312e+000  6.146546e+000
      vertex  1.380000e+001  5.064733e+000  2.744789e-001
      vertex  1.380000e+001  4.411117e+000  5.996374e+000
    endloop
  endfacet
  facet normal  1.802393e-003 -9.999868e-001 -4.813747e-003
    outer loop
      vertex  1.320000e+001  4.409312e+000  6.146546e+000
      vertex  1.380000e+001  4.411117e+000  5.996374e+000
      vertex  1.320000e+001  4.407853e+000  6.449658e+000
    endloop
  endfacet
  facet normal  0.000000e+000 -9.999740e-001 -7.199439e-003
    outer loop
      vertex  1.320000e+001  4.407853e+000  6.449658e+000
      vertex  1.380000e+001  4.411117e+000  5.996374e+000
      vertex  1.380000e+001  4.407853e+000  6.449658e+000
    endloop
  endfacet
  facet normal  1.000000e+000  -0.000000e+000  0.000000e+000
    outer loop
      vertex  1.500000e+001  8.676870e+000  1.674272e+001
      vertex  1.500000e+001  8.455761e+000  1.671836e+001
      vertex  1.500000e+001  9.204698e+000  1.639870e+001
    endloop
  endfacet
  facet normal  1.000000e+000  0.000000e+000  0.000000e+000
    outer loop
      vertex  1.500000e+001  9.204698e+000  1.639870e+001
      vertex  1.500000e+001  8.455761e+000  1.671836e+001
      vertex  1.500000e+001  8.090544e+000  1.647491e+001
    endloop
  endfacet
  facet normal  1.000000e+000  0.000000e+000  0.000000e+000
    outer loop
      vertex  1.500000e+001  9.204698e+000  1.639870e+001
      vertex  1.500000e+001  8.090544e+000  1.647491e+001
      vertex  1.500000e+001  1.013715e+001  1.493741e+001
    endloop
  endfacet
  facet normal  1.000000e+000  0.000000e+000  0.000000e+000
    outer loop
      vertex  1.500000e+001  1.013715e+001  1.493741e+001
      vertex  1.500000e+001  8.090544e+000  1.647491e+001
      vertex  1.500000e+001  6.951209e+000  1.464606e+001
    endloop
  endfacet
  facet normal  1.000000e+000  -0.000000e+000  0.000000e+000
    outer loop
      vertex  1.500000e+001  1.013715e+001  1.493741e+001
      vertex  1.500000e+001  6.951209e+000  1.464606e+001
      vertex  1.500000e+001  1.111602e+001  1.173261e+001
    endloop
  endfacet
  facet normal  1.000000e+000  0.000000e+000  0.000000e+000
    outer loop
      vertex  1.500000e+001  1.111602e+001  1.173261e+001
      vertex  1.500000e+001  6.951209e+000  1.464606e+001
      vertex  1.500000e+001  6.403450e+000  1.302617e+001
    endloop
  endfacet
  facet normal  1.000000e+000  0.000000e+000  0.000000e+000
    outer loop
      vertex  1.500000e+001  1.111602e+001  1.173261e+001
      vertex  1.500000e+001  6.403450e+000  1.302617e+001
      vertex  1.500000e+001  1.160785e+001  6.449658e+000
    endloop
  endfacet
  facet normal  9.999999e-001  0.000000e+000  0.000000e+000
    outer loop
      vertex  1.500000e+001  1.160785e+001  6.449658e+000
      vertex  1.500000e+001  6.403450e+000  1.302617e+001
      vertex  1.500000e+001  5.648131e+000  8.007645e+000
    endloop
  endfacet
  facet normal  1.000000e+000  0.000000e+000  0.000000e+000
    outer loop
      vertex  1.500000e+001  1.160785e+001  6.449658e+000
      vertex  1.500000e+001  5.648131e+000  8.007645e+000
      vertex  1.500000e+001  5.607833e+000  6.449672e+000
    endloop
  endfacet
  facet normal  1.000000e+000  0.000000e+000  0.000000e+000
    outer loop
      vertex  1.500000e+001  1.160785e+001  6.449658e+000
      vertex  1.500000e+001  5.607833e+000  6.449672e+000
      vertex  1.500000e+001  1.100458e+001  6.438542e-001
    endloop
  endfacet
  facet normal  1.000000e+000  0.000000e+000  0.000000e+000
    outer loop
      vertex  1.500000e+001  1.100458e+001  6.438542e-001
      vertex  1.500000e+001  5.607833e+000  6.449672e+000
      vertex  1.500000e+001  6.231637e+000  5.545010e-001
    endloop
  endfacet
  facet normal  9.999999e-001  -0.000000e+000  0.000000e+000
    outer loop
      vertex  1.500000e+001  1.100458e+001  6.438542e-001
      vertex  1.500000e+001  6.231637e+000  5.545010e-001
      vertex  1.500000e+001  9.912835e+000 -2.491363e+000
    endloop
  endfacet
  facet normal  1.000000e+000  0.000000e+000  0.000000e+000
    outer loop
      vertex  1.500000e+001  9.912835e+000 -2.491363e+000
      vertex  1.500000e+001  6.231637e+000  5.545010e-001
      vertex  1.500000e+001  7.327202e+000 -2.536283e+000
    endloop
  endfacet
  facet normal  1.000000e+000  -0.000000e+000  0.000000e+000
    outer loop
      vertex  1.500000e+001  9.912835e+000 -2.491363e+000
      vertex  1.500000e+001  7.327202e+000 -2.536283e+000
      vertex  1.500000e+001  8.990438e+000 -3.686982e+000
    endloop
  endfacet
  facet normal  1.000000e+000  0.000000e+000  0.000000e+000
    outer loop
      vertex  1.500000e+001  8.990438e+000 -3.686982e+000
      vertex  1.500000e+001  7.327202e+000 -2.536283e+000
      vertex  1.500000e+001  8.249974e+000 -3.704879e+000
    endloop
  endfacet
  facet normal  9.999999e-001  -0.000000e+000  0.000000e+000
    outer loop
      vertex  1.500000e+001  8.990438e+000 -3.686982e+000
      vertex  1.500000e+001  8.249974e+000 -3.704879e+000
      vertex  1.500000e+001  8.607853e+000 -3.850342e+000
    endloop
  endfacet
  facet normal  4.415153e-001 -6.617057e-001  6.059784e-001
    outer loop
      vertex  1.380000e+001  7.287838e+000  1.736692e+001
      vertex  1.464853e+001  6.805427e+000  1.622191e+001
      vertex  1.464853e+001  7.838405e+000  1.734988e+001
    endloop
  endfacet
  facet normal  9.268802e-001 -2.081989e-001  3.123244e-001
    outer loop
      vertex  1.464853e+001  7.838405e+000  1.734988e+001
      vertex  1.500000e+001  8.090544e+000  1.647491e+001
      vertex  1.500000e+001  8.455761e+000  1.671836e+001
    endloop
  endfacet
  facet normal  9.058742e-001 -9.305016e-002  4.131995e-001
    outer loop
      vertex  1.464853e+001  7.838405e+000  1.734988e+001
      vertex  1.500000e+001  8.455761e+000  1.671836e+001
      vertex  1.464853e+001  8.839966e+000  1.757543e+001
    endloop
  endfacet
  facet normal  4.817119e-001 -8.106371e-001  3.328983e-001
    outer loop
      vertex  1.380000e+001  5.847735e+000  1.511769e+001
      vertex  1.464853e+001  5.584979e+000  1.325001e+001
      vertex  1.464853e+001  6.805427e+000  1.622191e+001
    endloop
  endfacet
  facet normal  2.414572e-001 -8.172522e-001  5.232564e-001
    outer loop
      vertex  1.380000e+001  5.847735e+000  1.511769e+001
      vertex  1.464853e+001  6.805427e+000  1.622191e+001
      vertex  1.380000e+001  7.287838e+000  1.736692e+001
    endloop
  endfacet
  facet normal  9.110968e-001 -3.039833e-001  2.783825e-001
    outer loop
      vertex  1.464853e+001  6.805427e+000  1.622191e+001
      vertex  1.500000e+001  8.090544e+000  1.647491e+001
      vertex  1.464853e+001  7.838405e+000  1.734988e+001
    endloop
  endfacet
  facet normal  9.173313e-001 -4.359945e-002  3.957302e-001
    outer loop
      vertex  1.464853e+001  8.839966e+000  1.757543e+001
      vertex  1.500000e+001  8.455761e+000  1.671836e+001
      vertex  1.500000e+001  8.676870e+000  1.674272e+001
    endloop
  endfacet
  facet normal  3.826534e-001 -8.748761e-001  2.969313e-001
    outer loop
      vertex  1.464853e+001  5.584979e+000  1.325001e+001
      vertex  1.380000e+001  5.847735e+000  1.511769e+001
      vertex  1.380000e+001  5.248621e+000  1.335246e+001
    endloop
  endfacet
  facet normal  9.659021e-001 -2.588210e-001  6.694575e-003
    outer loop
      vertex  1.500000e+001  5.607833e+000  6.449672e+000
      vertex  1.500000e+001  5.648131e+000  8.007645e+000
      vertex  1.483923e+001  5.007853e+000  6.449657e+000
    endloop
  endfacet
  facet normal  9.231025e-001 -3.797178e-001  6.079549e-002
    outer loop
      vertex  1.483923e+001  5.007853e+000  6.449657e+000
      vertex  1.500000e+001  5.648131e+000  8.007645e+000
      vertex  1.464853e+001  4.800747e+000  8.051687e+000
    endloop
  endfacet
  facet normal  7.070879e-001 -7.070887e-001 -7.239981e-003
    outer loop
      vertex  1.483923e+001  5.007853e+000  6.449657e+000
      vertex  1.464853e+001  4.800747e+000  8.051687e+000
      vertex  1.440000e+001  4.568622e+000  6.449658e+000
    endloop
  endfacet
  facet normal  3.825663e-001 -9.236192e-001  2.388600e-002
    outer loop
      vertex  1.380000e+001  4.449762e+000  8.070177e+000
      vertex  1.380000e+001  4.407853e+000  6.449658e+000
      vertex  1.464853e+001  4.800747e+000  8.051687e+000
    endloop
  endfacet
  facet normal  2.575390e-001 -9.611508e-001  9.931227e-002
    outer loop
      vertex  1.464853e+001  4.800747e+000  8.051687e+000
      vertex  1.380000e+001  4.407853e+000  6.449658e+000
      vertex  1.440000e+001  4.568622e+000  6.449658e+000
    endloop
  endfacet
  facet normal  9.231391e-001  3.828109e-001  3.563866e-002
    outer loop
      vertex  1.500000e+001  1.111602e+001  1.173261e+001
      vertex  1.500000e+001  1.160785e+001  6.449658e+000
      vertex  1.464853e+001  1.194812e+001  1.189881e+001
    endloop
  endfacet
  facet normal  9.648994e-001  2.585438e-001  4.609188e-002
    outer loop
      vertex  1.464853e+001  1.194812e+001  1.189881e+001
      vertex  1.500000e+001  1.160785e+001  6.449658e+000
      vertex  1.483923e+001  1.220785e+001  6.449658e+000
    endloop
  endfacet
  facet normal  7.059011e-001  7.059027e-001  5.835134e-002
    outer loop
      vertex  1.464853e+001  1.194812e+001  1.189881e+001
      vertex  1.483923e+001  1.220785e+001  6.449658e+000
      vertex  1.440000e+001  1.264708e+001  6.449658e+000
    endloop
  endfacet
  facet normal  2.572083e-001  9.599137e-001  1.113977e-001
    outer loop
      vertex  1.440000e+001  1.264708e+001  6.449658e+000
      vertex  1.380000e+001  1.280785e+001  6.449658e+000
      vertex  1.464853e+001  1.194812e+001  1.189881e+001
    endloop
  endfacet
  facet normal  3.801492e-001  9.209090e-001  8.609977e-002
    outer loop
      vertex  1.464853e+001  1.194812e+001  1.189881e+001
      vertex  1.380000e+001  1.280785e+001  6.449658e+000
      vertex  1.380000e+001  1.229122e+001  1.197545e+001
    endloop
  endfacet
  facet normal  9.226789e-001  3.687518e-001  1.126313e-001
    outer loop
      vertex  1.500000e+001  1.013715e+001  1.493741e+001
      vertex  1.500000e+001  1.111602e+001  1.173261e+001
      vertex  1.464853e+001  1.090878e+001  1.529038e+001
    endloop
  endfacet
  facet normal  9.231964e-001  3.674617e-001  1.126073e-001
    outer loop
      vertex  1.464853e+001  1.090878e+001  1.529038e+001
      vertex  1.500000e+001  1.111602e+001  1.173261e+001
      vertex  1.464853e+001  1.194812e+001  1.189881e+001
    endloop
  endfacet
  facet normal  3.786295e-001  8.849291e-001  2.711833e-001
    outer loop
      vertex  1.464853e+001  1.090878e+001  1.529038e+001
      vertex  1.464853e+001  1.194812e+001  1.189881e+001
      vertex  1.380000e+001  1.122427e+001  1.544561e+001
    endloop
  endfacet
  facet normal  3.817579e-001  8.834469e-001  2.716292e-001
    outer loop
      vertex  1.380000e+001  1.122427e+001  1.544561e+001
      vertex  1.464853e+001  1.194812e+001  1.189881e+001
      vertex  1.380000e+001  1.229122e+001  1.197545e+001
    endloop
  endfacet
  facet normal  9.206775e-001  3.290417e-001  2.099629e-001
    outer loop
      vertex  1.500000e+001  9.204698e+000  1.639870e+001
      vertex  1.500000e+001  1.013715e+001  1.493741e+001
      vertex  1.464853e+001  9.806299e+000  1.699710e+001
    endloop
  endfacet
  facet normal  9.224500e-001  3.243331e-001  2.095090e-001
    outer loop
      vertex  1.464853e+001  9.806299e+000  1.699710e+001
      vertex  1.500000e+001  1.013715e+001  1.493741e+001
      vertex  1.464853e+001  1.090878e+001  1.529038e+001
    endloop
  endfacet
  facet normal  3.744558e-001  7.788741e-001  5.031282e-001
    outer loop
      vertex  1.464853e+001  9.806299e+000  1.699710e+001
      vertex  1.464853e+001  1.090878e+001  1.529038e+001
      vertex  1.380000e+001  1.005162e+001  1.724884e+001
    endloop
  endfacet
  facet normal  3.804826e-001  7.752752e-001  5.041642e-001
    outer loop
      vertex  1.380000e+001  1.005162e+001  1.724884e+001
      vertex  1.464853e+001  1.090878e+001  1.529038e+001
      vertex  1.380000e+001  1.122427e+001  1.544561e+001
    endloop
  endfacet
  facet normal  9.130165e-001  2.227375e-001  3.417436e-001
    outer loop
      vertex  1.500000e+001  8.676870e+000  1.674272e+001
      vertex  1.500000e+001  9.204698e+000  1.639870e+001
      vertex  1.464853e+001  8.839966e+000  1.757543e+001
    endloop
  endfacet
  facet normal  9.195445e-001  2.018135e-001  3.372080e-001
    outer loop
      vertex  1.464853e+001  8.839966e+000  1.757543e+001
      vertex  1.500000e+001  9.204698e+000  1.639870e+001
      vertex  1.464853e+001  9.806299e+000  1.699710e+001
    endloop
  endfacet
  facet normal  3.627560e-001  4.785587e-001  7.996185e-001
    outer loop
      vertex  1.464853e+001  8.839966e+000  1.757543e+001
      vertex  1.464853e+001  9.806299e+000  1.699710e+001
      vertex  1.380000e+001  8.906515e+000  1.792055e+001
    endloop
  endfacet
  facet normal  3.731419e-001  4.694194e-001  8.002566e-001
    outer loop
      vertex  1.380000e+001  8.906515e+000  1.792055e+001
      vertex  1.464853e+001  9.806299e+000  1.699710e+001
      vertex  1.380000e+001  1.005162e+001  1.724884e+001
    endloop
  endfacet
  facet normal  3.548549e-001 -2.053953e-001  9.120805e-001
    outer loop
      vertex  1.464853e+001  8.839966e+000  1.757543e+001
      vertex  1.380000e+001  8.906515e+000  1.792055e+001
      vertex  1.464853e+001  7.838405e+000  1.734988e+001
    endloop
  endfacet
  facet normal  4.851046e-001 -7.986809e-002  8.708012e-001
    outer loop
      vertex  1.464853e+001  7.838405e+000  1.734988e+001
      vertex  1.380000e+001  8.906515e+000  1.792055e+001
      vertex  1.380000e+001  8.029514e+000  1.784011e+001
    endloop
  endfacet
  facet normal  3.436320e-001 -5.051016e-001  7.917004e-001
    outer loop
      vertex  1.464853e+001  7.838405e+000  1.734988e+001
      vertex  1.380000e+001  8.029514e+000  1.784011e+001
      vertex  1.380000e+001  7.287838e+000  1.736692e+001
    endloop
  endfacet
  facet normal  9.228523e-001 -3.562817e-001  1.463116e-001
    outer loop
      vertex  1.464853e+001  5.584979e+000  1.325001e+001
      vertex  1.500000e+001  6.403450e+000  1.302617e+001
      vertex  1.464853e+001  6.805427e+000  1.622191e+001
    endloop
  endfacet
  facet normal  8.774328e-001 -4.544226e-001  1.536609e-001
    outer loop
      vertex  1.464853e+001  6.805427e+000  1.622191e+001
      vertex  1.500000e+001  6.403450e+000  1.302617e+001
      vertex  1.500000e+001  6.951209e+000  1.464606e+001
    endloop
  endfacet
  facet normal  9.386937e-001 -2.926143e-001  1.822933e-001
    outer loop
      vertex  1.464853e+001  6.805427e+000  1.622191e+001
      vertex  1.500000e+001  6.951209e+000  1.464606e+001
      vertex  1.500000e+001  8.090544e+000  1.647491e+001
    endloop
  endfacet
  facet normal  9.232336e-001 -3.799598e-001  5.718628e-002
    outer loop
      vertex  1.500000e+001  5.648131e+000  8.007645e+000
      vertex  1.500000e+001  6.403450e+000  1.302617e+001
      vertex  1.464853e+001  4.800747e+000  8.051687e+000
    endloop
  endfacet
  facet normal  9.229428e-001 -3.806301e-001  5.742278e-002
    outer loop
      vertex  1.464853e+001  4.800747e+000  8.051687e+000
      vertex  1.500000e+001  6.403450e+000  1.302617e+001
      vertex  1.464853e+001  5.584979e+000  1.325001e+001
    endloop
  endfacet
  facet normal  3.811431e-001 -9.141716e-001  1.379141e-001
    outer loop
      vertex  1.464853e+001  4.800747e+000  8.051687e+000
      vertex  1.464853e+001  5.584979e+000  1.325001e+001
      vertex  1.380000e+001  4.449762e+000  8.070177e+000
    endloop
  endfacet
  facet normal  3.793523e-001 -9.148495e-001  1.383561e-001
    outer loop
      vertex  1.380000e+001  4.449762e+000  8.070177e+000
      vertex  1.464853e+001  5.584979e+000  1.325001e+001
      vertex  1.380000e+001  5.248621e+000  1.335246e+001
    endloop
  endfacet
  facet normal  4.855403e-001  7.719635e-001 -4.102719e-001
    outer loop
      vertex  1.464853e+001  1.128002e+001 -1.471613e+000
      vertex  1.464853e+001  9.991027e+000 -3.896964e+000
      vertex  1.380000e+001  1.096839e+001 -3.062158e+000
    endloop
  endfacet
  facet normal  9.385542e-001  3.259363e-001 -1.134972e-001
    outer loop
      vertex  1.500000e+001  1.100458e+001  6.438542e-001
      vertex  1.500000e+001  9.912835e+000 -2.491363e+000
      vertex  1.464853e+001  1.128002e+001 -1.471613e+000
    endloop
  endfacet
  facet normal  8.994578e-001  4.268075e-001 -9.386776e-002
    outer loop
      vertex  1.464853e+001  1.225741e+001  2.972511e+000
      vertex  1.500000e+001  1.100458e+001  6.438542e-001
      vertex  1.464853e+001  1.128002e+001 -1.471613e+000
    endloop
  endfacet
  facet normal  4.506375e-001  5.390093e-001 -7.116143e-001
    outer loop
      vertex  1.464853e+001  9.991027e+000 -3.896964e+000
      vertex  1.464853e+001  9.032787e+000 -4.622778e+000
      vertex  1.380000e+001  9.700397e+000 -4.654439e+000
    endloop
  endfacet
  facet normal  2.769003e-001  7.516761e-001 -5.985894e-001
    outer loop
      vertex  1.380000e+001  1.096839e+001 -3.062158e+000
      vertex  1.464853e+001  9.991027e+000 -3.896964e+000
      vertex  1.380000e+001  9.700397e+000 -4.654439e+000
    endloop
  endfacet
  facet normal  9.342145e-001  2.824309e-001 -2.178900e-001
    outer loop
      vertex  1.500000e+001  9.912835e+000 -2.491363e+000
      vertex  1.500000e+001  8.990438e+000 -3.686982e+000
      vertex  1.464853e+001  9.991027e+000 -3.896964e+000
    endloop
  endfacet
  facet normal  9.007036e-001  3.836214e-001 -2.038814e-001
    outer loop
      vertex  1.464853e+001  1.128002e+001 -1.471613e+000
      vertex  1.500000e+001  9.912835e+000 -2.491363e+000
      vertex  1.464853e+001  9.991027e+000 -3.896964e+000
    endloop
  endfacet
  facet normal  5.039853e-001 -1.505239e-001 -8.504948e-001
    outer loop
      vertex  1.464853e+001  9.032787e+000 -4.622778e+000
      vertex  1.464853e+001  7.759756e+000 -4.397472e+000
      vertex  1.380000e+001  8.607573e+000 -5.050342e+000
    endloop
  endfacet
  facet normal  2.900427e-001  3.259703e-001 -8.997880e-001
    outer loop
      vertex  1.380000e+001  9.700397e+000 -4.654439e+000
      vertex  1.464853e+001  9.032787e+000 -4.622778e+000
      vertex  1.380000e+001  8.607573e+000 -5.050342e+000
    endloop
  endfacet
  facet normal  9.100218e-001  2.503083e-001 -3.304636e-001
    outer loop
      vertex  1.464853e+001  9.991027e+000 -3.896964e+000
      vertex  1.500000e+001  8.990438e+000 -3.686982e+000
      vertex  1.464853e+001  9.032787e+000 -4.622778e+000
    endloop
  endfacet
  facet normal  9.229857e-001 -3.823603e-001 -4.356479e-002
    outer loop
      vertex  1.464853e+001  5.405063e+000  3.627328e-001
      vertex  1.500000e+001  6.231637e+000  5.545010e-001
      vertex  1.464853e+001  4.762544e+000  6.002003e+000
    endloop
  endfacet
  facet normal  3.701118e-001 -3.052360e-001 -8.774099e-001
    outer loop
      vertex  1.380000e+001  7.557834e+000 -4.685156e+000
      vertex  1.380000e+001  8.607573e+000 -5.050342e+000
      vertex  1.464853e+001  7.759756e+000 -4.397472e+000
    endloop
  endfacet
  facet normal  7.044905e-001 -7.044913e-001  8.593576e-002
    outer loop
      vertex  1.440000e+001  4.568622e+000  6.449658e+000
      vertex  1.464853e+001  4.762544e+000  6.002003e+000
      vertex  1.483923e+001  5.007853e+000  6.449657e+000
    endloop
  endfacet
  facet normal  8.545614e-001 -5.126560e-001 -8.311791e-002
    outer loop
      vertex  1.483923e+001  5.007853e+000  6.449657e+000
      vertex  1.464853e+001  4.762544e+000  6.002003e+000
      vertex  1.500000e+001  6.231637e+000  5.545010e-001
    endloop
  endfacet
  facet normal  9.655619e-001 -2.587291e-001 -2.737768e-002
    outer loop
      vertex  1.483923e+001  5.007853e+000  6.449657e+000
      vertex  1.500000e+001  6.231637e+000  5.545010e-001
      vertex  1.500000e+001  5.607833e+000  6.449672e+000
    endloop
  endfacet
  facet normal  7.068149e-001  7.068165e-001 -2.869071e-002
    outer loop
      vertex  1.440000e+001  1.264708e+001  6.449658e+000
      vertex  1.483923e+001  1.220785e+001  6.449658e+000
      vertex  1.464853e+001  1.225741e+001  2.972511e+000
    endloop
  endfacet
  facet normal  9.647547e-001  2.585050e-001 -4.922705e-002
    outer loop
      vertex  1.464853e+001  1.225741e+001  2.972511e+000
      vertex  1.483923e+001  1.220785e+001  6.449658e+000
      vertex  1.500000e+001  1.160785e+001  6.449658e+000
    endloop
  endfacet
  facet normal  9.439863e-001  3.282178e-001 -3.410484e-002
    outer loop
      vertex  1.464853e+001  1.225741e+001  2.972511e+000
      vertex  1.500000e+001  1.160785e+001  6.449658e+000
      vertex  1.500000e+001  1.100458e+001  6.438542e-001
    endloop
  endfacet
  facet normal  3.795737e-001 -9.192143e-001 -1.047320e-001
    outer loop
      vertex  1.464853e+001  5.405063e+000  3.627328e-001
      vertex  1.464853e+001  4.762544e+000  6.002003e+000
      vertex  1.380000e+001  5.064733e+000  2.744789e-001
    endloop
  endfacet
  facet normal  3.811242e-001 -9.185504e-001 -1.049267e-001
    outer loop
      vertex  1.380000e+001  5.064733e+000  2.744789e-001
      vertex  1.464853e+001  4.762544e+000  6.002003e+000
      vertex  1.380000e+001  4.411117e+000  5.996374e+000
    endloop
  endfacet
  facet normal  3.771622e-001 -9.077203e-001 -1.838277e-001
    outer loop
      vertex  1.464853e+001  4.762544e+000  6.002003e+000
      vertex  1.440000e+001  4.568622e+000  6.449658e+000
      vertex  1.380000e+001  4.411117e+000  5.996374e+000
    endloop
  endfacet
  facet normal  2.588122e-001 -9.659027e-001 -6.954138e-003
    outer loop
      vertex  1.380000e+001  4.411117e+000  5.996374e+000
      vertex  1.440000e+001  4.568622e+000  6.449658e+000
      vertex  1.380000e+001  4.407853e+000  6.449658e+000
    endloop
  endfacet
  facet normal  2.640468e-001  9.101647e-001 -3.191856e-001
    outer loop
      vertex  1.380000e+001  1.096839e+001 -3.062158e+000
      vertex  1.380000e+001  1.217464e+001  3.774669e-001
      vertex  1.464853e+001  1.128002e+001 -1.471613e+000
    endloop
  endfacet
  facet normal  5.600582e-001  8.168452e-001 -1.381986e-001
    outer loop
      vertex  1.464853e+001  1.128002e+001 -1.471613e+000
      vertex  1.380000e+001  1.217464e+001  3.774669e-001
      vertex  1.380000e+001  1.260590e+001  2.926517e+000
    endloop
  endfacet
  facet normal  3.815297e-001  9.027810e-001 -1.985486e-001
    outer loop
      vertex  1.464853e+001  1.128002e+001 -1.471613e+000
      vertex  1.380000e+001  1.260590e+001  2.926517e+000
      vertex  1.464853e+001  1.225741e+001  2.972511e+000
    endloop
  endfacet
  facet normal  3.818235e-001  9.227206e-001 -5.289229e-002
    outer loop
      vertex  1.464853e+001  1.225741e+001  2.972511e+000
      vertex  1.380000e+001  1.260590e+001  2.926517e+000
      vertex  1.380000e+001  1.280785e+001  6.449658e+000
    endloop
  endfacet
  facet normal  2.577831e-001  9.620590e-001 -8.938922e-002
    outer loop
      vertex  1.464853e+001  1.225741e+001  2.972511e+000
      vertex  1.380000e+001  1.280785e+001  6.449658e+000
      vertex  1.440000e+001  1.264708e+001  6.449658e+000
    endloop
  endfacet
  facet normal  9.282686e-001  1.460456e-001 -3.420354e-001
    outer loop
      vertex  1.500000e+001  8.990438e+000 -3.686982e+000
      vertex  1.500000e+001  8.607853e+000 -3.850342e+000
      vertex  1.464853e+001  9.032787e+000 -4.622778e+000
    endloop
  endfacet
  facet normal  8.450899e-001 -2.013094e-001 -4.952753e-001
    outer loop
      vertex  1.464853e+001  9.032787e+000 -4.622778e+000
      vertex  1.500000e+001  8.607853e+000 -3.850342e+000
      vertex  1.500000e+001  8.249974e+000 -3.704879e+000
    endloop
  endfacet
  facet normal  9.091840e-001 -7.256734e-002 -4.100223e-001
    outer loop
      vertex  1.464853e+001  9.032787e+000 -4.622778e+000
      vertex  1.500000e+001  8.249974e+000 -3.704879e+000
      vertex  1.464853e+001  7.759756e+000 -4.397472e+000
    endloop
  endfacet
  facet normal  9.219340e-001 -3.039970e-001 -2.400487e-001
    outer loop
      vertex  1.500000e+001  7.327202e+000 -2.536283e+000
      vertex  1.464853e+001  6.582609e+000 -2.943200e+000
      vertex  1.500000e+001  8.249974e+000 -3.704879e+000
    endloop
  endfacet
  facet normal  9.185656e-001 -3.072329e-001 -2.486867e-001
    outer loop
      vertex  1.500000e+001  8.249974e+000 -3.704879e+000
      vertex  1.464853e+001  6.582609e+000 -2.943200e+000
      vertex  1.464853e+001  7.759756e+000 -4.397472e+000
    endloop
  endfacet
  facet normal  3.792136e-001 -7.192212e-001 -5.821666e-001
    outer loop
      vertex  1.464853e+001  6.582609e+000 -2.943200e+000
      vertex  1.380000e+001  6.279493e+000 -3.121441e+000
      vertex  1.464853e+001  7.759756e+000 -4.397472e+000
    endloop
  endfacet
  facet normal  3.704480e-001 -7.191321e-001 -5.878922e-001
    outer loop
      vertex  1.464853e+001  7.759756e+000 -4.397472e+000
      vertex  1.380000e+001  6.279493e+000 -3.121441e+000
      vertex  1.380000e+001  7.557834e+000 -4.685156e+000
    endloop
  endfacet
  facet normal  9.230146e-001 -3.626562e-001 -1.285478e-001
    outer loop
      vertex  1.500000e+001  6.231637e+000  5.545010e-001
      vertex  1.464853e+001  5.405063e+000  3.627328e-001
      vertex  1.500000e+001  7.327202e+000 -2.536283e+000
    endloop
  endfacet
  facet normal  9.221677e-001 -3.643663e-001 -1.297843e-001
    outer loop
      vertex  1.500000e+001  7.327202e+000 -2.536283e+000
      vertex  1.464853e+001  5.405063e+000  3.627328e-001
      vertex  1.464853e+001  6.582609e+000 -2.943200e+000
    endloop
  endfacet
  facet normal  3.815118e-001 -8.707743e-001 -3.101628e-001
    outer loop
      vertex  1.464853e+001  5.405063e+000  3.627328e-001
      vertex  1.380000e+001  5.064733e+000  2.744789e-001
      vertex  1.464853e+001  6.582609e+000 -2.943200e+000
    endloop
  endfacet
  facet normal  3.770558e-001 -8.720752e-001 -3.119515e-001
    outer loop
      vertex  1.464853e+001  6.582609e+000 -2.943200e+000
      vertex  1.380000e+001  5.064733e+000  2.744789e-001
      vertex  1.380000e+001  6.279493e+000 -3.121441e+000
    endloop
  endfacet
  facet normal -3.220539e-001  8.677366e-002  9.427361e-001
    outer loop
      vertex  1.235147e+001  8.717151e+000  1.759314e+001
      vertex  1.320000e+001  8.309234e+000  1.792055e+001
      vertex  1.320000e+001  9.187143e+000  1.783975e+001
    endloop
  endfacet
  facet normal -4.529137e-001  3.994708e-001  7.970523e-001
    outer loop
      vertex  1.235147e+001  8.717151e+000  1.759314e+001
      vertex  1.320000e+001  9.187143e+000  1.783975e+001
      vertex  1.235147e+001  9.696397e+000  1.710235e+001
    endloop
  endfacet
  facet normal -9.086894e-001 -2.997200e-001  2.906049e-001
    outer loop
      vertex  1.200000e+001  8.011008e+000  1.639870e+001
      vertex  1.235147e+001  6.868248e+000  1.631911e+001
      vertex  1.235147e+001  7.910488e+000  1.739404e+001
    endloop
  endfacet
  facet normal -2.854034e-001 -4.845272e-001  8.269089e-001
    outer loop
      vertex  1.235147e+001  7.910488e+000  1.739404e+001
      vertex  1.320000e+001  7.165794e+000  1.725056e+001
      vertex  1.320000e+001  8.309234e+000  1.792055e+001
    endloop
  endfacet
  facet normal -4.398830e-001 -2.151920e-001  8.718917e-001
    outer loop
      vertex  1.235147e+001  7.910488e+000  1.739404e+001
      vertex  1.320000e+001  8.309234e+000  1.792055e+001
      vertex  1.235147e+001  8.717151e+000  1.759314e+001
    endloop
  endfacet
  facet normal -9.068873e-001 -3.846029e-001  1.721513e-001
    outer loop
      vertex  1.200000e+001  7.078554e+000  1.493741e+001
      vertex  1.235147e+001  5.756380e+000  1.383509e+001
      vertex  1.235147e+001  6.868248e+000  1.631911e+001
    endloop
  endfacet
  facet normal -9.342194e-001 -3.006959e-001  1.918753e-001
    outer loop
      vertex  1.200000e+001  7.078554e+000  1.493741e+001
      vertex  1.235147e+001  6.868248e+000  1.631911e+001
      vertex  1.200000e+001  8.011008e+000  1.639870e+001
    endloop
  endfacet
  facet normal -4.560007e-001 -6.389515e-001  6.195195e-001
    outer loop
      vertex  1.235147e+001  6.868248e+000  1.631911e+001
      vertex  1.320000e+001  7.165794e+000  1.725056e+001
      vertex  1.235147e+001  7.910488e+000  1.739404e+001
    endloop
  endfacet
  facet normal -3.789700e-001  4.979818e-001  7.799974e-001
    outer loop
      vertex  1.235147e+001  9.696397e+000  1.710235e+001
      vertex  1.320000e+001  9.187143e+000  1.783975e+001
      vertex  1.320000e+001  9.928178e+000  1.736664e+001
    endloop
  endfacet
  facet normal -9.236554e-001 -3.584802e-001  1.354722e-001
    outer loop
      vertex  1.235147e+001  5.756380e+000  1.383509e+001
      vertex  1.200000e+001  7.078554e+000  1.493741e+001
      vertex  1.200000e+001  6.566049e+000  1.358125e+001
    endloop
  endfacet
  facet normal -9.185834e-001  1.770860e-001  3.533344e-001
    outer loop
      vertex  1.235147e+001  9.696397e+000  1.710235e+001
      vertex  1.200000e+001  9.125162e+000  1.647491e+001
      vertex  1.235147e+001  8.717151e+000  1.759314e+001
    endloop
  endfacet
  facet normal -8.947303e-001  2.477186e-001  3.716089e-001
    outer loop
      vertex  1.235147e+001  8.717151e+000  1.759314e+001
      vertex  1.200000e+001  9.125162e+000  1.647491e+001
      vertex  1.200000e+001  8.759945e+000  1.671836e+001
    endloop
  endfacet
  facet normal -9.256070e-001 -9.069286e-002  3.674595e-001
    outer loop
      vertex  1.235147e+001  8.717151e+000  1.759314e+001
      vertex  1.200000e+001  8.759945e+000  1.671836e+001
      vertex  1.235147e+001  7.910488e+000  1.739404e+001
    endloop
  endfacet
  facet normal -8.546664e-001  5.685620e-002  5.160550e-001
    outer loop
      vertex  1.235147e+001  7.910488e+000  1.739404e+001
      vertex  1.200000e+001  8.759945e+000  1.671836e+001
      vertex  1.200000e+001  8.538836e+000  1.674272e+001
    endloop
  endfacet
  facet normal -9.299229e-001 -2.008047e-001  3.080923e-001
    outer loop
      vertex  1.235147e+001  7.910488e+000  1.739404e+001
      vertex  1.200000e+001  8.538836e+000  1.674272e+001
      vertex  1.200000e+001  8.011008e+000  1.639870e+001
    endloop
  endfacet
  facet normal -2.584554e-001 -9.646193e-001  5.206227e-002
    outer loop
      vertex  1.320000e+001  4.407853e+000  6.449658e+000
      vertex  1.320000e+001  4.587379e+000  9.775955e+000
      vertex  1.260000e+001  4.568614e+000  6.449657e+000
    endloop
  endfacet
  facet normal -3.824621e-001 -9.209883e-001  7.418452e-002
    outer loop
      vertex  1.260000e+001  4.568614e+000  6.449657e+000
      vertex  1.320000e+001  4.587379e+000  9.775955e+000
      vertex  1.235147e+001  4.936415e+000  9.734540e+000
    endloop
  endfacet
  facet normal -7.068661e-001 -7.068815e-001  2.566763e-002
    outer loop
      vertex  1.260000e+001  4.568614e+000  6.449657e+000
      vertex  1.235147e+001  4.936415e+000  9.734540e+000
      vertex  1.216077e+001  5.007835e+000  6.449658e+000
    endloop
  endfacet
  facet normal -9.236672e-001 -3.826407e-001  2.061669e-002
    outer loop
      vertex  1.200000e+001  5.779832e+000  9.641554e+000
      vertex  1.200000e+001  5.607853e+000  6.449658e+000
      vertex  1.235147e+001  4.936415e+000  9.734540e+000
    endloop
  endfacet
  facet normal -9.647008e-001 -2.584832e-001  5.038530e-002
    outer loop
      vertex  1.235147e+001  4.936415e+000  9.734540e+000
      vertex  1.200000e+001  5.607853e+000  6.449658e+000
      vertex  1.216077e+001  5.007835e+000  6.449658e+000
    endloop
  endfacet
  facet normal -3.811468e-001  9.218639e-001  6.995859e-002
    outer loop
      vertex  1.320000e+001  1.246018e+001  1.103101e+001
      vertex  1.320000e+001  1.280785e+001  6.449658e+000
      vertex  1.235147e+001  1.211398e+001  1.097008e+001
    endloop
  endfacet
  facet normal -2.575428e-001  9.611621e-001  9.919247e-002
    outer loop
      vertex  1.235147e+001  1.211398e+001  1.097008e+001
      vertex  1.320000e+001  1.280785e+001  6.449658e+000
      vertex  1.260000e+001  1.264708e+001  6.449658e+000
    endloop
  endfacet
  facet normal -7.064065e-001  7.064080e-001  4.447066e-002
    outer loop
      vertex  1.235147e+001  1.211398e+001  1.097008e+001
      vertex  1.260000e+001  1.264708e+001  6.449658e+000
      vertex  1.216077e+001  1.220785e+001  6.449658e+000
    endloop
  endfacet
  facet normal -9.649000e-001  2.585439e-001  4.607516e-002
    outer loop
      vertex  1.216077e+001  1.220785e+001  6.449658e+000
      vertex  1.200000e+001  1.160785e+001  6.449658e+000
      vertex  1.235147e+001  1.211398e+001  1.097008e+001
    endloop
  endfacet
  facet normal -9.234279e-001  3.826784e-001  2.895194e-002
    outer loop
      vertex  1.235147e+001  1.211398e+001  1.097008e+001
      vertex  1.200000e+001  1.160785e+001  6.449658e+000
      vertex  1.200000e+001  1.127590e+001  1.083734e+001
    endloop
  endfacet
  facet normal -3.781707e-001  8.943254e-001  2.391002e-001
    outer loop
      vertex  1.320000e+001  1.136694e+001  1.512014e+001
      vertex  1.320000e+001  1.246018e+001  1.103101e+001
      vertex  1.235147e+001  1.104741e+001  1.497323e+001
    endloop
  endfacet
  facet normal -3.815180e-001  8.932026e-001  2.379773e-001
    outer loop
      vertex  1.235147e+001  1.104741e+001  1.497323e+001
      vertex  1.320000e+001  1.246018e+001  1.103101e+001
      vertex  1.235147e+001  1.211398e+001  1.097008e+001
    endloop
  endfacet
  facet normal -9.226257e-001  3.726954e-001  9.929781e-002
    outer loop
      vertex  1.235147e+001  1.104741e+001  1.497323e+001
      vertex  1.235147e+001  1.211398e+001  1.097008e+001
      vertex  1.200000e+001  1.026450e+001  1.464606e+001
    endloop
  endfacet
  facet normal -9.231648e-001  3.715279e-001  9.865880e-002
    outer loop
      vertex  1.200000e+001  1.026450e+001  1.464606e+001
      vertex  1.235147e+001  1.211398e+001  1.097008e+001
      vertex  1.200000e+001  1.127590e+001  1.083734e+001
    endloop
  endfacet
  facet normal -3.697927e-001  7.824075e-001  5.010906e-001
    outer loop
      vertex  1.320000e+001  9.928178e+000  1.736664e+001
      vertex  1.320000e+001  1.136694e+001  1.512014e+001
      vertex  1.235147e+001  9.696397e+000  1.710235e+001
    endloop
  endfacet
  facet normal -3.799220e-001  7.810460e-001  4.956071e-001
    outer loop
      vertex  1.235147e+001  9.696397e+000  1.710235e+001
      vertex  1.320000e+001  1.136694e+001  1.512014e+001
      vertex  1.235147e+001  1.104741e+001  1.497323e+001
    endloop
  endfacet
  facet normal -9.188659e-001  3.331579e-001  2.114030e-001
    outer loop
      vertex  1.235147e+001  9.696397e+000  1.710235e+001
      vertex  1.235147e+001  1.104741e+001  1.497323e+001
      vertex  1.200000e+001  9.125162e+000  1.647491e+001
    endloop
  endfacet
  facet normal -9.220934e-001  3.284456e-001  2.046154e-001
    outer loop
      vertex  1.200000e+001  9.125162e+000  1.647491e+001
      vertex  1.235147e+001  1.104741e+001  1.497323e+001
      vertex  1.200000e+001  1.026450e+001  1.464606e+001
    endloop
  endfacet
  facet normal -3.804654e-001 -8.440945e-001  3.778234e-001
    outer loop
      vertex  1.235147e+001  5.756380e+000  1.383509e+001
      vertex  1.320000e+001  5.421060e+000  1.394041e+001
      vertex  1.235147e+001  6.868248e+000  1.631911e+001
    endloop
  endfacet
  facet normal -5.160599e-001 -8.010656e-001  3.032757e-001
    outer loop
      vertex  1.235147e+001  6.868248e+000  1.631911e+001
      vertex  1.320000e+001  5.421060e+000  1.394041e+001
      vertex  1.320000e+001  5.988422e+000  1.543903e+001
    endloop
  endfacet
  facet normal -2.910159e-001 -8.021782e-001  5.213634e-001
    outer loop
      vertex  1.235147e+001  6.868248e+000  1.631911e+001
      vertex  1.320000e+001  5.988422e+000  1.543903e+001
      vertex  1.320000e+001  7.165794e+000  1.725056e+001
    endloop
  endfacet
  facet normal -3.816628e-001 -9.063192e-001  1.814356e-001
    outer loop
      vertex  1.320000e+001  4.587379e+000  9.775955e+000
      vertex  1.320000e+001  5.421060e+000  1.394041e+001
      vertex  1.235147e+001  4.936415e+000  9.734540e+000
    endloop
  endfacet
  facet normal -3.808137e-001 -9.067018e-001  1.813083e-001
    outer loop
      vertex  1.235147e+001  4.936415e+000  9.734540e+000
      vertex  1.320000e+001  5.421060e+000  1.394041e+001
      vertex  1.235147e+001  5.756380e+000  1.383509e+001
    endloop
  endfacet
  facet normal -9.233587e-001 -3.764852e-001  7.528375e-002
    outer loop
      vertex  1.235147e+001  4.936415e+000  9.734540e+000
      vertex  1.235147e+001  5.756380e+000  1.383509e+001
      vertex  1.200000e+001  5.779832e+000  9.641554e+000
    endloop
  endfacet
  facet normal -9.231024e-001 -3.771180e-001  7.525873e-002
    outer loop
      vertex  1.200000e+001  5.779832e+000  9.641554e+000
      vertex  1.235147e+001  5.756380e+000  1.383509e+001
      vertex  1.200000e+001  6.566049e+000  1.358125e+001
    endloop
  endfacet
endsolid CATIA STL
