solid CATIA STL
  facet normal -1.371730e-001 -7.150053e-001 -6.855296e-001
    outer loop
      vertex -1.590075e+000 -2.910612e+000 -5.000000e+000
      vertex  4.000182e-001 -3.292409e+000 -5.000000e+000
      vertex -2.732272e-001 -5.331695e+000 -2.738317e+000
    endloop
  endfacet
  facet normal  8.563534e-001  5.086107e-001 -8.929709e-002
    outer loop
      vertex  5.499091e+000  2.400000e+000  0.000000e+000
      vertex  5.499091e+000  2.256464e+000 -8.175378e-001
      vertex  4.872915e+000  3.493532e+000  2.234607e-001
    endloop
  endfacet
  facet normal  8.441212e-001 -5.280753e-001  9.271452e-002
    outer loop
      vertex  5.499091e+000 -2.400000e+000  2.939055e-016
      vertex  5.499091e+000 -2.256464e+000  8.175378e-001
      vertex  4.490268e+000 -3.973356e+000  2.234607e-001
    endloop
  endfacet
  facet normal  6.384823e-001  3.748051e-001 -6.722065e-001
    outer loop
      vertex  4.338841e+000  3.110640e+000 -2.738317e+000
      vertex  3.114602e+000  1.139847e+000 -5.000000e+000
      vertex  2.513440e+000  2.163930e+000 -5.000000e+000
    endloop
  endfacet
  facet normal  8.945382e-001  1.618871e-001  4.166462e-001
    outer loop
      vertex  5.043450e+000  8.823583e-001  3.128107e+000
      vertex  5.499091e+000  2.810445e-001  2.383488e+000
      vertex  5.499091e+000  1.401935e+000  1.947968e+000
    endloop
  endfacet
  facet normal  8.158451e-001  3.426260e-001  4.658371e-001
    outer loop
      vertex  5.043450e+000  8.823583e-001  3.128107e+000
      vertex  5.499091e+000  1.401935e+000  1.947968e+000
      vertex  4.161151e+000  2.983248e+000  3.128107e+000
    endloop
  endfacet
  facet normal  9.226175e-001  7.265771e-002 -3.788112e-001
    outer loop
      vertex  5.258817e+000  9.200369e-001 -2.738317e+000
      vertex  5.499091e+000  1.142984e+000 -2.110353e+000
      vertex  5.499091e+000 -2.810445e-001 -2.383488e+000
    endloop
  endfacet
  facet normal  7.260386e-001  1.251933e-001 -6.761616e-001
    outer loop
      vertex  5.258817e+000  9.200369e-001 -2.738317e+000
      vertex  3.316477e+000 -3.089285e-002 -5.000000e+000
      vertex  3.114602e+000  1.139847e+000 -5.000000e+000
    endloop
  endfacet
  facet normal  8.158092e-001 -4.456786e-001  3.685456e-001
    outer loop
      vertex  4.926833e+000 -1.393294e+000  3.128107e+000
      vertex  3.834395e+000 -3.392987e+000  3.128107e+000
      vertex  5.499091e+000 -2.256464e+000  8.175378e-001
    endloop
  endfacet
  facet normal  8.438375e-001 -3.971882e-001 -3.608044e-001
    outer loop
      vertex  5.499091e+000 -2.073289e+000 -1.208913e+000
      vertex  5.137219e+000 -1.452790e+000 -2.738317e+000
      vertex  5.499091e+000 -1.401935e+000 -1.947968e+000
    endloop
  endfacet
  facet normal  7.267439e-001 -1.393029e-001 -6.726351e-001
    outer loop
      vertex  5.137219e+000 -1.452790e+000 -2.738317e+000
      vertex  3.092828e+000 -1.197670e+000 -5.000000e+000
      vertex  3.316477e+000 -3.089285e-002 -5.000000e+000
    endloop
  endfacet
  facet normal  7.661487e-001 -3.926186e-002 -6.414629e-001
    outer loop
      vertex  5.137219e+000 -1.452790e+000 -2.738317e+000
      vertex  3.316477e+000 -3.089285e-002 -5.000000e+000
      vertex  5.258817e+000  9.200369e-001 -2.738317e+000
    endloop
  endfacet
  facet normal  2.196104e-001 -7.075005e-001 -6.717248e-001
    outer loop
      vertex  2.067167e+000 -4.922240e+000 -2.738317e+000
      vertex  4.000182e-001 -3.292409e+000 -5.000000e+000
      vertex  1.534632e+000 -2.940222e+000 -5.000000e+000
    endloop
  endfacet
  facet normal  4.721318e-001  5.838497e-001 -6.604627e-001
    outer loop
      vertex  1.590075e+000  2.910612e+000 -5.000000e+000
      vertex  2.559505e+000  4.685142e+000 -2.738317e+000
      vertex  2.513440e+000  2.163930e+000 -5.000000e+000
    endloop
  endfacet
  facet normal  3.809271e-001  7.005771e-001 -6.033956e-001
    outer loop
      vertex  5.499091e+000  2.256464e+000 -8.175378e-001
      vertex  5.499091e+000  1.142984e+000 -2.110353e+000
      vertex  4.872915e+000  3.493532e+000  2.234607e-001
    endloop
  endfacet
  facet normal  7.611269e-001 -3.900451e-002 -6.474292e-001
    outer loop
      vertex  5.137219e+000 -1.452790e+000 -2.738317e+000
      vertex  5.258817e+000  9.200369e-001 -2.738317e+000
      vertex  5.499091e+000 -2.810445e-001 -2.383488e+000
    endloop
  endfacet
  facet normal  9.017943e-001 -1.565176e-001 -4.028268e-001
    outer loop
      vertex  5.137219e+000 -1.452790e+000 -2.738317e+000
      vertex  5.499091e+000 -2.810445e-001 -2.383488e+000
      vertex  5.499091e+000 -1.401935e+000 -1.947968e+000
    endloop
  endfacet
  facet normal  7.791145e-001 -5.571935e-001  2.872563e-001
    outer loop
      vertex  4.490268e+000 -3.973356e+000  2.234607e-001
      vertex  5.499091e+000 -2.256464e+000  8.175378e-001
      vertex  3.834395e+000 -3.392987e+000  3.128107e+000
    endloop
  endfacet
  facet normal  4.615433e-001 -5.933139e-001 -6.595123e-001
    outer loop
      vertex  3.998132e+000 -3.537875e+000 -2.738317e+000
      vertex  1.534632e+000 -2.940222e+000 -5.000000e+000
      vertex  2.472338e+000 -2.210773e+000 -5.000000e+000
    endloop
  endfacet
  facet normal -7.044981e-002 -2.491180e-001  9.659075e-001
    outer loop
      vertex  1.761323e-016  3.224080e-016  6.000000e+000
      vertex -1.407233e+000 -2.575922e+000  5.233003e+000
      vertex -1.502221e-001 -2.931401e+000  5.233003e+000
    endloop
  endfacet
  facet normal  4.461513e-002 -2.550146e-001  9.659074e-001
    outer loop
      vertex  1.761323e-016  3.224080e-016  6.000000e+000
      vertex -1.502221e-001 -2.931401e+000  5.233003e+000
      vertex  1.136542e+000 -2.706280e+000  5.233003e+000
    endloop
  endfacet
  facet normal  1.508435e-001 -2.104024e-001  9.659074e-001
    outer loop
      vertex  1.761323e-016  3.224080e-016  6.000000e+000
      vertex  1.136542e+000 -2.706280e+000  5.233003e+000
      vertex  2.198200e+000 -1.945147e+000  5.233003e+000
    endloop
  endfacet
  facet normal  2.271955e-001 -1.241175e-001  9.659075e-001
    outer loop
      vertex  1.761323e-016  3.224080e-016  6.000000e+000
      vertex  2.198200e+000 -1.945147e+000  5.233003e+000
      vertex  2.824477e+000 -7.987539e-001  5.233003e+000
    endloop
  endfacet
  facet normal  2.585486e-001 -1.324955e-002  9.659073e-001
    outer loop
      vertex  1.761323e-016  3.224080e-016  6.000000e+000
      vertex  2.824477e+000 -7.987539e-001  5.233003e+000
      vertex  2.891333e+000  5.058424e-001  5.233003e+000
    endloop
  endfacet
  facet normal  2.386930e-001  1.002426e-001  9.659074e-001
    outer loop
      vertex  1.761323e-016  3.224080e-016  6.000000e+000
      vertex  2.891333e+000  5.058424e-001  5.233003e+000
      vertex  2.385524e+000  1.710250e+000  5.233003e+000
    endloop
  endfacet
  facet normal  1.715614e-001  1.938805e-001  9.659074e-001
    outer loop
      vertex  1.761323e-016  3.224080e-016  6.000000e+000
      vertex  2.385524e+000  1.710250e+000  5.233003e+000
      vertex  1.407233e+000  2.575922e+000  5.233003e+000
    endloop
  endfacet
  facet normal  6.396231e-001 -3.917465e-001 -6.613749e-001
    outer loop
      vertex  2.472338e+000 -2.210773e+000 -5.000000e+000
      vertex  3.092828e+000 -1.197670e+000 -5.000000e+000
      vertex  3.998132e+000 -3.537875e+000 -2.738317e+000
    endloop
  endfacet
  facet normal  6.695400e-001 -3.657714e-001 -6.464731e-001
    outer loop
      vertex  3.998132e+000 -3.537875e+000 -2.738317e+000
      vertex  3.092828e+000 -1.197670e+000 -5.000000e+000
      vertex  5.137219e+000 -1.452790e+000 -2.738317e+000
    endloop
  endfacet
  facet normal  8.577445e-001 -4.685880e-001 -2.114230e-001
    outer loop
      vertex  3.998132e+000 -3.537875e+000 -2.738317e+000
      vertex  5.137219e+000 -1.452790e+000 -2.738317e+000
      vertex  4.490268e+000 -3.973356e+000  2.234607e-001
    endloop
  endfacet
  facet normal  6.365180e-001 -6.504179e-001 -4.144892e-001
    outer loop
      vertex  4.490268e+000 -3.973356e+000  2.234607e-001
      vertex  5.137219e+000 -1.452790e+000 -2.738317e+000
      vertex  5.499091e+000 -2.073289e+000 -1.208913e+000
    endloop
  endfacet
  facet normal  8.228087e-001 -5.486365e-001 -1.482699e-001
    outer loop
      vertex  4.490268e+000 -3.973356e+000  2.234607e-001
      vertex  5.499091e+000 -2.073289e+000 -1.208913e+000
      vertex  5.499091e+000 -2.400000e+000  2.939055e-016
    endloop
  endfacet
  facet normal -1.912760e-001 -6.763722e-001  7.112905e-001
    outer loop
      vertex -1.502221e-001 -2.931401e+000  5.233003e+000
      vertex -1.407233e+000 -2.575922e+000  5.233003e+000
      vertex -2.620376e-001 -5.113344e+000  3.128107e+000
    endloop
  endfacet
  facet normal -1.912760e-001 -6.763722e-001  7.112905e-001
    outer loop
      vertex -2.620376e-001 -5.113344e+000  3.128107e+000
      vertex -1.407233e+000 -2.575922e+000  5.233003e+000
      vertex -2.454684e+000 -4.493270e+000  3.128107e+000
    endloop
  endfacet
  facet normal -2.610788e-001 -9.232024e-001  2.820200e-001
    outer loop
      vertex -2.620376e-001 -5.113344e+000  3.128107e+000
      vertex -2.454684e+000 -4.493270e+000  3.128107e+000
      vertex -3.068590e-001 -5.987980e+000  2.234607e-001
    endloop
  endfacet
  facet normal -2.610790e-001 -9.232024e-001  2.820198e-001
    outer loop
      vertex -3.068590e-001 -5.987980e+000  2.234607e-001
      vertex -2.454684e+000 -4.493270e+000  3.128107e+000
      vertex -2.874557e+000 -5.261842e+000  2.234607e-001
    endloop
  endfacet
  facet normal -2.659734e-001 -9.405098e-001 -2.114229e-001
    outer loop
      vertex -3.068590e-001 -5.987980e+000  2.234607e-001
      vertex -2.874557e+000 -5.261842e+000  2.234607e-001
      vertex -2.732272e-001 -5.331695e+000 -2.738317e+000
    endloop
  endfacet
  facet normal -2.659735e-001 -9.405096e-001 -2.114230e-001
    outer loop
      vertex -2.732272e-001 -5.331695e+000 -2.738317e+000
      vertex -2.874557e+000 -5.261842e+000  2.234607e-001
      vertex -2.559505e+000 -4.685142e+000 -2.738317e+000
    endloop
  endfacet
  facet normal -2.051364e-001 -7.253832e-001 -6.570680e-001
    outer loop
      vertex -2.732272e-001 -5.331695e+000 -2.738317e+000
      vertex -2.559505e+000 -4.685142e+000 -2.738317e+000
      vertex -1.590075e+000 -2.910612e+000 -5.000000e+000
    endloop
  endfacet
  facet normal  4.658006e-001  5.263987e-001  7.112905e-001
    outer loop
      vertex  1.407233e+000  2.575922e+000  5.233003e+000
      vertex  2.385524e+000  1.710250e+000  5.233003e+000
      vertex  2.454684e+000  4.493270e+000  3.128107e+000
    endloop
  endfacet
  facet normal  4.658007e-001  5.263987e-001  7.112905e-001
    outer loop
      vertex  2.454684e+000  4.493270e+000  3.128107e+000
      vertex  2.385524e+000  1.710250e+000  5.233003e+000
      vertex  4.161151e+000  2.983248e+000  3.128107e+000
    endloop
  endfacet
  facet normal  6.357865e-001  7.184986e-001  2.820199e-001
    outer loop
      vertex  2.454684e+000  4.493270e+000  3.128107e+000
      vertex  4.161151e+000  2.983248e+000  3.128107e+000
      vertex  2.874557e+000  5.261842e+000  2.234607e-001
    endloop
  endfacet
  facet normal  6.357864e-001  7.184988e-001  2.820200e-001
    outer loop
      vertex  2.874557e+000  5.261842e+000  2.234607e-001
      vertex  4.161151e+000  2.983248e+000  3.128107e+000
      vertex  4.872915e+000  3.493532e+000  2.234607e-001
    endloop
  endfacet
  facet normal  6.477056e-001  7.319685e-001 -2.114229e-001
    outer loop
      vertex  2.874557e+000  5.261842e+000  2.234607e-001
      vertex  4.872915e+000  3.493532e+000  2.234607e-001
      vertex  2.559505e+000  4.685142e+000 -2.738317e+000
    endloop
  endfacet
  facet normal  6.477055e-001  7.319685e-001 -2.114229e-001
    outer loop
      vertex  2.559505e+000  4.685142e+000 -2.738317e+000
      vertex  4.872915e+000  3.493532e+000  2.234607e-001
      vertex  4.338841e+000  3.110640e+000 -2.738317e+000
    endloop
  endfacet
  facet normal  5.053423e-001  5.710846e-001 -6.469092e-001
    outer loop
      vertex  2.559505e+000  4.685142e+000 -2.738317e+000
      vertex  4.338841e+000  3.110640e+000 -2.738317e+000
      vertex  2.513440e+000  2.163930e+000 -5.000000e+000
    endloop
  endfacet
  facet normal  8.697770e-001  4.444805e-001 -2.143014e-001
    outer loop
      vertex  4.872915e+000  3.493532e+000  2.234607e-001
      vertex  5.499091e+000  1.142984e+000 -2.110353e+000
      vertex  4.338841e+000  3.110640e+000 -2.738317e+000
    endloop
  endfacet
  facet normal  8.278609e-001  3.476721e-001 -4.401938e-001
    outer loop
      vertex  4.338841e+000  3.110640e+000 -2.738317e+000
      vertex  5.499091e+000  1.142984e+000 -2.110353e+000
      vertex  5.258817e+000  9.200369e-001 -2.738317e+000
    endloop
  endfacet
  facet normal  7.072015e-001  2.969995e-001 -6.416053e-001
    outer loop
      vertex  4.338841e+000  3.110640e+000 -2.738317e+000
      vertex  5.258817e+000  9.200369e-001 -2.738317e+000
      vertex  3.114602e+000  1.139847e+000 -5.000000e+000
    endloop
  endfacet
  facet normal  8.262102e-001  4.844421e-001  2.875633e-001
    outer loop
      vertex  4.161151e+000  2.983248e+000  3.128107e+000
      vertex  5.499091e+000  1.401935e+000  1.947968e+000
      vertex  4.872915e+000  3.493532e+000  2.234607e-001
    endloop
  endfacet
  facet normal  5.273503e-001  6.289058e-001  5.712959e-001
    outer loop
      vertex  4.872915e+000  3.493532e+000  2.234607e-001
      vertex  5.499091e+000  1.401935e+000  1.947968e+000
      vertex  5.499091e+000  2.073289e+000  1.208913e+000
    endloop
  endfacet
  facet normal  8.717182e-001  4.730375e-001  1.278391e-001
    outer loop
      vertex  4.872915e+000  3.493532e+000  2.234607e-001
      vertex  5.499091e+000  2.073289e+000  1.208913e+000
      vertex  5.499091e+000  2.400000e+000  0.000000e+000
    endloop
  endfacet
  facet normal  6.480678e-001  2.721655e-001  7.112905e-001
    outer loop
      vertex  4.161151e+000  2.983248e+000  3.128107e+000
      vertex  2.385524e+000  1.710250e+000  5.233003e+000
      vertex  5.043450e+000  8.823583e-001  3.128107e+000
    endloop
  endfacet
  facet normal  6.480677e-001  2.721655e-001  7.112904e-001
    outer loop
      vertex  5.043450e+000  8.823583e-001  3.128107e+000
      vertex  2.385524e+000  1.710250e+000  5.233003e+000
      vertex  2.891333e+000  5.058424e-001  5.233003e+000
    endloop
  endfacet
  facet normal  7.019771e-001 -3.597340e-002  7.112904e-001
    outer loop
      vertex  5.043450e+000  8.823583e-001  3.128107e+000
      vertex  2.891333e+000  5.058424e-001  5.233003e+000
      vertex  4.926833e+000 -1.393294e+000  3.128107e+000
    endloop
  endfacet
  facet normal  7.019771e-001 -3.597343e-002  7.112904e-001
    outer loop
      vertex  4.926833e+000 -1.393294e+000  3.128107e+000
      vertex  2.891333e+000  5.058424e-001  5.233003e+000
      vertex  2.824477e+000 -7.987539e-001  5.233003e+000
    endloop
  endfacet
  facet normal  6.168513e-001 -3.369873e-001  7.112905e-001
    outer loop
      vertex  4.926833e+000 -1.393294e+000  3.128107e+000
      vertex  2.824477e+000 -7.987539e-001  5.233003e+000
      vertex  3.834395e+000 -3.392987e+000  3.128107e+000
    endloop
  endfacet
  facet normal  6.168512e-001 -3.369874e-001  7.112905e-001
    outer loop
      vertex  3.834395e+000 -3.392987e+000  3.128107e+000
      vertex  2.824477e+000 -7.987539e-001  5.233003e+000
      vertex  2.198200e+000 -1.945147e+000  5.233003e+000
    endloop
  endfacet
  facet normal  8.048952e-001 -1.117825e-001  5.827935e-001
    outer loop
      vertex  5.499091e+000  2.810445e-001  2.383488e+000
      vertex  5.043450e+000  8.823583e-001  3.128107e+000
      vertex  5.499091e+000 -1.142984e+000  2.110353e+000
    endloop
  endfacet
  facet normal  8.754550e-001 -4.486341e-002  4.812129e-001
    outer loop
      vertex  5.499091e+000 -1.142984e+000  2.110353e+000
      vertex  5.043450e+000  8.823583e-001  3.128107e+000
      vertex  4.926833e+000 -1.393294e+000  3.128107e+000
    endloop
  endfacet
  facet normal  8.306883e-001 -4.218425e-001  3.633262e-001
    outer loop
      vertex  5.499091e+000 -1.142984e+000  2.110353e+000
      vertex  4.926833e+000 -1.393294e+000  3.128107e+000
      vertex  5.499091e+000 -2.256464e+000  8.175378e-001
    endloop
  endfacet
  facet normal  4.095504e-001 -5.712569e-001  7.112905e-001
    outer loop
      vertex  2.198200e+000 -1.945147e+000  5.233003e+000
      vertex  1.136542e+000 -2.706280e+000  5.233003e+000
      vertex  3.834395e+000 -3.392987e+000  3.128107e+000
    endloop
  endfacet
  facet normal  4.095503e-001 -5.712568e-001  7.112905e-001
    outer loop
      vertex  3.834395e+000 -3.392987e+000  3.128107e+000
      vertex  1.136542e+000 -2.706280e+000  5.233003e+000
      vertex  1.982509e+000 -4.720657e+000  3.128107e+000
    endloop
  endfacet
  facet normal  5.590086e-001 -7.797270e-001  2.820199e-001
    outer loop
      vertex  3.834395e+000 -3.392987e+000  3.128107e+000
      vertex  1.982509e+000 -4.720657e+000  3.128107e+000
      vertex  4.490268e+000 -3.973356e+000  2.234607e-001
    endloop
  endfacet
  facet normal  5.590086e-001 -7.797270e-001  2.820200e-001
    outer loop
      vertex  4.490268e+000 -3.973356e+000  2.234607e-001
      vertex  1.982509e+000 -4.720657e+000  3.128107e+000
      vertex  2.321617e+000 -5.528125e+000  2.234607e-001
    endloop
  endfacet
  facet normal  5.694885e-001 -7.943445e-001 -2.114230e-001
    outer loop
      vertex  4.490268e+000 -3.973356e+000  2.234607e-001
      vertex  2.321617e+000 -5.528125e+000  2.234607e-001
      vertex  3.998132e+000 -3.537875e+000 -2.738317e+000
    endloop
  endfacet
  facet normal  5.694883e-001 -7.943445e-001 -2.114230e-001
    outer loop
      vertex  3.998132e+000 -3.537875e+000 -2.738317e+000
      vertex  2.321617e+000 -5.528125e+000  2.234607e-001
      vertex  2.067167e+000 -4.922240e+000 -2.738317e+000
    endloop
  endfacet
  facet normal  4.440798e-001 -6.194197e-001 -6.473889e-001
    outer loop
      vertex  3.998132e+000 -3.537875e+000 -2.738317e+000
      vertex  2.067167e+000 -4.922240e+000 -2.738317e+000
      vertex  1.534632e+000 -2.940222e+000 -5.000000e+000
    endloop
  endfacet
  facet normal  1.211331e-001 -6.923819e-001  7.112905e-001
    outer loop
      vertex  1.136542e+000 -2.706280e+000  5.233003e+000
      vertex -1.502221e-001 -2.931401e+000  5.233003e+000
      vertex  1.982509e+000 -4.720657e+000  3.128107e+000
    endloop
  endfacet
  facet normal  1.211331e-001 -6.923819e-001  7.112905e-001
    outer loop
      vertex  1.982509e+000 -4.720657e+000  3.128107e+000
      vertex -1.502221e-001 -2.931401e+000  5.233003e+000
      vertex -2.620376e-001 -5.113344e+000  3.128107e+000
    endloop
  endfacet
  facet normal  1.653385e-001 -9.450545e-001  2.820200e-001
    outer loop
      vertex  1.982509e+000 -4.720657e+000  3.128107e+000
      vertex -2.620376e-001 -5.113344e+000  3.128107e+000
      vertex  2.321617e+000 -5.528125e+000  2.234607e-001
    endloop
  endfacet
  facet normal  1.653385e-001 -9.450545e-001  2.820199e-001
    outer loop
      vertex  2.321617e+000 -5.528125e+000  2.234607e-001
      vertex -2.620376e-001 -5.113344e+000  3.128107e+000
      vertex -3.068590e-001 -5.987980e+000  2.234607e-001
    endloop
  endfacet
  facet normal  1.684381e-001 -9.627715e-001 -2.114230e-001
    outer loop
      vertex  2.321617e+000 -5.528125e+000  2.234607e-001
      vertex -3.068590e-001 -5.987980e+000  2.234607e-001
      vertex  2.067167e+000 -4.922240e+000 -2.738317e+000
    endloop
  endfacet
  facet normal  1.684383e-001 -9.627715e-001 -2.114228e-001
    outer loop
      vertex  2.067167e+000 -4.922240e+000 -2.738317e+000
      vertex -3.068590e-001 -5.987980e+000  2.234607e-001
      vertex -2.732272e-001 -5.331695e+000 -2.738317e+000
    endloop
  endfacet
  facet normal  1.321599e-001 -7.554092e-001 -6.417870e-001
    outer loop
      vertex  2.067167e+000 -4.922240e+000 -2.738317e+000
      vertex -2.732272e-001 -5.331695e+000 -2.738317e+000
      vertex  4.000182e-001 -3.292409e+000 -5.000000e+000
    endloop
  endfacet
  facet normal  1.371730e-001  7.150053e-001 -6.855296e-001
    outer loop
      vertex  1.590075e+000  2.910612e+000 -5.000000e+000
      vertex -4.000182e-001  3.292409e+000 -5.000000e+000
      vertex  2.732272e-001  5.331695e+000 -2.738317e+000
    endloop
  endfacet
  facet normal -6.384823e-001 -3.748051e-001 -6.722065e-001
    outer loop
      vertex -4.338841e+000 -3.110640e+000 -2.738317e+000
      vertex -3.114602e+000 -1.139847e+000 -5.000000e+000
      vertex -2.513440e+000 -2.163930e+000 -5.000000e+000
    endloop
  endfacet
  facet normal -7.260386e-001 -1.251933e-001 -6.761616e-001
    outer loop
      vertex -5.258817e+000 -9.200369e-001 -2.738317e+000
      vertex -3.316477e+000  3.089285e-002 -5.000000e+000
      vertex -3.114602e+000 -1.139847e+000 -5.000000e+000
    endloop
  endfacet
  facet normal -7.267439e-001  1.393029e-001 -6.726351e-001
    outer loop
      vertex -5.137219e+000  1.452790e+000 -2.738317e+000
      vertex -3.092828e+000  1.197670e+000 -5.000000e+000
      vertex -3.316477e+000  3.089285e-002 -5.000000e+000
    endloop
  endfacet
  facet normal -2.196104e-001  7.075005e-001 -6.717248e-001
    outer loop
      vertex -2.067167e+000  4.922240e+000 -2.738317e+000
      vertex -4.000182e-001  3.292409e+000 -5.000000e+000
      vertex -1.534632e+000  2.940222e+000 -5.000000e+000
    endloop
  endfacet
  facet normal -4.721318e-001 -5.838497e-001 -6.604627e-001
    outer loop
      vertex -1.590075e+000 -2.910612e+000 -5.000000e+000
      vertex -2.559505e+000 -4.685142e+000 -2.738317e+000
      vertex -2.513440e+000 -2.163930e+000 -5.000000e+000
    endloop
  endfacet
  facet normal -4.615433e-001  5.933139e-001 -6.595123e-001
    outer loop
      vertex -3.998132e+000  3.537875e+000 -2.738317e+000
      vertex -1.534632e+000  2.940222e+000 -5.000000e+000
      vertex -2.472338e+000  2.210773e+000 -5.000000e+000
    endloop
  endfacet
  facet normal  7.044981e-002  2.491180e-001  9.659075e-001
    outer loop
      vertex  1.761323e-016  3.224080e-016  6.000000e+000
      vertex  1.407233e+000  2.575922e+000  5.233003e+000
      vertex  1.502221e-001  2.931401e+000  5.233003e+000
    endloop
  endfacet
  facet normal -4.461513e-002  2.550146e-001  9.659074e-001
    outer loop
      vertex  1.761323e-016  3.224080e-016  6.000000e+000
      vertex  1.502221e-001  2.931401e+000  5.233003e+000
      vertex -1.136542e+000  2.706280e+000  5.233003e+000
    endloop
  endfacet
  facet normal -1.508435e-001  2.104024e-001  9.659074e-001
    outer loop
      vertex  1.761323e-016  3.224080e-016  6.000000e+000
      vertex -1.136542e+000  2.706280e+000  5.233003e+000
      vertex -2.198200e+000  1.945147e+000  5.233003e+000
    endloop
  endfacet
  facet normal -2.271955e-001  1.241175e-001  9.659075e-001
    outer loop
      vertex  1.761323e-016  3.224080e-016  6.000000e+000
      vertex -2.198200e+000  1.945147e+000  5.233003e+000
      vertex -2.824477e+000  7.987539e-001  5.233003e+000
    endloop
  endfacet
  facet normal -2.585486e-001  1.324955e-002  9.659073e-001
    outer loop
      vertex  1.761323e-016  3.224080e-016  6.000000e+000
      vertex -2.824477e+000  7.987539e-001  5.233003e+000
      vertex -2.891333e+000 -5.058424e-001  5.233003e+000
    endloop
  endfacet
  facet normal -2.386930e-001 -1.002426e-001  9.659074e-001
    outer loop
      vertex  1.761323e-016  3.224080e-016  6.000000e+000
      vertex -2.891333e+000 -5.058424e-001  5.233003e+000
      vertex -2.385524e+000 -1.710250e+000  5.233003e+000
    endloop
  endfacet
  facet normal -1.715614e-001 -1.938805e-001  9.659074e-001
    outer loop
      vertex  1.761323e-016  3.224080e-016  6.000000e+000
      vertex -2.385524e+000 -1.710250e+000  5.233003e+000
      vertex -1.407233e+000 -2.575922e+000  5.233003e+000
    endloop
  endfacet
  facet normal -6.396231e-001  3.917465e-001 -6.613749e-001
    outer loop
      vertex -2.472338e+000  2.210773e+000 -5.000000e+000
      vertex -3.092828e+000  1.197670e+000 -5.000000e+000
      vertex -3.998132e+000  3.537875e+000 -2.738317e+000
    endloop
  endfacet
  facet normal -6.695400e-001  3.657714e-001 -6.464731e-001
    outer loop
      vertex -3.998132e+000  3.537875e+000 -2.738317e+000
      vertex -3.092828e+000  1.197670e+000 -5.000000e+000
      vertex -5.137219e+000  1.452790e+000 -2.738317e+000
    endloop
  endfacet
  facet normal -8.577445e-001  4.685880e-001 -2.114230e-001
    outer loop
      vertex -3.998132e+000  3.537875e+000 -2.738317e+000
      vertex -5.137219e+000  1.452790e+000 -2.738317e+000
      vertex -4.490268e+000  3.973356e+000  2.234607e-001
    endloop
  endfacet
  facet normal -8.577446e-001  4.685879e-001 -2.114229e-001
    outer loop
      vertex -4.490268e+000  3.973356e+000  2.234607e-001
      vertex -5.137219e+000  1.452790e+000 -2.738317e+000
      vertex -5.769566e+000  1.631616e+000  2.234607e-001
    endloop
  endfacet
  facet normal -8.419603e-001  4.599649e-001  2.820199e-001
    outer loop
      vertex -4.490268e+000  3.973356e+000  2.234607e-001
      vertex -5.769566e+000  1.631616e+000  2.234607e-001
      vertex -3.834395e+000  3.392987e+000  3.128107e+000
    endloop
  endfacet
  facet normal -8.419603e-001  4.599649e-001  2.820199e-001
    outer loop
      vertex -3.834395e+000  3.392987e+000  3.128107e+000
      vertex -5.769566e+000  1.631616e+000  2.234607e-001
      vertex -4.926833e+000  1.393294e+000  3.128107e+000
    endloop
  endfacet
  facet normal -6.168513e-001  3.369873e-001  7.112905e-001
    outer loop
      vertex -3.834395e+000  3.392987e+000  3.128107e+000
      vertex -4.926833e+000  1.393294e+000  3.128107e+000
      vertex -2.198200e+000  1.945147e+000  5.233003e+000
    endloop
  endfacet
  facet normal -6.168512e-001  3.369873e-001  7.112905e-001
    outer loop
      vertex -2.198200e+000  1.945147e+000  5.233003e+000
      vertex -4.926833e+000  1.393294e+000  3.128107e+000
      vertex -2.824477e+000  7.987539e-001  5.233003e+000
    endloop
  endfacet
  facet normal  1.912760e-001  6.763722e-001  7.112905e-001
    outer loop
      vertex  1.502221e-001  2.931401e+000  5.233003e+000
      vertex  1.407233e+000  2.575922e+000  5.233003e+000
      vertex  2.620376e-001  5.113344e+000  3.128107e+000
    endloop
  endfacet
  facet normal  1.912760e-001  6.763722e-001  7.112905e-001
    outer loop
      vertex  2.620376e-001  5.113344e+000  3.128107e+000
      vertex  1.407233e+000  2.575922e+000  5.233003e+000
      vertex  2.454684e+000  4.493270e+000  3.128107e+000
    endloop
  endfacet
  facet normal  2.610788e-001  9.232024e-001  2.820200e-001
    outer loop
      vertex  2.620376e-001  5.113344e+000  3.128107e+000
      vertex  2.454684e+000  4.493270e+000  3.128107e+000
      vertex  3.068590e-001  5.987980e+000  2.234607e-001
    endloop
  endfacet
  facet normal  2.610790e-001  9.232024e-001  2.820198e-001
    outer loop
      vertex  3.068590e-001  5.987980e+000  2.234607e-001
      vertex  2.454684e+000  4.493270e+000  3.128107e+000
      vertex  2.874557e+000  5.261842e+000  2.234607e-001
    endloop
  endfacet
  facet normal  2.659734e-001  9.405098e-001 -2.114229e-001
    outer loop
      vertex  3.068590e-001  5.987980e+000  2.234607e-001
      vertex  2.874557e+000  5.261842e+000  2.234607e-001
      vertex  2.732272e-001  5.331695e+000 -2.738317e+000
    endloop
  endfacet
  facet normal  2.659735e-001  9.405096e-001 -2.114230e-001
    outer loop
      vertex  2.732272e-001  5.331695e+000 -2.738317e+000
      vertex  2.874557e+000  5.261842e+000  2.234607e-001
      vertex  2.559505e+000  4.685142e+000 -2.738317e+000
    endloop
  endfacet
  facet normal  2.051364e-001  7.253832e-001 -6.570680e-001
    outer loop
      vertex  2.732272e-001  5.331695e+000 -2.738317e+000
      vertex  2.559505e+000  4.685142e+000 -2.738317e+000
      vertex  1.590075e+000  2.910612e+000 -5.000000e+000
    endloop
  endfacet
  facet normal -4.658006e-001 -5.263987e-001  7.112905e-001
    outer loop
      vertex -1.407233e+000 -2.575922e+000  5.233003e+000
      vertex -2.385524e+000 -1.710250e+000  5.233003e+000
      vertex -2.454684e+000 -4.493270e+000  3.128107e+000
    endloop
  endfacet
  facet normal -4.658007e-001 -5.263987e-001  7.112905e-001
    outer loop
      vertex -2.454684e+000 -4.493270e+000  3.128107e+000
      vertex -2.385524e+000 -1.710250e+000  5.233003e+000
      vertex -4.161151e+000 -2.983248e+000  3.128107e+000
    endloop
  endfacet
  facet normal -6.357865e-001 -7.184986e-001  2.820199e-001
    outer loop
      vertex -2.454684e+000 -4.493270e+000  3.128107e+000
      vertex -4.161151e+000 -2.983248e+000  3.128107e+000
      vertex -2.874557e+000 -5.261842e+000  2.234607e-001
    endloop
  endfacet
  facet normal -6.357864e-001 -7.184988e-001  2.820200e-001
    outer loop
      vertex -2.874557e+000 -5.261842e+000  2.234607e-001
      vertex -4.161151e+000 -2.983248e+000  3.128107e+000
      vertex -4.872915e+000 -3.493532e+000  2.234607e-001
    endloop
  endfacet
  facet normal -6.477056e-001 -7.319685e-001 -2.114229e-001
    outer loop
      vertex -2.874557e+000 -5.261842e+000  2.234607e-001
      vertex -4.872915e+000 -3.493532e+000  2.234607e-001
      vertex -2.559505e+000 -4.685142e+000 -2.738317e+000
    endloop
  endfacet
  facet normal -6.477055e-001 -7.319685e-001 -2.114229e-001
    outer loop
      vertex -2.559505e+000 -4.685142e+000 -2.738317e+000
      vertex -4.872915e+000 -3.493532e+000  2.234607e-001
      vertex -4.338841e+000 -3.110640e+000 -2.738317e+000
    endloop
  endfacet
  facet normal -5.053423e-001 -5.710846e-001 -6.469092e-001
    outer loop
      vertex -2.559505e+000 -4.685142e+000 -2.738317e+000
      vertex -4.338841e+000 -3.110640e+000 -2.738317e+000
      vertex -2.513440e+000 -2.163930e+000 -5.000000e+000
    endloop
  endfacet
  facet normal -6.480677e-001 -2.721655e-001  7.112905e-001
    outer loop
      vertex -2.385524e+000 -1.710250e+000  5.233003e+000
      vertex -2.891333e+000 -5.058424e-001  5.233003e+000
      vertex -4.161151e+000 -2.983248e+000  3.128107e+000
    endloop
  endfacet
  facet normal -6.480678e-001 -2.721655e-001  7.112905e-001
    outer loop
      vertex -4.161151e+000 -2.983248e+000  3.128107e+000
      vertex -2.891333e+000 -5.058424e-001  5.233003e+000
      vertex -5.043450e+000 -8.823583e-001  3.128107e+000
    endloop
  endfacet
  facet normal -8.845687e-001 -3.714875e-001  2.820200e-001
    outer loop
      vertex -4.161151e+000 -2.983248e+000  3.128107e+000
      vertex -5.043450e+000 -8.823583e-001  3.128107e+000
      vertex -4.872915e+000 -3.493532e+000  2.234607e-001
    endloop
  endfacet
  facet normal -8.845688e-001 -3.714875e-001  2.820199e-001
    outer loop
      vertex -4.872915e+000 -3.493532e+000  2.234607e-001
      vertex -5.043450e+000 -8.823583e-001  3.128107e+000
      vertex -5.906131e+000 -1.033285e+000  2.234607e-001
    endloop
  endfacet
  facet normal -9.011518e-001 -3.784518e-001 -2.114229e-001
    outer loop
      vertex -4.872915e+000 -3.493532e+000  2.234607e-001
      vertex -5.906131e+000 -1.033285e+000  2.234607e-001
      vertex -4.338841e+000 -3.110640e+000 -2.738317e+000
    endloop
  endfacet
  facet normal -9.011518e-001 -3.784517e-001 -2.114230e-001
    outer loop
      vertex -4.338841e+000 -3.110640e+000 -2.738317e+000
      vertex -5.906131e+000 -1.033285e+000  2.234607e-001
      vertex -5.258817e+000 -9.200369e-001 -2.738317e+000
    endloop
  endfacet
  facet normal -7.072015e-001 -2.969995e-001 -6.416053e-001
    outer loop
      vertex -4.338841e+000 -3.110640e+000 -2.738317e+000
      vertex -5.258817e+000 -9.200369e-001 -2.738317e+000
      vertex -3.114602e+000 -1.139847e+000 -5.000000e+000
    endloop
  endfacet
  facet normal -7.019771e-001  3.597343e-002  7.112904e-001
    outer loop
      vertex -2.891333e+000 -5.058424e-001  5.233003e+000
      vertex -2.824477e+000  7.987539e-001  5.233003e+000
      vertex -5.043450e+000 -8.823583e-001  3.128107e+000
    endloop
  endfacet
  facet normal -7.019771e-001  3.597340e-002  7.112905e-001
    outer loop
      vertex -5.043450e+000 -8.823583e-001  3.128107e+000
      vertex -2.824477e+000  7.987539e-001  5.233003e+000
      vertex -4.926833e+000  1.393294e+000  3.128107e+000
    endloop
  endfacet
  facet normal -9.581512e-001  4.910125e-002  2.820199e-001
    outer loop
      vertex -5.043450e+000 -8.823583e-001  3.128107e+000
      vertex -4.926833e+000  1.393294e+000  3.128107e+000
      vertex -5.906131e+000 -1.033285e+000  2.234607e-001
    endloop
  endfacet
  facet normal -9.581513e-001  4.910130e-002  2.820199e-001
    outer loop
      vertex -5.906131e+000 -1.033285e+000  2.234607e-001
      vertex -4.926833e+000  1.393294e+000  3.128107e+000
      vertex -5.769566e+000  1.631616e+000  2.234607e-001
    endloop
  endfacet
  facet normal -9.761138e-001  5.002180e-002 -2.114230e-001
    outer loop
      vertex -5.906131e+000 -1.033285e+000  2.234607e-001
      vertex -5.769566e+000  1.631616e+000  2.234607e-001
      vertex -5.258817e+000 -9.200369e-001 -2.738317e+000
    endloop
  endfacet
  facet normal -9.761138e-001  5.002167e-002 -2.114229e-001
    outer loop
      vertex -5.258817e+000 -9.200369e-001 -2.738317e+000
      vertex -5.769566e+000  1.631616e+000  2.234607e-001
      vertex -5.137219e+000  1.452790e+000 -2.738317e+000
    endloop
  endfacet
  facet normal -7.661488e-001  3.926186e-002 -6.414629e-001
    outer loop
      vertex -5.258817e+000 -9.200369e-001 -2.738317e+000
      vertex -5.137219e+000  1.452790e+000 -2.738317e+000
      vertex -3.316477e+000  3.089285e-002 -5.000000e+000
    endloop
  endfacet
  facet normal -4.095504e-001  5.712569e-001  7.112905e-001
    outer loop
      vertex -2.198200e+000  1.945147e+000  5.233003e+000
      vertex -1.136542e+000  2.706280e+000  5.233003e+000
      vertex -3.834395e+000  3.392987e+000  3.128107e+000
    endloop
  endfacet
  facet normal -4.095503e-001  5.712568e-001  7.112905e-001
    outer loop
      vertex -3.834395e+000  3.392987e+000  3.128107e+000
      vertex -1.136542e+000  2.706280e+000  5.233003e+000
      vertex -1.982509e+000  4.720657e+000  3.128107e+000
    endloop
  endfacet
  facet normal -5.590086e-001  7.797270e-001  2.820199e-001
    outer loop
      vertex -3.834395e+000  3.392987e+000  3.128107e+000
      vertex -1.982509e+000  4.720657e+000  3.128107e+000
      vertex -4.490268e+000  3.973356e+000  2.234607e-001
    endloop
  endfacet
  facet normal -5.590086e-001  7.797270e-001  2.820200e-001
    outer loop
      vertex -4.490268e+000  3.973356e+000  2.234607e-001
      vertex -1.982509e+000  4.720657e+000  3.128107e+000
      vertex -2.321617e+000  5.528125e+000  2.234607e-001
    endloop
  endfacet
  facet normal -5.694885e-001  7.943445e-001 -2.114230e-001
    outer loop
      vertex -4.490268e+000  3.973356e+000  2.234607e-001
      vertex -2.321617e+000  5.528125e+000  2.234607e-001
      vertex -3.998132e+000  3.537875e+000 -2.738317e+000
    endloop
  endfacet
  facet normal -5.694883e-001  7.943445e-001 -2.114230e-001
    outer loop
      vertex -3.998132e+000  3.537875e+000 -2.738317e+000
      vertex -2.321617e+000  5.528125e+000  2.234607e-001
      vertex -2.067167e+000  4.922240e+000 -2.738317e+000
    endloop
  endfacet
  facet normal -4.440798e-001  6.194197e-001 -6.473889e-001
    outer loop
      vertex -3.998132e+000  3.537875e+000 -2.738317e+000
      vertex -2.067167e+000  4.922240e+000 -2.738317e+000
      vertex -1.534632e+000  2.940222e+000 -5.000000e+000
    endloop
  endfacet
  facet normal -1.211331e-001  6.923819e-001  7.112905e-001
    outer loop
      vertex -1.136542e+000  2.706280e+000  5.233003e+000
      vertex  1.502221e-001  2.931401e+000  5.233003e+000
      vertex -1.982509e+000  4.720657e+000  3.128107e+000
    endloop
  endfacet
  facet normal -1.211331e-001  6.923819e-001  7.112905e-001
    outer loop
      vertex -1.982509e+000  4.720657e+000  3.128107e+000
      vertex  1.502221e-001  2.931401e+000  5.233003e+000
      vertex  2.620376e-001  5.113344e+000  3.128107e+000
    endloop
  endfacet
  facet normal -1.653385e-001  9.450545e-001  2.820200e-001
    outer loop
      vertex -1.982509e+000  4.720657e+000  3.128107e+000
      vertex  2.620376e-001  5.113344e+000  3.128107e+000
      vertex -2.321617e+000  5.528125e+000  2.234607e-001
    endloop
  endfacet
  facet normal -1.653385e-001  9.450545e-001  2.820199e-001
    outer loop
      vertex -2.321617e+000  5.528125e+000  2.234607e-001
      vertex  2.620376e-001  5.113344e+000  3.128107e+000
      vertex  3.068590e-001  5.987980e+000  2.234607e-001
    endloop
  endfacet
  facet normal -1.684381e-001  9.627715e-001 -2.114230e-001
    outer loop
      vertex -2.321617e+000  5.528125e+000  2.234607e-001
      vertex  3.068590e-001  5.987980e+000  2.234607e-001
      vertex -2.067167e+000  4.922240e+000 -2.738317e+000
    endloop
  endfacet
  facet normal -1.684383e-001  9.627715e-001 -2.114228e-001
    outer loop
      vertex -2.067167e+000  4.922240e+000 -2.738317e+000
      vertex  3.068590e-001  5.987980e+000  2.234607e-001
      vertex  2.732272e-001  5.331695e+000 -2.738317e+000
    endloop
  endfacet
  facet normal -1.321599e-001  7.554092e-001 -6.417870e-001
    outer loop
      vertex -2.067167e+000  4.922240e+000 -2.738317e+000
      vertex  2.732272e-001  5.331695e+000 -2.738317e+000
      vertex -4.000182e-001  3.292409e+000 -5.000000e+000
    endloop
  endfacet
  facet normal  0.000000e+000  0.000000e+000 -1.000000e+000
    outer loop
      vertex -3.316477e+000  3.089285e-002 -5.000000e+000
      vertex -3.092828e+000  1.197670e+000 -5.000000e+000
      vertex -3.114602e+000 -1.139847e+000 -5.000000e+000
    endloop
  endfacet
  facet normal  0.000000e+000  0.000000e+000 -1.000000e+000
    outer loop
      vertex  3.316477e+000 -3.089285e-002 -5.000000e+000
      vertex  3.092828e+000 -1.197670e+000 -5.000000e+000
      vertex  3.114602e+000  1.139847e+000 -5.000000e+000
    endloop
  endfacet
  facet normal  0.000000e+000  0.000000e+000 -9.999999e-001
    outer loop
      vertex  3.114602e+000  1.139847e+000 -5.000000e+000
      vertex  3.092828e+000 -1.197670e+000 -5.000000e+000
      vertex  2.472338e+000 -2.210773e+000 -5.000000e+000
    endloop
  endfacet
  facet normal  0.000000e+000  0.000000e+000 -1.000000e+000
    outer loop
      vertex  3.114602e+000  1.139847e+000 -5.000000e+000
      vertex  2.472338e+000 -2.210773e+000 -5.000000e+000
      vertex  2.513440e+000  2.163930e+000 -5.000000e+000
    endloop
  endfacet
  facet normal  0.000000e+000  0.000000e+000 -1.000000e+000
    outer loop
      vertex  2.513440e+000  2.163930e+000 -5.000000e+000
      vertex  2.472338e+000 -2.210773e+000 -5.000000e+000
      vertex  1.534632e+000 -2.940222e+000 -5.000000e+000
    endloop
  endfacet
  facet normal  0.000000e+000  0.000000e+000 -1.000000e+000
    outer loop
      vertex  2.513440e+000  2.163930e+000 -5.000000e+000
      vertex  1.534632e+000 -2.940222e+000 -5.000000e+000
      vertex  1.590075e+000  2.910612e+000 -5.000000e+000
    endloop
  endfacet
  facet normal  0.000000e+000  0.000000e+000 -1.000000e+000
    outer loop
      vertex  1.590075e+000  2.910612e+000 -5.000000e+000
      vertex  1.534632e+000 -2.940222e+000 -5.000000e+000
      vertex  4.000182e-001 -3.292409e+000 -5.000000e+000
    endloop
  endfacet
  facet normal  0.000000e+000  0.000000e+000 -1.000000e+000
    outer loop
      vertex  1.590075e+000  2.910612e+000 -5.000000e+000
      vertex  4.000182e-001 -3.292409e+000 -5.000000e+000
      vertex -4.000182e-001  3.292409e+000 -5.000000e+000
    endloop
  endfacet
  facet normal  0.000000e+000  -0.000000e+000 -1.000000e+000
    outer loop
      vertex -4.000182e-001  3.292409e+000 -5.000000e+000
      vertex  4.000182e-001 -3.292409e+000 -5.000000e+000
      vertex -1.590075e+000 -2.910612e+000 -5.000000e+000
    endloop
  endfacet
  facet normal  0.000000e+000  0.000000e+000 -1.000000e+000
    outer loop
      vertex -4.000182e-001  3.292409e+000 -5.000000e+000
      vertex -1.590075e+000 -2.910612e+000 -5.000000e+000
      vertex -1.534632e+000  2.940222e+000 -5.000000e+000
    endloop
  endfacet
  facet normal  0.000000e+000  0.000000e+000 -1.000000e+000
    outer loop
      vertex -1.534632e+000  2.940222e+000 -5.000000e+000
      vertex -1.590075e+000 -2.910612e+000 -5.000000e+000
      vertex -2.513440e+000 -2.163930e+000 -5.000000e+000
    endloop
  endfacet
  facet normal  0.000000e+000  0.000000e+000 -1.000000e+000
    outer loop
      vertex -1.534632e+000  2.940222e+000 -5.000000e+000
      vertex -2.513440e+000 -2.163930e+000 -5.000000e+000
      vertex -2.472338e+000  2.210773e+000 -5.000000e+000
    endloop
  endfacet
  facet normal  0.000000e+000  0.000000e+000 -1.000000e+000
    outer loop
      vertex -2.472338e+000  2.210773e+000 -5.000000e+000
      vertex -2.513440e+000 -2.163930e+000 -5.000000e+000
      vertex -3.114602e+000 -1.139847e+000 -5.000000e+000
    endloop
  endfacet
  facet normal  0.000000e+000  0.000000e+000 -9.999999e-001
    outer loop
      vertex -2.472338e+000  2.210773e+000 -5.000000e+000
      vertex -3.114602e+000 -1.139847e+000 -5.000000e+000
      vertex -3.092828e+000  1.197670e+000 -5.000000e+000
    endloop
  endfacet
  facet normal  3.085322e-002  3.825012e-001 -9.234396e-001
    outer loop
      vertex  5.499091e+000  1.142984e+000 -2.110353e+000
      vertex  1.100000e+001  1.697056e+000 -1.697056e+000
      vertex  1.100000e+001 -4.408583e-016 -2.400000e+000
    endloop
  endfacet
  facet normal -1.847832e-017  9.849349e-001 -1.729256e-001
    outer loop
      vertex  5.499091e+000  2.400000e+000  0.000000e+000
      vertex  1.100000e+001  2.400000e+000 -5.878111e-016
      vertex  5.499091e+000  2.256464e+000 -8.175378e-001
    endloop
  endfacet
  facet normal  3.274947e-002  9.233840e-001 -3.824782e-001
    outer loop
      vertex  5.499091e+000  2.256464e+000 -8.175378e-001
      vertex  1.100000e+001  2.400000e+000 -5.878111e-016
      vertex  1.100000e+001  1.697056e+000 -1.697056e+000
    endloop
  endfacet
  facet normal -2.727741e-002  7.574221e-001 -6.523554e-001
    outer loop
      vertex  5.499091e+000  2.256464e+000 -8.175378e-001
      vertex  1.100000e+001  1.697056e+000 -1.697056e+000
      vertex  5.499091e+000  1.142984e+000 -2.110353e+000
    endloop
  endfacet
  facet normal  2.160482e-002 -3.825941e-001 -9.236639e-001
    outer loop
      vertex  1.100000e+001 -1.697056e+000 -1.697056e+000
      vertex  5.499091e+000 -1.401935e+000 -1.947968e+000
      vertex  1.100000e+001 -4.408583e-016 -2.400000e+000
    endloop
  endfacet
  facet normal  1.570357e-002 -3.621257e-001 -9.319970e-001
    outer loop
      vertex  1.100000e+001 -4.408583e-016 -2.400000e+000
      vertex  5.499091e+000 -1.401935e+000 -1.947968e+000
      vertex  5.499091e+000 -2.810445e-001 -2.383488e+000
    endloop
  endfacet
  facet normal -1.257100e-002  1.883560e-001 -9.820204e-001
    outer loop
      vertex  1.100000e+001 -4.408583e-016 -2.400000e+000
      vertex  5.499091e+000 -2.810445e-001 -2.383488e+000
      vertex  5.499091e+000  1.142984e+000 -2.110353e+000
    endloop
  endfacet
  facet normal  0.000000e+000 -9.238795e-001 -3.826835e-001
    outer loop
      vertex  1.100000e+001 -2.400000e+000  2.939055e-016
      vertex  5.499091e+000 -2.400000e+000  2.939055e-016
      vertex  1.100000e+001 -1.697056e+000 -1.697056e+000
    endloop
  endfacet
  facet normal  4.283550e-002 -9.644819e-001 -2.606527e-001
    outer loop
      vertex  1.100000e+001 -1.697056e+000 -1.697056e+000
      vertex  5.499091e+000 -2.400000e+000  2.939055e-016
      vertex  5.499091e+000 -2.073289e+000 -1.208913e+000
    endloop
  endfacet
  facet normal -9.041206e-003 -7.401657e-001 -6.723638e-001
    outer loop
      vertex  1.100000e+001 -1.697056e+000 -1.697056e+000
      vertex  5.499091e+000 -2.073289e+000 -1.208913e+000
      vertex  5.499091e+000 -1.401935e+000 -1.947968e+000
    endloop
  endfacet
  facet normal  3.085322e-002 -3.825012e-001  9.234396e-001
    outer loop
      vertex  5.499091e+000 -1.142984e+000  2.110353e+000
      vertex  1.100000e+001 -1.697056e+000  1.697056e+000
      vertex  1.100000e+001  1.469528e-016  2.400000e+000
    endloop
  endfacet
  facet normal  0.000000e+000 -9.849349e-001  1.729256e-001
    outer loop
      vertex  5.499091e+000 -2.400000e+000  2.939055e-016
      vertex  1.100000e+001 -2.400000e+000  2.939055e-016
      vertex  5.499091e+000 -2.256464e+000  8.175378e-001
    endloop
  endfacet
  facet normal  3.274947e-002 -9.233840e-001  3.824782e-001
    outer loop
      vertex  5.499091e+000 -2.256464e+000  8.175378e-001
      vertex  1.100000e+001 -2.400000e+000  2.939055e-016
      vertex  1.100000e+001 -1.697056e+000  1.697056e+000
    endloop
  endfacet
  facet normal -2.727741e-002 -7.574221e-001  6.523554e-001
    outer loop
      vertex  5.499091e+000 -2.256464e+000  8.175378e-001
      vertex  1.100000e+001 -1.697056e+000  1.697056e+000
      vertex  5.499091e+000 -1.142984e+000  2.110353e+000
    endloop
  endfacet
  facet normal  2.160482e-002  3.825941e-001  9.236639e-001
    outer loop
      vertex  1.100000e+001  1.697056e+000  1.697056e+000
      vertex  5.499091e+000  1.401935e+000  1.947968e+000
      vertex  1.100000e+001  1.469528e-016  2.400000e+000
    endloop
  endfacet
  facet normal  1.570357e-002  3.621257e-001  9.319970e-001
    outer loop
      vertex  1.100000e+001  1.469528e-016  2.400000e+000
      vertex  5.499091e+000  1.401935e+000  1.947968e+000
      vertex  5.499091e+000  2.810445e-001  2.383488e+000
    endloop
  endfacet
  facet normal -1.257100e-002 -1.883560e-001  9.820204e-001
    outer loop
      vertex  1.100000e+001  1.469528e-016  2.400000e+000
      vertex  5.499091e+000  2.810445e-001  2.383488e+000
      vertex  5.499091e+000 -1.142984e+000  2.110353e+000
    endloop
  endfacet
  facet normal  4.089243e-017  9.238795e-001  3.826835e-001
    outer loop
      vertex  1.100000e+001  2.400000e+000 -5.878111e-016
      vertex  5.499091e+000  2.400000e+000  0.000000e+000
      vertex  1.100000e+001  1.697056e+000  1.697056e+000
    endloop
  endfacet
  facet normal  4.283550e-002  9.644819e-001  2.606527e-001
    outer loop
      vertex  1.100000e+001  1.697056e+000  1.697056e+000
      vertex  5.499091e+000  2.400000e+000  0.000000e+000
      vertex  5.499091e+000  2.073289e+000  1.208913e+000
    endloop
  endfacet
  facet normal -9.041206e-003  7.401657e-001  6.723638e-001
    outer loop
      vertex  1.100000e+001  1.697056e+000  1.697056e+000
      vertex  5.499091e+000  2.073289e+000  1.208913e+000
      vertex  5.499091e+000  1.401935e+000  1.947968e+000
    endloop
  endfacet
  facet normal  9.999999e-001  0.000000e+000  0.000000e+000
    outer loop
      vertex  1.200000e+001 -9.899495e-001  9.899495e-001
      vertex  1.200000e+001  9.899495e-001  9.899495e-001
      vertex  1.200000e+001  8.572245e-017  1.400000e+000
    endloop
  endfacet
  facet normal  9.999999e-001  -0.000000e+000  0.000000e+000
    outer loop
      vertex  1.200000e+001  9.899495e-001  9.899495e-001
      vertex  1.200000e+001 -9.899495e-001  9.899495e-001
      vertex  1.200000e+001  1.400000e+000 -4.267196e-016
    endloop
  endfacet
  facet normal  1.000000e+000  0.000000e+000  0.000000e+000
    outer loop
      vertex  1.200000e+001  1.400000e+000 -4.267196e-016
      vertex  1.200000e+001 -9.899495e-001  9.899495e-001
      vertex  1.200000e+001 -1.400000e+000  8.761506e-017
    endloop
  endfacet
  facet normal  1.000000e+000  0.000000e+000  0.000000e+000
    outer loop
      vertex  1.200000e+001  1.400000e+000 -4.267196e-016
      vertex  1.200000e+001 -1.400000e+000  8.761506e-017
      vertex  1.200000e+001  9.899495e-001 -9.899495e-001
    endloop
  endfacet
  facet normal  9.999999e-001  0.000000e+000  0.000000e+000
    outer loop
      vertex  1.200000e+001  9.899495e-001 -9.899495e-001
      vertex  1.200000e+001 -1.400000e+000  8.761506e-017
      vertex  1.200000e+001 -9.899495e-001 -9.899495e-001
    endloop
  endfacet
  facet normal  9.999999e-001  -0.000000e+000  0.000000e+000
    outer loop
      vertex  1.200000e+001  9.899495e-001 -9.899495e-001
      vertex  1.200000e+001 -9.899495e-001 -9.899495e-001
      vertex  1.200000e+001 -2.571673e-016 -1.400000e+000
    endloop
  endfacet
  facet normal  9.124869e-001  3.779647e-001 -1.565581e-001
    outer loop
      vertex  1.200000e+001  1.400000e+000 -4.267196e-016
      vertex  1.200000e+001  9.899495e-001 -9.899495e-001
      vertex  1.170711e+001  2.107107e+000 -2.220446e-016
    endloop
  endfacet
  facet normal  9.124869e-001  3.779647e-001 -1.565581e-001
    outer loop
      vertex  1.170711e+001  2.107107e+000 -2.220446e-016
      vertex  1.200000e+001  9.899495e-001 -9.899495e-001
      vertex  1.170711e+001  1.489949e+000 -1.489949e+000
    endloop
  endfacet
  facet normal  3.574070e-001  8.628561e-001 -3.574067e-001
    outer loop
      vertex  1.170711e+001  2.107107e+000 -2.220446e-016
      vertex  1.170711e+001  1.489949e+000 -1.489949e+000
      vertex  1.100000e+001  2.400000e+000 -5.878111e-016
    endloop
  endfacet
  facet normal  3.574069e-001  8.628562e-001 -3.574068e-001
    outer loop
      vertex  1.100000e+001  2.400000e+000 -5.878111e-016
      vertex  1.170711e+001  1.489949e+000 -1.489949e+000
      vertex  1.100000e+001  1.697056e+000 -1.697056e+000
    endloop
  endfacet
  facet normal  9.124869e-001 -3.779647e-001 -1.565581e-001
    outer loop
      vertex  1.200000e+001 -9.899495e-001 -9.899495e-001
      vertex  1.200000e+001 -1.400000e+000  8.761506e-017
      vertex  1.170711e+001 -1.489949e+000 -1.489949e+000
    endloop
  endfacet
  facet normal  9.124868e-001 -3.779647e-001 -1.565581e-001
    outer loop
      vertex  1.170711e+001 -1.489949e+000 -1.489949e+000
      vertex  1.200000e+001 -1.400000e+000  8.761506e-017
      vertex  1.170711e+001 -2.107107e+000  4.440892e-016
    endloop
  endfacet
  facet normal  3.574069e-001 -8.628561e-001 -3.574067e-001
    outer loop
      vertex  1.170711e+001 -1.489949e+000 -1.489949e+000
      vertex  1.170711e+001 -2.107107e+000  4.440892e-016
      vertex  1.100000e+001 -1.697056e+000 -1.697056e+000
    endloop
  endfacet
  facet normal  3.574070e-001 -8.628561e-001 -3.574067e-001
    outer loop
      vertex  1.100000e+001 -1.697056e+000 -1.697056e+000
      vertex  1.170711e+001 -2.107107e+000  4.440892e-016
      vertex  1.100000e+001 -2.400000e+000  2.939055e-016
    endloop
  endfacet
  facet normal  9.124869e-001 -1.565581e-001 -3.779647e-001
    outer loop
      vertex  1.200000e+001 -2.571673e-016 -1.400000e+000
      vertex  1.200000e+001 -9.899495e-001 -9.899495e-001
      vertex  1.170711e+001 -5.551115e-016 -2.107107e+000
    endloop
  endfacet
  facet normal  9.124869e-001 -1.565581e-001 -3.779647e-001
    outer loop
      vertex  1.170711e+001 -5.551115e-016 -2.107107e+000
      vertex  1.200000e+001 -9.899495e-001 -9.899495e-001
      vertex  1.170711e+001 -1.489949e+000 -1.489949e+000
    endloop
  endfacet
  facet normal  3.574070e-001 -3.574067e-001 -8.628561e-001
    outer loop
      vertex  1.170711e+001 -5.551115e-016 -2.107107e+000
      vertex  1.170711e+001 -1.489949e+000 -1.489949e+000
      vertex  1.100000e+001 -4.408583e-016 -2.400000e+000
    endloop
  endfacet
  facet normal  3.574069e-001 -3.574068e-001 -8.628562e-001
    outer loop
      vertex  1.100000e+001 -4.408583e-016 -2.400000e+000
      vertex  1.170711e+001 -1.489949e+000 -1.489949e+000
      vertex  1.100000e+001 -1.697056e+000 -1.697056e+000
    endloop
  endfacet
  facet normal  9.124869e-001  1.565581e-001 -3.779647e-001
    outer loop
      vertex  1.200000e+001  9.899495e-001 -9.899495e-001
      vertex  1.200000e+001 -2.571673e-016 -1.400000e+000
      vertex  1.170711e+001  1.489949e+000 -1.489949e+000
    endloop
  endfacet
  facet normal  9.124868e-001  1.565581e-001 -3.779647e-001
    outer loop
      vertex  1.170711e+001  1.489949e+000 -1.489949e+000
      vertex  1.200000e+001 -2.571673e-016 -1.400000e+000
      vertex  1.170711e+001 -5.551115e-016 -2.107107e+000
    endloop
  endfacet
  facet normal  3.574069e-001  3.574067e-001 -8.628561e-001
    outer loop
      vertex  1.170711e+001  1.489949e+000 -1.489949e+000
      vertex  1.170711e+001 -5.551115e-016 -2.107107e+000
      vertex  1.100000e+001  1.697056e+000 -1.697056e+000
    endloop
  endfacet
  facet normal  3.574070e-001  3.574067e-001 -8.628561e-001
    outer loop
      vertex  1.100000e+001  1.697056e+000 -1.697056e+000
      vertex  1.170711e+001 -5.551115e-016 -2.107107e+000
      vertex  1.100000e+001 -4.408583e-016 -2.400000e+000
    endloop
  endfacet
  facet normal  9.124869e-001 -3.779647e-001  1.565581e-001
    outer loop
      vertex  1.200000e+001 -1.400000e+000  8.761506e-017
      vertex  1.200000e+001 -9.899495e-001  9.899495e-001
      vertex  1.170711e+001 -2.107107e+000  4.440892e-016
    endloop
  endfacet
  facet normal  9.124869e-001 -3.779647e-001  1.565581e-001
    outer loop
      vertex  1.170711e+001 -2.107107e+000  4.440892e-016
      vertex  1.200000e+001 -9.899495e-001  9.899495e-001
      vertex  1.170711e+001 -1.489949e+000  1.489949e+000
    endloop
  endfacet
  facet normal  3.574070e-001 -8.628561e-001  3.574067e-001
    outer loop
      vertex  1.170711e+001 -2.107107e+000  4.440892e-016
      vertex  1.170711e+001 -1.489949e+000  1.489949e+000
      vertex  1.100000e+001 -2.400000e+000  2.939055e-016
    endloop
  endfacet
  facet normal  3.574069e-001 -8.628562e-001  3.574068e-001
    outer loop
      vertex  1.100000e+001 -2.400000e+000  2.939055e-016
      vertex  1.170711e+001 -1.489949e+000  1.489949e+000
      vertex  1.100000e+001 -1.697056e+000  1.697056e+000
    endloop
  endfacet
  facet normal  9.124869e-001  3.779647e-001  1.565581e-001
    outer loop
      vertex  1.200000e+001  9.899495e-001  9.899495e-001
      vertex  1.200000e+001  1.400000e+000 -4.267196e-016
      vertex  1.170711e+001  1.489949e+000  1.489949e+000
    endloop
  endfacet
  facet normal  9.124868e-001  3.779647e-001  1.565581e-001
    outer loop
      vertex  1.170711e+001  1.489949e+000  1.489949e+000
      vertex  1.200000e+001  1.400000e+000 -4.267196e-016
      vertex  1.170711e+001  2.107107e+000 -2.220446e-016
    endloop
  endfacet
  facet normal  3.574069e-001  8.628561e-001  3.574067e-001
    outer loop
      vertex  1.170711e+001  1.489949e+000  1.489949e+000
      vertex  1.170711e+001  2.107107e+000 -2.220446e-016
      vertex  1.100000e+001  1.697056e+000  1.697056e+000
    endloop
  endfacet
  facet normal  3.574070e-001  8.628561e-001  3.574067e-001
    outer loop
      vertex  1.100000e+001  1.697056e+000  1.697056e+000
      vertex  1.170711e+001  2.107107e+000 -2.220446e-016
      vertex  1.100000e+001  2.400000e+000 -5.878111e-016
    endloop
  endfacet
  facet normal  9.124869e-001  1.565581e-001  3.779647e-001
    outer loop
      vertex  1.200000e+001  8.572245e-017  1.400000e+000
      vertex  1.200000e+001  9.899495e-001  9.899495e-001
      vertex  1.170711e+001  1.110223e-016  2.107107e+000
    endloop
  endfacet
  facet normal  9.124869e-001  1.565581e-001  3.779647e-001
    outer loop
      vertex  1.170711e+001  1.110223e-016  2.107107e+000
      vertex  1.200000e+001  9.899495e-001  9.899495e-001
      vertex  1.170711e+001  1.489949e+000  1.489949e+000
    endloop
  endfacet
  facet normal  3.574070e-001  3.574067e-001  8.628561e-001
    outer loop
      vertex  1.170711e+001  1.110223e-016  2.107107e+000
      vertex  1.170711e+001  1.489949e+000  1.489949e+000
      vertex  1.100000e+001  1.469528e-016  2.400000e+000
    endloop
  endfacet
  facet normal  3.574069e-001  3.574068e-001  8.628562e-001
    outer loop
      vertex  1.100000e+001  1.469528e-016  2.400000e+000
      vertex  1.170711e+001  1.489949e+000  1.489949e+000
      vertex  1.100000e+001  1.697056e+000  1.697056e+000
    endloop
  endfacet
  facet normal  9.124869e-001 -1.565581e-001  3.779647e-001
    outer loop
      vertex  1.200000e+001 -9.899495e-001  9.899495e-001
      vertex  1.200000e+001  8.572245e-017  1.400000e+000
      vertex  1.170711e+001 -1.489949e+000  1.489949e+000
    endloop
  endfacet
  facet normal  9.124868e-001 -1.565581e-001  3.779647e-001
    outer loop
      vertex  1.170711e+001 -1.489949e+000  1.489949e+000
      vertex  1.200000e+001  8.572245e-017  1.400000e+000
      vertex  1.170711e+001  1.110223e-016  2.107107e+000
    endloop
  endfacet
  facet normal  3.574069e-001 -3.574067e-001  8.628561e-001
    outer loop
      vertex  1.170711e+001 -1.489949e+000  1.489949e+000
      vertex  1.170711e+001  1.110223e-016  2.107107e+000
      vertex  1.100000e+001 -1.697056e+000  1.697056e+000
    endloop
  endfacet
  facet normal  3.574070e-001 -3.574067e-001  8.628561e-001
    outer loop
      vertex  1.100000e+001 -1.697056e+000  1.697056e+000
      vertex  1.170711e+001  1.110223e-016  2.107107e+000
      vertex  1.100000e+001  1.469528e-016  2.400000e+000
    endloop
  endfacet
endsolid CATIA STL
