<svg xmlns="http://www.w3.org/2000/svg" xmlns:xlink="http://www.w3.org/1999/xlink" width="1123" zoomAndPan="magnify" viewBox="0 0 842.25 595.499986" height="794" preserveAspectRatio="xMidYMid meet" version="1.0"><defs><g/><clipPath id="157a99d7c3"><path d="M 0 0.015625 L 841.5 0.015625 L 841.5 594.984375 L 0 594.984375 Z M 0 0.015625 " clip-rule="nonzero"/></clipPath><clipPath id="47f85d44d3"><path d="M 0 0.015625 L 841.5 0.015625 L 841.5 594.984375 L 0 594.984375 Z M 0 0.015625 " clip-rule="nonzero"/></clipPath><clipPath id="5d86013197"><path d="M 11.558594 21.554688 L 400.695312 21.554688 L 400.695312 573.445312 L 11.558594 573.445312 Z M 11.558594 21.554688 " clip-rule="nonzero"/></clipPath><clipPath id="6404736511"><path d="M 0.558594 0.554688 L 389.695312 0.554688 L 389.695312 552.445312 L 0.558594 552.445312 Z M 0.558594 0.554688 " clip-rule="nonzero"/></clipPath><clipPath id="23239cdf45"><rect x="0" width="390" y="0" height="553"/></clipPath><clipPath id="64a562bd2f"><path d="M 11.5625 21.554688 L 400.609375 21.554688 L 400.609375 573.273438 L 11.5625 573.273438 Z M 11.5625 21.554688 " clip-rule="nonzero"/></clipPath><clipPath id="5e3ff66887"><path d="M 437.902344 21.554688 L 827.039062 21.554688 L 827.039062 573.445312 L 437.902344 573.445312 Z M 437.902344 21.554688 " clip-rule="nonzero"/></clipPath><clipPath id="91e08431d3"><path d="M 0.902344 0.554688 L 390.039062 0.554688 L 390.039062 552.445312 L 0.902344 552.445312 Z M 0.902344 0.554688 " clip-rule="nonzero"/></clipPath><clipPath id="9eb7b456f6"><rect x="0" width="391" y="0" height="553"/></clipPath><clipPath id="3beb5c09bc"><path d="M 437.90625 21.554688 L 826.953125 21.554688 L 826.953125 573.273438 L 437.90625 573.273438 Z M 437.90625 21.554688 " clip-rule="nonzero"/></clipPath><clipPath id="c49bdcf5ba"><path d="M 462.375 52.621094 L 802.566406 52.621094 L 802.566406 86.765625 L 462.375 86.765625 Z M 462.375 52.621094 " clip-rule="nonzero"/></clipPath><clipPath id="9c73dfffff"><path d="M 0.375 0.621094 L 340.566406 0.621094 L 340.566406 34.765625 L 0.375 34.765625 Z M 0.375 0.621094 " clip-rule="nonzero"/></clipPath><clipPath id="537593ad18"><rect x="0" width="341" y="0" height="35"/></clipPath><clipPath id="941930fb79"><path d="M 462.378906 52.621094 L 802.554688 52.621094 L 802.554688 86.765625 L 462.378906 86.765625 Z M 462.378906 52.621094 " clip-rule="nonzero"/></clipPath><clipPath id="de5bfecc40"><path d="M 462.375 303.980469 L 802.566406 303.980469 L 802.566406 338.125 L 462.375 338.125 Z M 462.375 303.980469 " clip-rule="nonzero"/></clipPath><clipPath id="d13b5b736e"><path d="M 0.375 0.980469 L 340.566406 0.980469 L 340.566406 35.125 L 0.375 35.125 Z M 0.375 0.980469 " clip-rule="nonzero"/></clipPath><clipPath id="c7ff2cf8b7"><rect x="0" width="341" y="0" height="36"/></clipPath><clipPath id="397220feed"><path d="M 462.378906 303.980469 L 802.554688 303.980469 L 802.554688 338.121094 L 462.378906 338.121094 Z M 462.378906 303.980469 " clip-rule="nonzero"/></clipPath><clipPath id="a85ee93ebe"><rect x="0" width="842" y="0" height="595"/></clipPath></defs><g clip-path="url(#157a99d7c3)"><path fill="#ffffff" d="M 0 0.015625 L 841.5 0.015625 L 841.5 594.984375 L 0 594.984375 Z M 0 0.015625 " fill-opacity="1" fill-rule="nonzero"/><g transform="matrix(1, 0, 0, 1, 0, -0.000000000000000137)"><g clip-path="url(#a85ee93ebe)"><g clip-path="url(#47f85d44d3)"><path fill="#ffffff" d="M 0 0.015625 L 841.816406 0.015625 L 841.816406 595.210938 L 0 595.210938 Z M 0 0.015625 " fill-opacity="1" fill-rule="nonzero"/></g><g clip-path="url(#5d86013197)"><g transform="matrix(1, 0, 0, 1, 11, 21)"><g clip-path="url(#23239cdf45)"><g clip-path="url(#6404736511)"><path fill="#ffffff" d="M 0.558594 0.554688 L 389.695312 0.554688 L 389.695312 552.339844 L 0.558594 552.339844 Z M 0.558594 0.554688 " fill-opacity="1" fill-rule="nonzero"/></g></g></g></g><g clip-path="url(#64a562bd2f)"><path stroke-linecap="butt" transform="matrix(0.749615, 0, 0, 0.749615, 11.559966, 21.556146)" fill="none" stroke-linejoin="miter" d="M 0.00338006 -0.00194579 L 519.108306 -0.00194579 L 519.108306 736.219604 L 0.00338006 736.219604 Z M 0.00338006 -0.00194579 " stroke="#362f2e" stroke-width="10" stroke-opacity="1" stroke-miterlimit="4"/></g><g clip-path="url(#5e3ff66887)"><g transform="matrix(1, 0, 0, 1, 437, 21)"><g clip-path="url(#9eb7b456f6)"><g clip-path="url(#91e08431d3)"><path fill="#ffffff" d="M 0.902344 0.554688 L 390.039062 0.554688 L 390.039062 552.339844 L 0.902344 552.339844 Z M 0.902344 0.554688 " fill-opacity="1" fill-rule="nonzero"/></g></g></g></g><g clip-path="url(#3beb5c09bc)"><path stroke-linecap="butt" transform="matrix(0.749615, 0, 0, 0.749615, 437.903489, 21.556146)" fill="none" stroke-linejoin="miter" d="M 0.00368327 -0.00194579 L 519.108609 -0.00194579 L 519.108609 736.219604 L 0.00368327 736.219604 Z M 0.00368327 -0.00194579 " stroke="#362f2e" stroke-width="10" stroke-opacity="1" stroke-miterlimit="4"/></g><g clip-path="url(#c49bdcf5ba)"><g transform="matrix(1, 0, 0, 1, 462, 52)"><g clip-path="url(#537593ad18)"><g clip-path="url(#9c73dfffff)"><path fill="#000000" d="M 0.375 0.621094 L 340.621094 0.621094 L 340.621094 34.765625 L 0.375 34.765625 Z M 0.375 0.621094 " fill-opacity="1" fill-rule="nonzero"/></g></g></g></g><g clip-path="url(#941930fb79)"><path stroke-linecap="butt" transform="matrix(0.749615, 0, 0, 0.749615, 462.37528, 52.622801)" fill="none" stroke-linejoin="miter" d="M 0.00483682 -0.00227736 L 453.805389 -0.00227736 L 453.805389 45.547136 L 0.00483682 45.547136 Z M 0.00483682 -0.00227736 " stroke="#000000" stroke-width="6" stroke-opacity="1" stroke-miterlimit="4"/></g><g fill="#ffffff" fill-opacity="1"><g transform="translate(510.64753, 74.342859)"><g><path d="M 8.03125 -12.4375 C 8.90625 -12.4375 9.71875 -12.347656 10.46875 -12.171875 C 11.21875 -11.992188 11.992188 -11.710938 12.796875 -11.328125 C 13.109375 -11.179688 13.3125 -11.109375 13.40625 -11.109375 C 13.507812 -11.109375 13.625 -11.195312 13.75 -11.375 L 13.953125 -11.25 L 12.71875 -8.890625 L 12.46875 -9.03125 C 12.5 -9.132812 12.515625 -9.21875 12.515625 -9.28125 C 12.515625 -9.457031 12.40625 -9.648438 12.1875 -9.859375 C 11.96875 -10.066406 11.664062 -10.253906 11.28125 -10.421875 C 10.894531 -10.585938 10.4375 -10.726562 9.90625 -10.84375 C 9.382812 -10.957031 8.816406 -11.015625 8.203125 -11.015625 C 7.390625 -11.015625 6.644531 -10.898438 5.96875 -10.671875 C 5.289062 -10.441406 4.703125 -10.113281 4.203125 -9.6875 C 3.703125 -9.269531 3.3125 -8.757812 3.03125 -8.15625 C 2.757812 -7.5625 2.625 -6.898438 2.625 -6.171875 C 2.625 -5.421875 2.757812 -4.742188 3.03125 -4.140625 C 3.300781 -3.535156 3.675781 -3.019531 4.15625 -2.59375 C 4.632812 -2.164062 5.195312 -1.832031 5.84375 -1.59375 C 6.488281 -1.363281 7.191406 -1.25 7.953125 -1.25 C 8.585938 -1.25 9.195312 -1.332031 9.78125 -1.5 C 10.363281 -1.664062 10.878906 -1.863281 11.328125 -2.09375 C 11.773438 -2.332031 12.128906 -2.578125 12.390625 -2.828125 C 12.660156 -3.085938 12.796875 -3.300781 12.796875 -3.46875 C 12.796875 -3.601562 12.773438 -3.738281 12.734375 -3.875 L 12.875 -3.96875 L 14.453125 -1.953125 L 14.3125 -1.859375 C 14.257812 -1.910156 14.195312 -1.945312 14.125 -1.96875 C 14.0625 -2 13.984375 -2.015625 13.890625 -2.015625 C 13.796875 -2.015625 13.664062 -1.953125 13.5 -1.828125 C 13.332031 -1.703125 13.160156 -1.578125 12.984375 -1.453125 C 12.734375 -1.265625 12.445312 -1.078125 12.125 -0.890625 C 11.800781 -0.703125 11.425781 -0.53125 11 -0.375 C 10.582031 -0.21875 10.109375 -0.0859375 9.578125 0.015625 C 9.046875 0.117188 8.441406 0.171875 7.765625 0.171875 C 6.910156 0.171875 6.070312 0.0195312 5.25 -0.28125 C 4.4375 -0.582031 3.707031 -1.007812 3.0625 -1.5625 C 2.414062 -2.113281 1.894531 -2.773438 1.5 -3.546875 C 1.101562 -4.328125 0.90625 -5.1875 0.90625 -6.125 C 0.90625 -7.070312 1.101562 -7.929688 1.5 -8.703125 C 1.894531 -9.472656 2.421875 -10.132812 3.078125 -10.6875 C 3.734375 -11.238281 4.488281 -11.664062 5.34375 -11.96875 C 6.207031 -12.28125 7.101562 -12.4375 8.03125 -12.4375 Z M 8.03125 -12.4375 "/></g></g></g><g fill="#ffffff" fill-opacity="1"><g transform="translate(530.254881, 74.342859)"><g><path d="M 4.21875 -12.265625 L 4.21875 -12.0625 C 4 -12.0625 3.859375 -12.035156 3.796875 -11.984375 C 3.734375 -11.929688 3.703125 -11.828125 3.703125 -11.671875 L 3.703125 -7.171875 L 12.1875 -7.171875 L 12.1875 -11.671875 C 12.1875 -11.828125 12.15625 -11.929688 12.09375 -11.984375 C 12.039062 -12.035156 11.90625 -12.0625 11.6875 -12.0625 L 11.6875 -12.265625 L 14.421875 -12.265625 L 14.421875 -12.0625 C 14.203125 -12.0625 14.0625 -12.035156 14 -11.984375 C 13.9375 -11.929688 13.90625 -11.828125 13.90625 -11.671875 L 13.90625 -0.609375 C 13.90625 -0.441406 13.9375 -0.332031 14 -0.28125 C 14.070312 -0.226562 14.210938 -0.203125 14.421875 -0.203125 L 14.421875 0 L 11.6875 0 L 11.6875 -0.203125 C 11.894531 -0.203125 12.03125 -0.226562 12.09375 -0.28125 C 12.15625 -0.332031 12.1875 -0.441406 12.1875 -0.609375 L 12.1875 -5.6875 L 3.703125 -5.6875 L 3.703125 -0.59375 C 3.703125 -0.4375 3.734375 -0.332031 3.796875 -0.28125 C 3.859375 -0.226562 4 -0.203125 4.21875 -0.203125 L 4.21875 0 L 1.484375 0 L 1.484375 -0.203125 C 1.691406 -0.203125 1.828125 -0.226562 1.890625 -0.28125 C 1.953125 -0.332031 1.984375 -0.4375 1.984375 -0.59375 L 1.984375 -11.671875 C 1.984375 -11.828125 1.953125 -11.929688 1.890625 -11.984375 C 1.828125 -12.035156 1.691406 -12.0625 1.484375 -12.0625 L 1.484375 -12.265625 Z M 4.21875 -12.265625 "/></g></g></g><g fill="#ffffff" fill-opacity="1"><g transform="translate(550.788601, 74.342859)"><g><path d="M 13 -12.796875 L 13 -10.234375 L 12.796875 -10.234375 C 12.773438 -10.378906 12.738281 -10.503906 12.6875 -10.609375 C 12.632812 -10.722656 12.515625 -10.78125 12.328125 -10.78125 L 3.640625 -10.78125 L 3.640625 -6.90625 L 9.75 -6.90625 C 9.90625 -6.90625 10.015625 -6.941406 10.078125 -7.015625 C 10.140625 -7.097656 10.179688 -7.238281 10.203125 -7.4375 L 10.40625 -7.4375 L 10.40625 -4.8125 L 10.203125 -4.8125 C 10.179688 -5.0625 10.132812 -5.222656 10.0625 -5.296875 C 9.988281 -5.378906 9.878906 -5.421875 9.734375 -5.421875 L 3.640625 -5.421875 L 3.640625 -1.484375 L 12.296875 -1.484375 C 12.460938 -1.484375 12.578125 -1.515625 12.640625 -1.578125 C 12.710938 -1.648438 12.765625 -1.796875 12.796875 -2.015625 L 13 -2.015625 L 13 0.53125 L 12.796875 0.53125 C 12.765625 0.3125 12.710938 0.164062 12.640625 0.09375 C 12.578125 0.03125 12.460938 0 12.296875 0 L 1.421875 0 L 1.421875 -0.203125 C 1.628906 -0.203125 1.765625 -0.226562 1.828125 -0.28125 C 1.890625 -0.332031 1.921875 -0.429688 1.921875 -0.578125 L 1.921875 -11.671875 C 1.921875 -11.828125 1.890625 -11.929688 1.828125 -11.984375 C 1.765625 -12.035156 1.628906 -12.0625 1.421875 -12.0625 L 1.421875 -12.265625 L 12.3125 -12.265625 C 12.476562 -12.265625 12.59375 -12.300781 12.65625 -12.375 C 12.71875 -12.445312 12.765625 -12.585938 12.796875 -12.796875 Z M 13 -12.796875 "/></g></g></g><g fill="#ffffff" fill-opacity="1"><g transform="translate(569.452756, 74.342859)"><g><path d="M 4.984375 -12.265625 L 4.984375 -12.0625 C 4.691406 -12.0625 4.546875 -11.945312 4.546875 -11.71875 C 4.546875 -11.664062 4.554688 -11.601562 4.578125 -11.53125 C 4.609375 -11.457031 4.664062 -11.34375 4.75 -11.1875 L 6.25 -8.15625 L 8.453125 -3.578125 C 9.660156 -6.023438 10.578125 -7.882812 11.203125 -9.15625 C 11.835938 -10.425781 12.1875 -11.125 12.25 -11.25 C 12.300781 -11.375 12.34375 -11.472656 12.375 -11.546875 C 12.414062 -11.628906 12.4375 -11.695312 12.4375 -11.75 C 12.4375 -11.84375 12.398438 -11.914062 12.328125 -11.96875 C 12.265625 -12.019531 12.140625 -12.050781 11.953125 -12.0625 L 11.953125 -12.265625 L 15.359375 -12.265625 L 15.359375 -12.0625 C 15.148438 -12.0625 15.015625 -12.035156 14.953125 -11.984375 C 14.890625 -11.929688 14.859375 -11.828125 14.859375 -11.671875 L 14.859375 -0.59375 C 14.859375 -0.4375 14.890625 -0.332031 14.953125 -0.28125 C 15.015625 -0.226562 15.148438 -0.203125 15.359375 -0.203125 L 15.359375 0 L 12.734375 0 L 12.734375 -0.203125 C 12.941406 -0.203125 13.078125 -0.226562 13.140625 -0.28125 C 13.203125 -0.332031 13.234375 -0.4375 13.234375 -0.59375 L 13.234375 -9.875 L 8.390625 -0.171875 L 3.671875 -9.9375 L 3.640625 -9.9375 L 3.640625 -0.609375 C 3.640625 -0.453125 3.664062 -0.34375 3.71875 -0.28125 C 3.78125 -0.226562 3.910156 -0.203125 4.109375 -0.203125 L 4.109375 0 L 1.484375 0 L 1.484375 -0.203125 C 1.722656 -0.203125 1.867188 -0.226562 1.921875 -0.28125 C 1.984375 -0.34375 2.015625 -0.453125 2.015625 -0.609375 L 2.015625 -11.671875 C 2.015625 -11.828125 1.976562 -11.929688 1.90625 -11.984375 C 1.84375 -12.035156 1.703125 -12.0625 1.484375 -12.0625 L 1.484375 -12.265625 Z M 4.984375 -12.265625 "/></g></g></g><g fill="#ffffff" fill-opacity="1"><g transform="translate(590.929684, 74.342859)"><g><path d="M 4.078125 -12.265625 L 4.078125 -12.0625 C 3.921875 -12.0625 3.8125 -12.035156 3.75 -11.984375 C 3.695312 -11.929688 3.671875 -11.828125 3.671875 -11.671875 L 3.671875 -0.625 C 3.671875 -0.445312 3.695312 -0.332031 3.75 -0.28125 C 3.8125 -0.226562 3.921875 -0.203125 4.078125 -0.203125 L 4.078125 0 L 1.546875 0 L 1.546875 -0.203125 C 1.703125 -0.203125 1.804688 -0.226562 1.859375 -0.28125 C 1.921875 -0.34375 1.953125 -0.453125 1.953125 -0.609375 L 1.953125 -11.671875 C 1.953125 -11.828125 1.921875 -11.929688 1.859375 -11.984375 C 1.804688 -12.035156 1.703125 -12.0625 1.546875 -12.0625 L 1.546875 -12.265625 Z M 4.078125 -12.265625 "/></g></g></g><g fill="#ffffff" fill-opacity="1"><g transform="translate(601.172358, 74.342859)"><g><path d="M 7 -12.4375 C 7.976562 -12.4375 8.820312 -12.335938 9.53125 -12.140625 C 10.238281 -11.941406 10.816406 -11.753906 11.265625 -11.578125 C 11.492188 -11.484375 11.6875 -11.398438 11.84375 -11.328125 C 12 -11.253906 12.109375 -11.21875 12.171875 -11.21875 C 12.253906 -11.21875 12.378906 -11.285156 12.546875 -11.421875 L 12.75 -11.359375 L 11.703125 -9.15625 L 11.484375 -9.265625 C 11.484375 -9.285156 11.484375 -9.3125 11.484375 -9.34375 C 11.492188 -9.382812 11.5 -9.425781 11.5 -9.46875 C 11.5 -9.582031 11.375 -9.726562 11.125 -9.90625 C 10.882812 -10.082031 10.550781 -10.25 10.125 -10.40625 C 9.695312 -10.570312 9.1875 -10.710938 8.59375 -10.828125 C 8.007812 -10.953125 7.375 -11.015625 6.6875 -11.015625 C 6.144531 -11.015625 5.648438 -10.960938 5.203125 -10.859375 C 4.753906 -10.765625 4.363281 -10.617188 4.03125 -10.421875 C 3.707031 -10.222656 3.457031 -9.988281 3.28125 -9.71875 C 3.101562 -9.445312 3.015625 -9.144531 3.015625 -8.8125 C 3.015625 -8.425781 3.128906 -8.125 3.359375 -7.90625 C 3.585938 -7.6875 3.90625 -7.515625 4.3125 -7.390625 C 4.71875 -7.265625 5.203125 -7.175781 5.765625 -7.125 C 6.328125 -7.070312 6.941406 -7.019531 7.609375 -6.96875 C 8.316406 -6.914062 8.992188 -6.84375 9.640625 -6.75 C 10.285156 -6.65625 10.851562 -6.488281 11.34375 -6.25 C 11.84375 -6.019531 12.238281 -5.703125 12.53125 -5.296875 C 12.832031 -4.898438 12.984375 -4.363281 12.984375 -3.6875 C 12.984375 -3.082031 12.84375 -2.539062 12.5625 -2.0625 C 12.28125 -1.582031 11.882812 -1.175781 11.375 -0.84375 C 10.875 -0.519531 10.269531 -0.269531 9.5625 -0.09375 C 8.863281 0.0820312 8.09375 0.171875 7.25 0.171875 C 6.113281 0.171875 5.148438 0.0625 4.359375 -0.15625 C 3.566406 -0.382812 2.914062 -0.628906 2.40625 -0.890625 C 2.207031 -0.992188 2.015625 -1.097656 1.828125 -1.203125 C 1.648438 -1.304688 1.519531 -1.359375 1.4375 -1.359375 C 1.375 -1.359375 1.3125 -1.34375 1.25 -1.3125 C 1.195312 -1.289062 1.132812 -1.222656 1.0625 -1.109375 L 0.84375 -1.21875 L 2.078125 -3.609375 L 2.28125 -3.484375 C 2.25 -3.421875 2.226562 -3.363281 2.21875 -3.3125 C 2.207031 -3.269531 2.203125 -3.226562 2.203125 -3.1875 C 2.203125 -3 2.347656 -2.789062 2.640625 -2.5625 C 2.929688 -2.34375 3.316406 -2.132812 3.796875 -1.9375 C 4.273438 -1.75 4.816406 -1.585938 5.421875 -1.453125 C 6.035156 -1.316406 6.671875 -1.25 7.328125 -1.25 C 8.617188 -1.25 9.628906 -1.457031 10.359375 -1.875 C 11.097656 -2.300781 11.46875 -2.875 11.46875 -3.59375 C 11.46875 -4.03125 11.316406 -4.363281 11.015625 -4.59375 C 10.722656 -4.820312 10.335938 -4.988281 9.859375 -5.09375 C 9.390625 -5.207031 8.859375 -5.28125 8.265625 -5.3125 C 7.671875 -5.351562 7.078125 -5.394531 6.484375 -5.4375 C 5.816406 -5.488281 5.179688 -5.566406 4.578125 -5.671875 C 3.984375 -5.773438 3.457031 -5.945312 3 -6.1875 C 2.539062 -6.425781 2.175781 -6.75 1.90625 -7.15625 C 1.632812 -7.570312 1.5 -8.113281 1.5 -8.78125 C 1.5 -9.3125 1.632812 -9.800781 1.90625 -10.25 C 2.1875 -10.695312 2.570312 -11.082031 3.0625 -11.40625 C 3.5625 -11.726562 4.144531 -11.976562 4.8125 -12.15625 C 5.476562 -12.34375 6.207031 -12.4375 7 -12.4375 Z M 7 -12.4375 "/></g></g></g><g fill="#ffffff" fill-opacity="1"><g transform="translate(619.836513, 74.342859)"><g><path d="M 0.5 -12.796875 L 0.703125 -12.796875 C 0.722656 -12.640625 0.757812 -12.507812 0.8125 -12.40625 C 0.863281 -12.3125 0.984375 -12.265625 1.171875 -12.265625 L 11.90625 -12.265625 C 12.070312 -12.265625 12.1875 -12.300781 12.25 -12.375 C 12.3125 -12.445312 12.359375 -12.585938 12.390625 -12.796875 L 12.59375 -12.796875 L 12.59375 -10.234375 L 12.390625 -10.234375 C 12.367188 -10.429688 12.320312 -10.570312 12.25 -10.65625 C 12.1875 -10.738281 12.078125 -10.78125 11.921875 -10.78125 L 7.40625 -10.78125 L 7.40625 -0.578125 C 7.40625 -0.421875 7.441406 -0.316406 7.515625 -0.265625 C 7.585938 -0.222656 7.734375 -0.203125 7.953125 -0.203125 L 7.953125 0 L 5.15625 0 L 5.15625 -0.203125 C 5.394531 -0.203125 5.539062 -0.226562 5.59375 -0.28125 C 5.65625 -0.34375 5.6875 -0.441406 5.6875 -0.578125 L 5.6875 -10.78125 L 1.203125 -10.78125 C 1.003906 -10.78125 0.878906 -10.738281 0.828125 -10.65625 C 0.785156 -10.570312 0.742188 -10.429688 0.703125 -10.234375 L 0.5 -10.234375 Z M 0.5 -12.796875 "/></g></g></g><g fill="#ffffff" fill-opacity="1"><g transform="translate(637.574298, 74.342859)"><g><path d="M 9.734375 -6.765625 C 10.378906 -6.765625 10.890625 -6.9375 11.265625 -7.28125 C 11.640625 -7.632812 11.828125 -8.164062 11.828125 -8.875 C 11.828125 -9.46875 11.601562 -9.929688 11.15625 -10.265625 C 10.71875 -10.609375 10.144531 -10.78125 9.4375 -10.78125 L 3.8125 -10.78125 L 3.8125 -6.765625 Z M 9.421875 -12.265625 C 10.015625 -12.265625 10.5625 -12.1875 11.0625 -12.03125 C 11.570312 -11.882812 12.007812 -11.660156 12.375 -11.359375 C 12.738281 -11.066406 13.023438 -10.703125 13.234375 -10.265625 C 13.441406 -9.835938 13.546875 -9.347656 13.546875 -8.796875 C 13.546875 -8.296875 13.46875 -7.84375 13.3125 -7.4375 C 13.164062 -7.039062 12.945312 -6.695312 12.65625 -6.40625 C 12.375 -6.125 12.023438 -5.898438 11.609375 -5.734375 C 11.203125 -5.566406 10.742188 -5.476562 10.234375 -5.46875 L 13.265625 -0.5625 C 13.359375 -0.4375 13.441406 -0.347656 13.515625 -0.296875 C 13.585938 -0.242188 13.734375 -0.210938 13.953125 -0.203125 L 13.953125 0 L 10.765625 0 L 10.765625 -0.203125 C 10.984375 -0.210938 11.128906 -0.238281 11.203125 -0.28125 C 11.285156 -0.320312 11.328125 -0.390625 11.328125 -0.484375 C 11.328125 -0.585938 11.28125 -0.710938 11.1875 -0.859375 C 11.101562 -1.003906 10.984375 -1.210938 10.828125 -1.484375 L 8.484375 -5.28125 L 3.8125 -5.28125 L 3.8125 -0.625 C 3.8125 -0.457031 3.835938 -0.34375 3.890625 -0.28125 C 3.953125 -0.226562 4.101562 -0.203125 4.34375 -0.203125 L 4.34375 0 L 1.546875 0 L 1.546875 -0.203125 C 1.785156 -0.203125 1.9375 -0.226562 2 -0.28125 C 2.0625 -0.34375 2.09375 -0.453125 2.09375 -0.609375 L 2.09375 -11.65625 C 2.09375 -11.8125 2.0625 -11.914062 2 -11.96875 C 1.9375 -12.03125 1.785156 -12.0625 1.546875 -12.0625 L 1.546875 -12.265625 Z M 9.421875 -12.265625 "/></g></g></g><g fill="#ffffff" fill-opacity="1"><g transform="translate(657.181648, 74.342859)"><g><path d="M 3.609375 -12.265625 L 3.609375 -12.0625 C 3.378906 -12.050781 3.234375 -12.019531 3.171875 -11.96875 C 3.117188 -11.914062 3.09375 -11.863281 3.09375 -11.8125 C 3.09375 -11.757812 3.125 -11.695312 3.1875 -11.625 C 3.207031 -11.582031 3.3125 -11.441406 3.5 -11.203125 C 3.695312 -10.972656 3.941406 -10.664062 4.234375 -10.28125 C 4.523438 -9.894531 4.882812 -9.414062 5.3125 -8.84375 C 5.75 -8.28125 6.234375 -7.632812 6.765625 -6.90625 C 7.878906 -8.394531 8.722656 -9.519531 9.296875 -10.28125 C 9.867188 -11.039062 10.179688 -11.46875 10.234375 -11.5625 C 10.335938 -11.707031 10.390625 -11.800781 10.390625 -11.84375 C 10.390625 -11.894531 10.367188 -11.941406 10.328125 -11.984375 C 10.285156 -12.023438 10.1875 -12.050781 10.03125 -12.0625 L 10.03125 -12.265625 L 12.796875 -12.265625 L 12.796875 -12.0625 C 12.640625 -12.050781 12.507812 -12.007812 12.40625 -11.9375 C 12.3125 -11.875 12.203125 -11.757812 12.078125 -11.59375 L 7.578125 -5.453125 L 7.578125 -0.59375 C 7.578125 -0.4375 7.609375 -0.332031 7.671875 -0.28125 C 7.734375 -0.226562 7.867188 -0.203125 8.078125 -0.203125 L 8.078125 0 L 5.359375 0 L 5.359375 -0.203125 C 5.566406 -0.203125 5.703125 -0.226562 5.765625 -0.28125 C 5.828125 -0.332031 5.859375 -0.4375 5.859375 -0.59375 L 5.859375 -5.390625 L 1.15625 -11.625 C 1.039062 -11.78125 0.925781 -11.882812 0.8125 -11.9375 C 0.707031 -12 0.535156 -12.039062 0.296875 -12.0625 L 0.296875 -12.265625 Z M 3.609375 -12.265625 "/></g></g></g><g fill="#ffffff" fill-opacity="1"><g transform="translate(674.919433, 74.342859)"><g/></g></g><g fill="#ffffff" fill-opacity="1"><g transform="translate(686.105315, 74.342859)"><g><path d="M 0.5 -12.796875 L 0.703125 -12.796875 C 0.722656 -12.640625 0.757812 -12.507812 0.8125 -12.40625 C 0.863281 -12.3125 0.984375 -12.265625 1.171875 -12.265625 L 11.90625 -12.265625 C 12.070312 -12.265625 12.1875 -12.300781 12.25 -12.375 C 12.3125 -12.445312 12.359375 -12.585938 12.390625 -12.796875 L 12.59375 -12.796875 L 12.59375 -10.234375 L 12.390625 -10.234375 C 12.367188 -10.429688 12.320312 -10.570312 12.25 -10.65625 C 12.1875 -10.738281 12.078125 -10.78125 11.921875 -10.78125 L 7.40625 -10.78125 L 7.40625 -0.578125 C 7.40625 -0.421875 7.441406 -0.316406 7.515625 -0.265625 C 7.585938 -0.222656 7.734375 -0.203125 7.953125 -0.203125 L 7.953125 0 L 5.15625 0 L 5.15625 -0.203125 C 5.394531 -0.203125 5.539062 -0.226562 5.59375 -0.28125 C 5.65625 -0.34375 5.6875 -0.441406 5.6875 -0.578125 L 5.6875 -10.78125 L 1.203125 -10.78125 C 1.003906 -10.78125 0.878906 -10.738281 0.828125 -10.65625 C 0.785156 -10.570312 0.742188 -10.429688 0.703125 -10.234375 L 0.5 -10.234375 Z M 0.5 -12.796875 "/></g></g></g><g fill="#ffffff" fill-opacity="1"><g transform="translate(703.843088, 74.342859)"><g><path d="M 3.609375 -12.265625 L 3.609375 -12.0625 C 3.378906 -12.050781 3.234375 -12.019531 3.171875 -11.96875 C 3.117188 -11.914062 3.09375 -11.863281 3.09375 -11.8125 C 3.09375 -11.757812 3.125 -11.695312 3.1875 -11.625 C 3.207031 -11.582031 3.3125 -11.441406 3.5 -11.203125 C 3.695312 -10.972656 3.941406 -10.664062 4.234375 -10.28125 C 4.523438 -9.894531 4.882812 -9.414062 5.3125 -8.84375 C 5.75 -8.28125 6.234375 -7.632812 6.765625 -6.90625 C 7.878906 -8.394531 8.722656 -9.519531 9.296875 -10.28125 C 9.867188 -11.039062 10.179688 -11.46875 10.234375 -11.5625 C 10.335938 -11.707031 10.390625 -11.800781 10.390625 -11.84375 C 10.390625 -11.894531 10.367188 -11.941406 10.328125 -11.984375 C 10.285156 -12.023438 10.1875 -12.050781 10.03125 -12.0625 L 10.03125 -12.265625 L 12.796875 -12.265625 L 12.796875 -12.0625 C 12.640625 -12.050781 12.507812 -12.007812 12.40625 -11.9375 C 12.3125 -11.875 12.203125 -11.757812 12.078125 -11.59375 L 7.578125 -5.453125 L 7.578125 -0.59375 C 7.578125 -0.4375 7.609375 -0.332031 7.671875 -0.28125 C 7.734375 -0.226562 7.867188 -0.203125 8.078125 -0.203125 L 8.078125 0 L 5.359375 0 L 5.359375 -0.203125 C 5.566406 -0.203125 5.703125 -0.226562 5.765625 -0.28125 C 5.828125 -0.332031 5.859375 -0.4375 5.859375 -0.59375 L 5.859375 -5.390625 L 1.15625 -11.625 C 1.039062 -11.78125 0.925781 -11.882812 0.8125 -11.9375 C 0.707031 -12 0.535156 -12.039062 0.296875 -12.0625 L 0.296875 -12.265625 Z M 3.609375 -12.265625 "/></g></g></g><g fill="#ffffff" fill-opacity="1"><g transform="translate(721.580885, 74.342859)"><g><path d="M 9.21875 -6.90625 C 9.882812 -6.90625 10.410156 -7.054688 10.796875 -7.359375 C 11.191406 -7.660156 11.390625 -8.179688 11.390625 -8.921875 C 11.390625 -9.535156 11.195312 -10 10.8125 -10.3125 C 10.425781 -10.625 9.914062 -10.78125 9.28125 -10.78125 L 3.734375 -10.78125 L 3.734375 -6.90625 Z M 9.28125 -12.265625 C 9.8125 -12.265625 10.304688 -12.191406 10.765625 -12.046875 C 11.234375 -11.898438 11.640625 -11.679688 11.984375 -11.390625 C 12.328125 -11.109375 12.597656 -10.753906 12.796875 -10.328125 C 13.003906 -9.898438 13.109375 -9.410156 13.109375 -8.859375 C 13.109375 -8.316406 13.015625 -7.832031 12.828125 -7.40625 C 12.640625 -6.988281 12.378906 -6.628906 12.046875 -6.328125 C 11.722656 -6.035156 11.320312 -5.8125 10.84375 -5.65625 C 10.375 -5.5 9.851562 -5.421875 9.28125 -5.421875 L 3.734375 -5.421875 L 3.734375 -0.609375 C 3.734375 -0.453125 3.757812 -0.34375 3.8125 -0.28125 C 3.875 -0.226562 4.007812 -0.203125 4.21875 -0.203125 L 4.21875 0 L 1.546875 0 L 1.546875 -0.203125 C 1.742188 -0.203125 1.867188 -0.226562 1.921875 -0.28125 C 1.984375 -0.332031 2.015625 -0.4375 2.015625 -0.59375 L 2.015625 -11.671875 C 2.015625 -11.828125 1.984375 -11.929688 1.921875 -11.984375 C 1.867188 -12.035156 1.742188 -12.0625 1.546875 -12.0625 L 1.546875 -12.265625 Z M 9.28125 -12.265625 "/></g></g></g><g fill="#ffffff" fill-opacity="1"><g transform="translate(740.24504, 74.342859)"><g><path d="M 13 -12.796875 L 13 -10.234375 L 12.796875 -10.234375 C 12.773438 -10.378906 12.738281 -10.503906 12.6875 -10.609375 C 12.632812 -10.722656 12.515625 -10.78125 12.328125 -10.78125 L 3.640625 -10.78125 L 3.640625 -6.90625 L 9.75 -6.90625 C 9.90625 -6.90625 10.015625 -6.941406 10.078125 -7.015625 C 10.140625 -7.097656 10.179688 -7.238281 10.203125 -7.4375 L 10.40625 -7.4375 L 10.40625 -4.8125 L 10.203125 -4.8125 C 10.179688 -5.0625 10.132812 -5.222656 10.0625 -5.296875 C 9.988281 -5.378906 9.878906 -5.421875 9.734375 -5.421875 L 3.640625 -5.421875 L 3.640625 -1.484375 L 12.296875 -1.484375 C 12.460938 -1.484375 12.578125 -1.515625 12.640625 -1.578125 C 12.710938 -1.648438 12.765625 -1.796875 12.796875 -2.015625 L 13 -2.015625 L 13 0.53125 L 12.796875 0.53125 C 12.765625 0.3125 12.710938 0.164062 12.640625 0.09375 C 12.578125 0.03125 12.460938 0 12.296875 0 L 1.421875 0 L 1.421875 -0.203125 C 1.628906 -0.203125 1.765625 -0.226562 1.828125 -0.28125 C 1.890625 -0.332031 1.921875 -0.429688 1.921875 -0.578125 L 1.921875 -11.671875 C 1.921875 -11.828125 1.890625 -11.929688 1.828125 -11.984375 C 1.765625 -12.035156 1.628906 -12.0625 1.421875 -12.0625 L 1.421875 -12.265625 L 12.3125 -12.265625 C 12.476562 -12.265625 12.59375 -12.300781 12.65625 -12.375 C 12.71875 -12.445312 12.765625 -12.585938 12.796875 -12.796875 Z M 13 -12.796875 "/></g></g></g><g clip-path="url(#de5bfecc40)"><g transform="matrix(1, 0, 0, 1, 462, 303)"><g clip-path="url(#c7ff2cf8b7)"><g clip-path="url(#d13b5b736e)"><path fill="#000000" d="M 0.375 0.980469 L 340.621094 0.980469 L 340.621094 35.125 L 0.375 35.125 Z M 0.375 0.980469 " fill-opacity="1" fill-rule="nonzero"/></g></g></g></g><g clip-path="url(#397220feed)"><path stroke-linecap="butt" transform="matrix(0.749615, 0, 0, 0.749615, 462.37528, 303.979823)" fill="none" stroke-linejoin="miter" d="M 0.00483682 0.000861129 L 453.805389 0.000861129 L 453.805389 45.545063 L 0.00483682 45.545063 Z M 0.00483682 0.000861129 " stroke="#000000" stroke-width="6" stroke-opacity="1" stroke-miterlimit="4"/></g><g fill="#ffffff" fill-opacity="1"><g transform="translate(556.842566, 325.699938)"><g><path d="M 4.171875 -12.265625 L 4.171875 -12.0625 C 3.953125 -12.0625 3.804688 -12.035156 3.734375 -11.984375 C 3.671875 -11.929688 3.640625 -11.828125 3.640625 -11.671875 L 3.640625 -6.4375 C 4.898438 -7.4375 6.035156 -8.332031 7.046875 -9.125 C 8.054688 -9.925781 8.878906 -10.570312 9.515625 -11.0625 C 9.703125 -11.207031 9.851562 -11.328125 9.96875 -11.421875 C 10.082031 -11.523438 10.171875 -11.597656 10.234375 -11.640625 C 10.296875 -11.691406 10.332031 -11.734375 10.34375 -11.765625 C 10.363281 -11.796875 10.375 -11.828125 10.375 -11.859375 C 10.375 -11.984375 10.285156 -12.050781 10.109375 -12.0625 L 10.109375 -12.265625 L 13.609375 -12.265625 L 13.609375 -12.0625 C 13.421875 -12.050781 13.25 -11.992188 13.09375 -11.890625 C 12.9375 -11.796875 12.742188 -11.664062 12.515625 -11.5 L 7.640625 -7.8125 L 13.265625 -0.53125 C 13.378906 -0.375 13.46875 -0.28125 13.53125 -0.25 C 13.601562 -0.21875 13.753906 -0.203125 13.984375 -0.203125 L 13.984375 0 L 10.875 0 L 10.875 -0.203125 C 11.144531 -0.203125 11.28125 -0.257812 11.28125 -0.375 C 11.28125 -0.425781 11.242188 -0.5 11.171875 -0.59375 C 11.097656 -0.6875 11.035156 -0.769531 10.984375 -0.84375 L 6.34375 -6.8125 L 3.640625 -4.65625 L 3.640625 -0.59375 C 3.640625 -0.4375 3.671875 -0.332031 3.734375 -0.28125 C 3.804688 -0.226562 3.953125 -0.203125 4.171875 -0.203125 L 4.171875 0 L 1.484375 0 L 1.484375 -0.203125 C 1.660156 -0.203125 1.773438 -0.226562 1.828125 -0.28125 C 1.890625 -0.332031 1.921875 -0.4375 1.921875 -0.59375 L 1.921875 -11.671875 C 1.921875 -11.828125 1.890625 -11.929688 1.828125 -11.984375 C 1.773438 -12.035156 1.660156 -12.0625 1.484375 -12.0625 L 1.484375 -12.265625 Z M 4.171875 -12.265625 "/></g></g></g><g fill="#ffffff" fill-opacity="1"><g transform="translate(575.50672, 325.699938)"><g><path d="M 13 -12.796875 L 13 -10.234375 L 12.796875 -10.234375 C 12.773438 -10.378906 12.738281 -10.503906 12.6875 -10.609375 C 12.632812 -10.722656 12.515625 -10.78125 12.328125 -10.78125 L 3.640625 -10.78125 L 3.640625 -6.90625 L 9.75 -6.90625 C 9.90625 -6.90625 10.015625 -6.941406 10.078125 -7.015625 C 10.140625 -7.097656 10.179688 -7.238281 10.203125 -7.4375 L 10.40625 -7.4375 L 10.40625 -4.8125 L 10.203125 -4.8125 C 10.179688 -5.0625 10.132812 -5.222656 10.0625 -5.296875 C 9.988281 -5.378906 9.878906 -5.421875 9.734375 -5.421875 L 3.640625 -5.421875 L 3.640625 -1.484375 L 12.296875 -1.484375 C 12.460938 -1.484375 12.578125 -1.515625 12.640625 -1.578125 C 12.710938 -1.648438 12.765625 -1.796875 12.796875 -2.015625 L 13 -2.015625 L 13 0.53125 L 12.796875 0.53125 C 12.765625 0.3125 12.710938 0.164062 12.640625 0.09375 C 12.578125 0.03125 12.460938 0 12.296875 0 L 1.421875 0 L 1.421875 -0.203125 C 1.628906 -0.203125 1.765625 -0.226562 1.828125 -0.28125 C 1.890625 -0.332031 1.921875 -0.429688 1.921875 -0.578125 L 1.921875 -11.671875 C 1.921875 -11.828125 1.890625 -11.929688 1.828125 -11.984375 C 1.765625 -12.035156 1.628906 -12.0625 1.421875 -12.0625 L 1.421875 -12.265625 L 12.3125 -12.265625 C 12.476562 -12.265625 12.59375 -12.300781 12.65625 -12.375 C 12.71875 -12.445312 12.765625 -12.585938 12.796875 -12.796875 Z M 13 -12.796875 "/></g></g></g><g fill="#ffffff" fill-opacity="1"><g transform="translate(594.170875, 325.699938)"><g><path d="M 3.609375 -12.265625 L 3.609375 -12.0625 C 3.378906 -12.050781 3.234375 -12.019531 3.171875 -11.96875 C 3.117188 -11.914062 3.09375 -11.863281 3.09375 -11.8125 C 3.09375 -11.757812 3.125 -11.695312 3.1875 -11.625 C 3.207031 -11.582031 3.3125 -11.441406 3.5 -11.203125 C 3.695312 -10.972656 3.941406 -10.664062 4.234375 -10.28125 C 4.523438 -9.894531 4.882812 -9.414062 5.3125 -8.84375 C 5.75 -8.28125 6.234375 -7.632812 6.765625 -6.90625 C 7.878906 -8.394531 8.722656 -9.519531 9.296875 -10.28125 C 9.867188 -11.039062 10.179688 -11.46875 10.234375 -11.5625 C 10.335938 -11.707031 10.390625 -11.800781 10.390625 -11.84375 C 10.390625 -11.894531 10.367188 -11.941406 10.328125 -11.984375 C 10.285156 -12.023438 10.1875 -12.050781 10.03125 -12.0625 L 10.03125 -12.265625 L 12.796875 -12.265625 L 12.796875 -12.0625 C 12.640625 -12.050781 12.507812 -12.007812 12.40625 -11.9375 C 12.3125 -11.875 12.203125 -11.757812 12.078125 -11.59375 L 7.578125 -5.453125 L 7.578125 -0.59375 C 7.578125 -0.4375 7.609375 -0.332031 7.671875 -0.28125 C 7.734375 -0.226562 7.867188 -0.203125 8.078125 -0.203125 L 8.078125 0 L 5.359375 0 L 5.359375 -0.203125 C 5.566406 -0.203125 5.703125 -0.226562 5.765625 -0.28125 C 5.828125 -0.332031 5.859375 -0.4375 5.859375 -0.59375 L 5.859375 -5.390625 L 1.15625 -11.625 C 1.039062 -11.78125 0.925781 -11.882812 0.8125 -11.9375 C 0.707031 -12 0.535156 -12.039062 0.296875 -12.0625 L 0.296875 -12.265625 Z M 3.609375 -12.265625 "/></g></g></g><g fill="#ffffff" fill-opacity="1"><g transform="translate(611.90866, 325.699938)"><g><path d="M 2.578125 -12.265625 L 2.578125 -12.0625 C 2.484375 -12.050781 2.40625 -12.023438 2.34375 -11.984375 C 2.28125 -11.941406 2.25 -11.890625 2.25 -11.828125 C 2.25 -11.773438 2.265625 -11.695312 2.296875 -11.59375 C 2.328125 -11.5 2.363281 -11.375 2.40625 -11.21875 C 2.8125 -9.800781 3.207031 -8.378906 3.59375 -6.953125 C 3.988281 -5.523438 4.378906 -4.125 4.765625 -2.75 L 4.796875 -2.75 L 7.1875 -10.890625 C 7.351562 -11.460938 7.4375 -11.789062 7.4375 -11.875 C 7.4375 -11.925781 7.410156 -11.960938 7.359375 -11.984375 C 7.316406 -12.015625 7.226562 -12.039062 7.09375 -12.0625 L 7.09375 -12.265625 L 9.8125 -12.265625 L 9.8125 -12.0625 C 9.71875 -12.050781 9.632812 -12.023438 9.5625 -11.984375 C 9.5 -11.953125 9.46875 -11.894531 9.46875 -11.8125 C 9.46875 -11.757812 9.5 -11.617188 9.5625 -11.390625 C 9.582031 -11.304688 9.8125 -10.546875 10.25 -9.109375 C 10.695312 -7.679688 11.34375 -5.554688 12.1875 -2.734375 L 12.234375 -2.734375 C 12.265625 -2.847656 12.382812 -3.285156 12.59375 -4.046875 C 12.8125 -4.804688 13.128906 -5.90625 13.546875 -7.34375 C 13.953125 -8.757812 14.253906 -9.832031 14.453125 -10.5625 C 14.660156 -11.289062 14.765625 -11.703125 14.765625 -11.796875 C 14.765625 -11.941406 14.644531 -12.03125 14.40625 -12.0625 L 14.40625 -12.265625 L 16.65625 -12.265625 L 16.65625 -12.0625 C 16.539062 -12.0625 16.453125 -12.03125 16.390625 -11.96875 C 16.335938 -11.90625 16.269531 -11.742188 16.1875 -11.484375 L 13.203125 -0.953125 C 13.160156 -0.804688 13.125 -0.691406 13.09375 -0.609375 C 13.0625 -0.523438 13.046875 -0.460938 13.046875 -0.421875 C 13.046875 -0.367188 13.066406 -0.316406 13.109375 -0.265625 C 13.160156 -0.222656 13.265625 -0.203125 13.421875 -0.203125 L 13.421875 0 L 10.9375 0 L 10.9375 -0.203125 C 11.15625 -0.203125 11.265625 -0.273438 11.265625 -0.421875 C 11.265625 -0.484375 11.242188 -0.585938 11.203125 -0.734375 C 11.171875 -0.878906 11.117188 -1.066406 11.046875 -1.296875 L 8.40625 -10.03125 L 8.375 -10.03125 L 5.75 -0.921875 C 5.695312 -0.765625 5.660156 -0.65625 5.640625 -0.59375 C 5.628906 -0.53125 5.625 -0.472656 5.625 -0.421875 C 5.625 -0.273438 5.734375 -0.203125 5.953125 -0.203125 L 5.953125 0 L 3.421875 0 L 3.421875 -0.203125 C 3.597656 -0.203125 3.707031 -0.21875 3.75 -0.25 C 3.789062 -0.289062 3.8125 -0.335938 3.8125 -0.390625 C 3.8125 -0.453125 3.796875 -0.53125 3.765625 -0.625 C 3.742188 -0.726562 3.722656 -0.8125 3.703125 -0.875 L 0.578125 -11.8125 C 0.523438 -11.976562 0.394531 -12.0625 0.1875 -12.0625 L 0.1875 -12.265625 Z M 2.578125 -12.265625 "/></g></g></g><g fill="#ffffff" fill-opacity="1"><g transform="translate(633.385588, 325.699938)"><g><path d="M 2.6875 -6.125 C 2.6875 -5.34375 2.820312 -4.648438 3.09375 -4.046875 C 3.375 -3.441406 3.753906 -2.929688 4.234375 -2.515625 C 4.710938 -2.097656 5.269531 -1.78125 5.90625 -1.5625 C 6.539062 -1.351562 7.222656 -1.25 7.953125 -1.25 C 8.671875 -1.25 9.347656 -1.351562 9.984375 -1.5625 C 10.617188 -1.769531 11.171875 -2.078125 11.640625 -2.484375 C 12.117188 -2.898438 12.5 -3.410156 12.78125 -4.015625 C 13.0625 -4.628906 13.203125 -5.332031 13.203125 -6.125 C 13.203125 -6.882812 13.066406 -7.566406 12.796875 -8.171875 C 12.535156 -8.773438 12.171875 -9.285156 11.703125 -9.703125 C 11.242188 -10.128906 10.691406 -10.453125 10.046875 -10.671875 C 9.398438 -10.898438 8.695312 -11.015625 7.9375 -11.015625 C 7.226562 -11.015625 6.554688 -10.910156 5.921875 -10.703125 C 5.285156 -10.492188 4.726562 -10.179688 4.25 -9.765625 C 3.769531 -9.347656 3.390625 -8.835938 3.109375 -8.234375 C 2.828125 -7.628906 2.6875 -6.925781 2.6875 -6.125 Z M 7.953125 -12.4375 C 8.859375 -12.4375 9.734375 -12.296875 10.578125 -12.015625 C 11.421875 -11.734375 12.164062 -11.320312 12.8125 -10.78125 C 13.457031 -10.238281 13.96875 -9.570312 14.34375 -8.78125 C 14.726562 -7.988281 14.921875 -7.085938 14.921875 -6.078125 C 14.921875 -5.140625 14.738281 -4.285156 14.375 -3.515625 C 14.007812 -2.753906 13.507812 -2.097656 12.875 -1.546875 C 12.238281 -0.992188 11.503906 -0.566406 10.671875 -0.265625 C 9.835938 0.0234375 8.945312 0.171875 8 0.171875 C 7.039062 0.171875 6.140625 0.03125 5.296875 -0.25 C 4.453125 -0.539062 3.707031 -0.957031 3.0625 -1.5 C 2.425781 -2.050781 1.921875 -2.71875 1.546875 -3.5 C 1.171875 -4.28125 0.984375 -5.160156 0.984375 -6.140625 C 0.984375 -7.097656 1.164062 -7.960938 1.53125 -8.734375 C 1.90625 -9.515625 2.40625 -10.179688 3.03125 -10.734375 C 3.664062 -11.285156 4.40625 -11.707031 5.25 -12 C 6.09375 -12.289062 6.992188 -12.4375 7.953125 -12.4375 Z M 7.953125 -12.4375 "/></g></g></g><g fill="#ffffff" fill-opacity="1"><g transform="translate(653.919308, 325.699938)"><g><path d="M 9.734375 -6.765625 C 10.378906 -6.765625 10.890625 -6.9375 11.265625 -7.28125 C 11.640625 -7.632812 11.828125 -8.164062 11.828125 -8.875 C 11.828125 -9.46875 11.601562 -9.929688 11.15625 -10.265625 C 10.71875 -10.609375 10.144531 -10.78125 9.4375 -10.78125 L 3.8125 -10.78125 L 3.8125 -6.765625 Z M 9.421875 -12.265625 C 10.015625 -12.265625 10.5625 -12.1875 11.0625 -12.03125 C 11.570312 -11.882812 12.007812 -11.660156 12.375 -11.359375 C 12.738281 -11.066406 13.023438 -10.703125 13.234375 -10.265625 C 13.441406 -9.835938 13.546875 -9.347656 13.546875 -8.796875 C 13.546875 -8.296875 13.46875 -7.84375 13.3125 -7.4375 C 13.164062 -7.039062 12.945312 -6.695312 12.65625 -6.40625 C 12.375 -6.125 12.023438 -5.898438 11.609375 -5.734375 C 11.203125 -5.566406 10.742188 -5.476562 10.234375 -5.46875 L 13.265625 -0.5625 C 13.359375 -0.4375 13.441406 -0.347656 13.515625 -0.296875 C 13.585938 -0.242188 13.734375 -0.210938 13.953125 -0.203125 L 13.953125 0 L 10.765625 0 L 10.765625 -0.203125 C 10.984375 -0.210938 11.128906 -0.238281 11.203125 -0.28125 C 11.285156 -0.320312 11.328125 -0.390625 11.328125 -0.484375 C 11.328125 -0.585938 11.28125 -0.710938 11.1875 -0.859375 C 11.101562 -1.003906 10.984375 -1.210938 10.828125 -1.484375 L 8.484375 -5.28125 L 3.8125 -5.28125 L 3.8125 -0.625 C 3.8125 -0.457031 3.835938 -0.34375 3.890625 -0.28125 C 3.953125 -0.226562 4.101562 -0.203125 4.34375 -0.203125 L 4.34375 0 L 1.546875 0 L 1.546875 -0.203125 C 1.785156 -0.203125 1.9375 -0.226562 2 -0.28125 C 2.0625 -0.34375 2.09375 -0.453125 2.09375 -0.609375 L 2.09375 -11.65625 C 2.09375 -11.8125 2.0625 -11.914062 2 -11.96875 C 1.9375 -12.03125 1.785156 -12.0625 1.546875 -12.0625 L 1.546875 -12.265625 Z M 9.421875 -12.265625 "/></g></g></g><g fill="#ffffff" fill-opacity="1"><g transform="translate(673.526659, 325.699938)"><g><path d="M 9.078125 -1.484375 C 9.679688 -1.484375 10.234375 -1.585938 10.734375 -1.796875 C 11.234375 -2.003906 11.660156 -2.300781 12.015625 -2.6875 C 12.367188 -3.082031 12.644531 -3.566406 12.84375 -4.140625 C 13.039062 -4.722656 13.140625 -5.382812 13.140625 -6.125 C 13.140625 -6.945312 13.023438 -7.648438 12.796875 -8.234375 C 12.578125 -8.828125 12.28125 -9.3125 11.90625 -9.6875 C 11.539062 -10.070312 11.117188 -10.347656 10.640625 -10.515625 C 10.160156 -10.691406 9.660156 -10.78125 9.140625 -10.78125 L 3.671875 -10.78125 L 3.671875 -1.484375 Z M 9.109375 -12.265625 C 9.878906 -12.265625 10.609375 -12.140625 11.296875 -11.890625 C 11.984375 -11.648438 12.585938 -11.28125 13.109375 -10.78125 C 13.640625 -10.28125 14.0625 -9.644531 14.375 -8.875 C 14.695312 -8.101562 14.859375 -7.1875 14.859375 -6.125 C 14.859375 -5.0625 14.695312 -4.144531 14.375 -3.375 C 14.0625 -2.601562 13.640625 -1.96875 13.109375 -1.46875 C 12.585938 -0.96875 11.984375 -0.597656 11.296875 -0.359375 C 10.609375 -0.117188 9.890625 0 9.140625 0 L 1.484375 0 L 1.484375 -0.203125 C 1.671875 -0.203125 1.796875 -0.226562 1.859375 -0.28125 C 1.921875 -0.332031 1.953125 -0.4375 1.953125 -0.59375 L 1.953125 -11.671875 C 1.953125 -11.828125 1.921875 -11.929688 1.859375 -11.984375 C 1.796875 -12.035156 1.671875 -12.0625 1.484375 -12.0625 L 1.484375 -12.265625 Z M 9.109375 -12.265625 "/></g></g></g><g fill="#ffffff" fill-opacity="1"><g transform="translate(694.060379, 325.699938)"><g><path d="M 7 -12.4375 C 7.976562 -12.4375 8.820312 -12.335938 9.53125 -12.140625 C 10.238281 -11.941406 10.816406 -11.753906 11.265625 -11.578125 C 11.492188 -11.484375 11.6875 -11.398438 11.84375 -11.328125 C 12 -11.253906 12.109375 -11.21875 12.171875 -11.21875 C 12.253906 -11.21875 12.378906 -11.285156 12.546875 -11.421875 L 12.75 -11.359375 L 11.703125 -9.15625 L 11.484375 -9.265625 C 11.484375 -9.285156 11.484375 -9.3125 11.484375 -9.34375 C 11.492188 -9.382812 11.5 -9.425781 11.5 -9.46875 C 11.5 -9.582031 11.375 -9.726562 11.125 -9.90625 C 10.882812 -10.082031 10.550781 -10.25 10.125 -10.40625 C 9.695312 -10.570312 9.1875 -10.710938 8.59375 -10.828125 C 8.007812 -10.953125 7.375 -11.015625 6.6875 -11.015625 C 6.144531 -11.015625 5.648438 -10.960938 5.203125 -10.859375 C 4.753906 -10.765625 4.363281 -10.617188 4.03125 -10.421875 C 3.707031 -10.222656 3.457031 -9.988281 3.28125 -9.71875 C 3.101562 -9.445312 3.015625 -9.144531 3.015625 -8.8125 C 3.015625 -8.425781 3.128906 -8.125 3.359375 -7.90625 C 3.585938 -7.6875 3.90625 -7.515625 4.3125 -7.390625 C 4.71875 -7.265625 5.203125 -7.175781 5.765625 -7.125 C 6.328125 -7.070312 6.941406 -7.019531 7.609375 -6.96875 C 8.316406 -6.914062 8.992188 -6.84375 9.640625 -6.75 C 10.285156 -6.65625 10.851562 -6.488281 11.34375 -6.25 C 11.84375 -6.019531 12.238281 -5.703125 12.53125 -5.296875 C 12.832031 -4.898438 12.984375 -4.363281 12.984375 -3.6875 C 12.984375 -3.082031 12.84375 -2.539062 12.5625 -2.0625 C 12.28125 -1.582031 11.882812 -1.175781 11.375 -0.84375 C 10.875 -0.519531 10.269531 -0.269531 9.5625 -0.09375 C 8.863281 0.0820312 8.09375 0.171875 7.25 0.171875 C 6.113281 0.171875 5.148438 0.0625 4.359375 -0.15625 C 3.566406 -0.382812 2.914062 -0.628906 2.40625 -0.890625 C 2.207031 -0.992188 2.015625 -1.097656 1.828125 -1.203125 C 1.648438 -1.304688 1.519531 -1.359375 1.4375 -1.359375 C 1.375 -1.359375 1.3125 -1.34375 1.25 -1.3125 C 1.195312 -1.289062 1.132812 -1.222656 1.0625 -1.109375 L 0.84375 -1.21875 L 2.078125 -3.609375 L 2.28125 -3.484375 C 2.25 -3.421875 2.226562 -3.363281 2.21875 -3.3125 C 2.207031 -3.269531 2.203125 -3.226562 2.203125 -3.1875 C 2.203125 -3 2.347656 -2.789062 2.640625 -2.5625 C 2.929688 -2.34375 3.316406 -2.132812 3.796875 -1.9375 C 4.273438 -1.75 4.816406 -1.585938 5.421875 -1.453125 C 6.035156 -1.316406 6.671875 -1.25 7.328125 -1.25 C 8.617188 -1.25 9.628906 -1.457031 10.359375 -1.875 C 11.097656 -2.300781 11.46875 -2.875 11.46875 -3.59375 C 11.46875 -4.03125 11.316406 -4.363281 11.015625 -4.59375 C 10.722656 -4.820312 10.335938 -4.988281 9.859375 -5.09375 C 9.390625 -5.207031 8.859375 -5.28125 8.265625 -5.3125 C 7.671875 -5.351562 7.078125 -5.394531 6.484375 -5.4375 C 5.816406 -5.488281 5.179688 -5.566406 4.578125 -5.671875 C 3.984375 -5.773438 3.457031 -5.945312 3 -6.1875 C 2.539062 -6.425781 2.175781 -6.75 1.90625 -7.15625 C 1.632812 -7.570312 1.5 -8.113281 1.5 -8.78125 C 1.5 -9.3125 1.632812 -9.800781 1.90625 -10.25 C 2.1875 -10.695312 2.570312 -11.082031 3.0625 -11.40625 C 3.5625 -11.726562 4.144531 -11.976562 4.8125 -12.15625 C 5.476562 -12.34375 6.207031 -12.4375 7 -12.4375 Z M 7 -12.4375 "/></g></g></g></g></g></g></svg>